<?xml version="1.0" encoding="UTF-8" standalone="no"?>
<!DOCTYPE svg PUBLIC "-//W3C//DTD SVG 1.1//EN"
 "http://www.w3.org/Graphics/SVG/1.1/DTD/svg11.dtd">
<!-- Generated by graphviz version 2.40.1 (20161225.0304)
 -->
<!-- Title: dependencies Pages: 1 -->
<svg width="1001pt" height="284pt"
 viewBox="0.00 0.00 1001.00 284.00" xmlns="http://www.w3.org/2000/svg" xmlns:xlink="http://www.w3.org/1999/xlink">
<g id="graph0" class="graph" transform="scale(1 1) rotate(0) translate(4 280)">
<title>dependencies</title>
<polygon fill="#ffffff" stroke="transparent" points="-4,4 -4,-280 997,-280 997,4 -4,4"/>
<text text-anchor="start" x="475.5091" y="-42.4" font-family="sans-serif" font-weight="bold" font-size="14.00" fill="#000000">Legend</text>
<polygon fill="#ffffb3" stroke="transparent" points="262.5,-10 262.5,-30 282.5,-30 282.5,-10 262.5,-10"/>
<text text-anchor="start" x="286.129" y="-15.4" font-family="sans-serif" font-size="14.00" fill="#000000"> &#160;Declarations</text>
<polygon fill="#8dd3c7" stroke="transparent" points="375.5,-10 375.5,-30 395.5,-30 395.5,-10 375.5,-10"/>
<text text-anchor="start" x="399.2251" y="-15.4" font-family="sans-serif" font-size="14.00" fill="#000000"> &#160;Module</text>
<polygon fill="#80b1d3" stroke="transparent" points="461.5,-10 461.5,-30 481.5,-30 481.5,-10 461.5,-10"/>
<text text-anchor="start" x="485.2812" y="-15.4" font-family="sans-serif" font-size="14.00" fill="#000000"> &#160;Bootstrap</text>
<polygon fill="#fdb462" stroke="transparent" points="558.5,-10 558.5,-30 578.5,-30 578.5,-10 558.5,-10"/>
<text text-anchor="start" x="582.1732" y="-15.4" font-family="sans-serif" font-size="14.00" fill="#000000"> &#160;Providers</text>
<polygon fill="#fb8072" stroke="transparent" points="654.5,-10 654.5,-30 674.5,-30 674.5,-10 654.5,-10"/>
<text text-anchor="start" x="678.2258" y="-15.4" font-family="sans-serif" font-size="14.00" fill="#000000"> &#160;Exports</text>
<g id="clust1" class="cluster">
<title>cluster_FieldSetupModule</title>
<polygon fill="none" stroke="#000000" stroke-dasharray="1,5" points="8,-70 8,-268 985,-268 985,-70 8,-70"/>
</g>
<g id="clust2" class="cluster">
<title>cluster_FieldSetupModule_declarations</title>
<polygon fill="none" stroke="#000000" points="204,-78 204,-130 977,-130 977,-78 204,-78"/>
</g>
<g id="clust8" class="cluster">
<title>cluster_FieldSetupModule_exports</title>
<polygon fill="none" stroke="#000000" points="421,-208 421,-260 583,-260 583,-208 421,-208"/>
</g>
<g id="clust10" class="cluster">
<title>cluster_FieldSetupModule_providers</title>
<polygon fill="none" stroke="#000000" points="16,-78 16,-130 196,-130 196,-78 16,-78"/>
</g>
<!-- FovParametersComponent -->
<g id="node1" class="node">
<title>FovParametersComponent</title>
<polygon fill="#ffffb3" stroke="#000000" points="968.8033,-122 803.1967,-122 803.1967,-86 968.8033,-86 968.8033,-122"/>
<text text-anchor="middle" x="886" y="-99.8" font-family="Times,serif" font-size="14.00" fill="#000000">FovParametersComponent</text>
</g>
<!-- FieldSetupModule -->
<g id="node5" class="node">
<title>FieldSetupModule</title>
<polygon fill="#8dd3c7" stroke="#000000" points="562.2162,-187 559.2162,-191 538.2162,-191 535.2162,-187 441.7838,-187 441.7838,-151 562.2162,-151 562.2162,-187"/>
<text text-anchor="middle" x="502" y="-164.8" font-family="Times,serif" font-size="14.00" fill="#000000">FieldSetupModule</text>
</g>
<!-- FovParametersComponent&#45;&gt;FieldSetupModule -->
<g id="edge1" class="edge">
<title>FovParametersComponent&#45;&gt;FieldSetupModule</title>
<path fill="none" stroke="#000000" d="M886,-122.2843C886,-143.3211 886,-175 886,-175 886,-175 572.4224,-175 572.4224,-175"/>
<polygon fill="#000000" stroke="#000000" points="572.4225,-171.5001 562.4224,-175 572.4224,-178.5001 572.4225,-171.5001"/>
</g>
<!-- ImageQueryComponent -->
<g id="node2" class="node">
<title>ImageQueryComponent</title>
<polygon fill="#ffffb3" stroke="#000000" points="785.7949,-122 634.2051,-122 634.2051,-86 785.7949,-86 785.7949,-122"/>
<text text-anchor="middle" x="710" y="-99.8" font-family="Times,serif" font-size="14.00" fill="#000000">ImageQueryComponent</text>
</g>
<!-- ImageQueryComponent&#45;&gt;FieldSetupModule -->
<g id="edge2" class="edge">
<title>ImageQueryComponent&#45;&gt;FieldSetupModule</title>
<path fill="none" stroke="#000000" d="M710,-122.0225C710,-139.3734 710,-163 710,-163 710,-163 572.1622,-163 572.1622,-163"/>
<polygon fill="#000000" stroke="#000000" points="572.1623,-159.5001 562.1622,-163 572.1622,-166.5001 572.1623,-159.5001"/>
</g>
<!-- SourceExpectedPropertiesComponent -->
<g id="node3" class="node">
<title>SourceExpectedPropertiesComponent</title>
<polygon fill="#ffffb3" stroke="#000000" points="616.5506,-122 387.4494,-122 387.4494,-86 616.5506,-86 616.5506,-122"/>
<text text-anchor="middle" x="502" y="-99.8" font-family="Times,serif" font-size="14.00" fill="#000000">SourceExpectedPropertiesComponent</text>
</g>
<!-- SourceExpectedPropertiesComponent&#45;&gt;FieldSetupModule -->
<g id="edge3" class="edge">
<title>SourceExpectedPropertiesComponent&#45;&gt;FieldSetupModule</title>
<path fill="none" stroke="#000000" d="M502,-122.1061C502,-122.1061 502,-140.991 502,-140.991"/>
<polygon fill="#000000" stroke="#000000" points="498.5001,-140.9909 502,-150.991 505.5001,-140.991 498.5001,-140.9909"/>
</g>
<!-- SpacialImageComponent -->
<g id="node4" class="node">
<title>SpacialImageComponent</title>
<polygon fill="#ffffb3" stroke="#000000" points="369.5211,-122 212.4789,-122 212.4789,-86 369.5211,-86 369.5211,-122"/>
<text text-anchor="middle" x="291" y="-99.8" font-family="Times,serif" font-size="14.00" fill="#000000">SpacialImageComponent</text>
</g>
<!-- SpacialImageComponent&#45;&gt;FieldSetupModule -->
<g id="edge4" class="edge">
<title>SpacialImageComponent&#45;&gt;FieldSetupModule</title>
<path fill="none" stroke="#000000" d="M291,-122.0225C291,-139.3734 291,-163 291,-163 291,-163 431.8182,-163 431.8182,-163"/>
<polygon fill="#000000" stroke="#000000" points="431.8183,-166.5001 441.8182,-163 431.8182,-159.5001 431.8183,-166.5001"/>
</g>
<!-- FieldSetupComponent  -->
<g id="node6" class="node">
<title>FieldSetupComponent </title>
<polygon fill="#fb8072" stroke="#000000" points="574.9995,-252 429.0005,-252 429.0005,-216 574.9995,-216 574.9995,-252"/>
<text text-anchor="middle" x="502" y="-229.8" font-family="Times,serif" font-size="14.00" fill="#000000">FieldSetupComponent </text>
</g>
<!-- FieldSetupModule&#45;&gt;FieldSetupComponent  -->
<g id="edge5" class="edge">
<title>FieldSetupModule&#45;&gt;FieldSetupComponent </title>
<path fill="none" stroke="#000000" stroke-dasharray="5,2" d="M502,-187.1061C502,-187.1061 502,-205.991 502,-205.991"/>
<polygon fill="#000000" stroke="#000000" points="498.5001,-205.9909 502,-215.991 505.5001,-205.991 498.5001,-205.9909"/>
</g>
<!-- FieldSetupService -->
<g id="node7" class="node">
<title>FieldSetupService</title>
<ellipse fill="#fdb462" stroke="#000000" cx="106" cy="-104" rx="81.677" ry="18"/>
<text text-anchor="middle" x="106" y="-99.8" font-family="Times,serif" font-size="14.00" fill="#000000">FieldSetupService</text>
</g>
<!-- FieldSetupService&#45;&gt;FieldSetupModule -->
<g id="edge6" class="edge">
<title>FieldSetupService&#45;&gt;FieldSetupModule</title>
<path fill="none" stroke="#000000" d="M106,-122.2843C106,-143.3211 106,-175 106,-175 106,-175 431.8561,-175 431.8561,-175"/>
<polygon fill="#000000" stroke="#000000" points="431.8562,-178.5001 441.8561,-175 431.8561,-171.5001 431.8562,-178.5001"/>
</g>
</g>
</svg>
