<?xml version="1.0" encoding="UTF-8" standalone="no"?>
<!DOCTYPE svg PUBLIC "-//W3C//DTD SVG 1.1//EN"
 "http://www.w3.org/Graphics/SVG/1.1/DTD/svg11.dtd">
<!-- Generated by graphviz version 2.40.1 (20161225.0304)
 -->
<!-- Title: dependencies Pages: 1 -->
<svg width="1446pt" height="284pt"
 viewBox="0.00 0.00 1446.00 284.00" xmlns="http://www.w3.org/2000/svg" xmlns:xlink="http://www.w3.org/1999/xlink">
<g id="graph0" class="graph" transform="scale(1 1) rotate(0) translate(4 280)">
<title>dependencies</title>
<polygon fill="#ffffff" stroke="transparent" points="-4,4 -4,-280 1442,-280 1442,4 -4,4"/>
<text text-anchor="start" x="698.0091" y="-42.4" font-family="sans-serif" font-weight="bold" font-size="14.00" fill="#000000">Legend</text>
<polygon fill="#ffffb3" stroke="transparent" points="485,-10 485,-30 505,-30 505,-10 485,-10"/>
<text text-anchor="start" x="508.629" y="-15.4" font-family="sans-serif" font-size="14.00" fill="#000000"> &#160;Declarations</text>
<polygon fill="#8dd3c7" stroke="transparent" points="598,-10 598,-30 618,-30 618,-10 598,-10"/>
<text text-anchor="start" x="621.7251" y="-15.4" font-family="sans-serif" font-size="14.00" fill="#000000"> &#160;Module</text>
<polygon fill="#80b1d3" stroke="transparent" points="684,-10 684,-30 704,-30 704,-10 684,-10"/>
<text text-anchor="start" x="707.7812" y="-15.4" font-family="sans-serif" font-size="14.00" fill="#000000"> &#160;Bootstrap</text>
<polygon fill="#fdb462" stroke="transparent" points="781,-10 781,-30 801,-30 801,-10 781,-10"/>
<text text-anchor="start" x="804.6732" y="-15.4" font-family="sans-serif" font-size="14.00" fill="#000000"> &#160;Providers</text>
<polygon fill="#fb8072" stroke="transparent" points="877,-10 877,-30 897,-30 897,-10 877,-10"/>
<text text-anchor="start" x="900.7258" y="-15.4" font-family="sans-serif" font-size="14.00" fill="#000000"> &#160;Exports</text>
<g id="clust1" class="cluster">
<title>cluster_FieldSetupModule</title>
<polygon fill="none" stroke="#000000" stroke-dasharray="1,5" points="8,-70 8,-268 1430,-268 1430,-70 8,-70"/>
</g>
<g id="clust2" class="cluster">
<title>cluster_FieldSetupModule_declarations</title>
<polygon fill="none" stroke="#000000" points="350,-78 350,-130 1422,-130 1422,-78 350,-78"/>
</g>
<g id="clust9" class="cluster">
<title>cluster_FieldSetupModule_imports</title>
<polygon fill="none" stroke="#000000" points="16,-78 16,-130 342,-130 342,-78 16,-78"/>
</g>
<g id="clust10" class="cluster">
<title>cluster_FieldSetupModule_exports</title>
<polygon fill="none" stroke="#000000" points="609,-208 609,-260 771,-260 771,-208 609,-208"/>
</g>
<!-- FieldSetupComponent -->
<g id="node1" class="node">
<title>FieldSetupComponent</title>
<polygon fill="#ffffb3" stroke="#000000" points="1413.9986,-122 1272.0014,-122 1272.0014,-86 1413.9986,-86 1413.9986,-122"/>
<text text-anchor="middle" x="1343" y="-99.8" font-family="Times,serif" font-size="14.00" fill="#000000">FieldSetupComponent</text>
</g>
<!-- FieldSetupModule -->
<g id="node7" class="node">
<title>FieldSetupModule</title>
<polygon fill="#8dd3c7" stroke="#000000" points="750.2162,-187 747.2162,-191 726.2162,-191 723.2162,-187 629.7838,-187 629.7838,-151 750.2162,-151 750.2162,-187"/>
<text text-anchor="middle" x="690" y="-164.8" font-family="Times,serif" font-size="14.00" fill="#000000">FieldSetupModule</text>
</g>
<!-- FieldSetupComponent&#45;&gt;FieldSetupModule -->
<g id="edge1" class="edge">
<title>FieldSetupComponent&#45;&gt;FieldSetupModule</title>
<path fill="none" stroke="#000000" d="M1343,-122.2921C1343,-144.2057 1343,-178 1343,-178 1343,-178 760.2622,-178 760.2622,-178"/>
<polygon fill="#000000" stroke="#000000" points="760.2622,-174.5001 750.2622,-178 760.2622,-181.5001 760.2622,-174.5001"/>
</g>
<!-- FovParametersComponent -->
<g id="node2" class="node">
<title>FovParametersComponent</title>
<polygon fill="#ffffb3" stroke="#000000" points="1253.8033,-122 1088.1967,-122 1088.1967,-86 1253.8033,-86 1253.8033,-122"/>
<text text-anchor="middle" x="1171" y="-99.8" font-family="Times,serif" font-size="14.00" fill="#000000">FovParametersComponent</text>
</g>
<!-- FovParametersComponent&#45;&gt;FieldSetupModule -->
<g id="edge2" class="edge">
<title>FovParametersComponent&#45;&gt;FieldSetupModule</title>
<path fill="none" stroke="#000000" d="M1171,-122.1061C1171,-141.3391 1171,-169 1171,-169 1171,-169 760.4319,-169 760.4319,-169"/>
<polygon fill="#000000" stroke="#000000" points="760.432,-165.5001 750.4319,-169 760.4319,-172.5001 760.432,-165.5001"/>
</g>
<!-- ImageQueryComponent -->
<g id="node3" class="node">
<title>ImageQueryComponent</title>
<polygon fill="#ffffb3" stroke="#000000" points="1070.7949,-122 919.2051,-122 919.2051,-86 1070.7949,-86 1070.7949,-122"/>
<text text-anchor="middle" x="995" y="-99.8" font-family="Times,serif" font-size="14.00" fill="#000000">ImageQueryComponent</text>
</g>
<!-- ImageQueryComponent&#45;&gt;FieldSetupModule -->
<g id="edge3" class="edge">
<title>ImageQueryComponent&#45;&gt;FieldSetupModule</title>
<path fill="none" stroke="#000000" d="M995,-122.027C995,-138.3976 995,-160 995,-160 995,-160 760.2582,-160 760.2582,-160"/>
<polygon fill="#000000" stroke="#000000" points="760.2582,-156.5001 750.2582,-160 760.2582,-163.5001 760.2582,-156.5001"/>
</g>
<!-- ExpectedSourcePropertiesComponent -->
<g id="node4" class="node">
<title>SourceExpectedPropertiesComponent</title>
<polygon fill="#ffffb3" stroke="#000000" points="901.5506,-122 672.4494,-122 672.4494,-86 901.5506,-86 901.5506,-122"/>
<text text-anchor="middle" x="787" y="-99.8" font-family="Times,serif" font-size="14.00" fill="#000000">SourceExpectedPropertiesComponent</text>
</g>
<!-- ExpectedSourcePropertiesComponent&#45;&gt;FieldSetupModule -->
<g id="edge4" class="edge">
<title>SourceExpectedPropertiesComponent&#45;&gt;FieldSetupModule</title>
<path fill="none" stroke="#000000" d="M711.2914,-122.1061C711.2914,-122.1061 711.2914,-140.991 711.2914,-140.991"/>
<polygon fill="#000000" stroke="#000000" points="707.7914,-140.9909 711.2914,-150.991 714.7914,-140.991 707.7914,-140.9909"/>
</g>
<!-- SourceComponent -->
<g id="node5" class="node">
<title>SourceComponent</title>
<polygon fill="#ffffb3" stroke="#000000" points="654.205,-122 533.795,-122 533.795,-86 654.205,-86 654.205,-122"/>
<text text-anchor="middle" x="594" y="-99.8" font-family="Times,serif" font-size="14.00" fill="#000000">SourceComponent</text>
</g>
<!-- SourceComponent&#45;&gt;FieldSetupModule -->
<g id="edge5" class="edge">
<title>SourceComponent&#45;&gt;FieldSetupModule</title>
<path fill="none" stroke="#000000" d="M641.9972,-122.1061C641.9972,-122.1061 641.9972,-140.991 641.9972,-140.991"/>
<polygon fill="#000000" stroke="#000000" points="638.4973,-140.9909 641.9972,-150.991 645.4973,-140.991 638.4973,-140.9909"/>
</g>
<!-- SpacialImageComponent -->
<g id="node6" class="node">
<title>SpacialImageComponent</title>
<polygon fill="#ffffb3" stroke="#000000" points="515.5211,-122 358.4789,-122 358.4789,-86 515.5211,-86 515.5211,-122"/>
<text text-anchor="middle" x="437" y="-99.8" font-family="Times,serif" font-size="14.00" fill="#000000">SpacialImageComponent</text>
</g>
<!-- SpacialImageComponent&#45;&gt;FieldSetupModule -->
<g id="edge6" class="edge">
<title>SpacialImageComponent&#45;&gt;FieldSetupModule</title>
<path fill="none" stroke="#000000" d="M437,-122.027C437,-138.3976 437,-160 437,-160 437,-160 619.7216,-160 619.7216,-160"/>
<polygon fill="#000000" stroke="#000000" points="619.7217,-163.5001 629.7216,-160 619.7216,-156.5001 619.7217,-163.5001"/>
</g>
<!-- FieldSetupComponent  -->
<g id="node10" class="node">
<title>FieldSetupComponent </title>
<polygon fill="#fb8072" stroke="#000000" points="762.9995,-252 617.0005,-252 617.0005,-216 762.9995,-216 762.9995,-252"/>
<text text-anchor="middle" x="690" y="-229.8" font-family="Times,serif" font-size="14.00" fill="#000000">FieldSetupComponent </text>
</g>
<!-- FieldSetupModule&#45;&gt;FieldSetupComponent  -->
<g id="edge9" class="edge">
<title>FieldSetupModule&#45;&gt;FieldSetupComponent </title>
<path fill="none" stroke="#000000" stroke-dasharray="5,2" d="M690,-187.1061C690,-187.1061 690,-205.991 690,-205.991"/>
<polygon fill="#000000" stroke="#000000" points="686.5001,-205.9909 690,-215.991 693.5001,-205.991 686.5001,-205.9909"/>
</g>
<!-- FieldCentreCoordinatesModule -->
<g id="node8" class="node">
<title>FieldCentreCoordinatesModule</title>
<polygon fill="#8dd3c7" stroke="#000000" points="333.7976,-122 330.7976,-126 309.7976,-126 306.7976,-122 140.2024,-122 140.2024,-86 333.7976,-86 333.7976,-122"/>
<text text-anchor="middle" x="237" y="-99.8" font-family="Times,serif" font-size="14.00" fill="#000000">FieldCentreCoordinatesModule</text>
</g>
<!-- FieldCentreCoordinatesModule&#45;&gt;FieldSetupModule -->
<g id="edge7" class="edge">
<title>FieldCentreCoordinatesModule&#45;&gt;FieldSetupModule</title>
<path fill="none" stroke="#000000" d="M237,-122.1061C237,-141.3391 237,-169 237,-169 237,-169 619.8451,-169 619.8451,-169"/>
<polygon fill="#000000" stroke="#000000" points="619.8451,-172.5001 629.8451,-169 619.8451,-165.5001 619.8451,-172.5001"/>
</g>
<!-- SharedModule -->
<g id="node9" class="node">
<title>SharedModule</title>
<polygon fill="#8dd3c7" stroke="#000000" points="122.4231,-122 119.4231,-126 98.4231,-126 95.4231,-122 23.5769,-122 23.5769,-86 122.4231,-86 122.4231,-122"/>
<text text-anchor="middle" x="73" y="-99.8" font-family="Times,serif" font-size="14.00" fill="#000000">SharedModule</text>
</g>
<!-- SharedModule&#45;&gt;FieldSetupModule -->
<g id="edge8" class="edge">
<title>SharedModule&#45;&gt;FieldSetupModule</title>
<path fill="none" stroke="#000000" d="M73,-122.2921C73,-144.2057 73,-178 73,-178 73,-178 619.716,-178 619.716,-178"/>
<polygon fill="#000000" stroke="#000000" points="619.7161,-181.5001 629.716,-178 619.716,-174.5001 619.7161,-181.5001"/>
</g>
</g>
</svg>
