<?xml version="1.0" encoding="UTF-8" standalone="no"?>
<!DOCTYPE svg PUBLIC "-//W3C//DTD SVG 1.1//EN"
 "http://www.w3.org/Graphics/SVG/1.1/DTD/svg11.dtd">
<!-- Generated by graphviz version 2.40.1 (20161225.0304)
 -->
<!-- Title: dependencies Pages: 1 -->
<svg width="1446pt" height="349pt"
 viewBox="0.00 0.00 1446.00 349.00" xmlns="http://www.w3.org/2000/svg" xmlns:xlink="http://www.w3.org/1999/xlink">
<g id="graph0" class="graph" transform="scale(1 1) rotate(0) translate(4 345)">
<title>dependencies</title>
<polygon fill="#ffffff" stroke="transparent" points="-4,4 -4,-345 1442,-345 1442,4 -4,4"/>
<text text-anchor="start" x="698.0091" y="-42.4" font-family="sans-serif" font-weight="bold" font-size="14.00" fill="#000000">Legend</text>
<polygon fill="#ffffb3" stroke="transparent" points="485,-10 485,-30 505,-30 505,-10 485,-10"/>
<text text-anchor="start" x="508.629" y="-15.4" font-family="sans-serif" font-size="14.00" fill="#000000"> &#160;Declarations</text>
<polygon fill="#8dd3c7" stroke="transparent" points="598,-10 598,-30 618,-30 618,-10 598,-10"/>
<text text-anchor="start" x="621.7251" y="-15.4" font-family="sans-serif" font-size="14.00" fill="#000000"> &#160;Module</text>
<polygon fill="#80b1d3" stroke="transparent" points="684,-10 684,-30 704,-30 704,-10 684,-10"/>
<text text-anchor="start" x="707.7812" y="-15.4" font-family="sans-serif" font-size="14.00" fill="#000000"> &#160;Bootstrap</text>
<polygon fill="#fdb462" stroke="transparent" points="781,-10 781,-30 801,-30 801,-10 781,-10"/>
<text text-anchor="start" x="804.6732" y="-15.4" font-family="sans-serif" font-size="14.00" fill="#000000"> &#160;Providers</text>
<polygon fill="#fb8072" stroke="transparent" points="877,-10 877,-30 897,-30 897,-10 877,-10"/>
<text text-anchor="start" x="900.7258" y="-15.4" font-family="sans-serif" font-size="14.00" fill="#000000"> &#160;Exports</text>
<g id="clust1" class="cluster">
<title>cluster_FieldSetupModule</title>
<polygon fill="none" stroke="#000000" stroke-dasharray="1,5" points="8,-70 8,-333 1430,-333 1430,-70 8,-70"/>
</g>
<g id="clust2" class="cluster">
<title>cluster_FieldSetupModule_declarations</title>
<polygon fill="none" stroke="#000000" points="350,-143 350,-195 1422,-195 1422,-143 350,-143"/>
</g>
<g id="clust3" class="cluster">
<title>cluster_FieldSetupModule_FieldSetupComponent_providers</title>
<polygon fill="none" stroke="#000000" points="1186,-78 1186,-130 1422,-130 1422,-78 1186,-78"/>
</g>
<g id="clust9" class="cluster">
<title>cluster_FieldSetupModule_imports</title>
<polygon fill="none" stroke="#000000" points="16,-143 16,-195 342,-195 342,-143 16,-143"/>
</g>
<g id="clust10" class="cluster">
<title>cluster_FieldSetupModule_exports</title>
<polygon fill="none" stroke="#000000" points="609,-273 609,-325 771,-325 771,-273 609,-273"/>
</g>
<!-- FieldSetupComponent -->
<g id="node1" class="node">
<title>FieldSetupComponent</title>
<polygon fill="#ffffb3" stroke="#000000" points="1413.9986,-187 1272.0014,-187 1272.0014,-151 1413.9986,-151 1413.9986,-187"/>
<text text-anchor="middle" x="1343" y="-164.8" font-family="Times,serif" font-size="14.00" fill="#000000">FieldSetupComponent</text>
</g>
<!-- FieldSetupModule -->
<g id="node7" class="node">
<title>FieldSetupModule</title>
<polygon fill="#8dd3c7" stroke="#000000" points="750.2162,-252 747.2162,-256 726.2162,-256 723.2162,-252 629.7838,-252 629.7838,-216 750.2162,-216 750.2162,-252"/>
<text text-anchor="middle" x="690" y="-229.8" font-family="Times,serif" font-size="14.00" fill="#000000">FieldSetupModule</text>
</g>
<!-- FieldSetupComponent&#45;&gt;FieldSetupModule -->
<g id="edge1" class="edge">
<title>FieldSetupComponent&#45;&gt;FieldSetupModule</title>
<path fill="none" stroke="#000000" d="M1343,-187.2921C1343,-209.2057 1343,-243 1343,-243 1343,-243 760.2622,-243 760.2622,-243"/>
<polygon fill="#000000" stroke="#000000" points="760.2622,-239.5001 750.2622,-243 760.2622,-246.5001 760.2622,-239.5001"/>
</g>
<!-- FovParametersComponent -->
<g id="node2" class="node">
<title>FovParametersComponent</title>
<polygon fill="#ffffb3" stroke="#000000" points="1253.8033,-187 1088.1967,-187 1088.1967,-151 1253.8033,-151 1253.8033,-187"/>
<text text-anchor="middle" x="1171" y="-164.8" font-family="Times,serif" font-size="14.00" fill="#000000">FovParametersComponent</text>
</g>
<!-- FovParametersComponent&#45;&gt;FieldSetupModule -->
<g id="edge3" class="edge">
<title>FovParametersComponent&#45;&gt;FieldSetupModule</title>
<path fill="none" stroke="#000000" d="M1171,-187.1061C1171,-206.3391 1171,-234 1171,-234 1171,-234 760.4319,-234 760.4319,-234"/>
<polygon fill="#000000" stroke="#000000" points="760.432,-230.5001 750.4319,-234 760.4319,-237.5001 760.432,-230.5001"/>
</g>
<!-- ImageQueryComponent -->
<g id="node3" class="node">
<title>ImageQueryComponent</title>
<polygon fill="#ffffb3" stroke="#000000" points="1070.7949,-187 919.2051,-187 919.2051,-151 1070.7949,-151 1070.7949,-187"/>
<text text-anchor="middle" x="995" y="-164.8" font-family="Times,serif" font-size="14.00" fill="#000000">ImageQueryComponent</text>
</g>
<!-- ImageQueryComponent&#45;&gt;FieldSetupModule -->
<g id="edge4" class="edge">
<title>ImageQueryComponent&#45;&gt;FieldSetupModule</title>
<path fill="none" stroke="#000000" d="M995,-187.027C995,-203.3976 995,-225 995,-225 995,-225 760.2582,-225 760.2582,-225"/>
<polygon fill="#000000" stroke="#000000" points="760.2582,-221.5001 750.2582,-225 760.2582,-228.5001 760.2582,-221.5001"/>
</g>
<!-- SourceExpectedPropertiesComponent -->
<g id="node4" class="node">
<title>SourceExpectedPropertiesComponent</title>
<polygon fill="#ffffb3" stroke="#000000" points="901.5506,-187 672.4494,-187 672.4494,-151 901.5506,-151 901.5506,-187"/>
<text text-anchor="middle" x="787" y="-164.8" font-family="Times,serif" font-size="14.00" fill="#000000">SourceExpectedPropertiesComponent</text>
</g>
<!-- SourceExpectedPropertiesComponent&#45;&gt;FieldSetupModule -->
<g id="edge5" class="edge">
<title>SourceExpectedPropertiesComponent&#45;&gt;FieldSetupModule</title>
<path fill="none" stroke="#000000" d="M711.2914,-187.1061C711.2914,-187.1061 711.2914,-205.991 711.2914,-205.991"/>
<polygon fill="#000000" stroke="#000000" points="707.7914,-205.9909 711.2914,-215.991 714.7914,-205.991 707.7914,-205.9909"/>
</g>
<!-- SourceComponent -->
<g id="node5" class="node">
<title>SourceComponent</title>
<polygon fill="#ffffb3" stroke="#000000" points="654.205,-187 533.795,-187 533.795,-151 654.205,-151 654.205,-187"/>
<text text-anchor="middle" x="594" y="-164.8" font-family="Times,serif" font-size="14.00" fill="#000000">SourceComponent</text>
</g>
<!-- SourceComponent&#45;&gt;FieldSetupModule -->
<g id="edge6" class="edge">
<title>SourceComponent&#45;&gt;FieldSetupModule</title>
<path fill="none" stroke="#000000" d="M641.9972,-187.1061C641.9972,-187.1061 641.9972,-205.991 641.9972,-205.991"/>
<polygon fill="#000000" stroke="#000000" points="638.4973,-205.9909 641.9972,-215.991 645.4973,-205.991 638.4973,-205.9909"/>
</g>
<!-- SpacialImageComponent -->
<g id="node6" class="node">
<title>SpacialImageComponent</title>
<polygon fill="#ffffb3" stroke="#000000" points="515.5211,-187 358.4789,-187 358.4789,-151 515.5211,-151 515.5211,-187"/>
<text text-anchor="middle" x="437" y="-164.8" font-family="Times,serif" font-size="14.00" fill="#000000">SpacialImageComponent</text>
</g>
<!-- SpacialImageComponent&#45;&gt;FieldSetupModule -->
<g id="edge7" class="edge">
<title>SpacialImageComponent&#45;&gt;FieldSetupModule</title>
<path fill="none" stroke="#000000" d="M437,-187.027C437,-203.3976 437,-225 437,-225 437,-225 619.7216,-225 619.7216,-225"/>
<polygon fill="#000000" stroke="#000000" points="619.7217,-228.5001 629.7216,-225 619.7216,-221.5001 619.7217,-228.5001"/>
</g>
<!-- FieldSetupComponent  -->
<g id="node11" class="node">
<title>FieldSetupComponent </title>
<polygon fill="#fb8072" stroke="#000000" points="762.9995,-317 617.0005,-317 617.0005,-281 762.9995,-281 762.9995,-317"/>
<text text-anchor="middle" x="690" y="-294.8" font-family="Times,serif" font-size="14.00" fill="#000000">FieldSetupComponent </text>
</g>
<!-- FieldSetupModule&#45;&gt;FieldSetupComponent  -->
<g id="edge10" class="edge">
<title>FieldSetupModule&#45;&gt;FieldSetupComponent </title>
<path fill="none" stroke="#000000" stroke-dasharray="5,2" d="M690,-252.1061C690,-252.1061 690,-270.991 690,-270.991"/>
<polygon fill="#000000" stroke="#000000" points="686.5001,-270.9909 690,-280.991 693.5001,-270.991 686.5001,-270.9909"/>
</g>
<!-- ScienceGoalPanelService -->
<g id="node8" class="node">
<title>ScienceGoalPanelService</title>
<ellipse fill="#fdb462" stroke="#000000" cx="1304" cy="-104" rx="110.4871" ry="18"/>
<text text-anchor="middle" x="1304" y="-99.8" font-family="Times,serif" font-size="14.00" fill="#000000">ScienceGoalPanelService</text>
</g>
<!-- ScienceGoalPanelService&#45;&gt;FieldSetupComponent -->
<g id="edge2" class="edge">
<title>ScienceGoalPanelService&#45;&gt;FieldSetupComponent</title>
<path fill="none" stroke="#000000" d="M1343,-121.078C1343,-121.078 1343,-140.8993 1343,-140.8993"/>
<polygon fill="#000000" stroke="#000000" points="1339.5001,-140.8992 1343,-150.8993 1346.5001,-140.8993 1339.5001,-140.8992"/>
</g>
<!-- FieldCentreCoordinatesModule -->
<g id="node9" class="node">
<title>FieldCentreCoordinatesModule</title>
<polygon fill="#8dd3c7" stroke="#000000" points="333.7976,-187 330.7976,-191 309.7976,-191 306.7976,-187 140.2024,-187 140.2024,-151 333.7976,-151 333.7976,-187"/>
<text text-anchor="middle" x="237" y="-164.8" font-family="Times,serif" font-size="14.00" fill="#000000">FieldCentreCoordinatesModule</text>
</g>
<!-- FieldCentreCoordinatesModule&#45;&gt;FieldSetupModule -->
<g id="edge8" class="edge">
<title>FieldCentreCoordinatesModule&#45;&gt;FieldSetupModule</title>
<path fill="none" stroke="#000000" d="M237,-187.1061C237,-206.3391 237,-234 237,-234 237,-234 619.8451,-234 619.8451,-234"/>
<polygon fill="#000000" stroke="#000000" points="619.8451,-237.5001 629.8451,-234 619.8451,-230.5001 619.8451,-237.5001"/>
</g>
<!-- SharedModule -->
<g id="node10" class="node">
<title>SharedModule</title>
<polygon fill="#8dd3c7" stroke="#000000" points="122.4231,-187 119.4231,-191 98.4231,-191 95.4231,-187 23.5769,-187 23.5769,-151 122.4231,-151 122.4231,-187"/>
<text text-anchor="middle" x="73" y="-164.8" font-family="Times,serif" font-size="14.00" fill="#000000">SharedModule</text>
</g>
<!-- SharedModule&#45;&gt;FieldSetupModule -->
<g id="edge9" class="edge">
<title>SharedModule&#45;&gt;FieldSetupModule</title>
<path fill="none" stroke="#000000" d="M73,-187.2921C73,-209.2057 73,-243 73,-243 73,-243 619.716,-243 619.716,-243"/>
<polygon fill="#000000" stroke="#000000" points="619.7161,-246.5001 629.716,-243 619.716,-239.5001 619.7161,-246.5001"/>
</g>
</g>
</svg>
