<?xml version="1.0" encoding="UTF-8" standalone="no"?>
<!DOCTYPE svg PUBLIC "-//W3C//DTD SVG 1.1//EN"
 "http://www.w3.org/Graphics/SVG/1.1/DTD/svg11.dtd">
<!-- Generated by graphviz version 2.40.1 (20161225.0304)
 -->
<!-- Title: dependencies Pages: 1 -->
<svg width="1583pt" height="284pt"
 viewBox="0.00 0.00 1583.00 284.00" xmlns="http://www.w3.org/2000/svg" xmlns:xlink="http://www.w3.org/1999/xlink">
<g id="graph0" class="graph" transform="scale(1 1) rotate(0) translate(4 280)">
<title>dependencies</title>
<polygon fill="#ffffff" stroke="transparent" points="-4,4 -4,-280 1579,-280 1579,4 -4,4"/>
<text text-anchor="start" x="766.5091" y="-42.4" font-family="sans-serif" font-weight="bold" font-size="14.00" fill="#000000">Legend</text>
<polygon fill="#ffffb3" stroke="transparent" points="553.5,-10 553.5,-30 573.5,-30 573.5,-10 553.5,-10"/>
<text text-anchor="start" x="577.129" y="-15.4" font-family="sans-serif" font-size="14.00" fill="#000000"> &#160;Declarations</text>
<polygon fill="#8dd3c7" stroke="transparent" points="666.5,-10 666.5,-30 686.5,-30 686.5,-10 666.5,-10"/>
<text text-anchor="start" x="690.2251" y="-15.4" font-family="sans-serif" font-size="14.00" fill="#000000"> &#160;Module</text>
<polygon fill="#80b1d3" stroke="transparent" points="752.5,-10 752.5,-30 772.5,-30 772.5,-10 752.5,-10"/>
<text text-anchor="start" x="776.2812" y="-15.4" font-family="sans-serif" font-size="14.00" fill="#000000"> &#160;Bootstrap</text>
<polygon fill="#fdb462" stroke="transparent" points="849.5,-10 849.5,-30 869.5,-30 869.5,-10 849.5,-10"/>
<text text-anchor="start" x="873.1732" y="-15.4" font-family="sans-serif" font-size="14.00" fill="#000000"> &#160;Providers</text>
<polygon fill="#fb8072" stroke="transparent" points="945.5,-10 945.5,-30 965.5,-30 965.5,-10 945.5,-10"/>
<text text-anchor="start" x="969.2258" y="-15.4" font-family="sans-serif" font-size="14.00" fill="#000000"> &#160;Exports</text>
<g id="clust1" class="cluster">
<title>cluster_FieldSetupModule</title>
<polygon fill="none" stroke="#000000" stroke-dasharray="1,5" points="8,-70 8,-268 1567,-268 1567,-70 8,-70"/>
</g>
<g id="clust2" class="cluster">
<title>cluster_FieldSetupModule_declarations</title>
<polygon fill="none" stroke="#000000" points="350,-78 350,-130 1559,-130 1559,-78 350,-78"/>
</g>
<g id="clust10" class="cluster">
<title>cluster_FieldSetupModule_imports</title>
<polygon fill="none" stroke="#000000" points="16,-78 16,-130 342,-130 342,-78 16,-78"/>
</g>
<g id="clust11" class="cluster">
<title>cluster_FieldSetupModule_exports</title>
<polygon fill="none" stroke="#000000" points="650,-208 650,-260 812,-260 812,-208 650,-208"/>
</g>
<!-- FieldSetupComponent -->
<g id="node1" class="node">
<title>FieldSetupComponent</title>
<polygon fill="#ffffb3" stroke="#000000" points="1550.9986,-122 1409.0014,-122 1409.0014,-86 1550.9986,-86 1550.9986,-122"/>
<text text-anchor="middle" x="1480" y="-99.8" font-family="Times,serif" font-size="14.00" fill="#000000">FieldSetupComponent</text>
</g>
<!-- FieldSetupModule -->
<g id="node8" class="node">
<title>FieldSetupModule</title>
<polygon fill="#8dd3c7" stroke="#000000" points="791.2162,-187 788.2162,-191 767.2162,-191 764.2162,-187 670.7838,-187 670.7838,-151 791.2162,-151 791.2162,-187"/>
<text text-anchor="middle" x="731" y="-164.8" font-family="Times,serif" font-size="14.00" fill="#000000">FieldSetupModule</text>
</g>
<!-- FieldSetupComponent&#45;&gt;FieldSetupModule -->
<g id="edge1" class="edge">
<title>FieldSetupComponent&#45;&gt;FieldSetupModule</title>
<path fill="none" stroke="#000000" d="M1480,-122.0109C1480,-144.4852 1480,-180 1480,-180 1480,-180 801.3432,-180 801.3432,-180"/>
<polygon fill="#000000" stroke="#000000" points="801.3432,-176.5001 791.3432,-180 801.3431,-183.5001 801.3432,-176.5001"/>
</g>
<!-- FovParametersComponent -->
<g id="node2" class="node">
<title>FovParametersComponent</title>
<polygon fill="#ffffb3" stroke="#000000" points="1390.8033,-122 1225.1967,-122 1225.1967,-86 1390.8033,-86 1390.8033,-122"/>
<text text-anchor="middle" x="1308" y="-99.8" font-family="Times,serif" font-size="14.00" fill="#000000">FovParametersComponent</text>
</g>
<!-- FovParametersComponent&#45;&gt;FieldSetupModule -->
<g id="edge2" class="edge">
<title>FovParametersComponent&#45;&gt;FieldSetupModule</title>
<path fill="none" stroke="#000000" d="M1308,-122.1289C1308,-142.5724 1308,-173 1308,-173 1308,-173 801.1162,-173 801.1162,-173"/>
<polygon fill="#000000" stroke="#000000" points="801.1163,-169.5001 791.1162,-173 801.1162,-176.5001 801.1163,-169.5001"/>
</g>
<!-- ImageQueryComponent -->
<g id="node3" class="node">
<title>ImageQueryComponent</title>
<polygon fill="#ffffb3" stroke="#000000" points="1207.7949,-122 1056.2051,-122 1056.2051,-86 1207.7949,-86 1207.7949,-122"/>
<text text-anchor="middle" x="1132" y="-99.8" font-family="Times,serif" font-size="14.00" fill="#000000">ImageQueryComponent</text>
</g>
<!-- ImageQueryComponent&#45;&gt;FieldSetupModule -->
<g id="edge3" class="edge">
<title>ImageQueryComponent&#45;&gt;FieldSetupModule</title>
<path fill="none" stroke="#000000" d="M1132,-122.2667C1132,-140.5552 1132,-166 1132,-166 1132,-166 801.4679,-166 801.4679,-166"/>
<polygon fill="#000000" stroke="#000000" points="801.468,-162.5001 791.4679,-166 801.4679,-169.5001 801.468,-162.5001"/>
</g>
<!-- ExpectedSourcePropertiesComponent -->
<g id="node4" class="node">
<title>ExpectedSourcePropertiesComponent</title>
<polygon fill="#ffffb3" stroke="#000000" points="1038.5506,-122 809.4494,-122 809.4494,-86 1038.5506,-86 1038.5506,-122"/>
<text text-anchor="middle" x="924" y="-99.8" font-family="Times,serif" font-size="14.00" fill="#000000">ExpectedSourcePropertiesComponent</text>
</g>
<!-- ExpectedSourcePropertiesComponent&#45;&gt;FieldSetupModule -->
<g id="edge4" class="edge">
<title>ExpectedSourcePropertiesComponent&#45;&gt;FieldSetupModule</title>
<path fill="none" stroke="#000000" d="M924,-122.0091C924,-138.0494 924,-159 924,-159 924,-159 801.2725,-159 801.2725,-159"/>
<polygon fill="#000000" stroke="#000000" points="801.2726,-155.5001 791.2725,-159 801.2725,-162.5001 801.2726,-155.5001"/>
</g>
<!-- SourceComponent -->
<g id="node5" class="node">
<title>SourceComponent</title>
<polygon fill="#ffffb3" stroke="#000000" points="791.205,-122 670.795,-122 670.795,-86 791.205,-86 791.205,-122"/>
<text text-anchor="middle" x="731" y="-99.8" font-family="Times,serif" font-size="14.00" fill="#000000">SourceComponent</text>
</g>
<!-- SourceComponent&#45;&gt;FieldSetupModule -->
<g id="edge5" class="edge">
<title>SourceComponent&#45;&gt;FieldSetupModule</title>
<path fill="none" stroke="#000000" d="M731,-122.1061C731,-122.1061 731,-140.991 731,-140.991"/>
<polygon fill="#000000" stroke="#000000" points="727.5001,-140.9909 731,-150.991 734.5001,-140.991 727.5001,-140.9909"/>
</g>
<!-- SpacialImageComponent -->
<g id="node6" class="node">
<title>SpacialImageComponent</title>
<polygon fill="#ffffb3" stroke="#000000" points="652.5211,-122 495.4789,-122 495.4789,-86 652.5211,-86 652.5211,-122"/>
<text text-anchor="middle" x="574" y="-99.8" font-family="Times,serif" font-size="14.00" fill="#000000">SpacialImageComponent</text>
</g>
<!-- SpacialImageComponent&#45;&gt;FieldSetupModule -->
<g id="edge6" class="edge">
<title>SpacialImageComponent&#45;&gt;FieldSetupModule</title>
<path fill="none" stroke="#000000" d="M574,-122.0091C574,-138.0494 574,-159 574,-159 574,-159 660.7487,-159 660.7487,-159"/>
<polygon fill="#000000" stroke="#000000" points="660.7487,-162.5001 670.7487,-159 660.7487,-155.5001 660.7487,-162.5001"/>
</g>
<!-- AladinComponent -->
<g id="node7" class="node">
<title>AladinComponent</title>
<polygon fill="#ffffb3" stroke="#000000" points="477.9356,-122 358.0644,-122 358.0644,-86 477.9356,-86 477.9356,-122"/>
<text text-anchor="middle" x="418" y="-99.8" font-family="Times,serif" font-size="14.00" fill="#000000">AladinComponent</text>
</g>
<!-- AladinComponent&#45;&gt;FieldSetupModule -->
<g id="edge7" class="edge">
<title>AladinComponent&#45;&gt;FieldSetupModule</title>
<path fill="none" stroke="#000000" d="M418,-122.2667C418,-140.5552 418,-166 418,-166 418,-166 660.6505,-166 660.6505,-166"/>
<polygon fill="#000000" stroke="#000000" points="660.6505,-169.5001 670.6505,-166 660.6504,-162.5001 660.6505,-169.5001"/>
</g>
<!-- FieldSetupComponent  -->
<g id="node11" class="node">
<title>FieldSetupComponent </title>
<polygon fill="#fb8072" stroke="#000000" points="803.9995,-252 658.0005,-252 658.0005,-216 803.9995,-216 803.9995,-252"/>
<text text-anchor="middle" x="731" y="-229.8" font-family="Times,serif" font-size="14.00" fill="#000000">FieldSetupComponent </text>
</g>
<!-- FieldSetupModule&#45;&gt;FieldSetupComponent  -->
<g id="edge10" class="edge">
<title>FieldSetupModule&#45;&gt;FieldSetupComponent </title>
<path fill="none" stroke="#000000" stroke-dasharray="5,2" d="M731,-187.1061C731,-187.1061 731,-205.991 731,-205.991"/>
<polygon fill="#000000" stroke="#000000" points="727.5001,-205.9909 731,-215.991 734.5001,-205.991 727.5001,-205.9909"/>
</g>
<!-- FieldCentreCoordinatesModule -->
<g id="node9" class="node">
<title>FieldCentreCoordinatesModule</title>
<polygon fill="#8dd3c7" stroke="#000000" points="333.7976,-122 330.7976,-126 309.7976,-126 306.7976,-122 140.2024,-122 140.2024,-86 333.7976,-86 333.7976,-122"/>
<text text-anchor="middle" x="237" y="-99.8" font-family="Times,serif" font-size="14.00" fill="#000000">FieldCentreCoordinatesModule</text>
</g>
<!-- FieldCentreCoordinatesModule&#45;&gt;FieldSetupModule -->
<g id="edge8" class="edge">
<title>FieldCentreCoordinatesModule&#45;&gt;FieldSetupModule</title>
<path fill="none" stroke="#000000" d="M237,-122.1289C237,-142.5724 237,-173 237,-173 237,-173 660.4259,-173 660.4259,-173"/>
<polygon fill="#000000" stroke="#000000" points="660.4259,-176.5001 670.4259,-173 660.4259,-169.5001 660.4259,-176.5001"/>
</g>
<!-- SharedModule -->
<g id="node10" class="node">
<title>SharedModule</title>
<polygon fill="#8dd3c7" stroke="#000000" points="122.4231,-122 119.4231,-126 98.4231,-126 95.4231,-122 23.5769,-122 23.5769,-86 122.4231,-86 122.4231,-122"/>
<text text-anchor="middle" x="73" y="-99.8" font-family="Times,serif" font-size="14.00" fill="#000000">SharedModule</text>
</g>
<!-- SharedModule&#45;&gt;FieldSetupModule -->
<g id="edge9" class="edge">
<title>SharedModule&#45;&gt;FieldSetupModule</title>
<path fill="none" stroke="#000000" d="M73,-122.0109C73,-144.4852 73,-180 73,-180 73,-180 660.8625,-180 660.8625,-180"/>
<polygon fill="#000000" stroke="#000000" points="660.8626,-183.5001 670.8625,-180 660.8625,-176.5001 660.8626,-183.5001"/>
</g>
</g>
</svg>
