<?xml version="1.0" encoding="UTF-8" standalone="no"?>
<!DOCTYPE svg PUBLIC "-//W3C//DTD SVG 1.1//EN"
 "http://www.w3.org/Graphics/SVG/1.1/DTD/svg11.dtd">
<!-- Generated by graphviz version 2.40.1 (20161225.0304)
 -->
<!-- Title: dependencies Pages: 1 -->
<svg width="896pt" height="284pt"
 viewBox="0.00 0.00 896.00 284.00" xmlns="http://www.w3.org/2000/svg" xmlns:xlink="http://www.w3.org/1999/xlink">
<g id="graph0" class="graph" transform="scale(1 1) rotate(0) translate(4 280)">
<title>dependencies</title>
<polygon fill="#ffffff" stroke="transparent" points="-4,4 -4,-280 892,-280 892,4 -4,4"/>
<text text-anchor="start" x="423.0091" y="-42.4" font-family="sans-serif" font-weight="bold" font-size="14.00" fill="#000000">Legend</text>
<polygon fill="#ffffb3" stroke="transparent" points="210,-10 210,-30 230,-30 230,-10 210,-10"/>
<text text-anchor="start" x="233.629" y="-15.4" font-family="sans-serif" font-size="14.00" fill="#000000"> &#160;Declarations</text>
<polygon fill="#8dd3c7" stroke="transparent" points="323,-10 323,-30 343,-30 343,-10 323,-10"/>
<text text-anchor="start" x="346.7251" y="-15.4" font-family="sans-serif" font-size="14.00" fill="#000000"> &#160;Module</text>
<polygon fill="#80b1d3" stroke="transparent" points="409,-10 409,-30 429,-30 429,-10 409,-10"/>
<text text-anchor="start" x="432.7812" y="-15.4" font-family="sans-serif" font-size="14.00" fill="#000000"> &#160;Bootstrap</text>
<polygon fill="#fdb462" stroke="transparent" points="506,-10 506,-30 526,-30 526,-10 506,-10"/>
<text text-anchor="start" x="529.6732" y="-15.4" font-family="sans-serif" font-size="14.00" fill="#000000"> &#160;Providers</text>
<polygon fill="#fb8072" stroke="transparent" points="602,-10 602,-30 622,-30 622,-10 602,-10"/>
<text text-anchor="start" x="625.7258" y="-15.4" font-family="sans-serif" font-size="14.00" fill="#000000"> &#160;Exports</text>
<g id="clust1" class="cluster">
<title>cluster_SpectralSetupModule</title>
<polygon fill="none" stroke="#000000" stroke-dasharray="1,5" points="8,-70 8,-268 880,-268 880,-70 8,-70"/>
</g>
<g id="clust2" class="cluster">
<title>cluster_SpectralSetupModule_declarations</title>
<polygon fill="none" stroke="#000000" points="138,-78 138,-130 872,-130 872,-78 138,-78"/>
</g>
<g id="clust7" class="cluster">
<title>cluster_SpectralSetupModule_imports</title>
<polygon fill="none" stroke="#000000" points="16,-78 16,-130 130,-130 130,-78 16,-78"/>
</g>
<g id="clust8" class="cluster">
<title>cluster_SpectralSetupModule_exports</title>
<polygon fill="none" stroke="#000000" points="333,-208 333,-260 511,-260 511,-208 333,-208"/>
</g>
<!-- TypeComponent -->
<g id="node1" class="node">
<title>TypeComponent</title>
<polygon fill="#ffffb3" stroke="#000000" points="864.0996,-122 753.9004,-122 753.9004,-86 864.0996,-86 864.0996,-122"/>
<text text-anchor="middle" x="809" y="-99.8" font-family="Times,serif" font-size="14.00" fill="#000000">TypeComponent</text>
</g>
<!-- SpectralSetupModule -->
<g id="node5" class="node">
<title>SpectralSetupModule</title>
<polygon fill="#8dd3c7" stroke="#000000" points="490.8061,-187 487.8061,-191 466.8061,-191 463.8061,-187 353.1939,-187 353.1939,-151 490.8061,-151 490.8061,-187"/>
<text text-anchor="middle" x="422" y="-164.8" font-family="Times,serif" font-size="14.00" fill="#000000">SpectralSetupModule</text>
</g>
<!-- TypeComponent&#45;&gt;SpectralSetupModule -->
<g id="edge1" class="edge">
<title>TypeComponent&#45;&gt;SpectralSetupModule</title>
<path fill="none" stroke="#000000" d="M809,-122.2843C809,-143.3211 809,-175 809,-175 809,-175 500.7419,-175 500.7419,-175"/>
<polygon fill="#000000" stroke="#000000" points="500.7419,-171.5001 490.7419,-175 500.7419,-178.5001 500.7419,-171.5001"/>
</g>
<!-- VisualisationControlComponent -->
<g id="node2" class="node">
<title>VisualisationControlComponent</title>
<polygon fill="#ffffb3" stroke="#000000" points="735.9888,-122 538.0112,-122 538.0112,-86 735.9888,-86 735.9888,-122"/>
<text text-anchor="middle" x="637" y="-99.8" font-family="Times,serif" font-size="14.00" fill="#000000">VisualisationControlComponent</text>
</g>
<!-- VisualisationControlComponent&#45;&gt;SpectralSetupModule -->
<g id="edge2" class="edge">
<title>VisualisationControlComponent&#45;&gt;SpectralSetupModule</title>
<path fill="none" stroke="#000000" d="M637,-122.0225C637,-139.3734 637,-163 637,-163 637,-163 500.9145,-163 500.9145,-163"/>
<polygon fill="#000000" stroke="#000000" points="500.9145,-159.5001 490.9145,-163 500.9145,-166.5001 500.9145,-159.5001"/>
</g>
<!-- VisualisationViewerComponent -->
<g id="node3" class="node">
<title>VisualisationViewerComponent</title>
<polygon fill="#ffffb3" stroke="#000000" points="520.4044,-122 323.5956,-122 323.5956,-86 520.4044,-86 520.4044,-122"/>
<text text-anchor="middle" x="422" y="-99.8" font-family="Times,serif" font-size="14.00" fill="#000000">VisualisationViewerComponent</text>
</g>
<!-- VisualisationViewerComponent&#45;&gt;SpectralSetupModule -->
<g id="edge3" class="edge">
<title>VisualisationViewerComponent&#45;&gt;SpectralSetupModule</title>
<path fill="none" stroke="#000000" d="M422,-122.1061C422,-122.1061 422,-140.991 422,-140.991"/>
<polygon fill="#000000" stroke="#000000" points="418.5001,-140.9909 422,-150.991 425.5001,-140.991 418.5001,-140.9909"/>
</g>
<!-- SpectralSetupComponent -->
<g id="node4" class="node">
<title>SpectralSetupComponent</title>
<polygon fill="#ffffb3" stroke="#000000" points="305.5884,-122 146.4116,-122 146.4116,-86 305.5884,-86 305.5884,-122"/>
<text text-anchor="middle" x="226" y="-99.8" font-family="Times,serif" font-size="14.00" fill="#000000">SpectralSetupComponent</text>
</g>
<!-- SpectralSetupComponent&#45;&gt;SpectralSetupModule -->
<g id="edge4" class="edge">
<title>SpectralSetupComponent&#45;&gt;SpectralSetupModule</title>
<path fill="none" stroke="#000000" d="M226,-122.0225C226,-139.3734 226,-163 226,-163 226,-163 343.1733,-163 343.1733,-163"/>
<polygon fill="#000000" stroke="#000000" points="343.1734,-166.5001 353.1733,-163 343.1733,-159.5001 343.1734,-166.5001"/>
</g>
<!-- SpectralSetupComponent  -->
<g id="node7" class="node">
<title>SpectralSetupComponent </title>
<polygon fill="#fb8072" stroke="#000000" points="503.0889,-252 340.9111,-252 340.9111,-216 503.0889,-216 503.0889,-252"/>
<text text-anchor="middle" x="422" y="-229.8" font-family="Times,serif" font-size="14.00" fill="#000000">SpectralSetupComponent </text>
</g>
<!-- SpectralSetupModule&#45;&gt;SpectralSetupComponent  -->
<g id="edge6" class="edge">
<title>SpectralSetupModule&#45;&gt;SpectralSetupComponent </title>
<path fill="none" stroke="#000000" stroke-dasharray="5,2" d="M422,-187.1061C422,-187.1061 422,-205.991 422,-205.991"/>
<polygon fill="#000000" stroke="#000000" points="418.5001,-205.9909 422,-215.991 425.5001,-205.991 418.5001,-205.9909"/>
</g>
<!-- SharedModule -->
<g id="node6" class="node">
<title>SharedModule</title>
<polygon fill="#8dd3c7" stroke="#000000" points="122.4231,-122 119.4231,-126 98.4231,-126 95.4231,-122 23.5769,-122 23.5769,-86 122.4231,-86 122.4231,-122"/>
<text text-anchor="middle" x="73" y="-99.8" font-family="Times,serif" font-size="14.00" fill="#000000">SharedModule</text>
</g>
<!-- SharedModule&#45;&gt;SpectralSetupModule -->
<g id="edge5" class="edge">
<title>SharedModule&#45;&gt;SpectralSetupModule</title>
<path fill="none" stroke="#000000" d="M73,-122.2843C73,-143.3211 73,-175 73,-175 73,-175 343.0488,-175 343.0488,-175"/>
<polygon fill="#000000" stroke="#000000" points="343.0489,-178.5001 353.0488,-175 343.0488,-171.5001 343.0489,-178.5001"/>
</g>
</g>
</svg>
