<?xml version="1.0" encoding="UTF-8" standalone="no"?>
<!DOCTYPE svg PUBLIC "-//W3C//DTD SVG 1.1//EN"
 "http://www.w3.org/Graphics/SVG/1.1/DTD/svg11.dtd">
<!-- Generated by graphviz version 2.40.1 (20161225.0304)
 -->
<!-- Title: dependencies Pages: 1 -->
<svg width="1100pt" height="284pt"
 viewBox="0.00 0.00 1100.00 284.00" xmlns="http://www.w3.org/2000/svg" xmlns:xlink="http://www.w3.org/1999/xlink">
<g id="graph0" class="graph" transform="scale(1 1) rotate(0) translate(4 280)">
<title>dependencies</title>
<polygon fill="#ffffff" stroke="transparent" points="-4,4 -4,-280 1096,-280 1096,4 -4,4"/>
<text text-anchor="start" x="525.0091" y="-42.4" font-family="sans-serif" font-weight="bold" font-size="14.00" fill="#000000">Legend</text>
<polygon fill="#ffffb3" stroke="transparent" points="312,-10 312,-30 332,-30 332,-10 312,-10"/>
<text text-anchor="start" x="335.629" y="-15.4" font-family="sans-serif" font-size="14.00" fill="#000000"> &#160;Declarations</text>
<polygon fill="#8dd3c7" stroke="transparent" points="425,-10 425,-30 445,-30 445,-10 425,-10"/>
<text text-anchor="start" x="448.7251" y="-15.4" font-family="sans-serif" font-size="14.00" fill="#000000"> &#160;Module</text>
<polygon fill="#80b1d3" stroke="transparent" points="511,-10 511,-30 531,-30 531,-10 511,-10"/>
<text text-anchor="start" x="534.7812" y="-15.4" font-family="sans-serif" font-size="14.00" fill="#000000"> &#160;Bootstrap</text>
<polygon fill="#fdb462" stroke="transparent" points="608,-10 608,-30 628,-30 628,-10 608,-10"/>
<text text-anchor="start" x="631.6732" y="-15.4" font-family="sans-serif" font-size="14.00" fill="#000000"> &#160;Providers</text>
<polygon fill="#fb8072" stroke="transparent" points="704,-10 704,-30 724,-30 724,-10 704,-10"/>
<text text-anchor="start" x="727.7258" y="-15.4" font-family="sans-serif" font-size="14.00" fill="#000000"> &#160;Exports</text>
<g id="clust1" class="cluster">
<title>cluster_SpectralSetupModule</title>
<polygon fill="none" stroke="#000000" stroke-dasharray="1,5" points="8,-70 8,-268 1084,-268 1084,-70 8,-70"/>
</g>
<g id="clust2" class="cluster">
<title>cluster_SpectralSetupModule_declarations</title>
<polygon fill="none" stroke="#000000" points="342,-78 342,-130 1076,-130 1076,-78 342,-78"/>
</g>
<g id="clust7" class="cluster">
<title>cluster_SpectralSetupModule_imports</title>
<polygon fill="none" stroke="#000000" points="220,-78 220,-130 334,-130 334,-78 220,-78"/>
</g>
<g id="clust8" class="cluster">
<title>cluster_SpectralSetupModule_exports</title>
<polygon fill="none" stroke="#000000" points="439,-208 439,-260 617,-260 617,-208 439,-208"/>
</g>
<g id="clust10" class="cluster">
<title>cluster_SpectralSetupModule_providers</title>
<polygon fill="none" stroke="#000000" points="16,-78 16,-130 212,-130 212,-78 16,-78"/>
</g>
<!-- TypeComponent -->
<g id="node1" class="node">
<title>TypeComponent</title>
<polygon fill="#ffffb3" stroke="#000000" points="1068.0996,-122 957.9004,-122 957.9004,-86 1068.0996,-86 1068.0996,-122"/>
<text text-anchor="middle" x="1013" y="-99.8" font-family="Times,serif" font-size="14.00" fill="#000000">TypeComponent</text>
</g>
<!-- SpectralSetupModule -->
<g id="node5" class="node">
<title>SpectralSetupModule</title>
<polygon fill="#8dd3c7" stroke="#000000" points="596.8061,-187 593.8061,-191 572.8061,-191 569.8061,-187 459.1939,-187 459.1939,-151 596.8061,-151 596.8061,-187"/>
<text text-anchor="middle" x="528" y="-164.8" font-family="Times,serif" font-size="14.00" fill="#000000">SpectralSetupModule</text>
</g>
<!-- TypeComponent&#45;&gt;SpectralSetupModule -->
<g id="edge1" class="edge">
<title>TypeComponent&#45;&gt;SpectralSetupModule</title>
<path fill="none" stroke="#000000" d="M1013,-122.2843C1013,-143.3211 1013,-175 1013,-175 1013,-175 606.7166,-175 606.7166,-175"/>
<polygon fill="#000000" stroke="#000000" points="606.7167,-171.5001 596.7166,-175 606.7166,-178.5001 606.7167,-171.5001"/>
</g>
<!-- VisualisationControlComponent -->
<g id="node2" class="node">
<title>VisualisationControlComponent</title>
<polygon fill="#ffffb3" stroke="#000000" points="939.9888,-122 742.0112,-122 742.0112,-86 939.9888,-86 939.9888,-122"/>
<text text-anchor="middle" x="841" y="-99.8" font-family="Times,serif" font-size="14.00" fill="#000000">VisualisationControlComponent</text>
</g>
<!-- VisualisationControlComponent&#45;&gt;SpectralSetupModule -->
<g id="edge2" class="edge">
<title>VisualisationControlComponent&#45;&gt;SpectralSetupModule</title>
<path fill="none" stroke="#000000" d="M841,-122.0225C841,-139.3734 841,-163 841,-163 841,-163 606.6892,-163 606.6892,-163"/>
<polygon fill="#000000" stroke="#000000" points="606.6892,-159.5001 596.6892,-163 606.6891,-166.5001 606.6892,-159.5001"/>
</g>
<!-- VisualisationViewerComponent -->
<g id="node3" class="node">
<title>VisualisationViewerComponent</title>
<polygon fill="#ffffb3" stroke="#000000" points="724.4044,-122 527.5956,-122 527.5956,-86 724.4044,-86 724.4044,-122"/>
<text text-anchor="middle" x="626" y="-99.8" font-family="Times,serif" font-size="14.00" fill="#000000">VisualisationViewerComponent</text>
</g>
<!-- VisualisationViewerComponent&#45;&gt;SpectralSetupModule -->
<g id="edge3" class="edge">
<title>VisualisationViewerComponent&#45;&gt;SpectralSetupModule</title>
<path fill="none" stroke="#000000" d="M562.2255,-122.1061C562.2255,-122.1061 562.2255,-140.991 562.2255,-140.991"/>
<polygon fill="#000000" stroke="#000000" points="558.7255,-140.9909 562.2255,-150.991 565.7255,-140.991 558.7255,-140.9909"/>
</g>
<!-- SpectralSetupComponent -->
<g id="node4" class="node">
<title>SpectralSetupComponent</title>
<polygon fill="#ffffb3" stroke="#000000" points="509.5884,-122 350.4116,-122 350.4116,-86 509.5884,-86 509.5884,-122"/>
<text text-anchor="middle" x="430" y="-99.8" font-family="Times,serif" font-size="14.00" fill="#000000">SpectralSetupComponent</text>
</g>
<!-- SpectralSetupComponent&#45;&gt;SpectralSetupModule -->
<g id="edge4" class="edge">
<title>SpectralSetupComponent&#45;&gt;SpectralSetupModule</title>
<path fill="none" stroke="#000000" d="M484.4457,-122.1061C484.4457,-122.1061 484.4457,-140.991 484.4457,-140.991"/>
<polygon fill="#000000" stroke="#000000" points="480.9457,-140.9909 484.4457,-150.991 487.9457,-140.991 480.9457,-140.9909"/>
</g>
<!-- SpectralSetupComponent  -->
<g id="node7" class="node">
<title>SpectralSetupComponent </title>
<polygon fill="#fb8072" stroke="#000000" points="609.0889,-252 446.9111,-252 446.9111,-216 609.0889,-216 609.0889,-252"/>
<text text-anchor="middle" x="528" y="-229.8" font-family="Times,serif" font-size="14.00" fill="#000000">SpectralSetupComponent </text>
</g>
<!-- SpectralSetupModule&#45;&gt;SpectralSetupComponent  -->
<g id="edge6" class="edge">
<title>SpectralSetupModule&#45;&gt;SpectralSetupComponent </title>
<path fill="none" stroke="#000000" stroke-dasharray="5,2" d="M528,-187.1061C528,-187.1061 528,-205.991 528,-205.991"/>
<polygon fill="#000000" stroke="#000000" points="524.5001,-205.9909 528,-215.991 531.5001,-205.991 524.5001,-205.9909"/>
</g>
<!-- SharedModule -->
<g id="node6" class="node">
<title>SharedModule</title>
<polygon fill="#8dd3c7" stroke="#000000" points="326.4231,-122 323.4231,-126 302.4231,-126 299.4231,-122 227.5769,-122 227.5769,-86 326.4231,-86 326.4231,-122"/>
<text text-anchor="middle" x="277" y="-99.8" font-family="Times,serif" font-size="14.00" fill="#000000">SharedModule</text>
</g>
<!-- SharedModule&#45;&gt;SpectralSetupModule -->
<g id="edge5" class="edge">
<title>SharedModule&#45;&gt;SpectralSetupModule</title>
<path fill="none" stroke="#000000" d="M277,-122.0225C277,-139.3734 277,-163 277,-163 277,-163 449.0812,-163 449.0812,-163"/>
<polygon fill="#000000" stroke="#000000" points="449.0812,-166.5001 459.0812,-163 449.0811,-159.5001 449.0812,-166.5001"/>
</g>
<!-- SpectralDataService -->
<g id="node8" class="node">
<title>SpectralDataService</title>
<ellipse fill="#fdb462" stroke="#000000" cx="114" cy="-104" rx="89.719" ry="18"/>
<text text-anchor="middle" x="114" y="-99.8" font-family="Times,serif" font-size="14.00" fill="#000000">SpectralDataService</text>
</g>
<!-- SpectralDataService&#45;&gt;SpectralSetupModule -->
<g id="edge7" class="edge">
<title>SpectralDataService&#45;&gt;SpectralSetupModule</title>
<path fill="none" stroke="#000000" d="M114,-122.2843C114,-143.3211 114,-175 114,-175 114,-175 449.1716,-175 449.1716,-175"/>
<polygon fill="#000000" stroke="#000000" points="449.1716,-178.5001 459.1716,-175 449.1716,-171.5001 449.1716,-178.5001"/>
</g>
</g>
</svg>
