<?xml version="1.0" encoding="UTF-8" standalone="no"?>
<!DOCTYPE svg PUBLIC "-//W3C//DTD SVG 1.1//EN"
 "http://www.w3.org/Graphics/SVG/1.1/DTD/svg11.dtd">
<!-- Generated by graphviz version 2.40.1 (20161225.0304)
 -->
<!-- Title: dependencies Pages: 1 -->
<svg width="774pt" height="284pt"
 viewBox="0.00 0.00 774.00 284.00" xmlns="http://www.w3.org/2000/svg" xmlns:xlink="http://www.w3.org/1999/xlink">
<g id="graph0" class="graph" transform="scale(1 1) rotate(0) translate(4 280)">
<title>dependencies</title>
<polygon fill="#ffffff" stroke="transparent" points="-4,4 -4,-280 770,-280 770,4 -4,4"/>
<text text-anchor="start" x="362.0091" y="-42.4" font-family="sans-serif" font-weight="bold" font-size="14.00" fill="#000000">Legend</text>
<polygon fill="#ffffb3" stroke="transparent" points="149,-10 149,-30 169,-30 169,-10 149,-10"/>
<text text-anchor="start" x="172.629" y="-15.4" font-family="sans-serif" font-size="14.00" fill="#000000"> &#160;Declarations</text>
<polygon fill="#8dd3c7" stroke="transparent" points="262,-10 262,-30 282,-30 282,-10 262,-10"/>
<text text-anchor="start" x="285.7251" y="-15.4" font-family="sans-serif" font-size="14.00" fill="#000000"> &#160;Module</text>
<polygon fill="#80b1d3" stroke="transparent" points="348,-10 348,-30 368,-30 368,-10 348,-10"/>
<text text-anchor="start" x="371.7812" y="-15.4" font-family="sans-serif" font-size="14.00" fill="#000000"> &#160;Bootstrap</text>
<polygon fill="#fdb462" stroke="transparent" points="445,-10 445,-30 465,-30 465,-10 445,-10"/>
<text text-anchor="start" x="468.6732" y="-15.4" font-family="sans-serif" font-size="14.00" fill="#000000"> &#160;Providers</text>
<polygon fill="#fb8072" stroke="transparent" points="541,-10 541,-30 561,-30 561,-10 541,-10"/>
<text text-anchor="start" x="564.7258" y="-15.4" font-family="sans-serif" font-size="14.00" fill="#000000"> &#160;Exports</text>
<g id="clust1" class="cluster">
<title>cluster_SpectralSetupModule</title>
<polygon fill="none" stroke="#000000" stroke-dasharray="1,5" points="8,-70 8,-268 758,-268 758,-70 8,-70"/>
</g>
<g id="clust2" class="cluster">
<title>cluster_SpectralSetupModule_declarations</title>
<polygon fill="none" stroke="#000000" points="16,-78 16,-130 750,-130 750,-78 16,-78"/>
</g>
<g id="clust8" class="cluster">
<title>cluster_SpectralSetupModule_exports</title>
<polygon fill="none" stroke="#000000" points="319,-208 319,-260 497,-260 497,-208 319,-208"/>
</g>
<!-- TypeComponent -->
<g id="node1" class="node">
<title>TypeComponent</title>
<polygon fill="#ffffb3" stroke="#000000" points="742.0996,-122 631.9004,-122 631.9004,-86 742.0996,-86 742.0996,-122"/>
<text text-anchor="middle" x="687" y="-99.8" font-family="Times,serif" font-size="14.00" fill="#000000">TypeComponent</text>
</g>
<!-- SpectralSetupModule -->
<g id="node5" class="node">
<title>SpectralSetupModule</title>
<polygon fill="#8dd3c7" stroke="#000000" points="476.8061,-187 473.8061,-191 452.8061,-191 449.8061,-187 339.1939,-187 339.1939,-151 476.8061,-151 476.8061,-187"/>
<text text-anchor="middle" x="408" y="-164.8" font-family="Times,serif" font-size="14.00" fill="#000000">SpectralSetupModule</text>
</g>
<!-- TypeComponent&#45;&gt;SpectralSetupModule -->
<g id="edge1" class="edge">
<title>TypeComponent&#45;&gt;SpectralSetupModule</title>
<path fill="none" stroke="#000000" d="M687,-122.1061C687,-141.3391 687,-169 687,-169 687,-169 486.9663,-169 486.9663,-169"/>
<polygon fill="#000000" stroke="#000000" points="486.9663,-165.5001 476.9663,-169 486.9663,-172.5001 486.9663,-165.5001"/>
</g>
<!-- VisualisationViewerComponent -->
<g id="node2" class="node">
<title>VisualisationViewerComponent</title>
<polygon fill="#ffffb3" stroke="#000000" points="614.4044,-122 417.5956,-122 417.5956,-86 614.4044,-86 614.4044,-122"/>
<text text-anchor="middle" x="516" y="-99.8" font-family="Times,serif" font-size="14.00" fill="#000000">VisualisationViewerComponent</text>
</g>
<!-- VisualisationViewerComponent&#45;&gt;SpectralSetupModule -->
<g id="edge2" class="edge">
<title>VisualisationViewerComponent&#45;&gt;SpectralSetupModule</title>
<path fill="none" stroke="#000000" d="M447.2255,-122.1061C447.2255,-122.1061 447.2255,-140.991 447.2255,-140.991"/>
<polygon fill="#000000" stroke="#000000" points="443.7255,-140.9909 447.2255,-150.991 450.7255,-140.991 443.7255,-140.9909"/>
</g>
<!-- VisualisationControlComponent -->
<g id="node3" class="node">
<title>VisualisationControlComponent</title>
<polygon fill="#ffffb3" stroke="#000000" points="399.9888,-122 202.0112,-122 202.0112,-86 399.9888,-86 399.9888,-122"/>
<text text-anchor="middle" x="301" y="-99.8" font-family="Times,serif" font-size="14.00" fill="#000000">VisualisationControlComponent</text>
</g>
<!-- VisualisationControlComponent&#45;&gt;SpectralSetupModule -->
<g id="edge3" class="edge">
<title>VisualisationControlComponent&#45;&gt;SpectralSetupModule</title>
<path fill="none" stroke="#000000" d="M369.6708,-122.1061C369.6708,-122.1061 369.6708,-140.991 369.6708,-140.991"/>
<polygon fill="#000000" stroke="#000000" points="366.1708,-140.9909 369.6708,-150.991 373.1708,-140.991 366.1708,-140.9909"/>
</g>
<!-- SpectralSetupComponent -->
<g id="node4" class="node">
<title>SpectralSetupComponent</title>
<polygon fill="#ffffb3" stroke="#000000" points="183.5884,-122 24.4116,-122 24.4116,-86 183.5884,-86 183.5884,-122"/>
<text text-anchor="middle" x="104" y="-99.8" font-family="Times,serif" font-size="14.00" fill="#000000">SpectralSetupComponent</text>
</g>
<!-- SpectralSetupComponent&#45;&gt;SpectralSetupModule -->
<g id="edge4" class="edge">
<title>SpectralSetupComponent&#45;&gt;SpectralSetupModule</title>
<path fill="none" stroke="#000000" d="M104,-122.1061C104,-141.3391 104,-169 104,-169 104,-169 329.0177,-169 329.0177,-169"/>
<polygon fill="#000000" stroke="#000000" points="329.0177,-172.5001 339.0177,-169 329.0177,-165.5001 329.0177,-172.5001"/>
</g>
<!-- SpectralSetupComponent  -->
<g id="node6" class="node">
<title>SpectralSetupComponent </title>
<polygon fill="#fb8072" stroke="#000000" points="489.0889,-252 326.9111,-252 326.9111,-216 489.0889,-216 489.0889,-252"/>
<text text-anchor="middle" x="408" y="-229.8" font-family="Times,serif" font-size="14.00" fill="#000000">SpectralSetupComponent </text>
</g>
<!-- SpectralSetupModule&#45;&gt;SpectralSetupComponent  -->
<g id="edge5" class="edge">
<title>SpectralSetupModule&#45;&gt;SpectralSetupComponent </title>
<path fill="none" stroke="#000000" stroke-dasharray="5,2" d="M408,-187.1061C408,-187.1061 408,-205.991 408,-205.991"/>
<polygon fill="#000000" stroke="#000000" points="404.5001,-205.9909 408,-215.991 411.5001,-205.991 404.5001,-205.9909"/>
</g>
</g>
</svg>
