<?xml version="1.0" encoding="UTF-8" standalone="no"?>
<!DOCTYPE svg PUBLIC "-//W3C//DTD SVG 1.1//EN"
 "http://www.w3.org/Graphics/SVG/1.1/DTD/svg11.dtd">
<!-- Generated by graphviz version 2.40.1 (20161225.0304)
 -->
<!-- Title: dependencies Pages: 1 -->
<svg width="1102pt" height="284pt"
 viewBox="0.00 0.00 1102.00 284.00" xmlns="http://www.w3.org/2000/svg" xmlns:xlink="http://www.w3.org/1999/xlink">
<g id="graph0" class="graph" transform="scale(1 1) rotate(0) translate(4 280)">
<title>dependencies</title>
<polygon fill="#ffffff" stroke="transparent" points="-4,4 -4,-280 1098,-280 1098,4 -4,4"/>
<text text-anchor="start" x="526.0091" y="-42.4" font-family="sans-serif" font-weight="bold" font-size="14.00" fill="#000000">Legend</text>
<polygon fill="#ffffb3" stroke="transparent" points="313,-10 313,-30 333,-30 333,-10 313,-10"/>
<text text-anchor="start" x="336.629" y="-15.4" font-family="sans-serif" font-size="14.00" fill="#000000"> &#160;Declarations</text>
<polygon fill="#8dd3c7" stroke="transparent" points="426,-10 426,-30 446,-30 446,-10 426,-10"/>
<text text-anchor="start" x="449.7251" y="-15.4" font-family="sans-serif" font-size="14.00" fill="#000000"> &#160;Module</text>
<polygon fill="#80b1d3" stroke="transparent" points="512,-10 512,-30 532,-30 532,-10 512,-10"/>
<text text-anchor="start" x="535.7812" y="-15.4" font-family="sans-serif" font-size="14.00" fill="#000000"> &#160;Bootstrap</text>
<polygon fill="#fdb462" stroke="transparent" points="609,-10 609,-30 629,-30 629,-10 609,-10"/>
<text text-anchor="start" x="632.6732" y="-15.4" font-family="sans-serif" font-size="14.00" fill="#000000"> &#160;Providers</text>
<polygon fill="#fb8072" stroke="transparent" points="705,-10 705,-30 725,-30 725,-10 705,-10"/>
<text text-anchor="start" x="728.7258" y="-15.4" font-family="sans-serif" font-size="14.00" fill="#000000"> &#160;Exports</text>
<g id="clust1" class="cluster">
<title>cluster_SharedModule</title>
<polygon fill="none" stroke="#000000" stroke-dasharray="1,5" points="8,-70 8,-268 1086,-268 1086,-70 8,-70"/>
</g>
<g id="clust2" class="cluster">
<title>cluster_SharedModule_declarations</title>
<polygon fill="none" stroke="#000000" points="320,-78 320,-130 1078,-130 1078,-78 320,-78"/>
</g>
<g id="clust8" class="cluster">
<title>cluster_SharedModule_imports</title>
<polygon fill="none" stroke="#000000" points="206,-78 206,-130 312,-130 312,-78 206,-78"/>
</g>
<g id="clust9" class="cluster">
<title>cluster_SharedModule_exports</title>
<polygon fill="none" stroke="#000000" points="130,-208 130,-260 1018,-260 1018,-208 130,-208"/>
</g>
<g id="clust11" class="cluster">
<title>cluster_SharedModule_providers</title>
<polygon fill="none" stroke="#000000" points="16,-78 16,-130 198,-130 198,-78 16,-78"/>
</g>
<!-- ModularPanelComponent -->
<g id="node1" class="node">
<title>ModularPanelComponent</title>
<polygon fill="#ffffb3" stroke="#000000" points="1070.1456,-122 909.8544,-122 909.8544,-86 1070.1456,-86 1070.1456,-122"/>
<text text-anchor="middle" x="990" y="-99.8" font-family="Times,serif" font-size="14.00" fill="#000000">ModularPanelComponent</text>
</g>
<!-- SharedModule -->
<g id="node6" class="node">
<title>SharedModule</title>
<polygon fill="#8dd3c7" stroke="#000000" points="619.4231,-187 616.4231,-191 595.4231,-191 592.4231,-187 520.5769,-187 520.5769,-151 619.4231,-151 619.4231,-187"/>
<text text-anchor="middle" x="570" y="-164.8" font-family="Times,serif" font-size="14.00" fill="#000000">SharedModule</text>
</g>
<!-- ModularPanelComponent&#45;&gt;SharedModule -->
<g id="edge1" class="edge">
<title>ModularPanelComponent&#45;&gt;SharedModule</title>
<path fill="none" stroke="#000000" d="M947.4363,-122.1061C947.4363,-141.3391 947.4363,-169 947.4363,-169 947.4363,-169 629.3432,-169 629.3432,-169"/>
<polygon fill="#000000" stroke="#000000" points="629.3432,-165.5001 619.3432,-169 629.3432,-172.5001 629.3432,-165.5001"/>
</g>
<!-- DelayTooltipDirective -->
<g id="node2" class="node">
<title>DelayTooltipDirective</title>
<polygon fill="#ffffb3" stroke="#000000" points="891.2338,-122 748.7662,-122 748.7662,-86 891.2338,-86 891.2338,-122"/>
<text text-anchor="middle" x="820" y="-99.8" font-family="Times,serif" font-size="14.00" fill="#000000">DelayTooltipDirective</text>
</g>
<!-- DelayTooltipDirective&#45;&gt;SharedModule -->
<g id="edge2" class="edge">
<title>DelayTooltipDirective&#45;&gt;SharedModule</title>
<path fill="none" stroke="#000000" d="M820,-122.0225C820,-139.3734 820,-163 820,-163 820,-163 629.392,-163 629.392,-163"/>
<polygon fill="#000000" stroke="#000000" points="629.392,-159.5001 619.392,-163 629.3919,-166.5001 629.392,-159.5001"/>
</g>
<!-- DegreesPipe -->
<g id="node3" class="node">
<title>DegreesPipe</title>
<polygon fill="#ffffb3" stroke="#000000" points="730.2438,-122 643.7562,-122 643.7562,-86 730.2438,-86 730.2438,-122"/>
<text text-anchor="middle" x="687" y="-99.8" font-family="Times,serif" font-size="14.00" fill="#000000">DegreesPipe</text>
</g>
<!-- DegreesPipe&#45;&gt;SharedModule -->
<g id="edge3" class="edge">
<title>DegreesPipe&#45;&gt;SharedModule</title>
<path fill="none" stroke="#000000" d="M679.795,-122.2396C679.795,-137.5706 679.795,-157 679.795,-157 679.795,-157 629.4373,-157 629.4373,-157"/>
<polygon fill="#000000" stroke="#000000" points="629.4373,-153.5001 619.4373,-157 629.4372,-160.5001 629.4373,-153.5001"/>
</g>
<!-- SexagesimalPipe -->
<g id="node4" class="node">
<title>SexagesimalPipe</title>
<polygon fill="#ffffb3" stroke="#000000" points="625.6458,-122 514.3542,-122 514.3542,-86 625.6458,-86 625.6458,-122"/>
<text text-anchor="middle" x="570" y="-99.8" font-family="Times,serif" font-size="14.00" fill="#000000">SexagesimalPipe</text>
</g>
<!-- SexagesimalPipe&#45;&gt;SharedModule -->
<g id="edge4" class="edge">
<title>SexagesimalPipe&#45;&gt;SharedModule</title>
<path fill="none" stroke="#000000" d="M570,-122.1061C570,-122.1061 570,-140.991 570,-140.991"/>
<polygon fill="#000000" stroke="#000000" points="566.5001,-140.9909 570,-150.991 573.5001,-140.991 566.5001,-140.9909"/>
</g>
<!-- SystemSelectorComponent -->
<g id="node5" class="node">
<title>SystemSelectorComponent</title>
<polygon fill="#ffffb3" stroke="#000000" points="496.4241,-122 327.5759,-122 327.5759,-86 496.4241,-86 496.4241,-122"/>
<text text-anchor="middle" x="412" y="-99.8" font-family="Times,serif" font-size="14.00" fill="#000000">SystemSelectorComponent</text>
</g>
<!-- SystemSelectorComponent&#45;&gt;SharedModule -->
<g id="edge5" class="edge">
<title>SystemSelectorComponent&#45;&gt;SharedModule</title>
<path fill="none" stroke="#000000" d="M438.0475,-122.2396C438.0475,-137.5706 438.0475,-157 438.0475,-157 438.0475,-157 510.4903,-157 510.4903,-157"/>
<polygon fill="#000000" stroke="#000000" points="510.4904,-160.5001 520.4903,-157 510.4903,-153.5001 510.4904,-160.5001"/>
</g>
<!-- UnitsModule  -->
<g id="node8" class="node">
<title>UnitsModule </title>
<polygon fill="#fb8072" stroke="#000000" points="1009.883,-252 916.117,-252 916.117,-216 1009.883,-216 1009.883,-252"/>
<text text-anchor="middle" x="963" y="-229.8" font-family="Times,serif" font-size="14.00" fill="#000000">UnitsModule </text>
</g>
<!-- SharedModule&#45;&gt;UnitsModule  -->
<g id="edge7" class="edge">
<title>SharedModule&#45;&gt;UnitsModule </title>
<path fill="none" stroke="#000000" stroke-dasharray="5,2" d="M619.2823,-175C727.9478,-175 978.5637,-175 978.5637,-175 978.5637,-175 978.5637,-205.9775 978.5637,-205.9775"/>
<polygon fill="#000000" stroke="#000000" points="975.0638,-205.9774 978.5637,-215.9775 982.0638,-205.9775 975.0638,-205.9774"/>
</g>
<!-- ModularPanelComponent  -->
<g id="node9" class="node">
<title>ModularPanelComponent </title>
<polygon fill="#fb8072" stroke="#000000" points="898.1453,-252 733.8547,-252 733.8547,-216 898.1453,-216 898.1453,-252"/>
<text text-anchor="middle" x="816" y="-229.8" font-family="Times,serif" font-size="14.00" fill="#000000">ModularPanelComponent </text>
</g>
<!-- SharedModule&#45;&gt;ModularPanelComponent  -->
<g id="edge8" class="edge">
<title>SharedModule&#45;&gt;ModularPanelComponent </title>
<path fill="none" stroke="#000000" stroke-dasharray="5,2" d="M619.5414,-181C670.1269,-181 741.2803,-181 741.2803,-181 741.2803,-181 741.2803,-205.7604 741.2803,-205.7604"/>
<polygon fill="#000000" stroke="#000000" points="737.7804,-205.7604 741.2803,-215.7604 744.7804,-205.7604 737.7804,-205.7604"/>
</g>
<!-- SystemSelectorComponent  -->
<g id="node10" class="node">
<title>SystemSelectorComponent </title>
<polygon fill="#fb8072" stroke="#000000" points="715.9236,-252 544.0764,-252 544.0764,-216 715.9236,-216 715.9236,-252"/>
<text text-anchor="middle" x="630" y="-229.8" font-family="Times,serif" font-size="14.00" fill="#000000">SystemSelectorComponent </text>
</g>
<!-- SharedModule&#45;&gt;SystemSelectorComponent  -->
<g id="edge9" class="edge">
<title>SharedModule&#45;&gt;SystemSelectorComponent </title>
<path fill="none" stroke="#000000" stroke-dasharray="5,2" d="M581.6247,-187.1061C581.6247,-187.1061 581.6247,-205.991 581.6247,-205.991"/>
<polygon fill="#000000" stroke="#000000" points="578.1247,-205.9909 581.6247,-215.991 585.1247,-205.991 578.1247,-205.9909"/>
</g>
<!-- DelayTooltipDirective  -->
<g id="node11" class="node">
<title>DelayTooltipDirective </title>
<polygon fill="#fb8072" stroke="#000000" points="526.2338,-252 379.7662,-252 379.7662,-216 526.2338,-216 526.2338,-252"/>
<text text-anchor="middle" x="453" y="-229.8" font-family="Times,serif" font-size="14.00" fill="#000000">DelayTooltipDirective </text>
</g>
<!-- SharedModule&#45;&gt;DelayTooltipDirective  -->
<g id="edge10" class="edge">
<title>SharedModule&#45;&gt;DelayTooltipDirective </title>
<path fill="none" stroke="#000000" stroke-dasharray="5,2" d="M535.0775,-187.1061C535.0775,-206.3391 535.0775,-234 535.0775,-234 535.0775,-234 534.1991,-234 534.1991,-234"/>
<polygon fill="#000000" stroke="#000000" points="536.2938,-230.5001 526.2938,-234 536.2937,-237.5001 536.2938,-230.5001"/>
</g>
<!-- DegreesPipe  -->
<g id="node12" class="node">
<title>DegreesPipe </title>
<polygon fill="#fb8072" stroke="#000000" points="362.2437,-252 271.7563,-252 271.7563,-216 362.2437,-216 362.2437,-252"/>
<text text-anchor="middle" x="317" y="-229.8" font-family="Times,serif" font-size="14.00" fill="#000000">DegreesPipe </text>
</g>
<!-- SharedModule&#45;&gt;DegreesPipe  -->
<g id="edge11" class="edge">
<title>SharedModule&#45;&gt;DegreesPipe </title>
<path fill="none" stroke="#000000" stroke-dasharray="5,2" d="M520.6129,-181C454.3672,-181 344.955,-181 344.955,-181 344.955,-181 344.955,-205.7604 344.955,-205.7604"/>
<polygon fill="#000000" stroke="#000000" points="341.455,-205.7604 344.955,-215.7604 348.455,-205.7604 341.455,-205.7604"/>
</g>
<!-- SexagesimalPipe  -->
<g id="node13" class="node">
<title>SexagesimalPipe </title>
<polygon fill="#fb8072" stroke="#000000" points="253.6453,-252 138.3547,-252 138.3547,-216 253.6453,-216 253.6453,-252"/>
<text text-anchor="middle" x="196" y="-229.8" font-family="Times,serif" font-size="14.00" fill="#000000">SexagesimalPipe </text>
</g>
<!-- SharedModule&#45;&gt;SexagesimalPipe  -->
<g id="edge12" class="edge">
<title>SharedModule&#45;&gt;SexagesimalPipe </title>
<path fill="none" stroke="#000000" stroke-dasharray="5,2" d="M520.7559,-175C427.3775,-175 233.8158,-175 233.8158,-175 233.8158,-175 233.8158,-205.9775 233.8158,-205.9775"/>
<polygon fill="#000000" stroke="#000000" points="230.3158,-205.9774 233.8158,-215.9775 237.3158,-205.9775 230.3158,-205.9774"/>
</g>
<!-- UnitsModule -->
<g id="node7" class="node">
<title>UnitsModule</title>
<polygon fill="#8dd3c7" stroke="#000000" points="303.8823,-122 300.8823,-126 279.8823,-126 276.8823,-122 214.1177,-122 214.1177,-86 303.8823,-86 303.8823,-122"/>
<text text-anchor="middle" x="259" y="-99.8" font-family="Times,serif" font-size="14.00" fill="#000000">UnitsModule</text>
</g>
<!-- UnitsModule&#45;&gt;SharedModule -->
<g id="edge6" class="edge">
<title>UnitsModule&#45;&gt;SharedModule</title>
<path fill="none" stroke="#000000" d="M287.9097,-122.0225C287.9097,-139.3734 287.9097,-163 287.9097,-163 287.9097,-163 510.5408,-163 510.5408,-163"/>
<polygon fill="#000000" stroke="#000000" points="510.5409,-166.5001 520.5408,-163 510.5408,-159.5001 510.5409,-166.5001"/>
</g>
<!-- PersistenceService -->
<g id="node14" class="node">
<title>PersistenceService</title>
<ellipse fill="#fdb462" stroke="#000000" cx="107" cy="-104" rx="83.3577" ry="18"/>
<text text-anchor="middle" x="107" y="-99.8" font-family="Times,serif" font-size="14.00" fill="#000000">PersistenceService</text>
</g>
<!-- PersistenceService&#45;&gt;SharedModule -->
<g id="edge13" class="edge">
<title>PersistenceService&#45;&gt;SharedModule</title>
<path fill="none" stroke="#000000" d="M164.4281,-117.1537C164.4281,-136.1469 164.4281,-169 164.4281,-169 164.4281,-169 510.6744,-169 510.6744,-169"/>
<polygon fill="#000000" stroke="#000000" points="510.6744,-172.5001 520.6744,-169 510.6744,-165.5001 510.6744,-172.5001"/>
</g>
</g>
</svg>
