<?xml version="1.0" encoding="UTF-8" standalone="no"?>
<!DOCTYPE svg PUBLIC "-//W3C//DTD SVG 1.1//EN"
 "http://www.w3.org/Graphics/SVG/1.1/DTD/svg11.dtd">
<!-- Generated by graphviz version 2.40.1 (20161225.0304)
 -->
<!-- Title: dependencies Pages: 1 -->
<svg width="1102pt" height="284pt"
 viewBox="0.00 0.00 1102.00 284.00" xmlns="http://www.w3.org/2000/svg" xmlns:xlink="http://www.w3.org/1999/xlink">
<g id="graph0" class="graph" transform="scale(1 1) rotate(0) translate(4 280)">
<title>dependencies</title>
<polygon fill="#ffffff" stroke="transparent" points="-4,4 -4,-280 1098,-280 1098,4 -4,4"/>
<text text-anchor="start" x="526.0091" y="-42.4" font-family="sans-serif" font-weight="bold" font-size="14.00" fill="#000000">Legend</text>
<polygon fill="#ffffb3" stroke="transparent" points="313,-10 313,-30 333,-30 333,-10 313,-10"/>
<text text-anchor="start" x="336.629" y="-15.4" font-family="sans-serif" font-size="14.00" fill="#000000"> &#160;Declarations</text>
<polygon fill="#8dd3c7" stroke="transparent" points="426,-10 426,-30 446,-30 446,-10 426,-10"/>
<text text-anchor="start" x="449.7251" y="-15.4" font-family="sans-serif" font-size="14.00" fill="#000000"> &#160;Module</text>
<polygon fill="#80b1d3" stroke="transparent" points="512,-10 512,-30 532,-30 532,-10 512,-10"/>
<text text-anchor="start" x="535.7812" y="-15.4" font-family="sans-serif" font-size="14.00" fill="#000000"> &#160;Bootstrap</text>
<polygon fill="#fdb462" stroke="transparent" points="609,-10 609,-30 629,-30 629,-10 609,-10"/>
<text text-anchor="start" x="632.6732" y="-15.4" font-family="sans-serif" font-size="14.00" fill="#000000"> &#160;Providers</text>
<polygon fill="#fb8072" stroke="transparent" points="705,-10 705,-30 725,-30 725,-10 705,-10"/>
<text text-anchor="start" x="728.7258" y="-15.4" font-family="sans-serif" font-size="14.00" fill="#000000"> &#160;Exports</text>
<g id="clust1" class="cluster">
<title>cluster_SharedModule</title>
<polygon fill="none" stroke="#000000" stroke-dasharray="1,5" points="8,-70 8,-268 1086,-268 1086,-70 8,-70"/>
</g>
<g id="clust2" class="cluster">
<title>cluster_SharedModule_declarations</title>
<polygon fill="none" stroke="#000000" points="320,-78 320,-130 1078,-130 1078,-78 320,-78"/>
</g>
<g id="clust8" class="cluster">
<title>cluster_SharedModule_imports</title>
<polygon fill="none" stroke="#000000" points="206,-78 206,-130 312,-130 312,-78 206,-78"/>
</g>
<g id="clust9" class="cluster">
<title>cluster_SharedModule_exports</title>
<polygon fill="none" stroke="#000000" points="48,-208 48,-260 1078,-260 1078,-208 48,-208"/>
</g>
<g id="clust11" class="cluster">
<title>cluster_SharedModule_providers</title>
<polygon fill="none" stroke="#000000" points="16,-78 16,-130 198,-130 198,-78 16,-78"/>
</g>
<!-- ModularPanelComponent -->
<g id="node1" class="node">
<title>ModularPanelComponent</title>
<polygon fill="#ffffb3" stroke="#000000" points="1070.1456,-122 909.8544,-122 909.8544,-86 1070.1456,-86 1070.1456,-122"/>
<text text-anchor="middle" x="990" y="-99.8" font-family="Times,serif" font-size="14.00" fill="#000000">ModularPanelComponent</text>
</g>
<!-- SharedModule -->
<g id="node6" class="node">
<title>SharedModule</title>
<polygon fill="#8dd3c7" stroke="#000000" points="590.4231,-187 587.4231,-191 566.4231,-191 563.4231,-187 491.5769,-187 491.5769,-151 590.4231,-151 590.4231,-187"/>
<text text-anchor="middle" x="541" y="-164.8" font-family="Times,serif" font-size="14.00" fill="#000000">SharedModule</text>
</g>
<!-- ModularPanelComponent&#45;&gt;SharedModule -->
<g id="edge1" class="edge">
<title>ModularPanelComponent&#45;&gt;SharedModule</title>
<path fill="none" stroke="#000000" d="M933.875,-122.2222C933.875,-140.8285 933.875,-167 933.875,-167 933.875,-167 600.3601,-167 600.3601,-167"/>
<polygon fill="#000000" stroke="#000000" points="600.3601,-163.5001 590.3601,-167 600.36,-170.5001 600.3601,-163.5001"/>
</g>
<!-- DelayTooltipDirective -->
<g id="node2" class="node">
<title>DelayTooltipDirective</title>
<polygon fill="#ffffb3" stroke="#000000" points="891.2338,-122 748.7662,-122 748.7662,-86 891.2338,-86 891.2338,-122"/>
<text text-anchor="middle" x="820" y="-99.8" font-family="Times,serif" font-size="14.00" fill="#000000">DelayTooltipDirective</text>
</g>
<!-- DelayTooltipDirective&#45;&gt;SharedModule -->
<g id="edge2" class="edge">
<title>DelayTooltipDirective&#45;&gt;SharedModule</title>
<path fill="none" stroke="#000000" d="M762.2975,-122.0336C762.2975,-139.0597 762.2975,-162 762.2975,-162 762.2975,-162 600.388,-162 600.388,-162"/>
<polygon fill="#000000" stroke="#000000" points="600.3881,-158.5001 590.388,-162 600.388,-165.5001 600.3881,-158.5001"/>
</g>
<!-- DegreesPipe -->
<g id="node3" class="node">
<title>DegreesPipe</title>
<polygon fill="#ffffb3" stroke="#000000" points="730.2438,-122 643.7562,-122 643.7562,-86 730.2438,-86 730.2438,-122"/>
<text text-anchor="middle" x="687" y="-99.8" font-family="Times,serif" font-size="14.00" fill="#000000">DegreesPipe</text>
</g>
<!-- DegreesPipe&#45;&gt;SharedModule -->
<g id="edge3" class="edge">
<title>DegreesPipe&#45;&gt;SharedModule</title>
<path fill="none" stroke="#000000" d="M687,-122.2396C687,-137.5706 687,-157 687,-157 687,-157 600.4289,-157 600.4289,-157"/>
<polygon fill="#000000" stroke="#000000" points="600.429,-153.5001 590.4289,-157 600.4289,-160.5001 600.429,-153.5001"/>
</g>
<!-- SexagesimalPipe -->
<g id="node4" class="node">
<title>SexagesimalPipe</title>
<polygon fill="#ffffb3" stroke="#000000" points="625.6458,-122 514.3542,-122 514.3542,-86 625.6458,-86 625.6458,-122"/>
<text text-anchor="middle" x="570" y="-99.8" font-family="Times,serif" font-size="14.00" fill="#000000">SexagesimalPipe</text>
</g>
<!-- SexagesimalPipe&#45;&gt;SharedModule -->
<g id="edge4" class="edge">
<title>SexagesimalPipe&#45;&gt;SharedModule</title>
<path fill="none" stroke="#000000" d="M552.1943,-122.1061C552.1943,-122.1061 552.1943,-140.991 552.1943,-140.991"/>
<polygon fill="#000000" stroke="#000000" points="548.6943,-140.9909 552.1943,-150.991 555.6943,-140.991 548.6943,-140.9909"/>
</g>
<!-- SystemSelectorComponent -->
<g id="node5" class="node">
<title>SystemSelectorComponent</title>
<polygon fill="#ffffb3" stroke="#000000" points="496.4241,-122 327.5759,-122 327.5759,-86 496.4241,-86 496.4241,-122"/>
<text text-anchor="middle" x="412" y="-99.8" font-family="Times,serif" font-size="14.00" fill="#000000">SystemSelectorComponent</text>
</g>
<!-- SystemSelectorComponent&#45;&gt;SharedModule -->
<g id="edge5" class="edge">
<title>SystemSelectorComponent&#45;&gt;SharedModule</title>
<path fill="none" stroke="#000000" d="M496.2587,-104C501.7803,-104 505.1946,-104 505.1946,-104 505.1946,-104 505.1946,-140.8939 505.1946,-140.8939"/>
<polygon fill="#000000" stroke="#000000" points="501.6947,-140.8938 505.1946,-150.8939 508.6947,-140.8939 501.6947,-140.8938"/>
</g>
<!-- UnitsModule  -->
<g id="node8" class="node">
<title>UnitsModule </title>
<polygon fill="#fb8072" stroke="#000000" points="1069.883,-252 976.117,-252 976.117,-216 1069.883,-216 1069.883,-252"/>
<text text-anchor="middle" x="1023" y="-229.8" font-family="Times,serif" font-size="14.00" fill="#000000">UnitsModule </text>
</g>
<!-- SharedModule&#45;&gt;UnitsModule  -->
<g id="edge7" class="edge">
<title>SharedModule&#45;&gt;UnitsModule </title>
<path fill="none" stroke="#000000" stroke-dasharray="5,2" d="M590.3173,-172C713.1629,-172 1023,-172 1023,-172 1023,-172 1023,-205.7333 1023,-205.7333"/>
<polygon fill="#000000" stroke="#000000" points="1019.5001,-205.7333 1023,-215.7333 1026.5001,-205.7333 1019.5001,-205.7333"/>
</g>
<!-- ModularPanelComponent  -->
<g id="node9" class="node">
<title>ModularPanelComponent </title>
<polygon fill="#fb8072" stroke="#000000" points="958.1453,-252 793.8547,-252 793.8547,-216 958.1453,-216 958.1453,-252"/>
<text text-anchor="middle" x="876" y="-229.8" font-family="Times,serif" font-size="14.00" fill="#000000">ModularPanelComponent </text>
</g>
<!-- SharedModule&#45;&gt;ModularPanelComponent  -->
<g id="edge8" class="edge">
<title>SharedModule&#45;&gt;ModularPanelComponent </title>
<path fill="none" stroke="#000000" stroke-dasharray="5,2" d="M590.4731,-177C676.0496,-177 842.6471,-177 842.6471,-177 842.6471,-177 842.6471,-205.9648 842.6471,-205.9648"/>
<polygon fill="#000000" stroke="#000000" points="839.1472,-205.9648 842.6471,-215.9648 846.1472,-205.9649 839.1472,-205.9648"/>
</g>
<!-- SystemSelectorComponent  -->
<g id="node10" class="node">
<title>SystemSelectorComponent </title>
<polygon fill="#fb8072" stroke="#000000" points="775.9236,-252 604.0764,-252 604.0764,-216 775.9236,-216 775.9236,-252"/>
<text text-anchor="middle" x="690" y="-229.8" font-family="Times,serif" font-size="14.00" fill="#000000">SystemSelectorComponent </text>
</g>
<!-- SharedModule&#45;&gt;SystemSelectorComponent  -->
<g id="edge9" class="edge">
<title>SharedModule&#45;&gt;SystemSelectorComponent </title>
<path fill="none" stroke="#000000" stroke-dasharray="5,2" d="M590.3126,-182C603.874,-182 614.9304,-182 614.9304,-182 614.9304,-182 614.9304,-205.8129 614.9304,-205.8129"/>
<polygon fill="#000000" stroke="#000000" points="611.4305,-205.8129 614.9304,-215.8129 618.4305,-205.813 611.4305,-205.8129"/>
</g>
<!-- DelayTooltipDirective  -->
<g id="node11" class="node">
<title>DelayTooltipDirective </title>
<polygon fill="#fb8072" stroke="#000000" points="586.2338,-252 439.7662,-252 439.7662,-216 586.2338,-216 586.2338,-252"/>
<text text-anchor="middle" x="513" y="-229.8" font-family="Times,serif" font-size="14.00" fill="#000000">DelayTooltipDirective </text>
</g>
<!-- SharedModule&#45;&gt;DelayTooltipDirective  -->
<g id="edge10" class="edge">
<title>SharedModule&#45;&gt;DelayTooltipDirective </title>
<path fill="none" stroke="#000000" stroke-dasharray="5,2" d="M538.9529,-187.1061C538.9529,-187.1061 538.9529,-205.991 538.9529,-205.991"/>
<polygon fill="#000000" stroke="#000000" points="535.4529,-205.9909 538.9529,-215.991 542.4529,-205.991 535.4529,-205.9909"/>
</g>
<!-- DegreesPipe  -->
<g id="node12" class="node">
<title>DegreesPipe </title>
<polygon fill="#fb8072" stroke="#000000" points="422.2437,-252 331.7563,-252 331.7563,-216 422.2437,-216 422.2437,-252"/>
<text text-anchor="middle" x="377" y="-229.8" font-family="Times,serif" font-size="14.00" fill="#000000">DegreesPipe </text>
</g>
<!-- SharedModule&#45;&gt;DegreesPipe  -->
<g id="edge11" class="edge">
<title>SharedModule&#45;&gt;DegreesPipe </title>
<path fill="none" stroke="#000000" stroke-dasharray="5,2" d="M491.3495,-181C443.0801,-181 377,-181 377,-181 377,-181 377,-205.7604 377,-205.7604"/>
<polygon fill="#000000" stroke="#000000" points="373.5001,-205.7604 377,-215.7604 380.5001,-205.7604 373.5001,-205.7604"/>
</g>
<!-- SexagesimalPipe  -->
<g id="node13" class="node">
<title>SexagesimalPipe </title>
<polygon fill="#fb8072" stroke="#000000" points="313.6453,-252 198.3547,-252 198.3547,-216 313.6453,-216 313.6453,-252"/>
<text text-anchor="middle" x="256" y="-229.8" font-family="Times,serif" font-size="14.00" fill="#000000">SexagesimalPipe </text>
</g>
<!-- SharedModule&#45;&gt;SexagesimalPipe  -->
<g id="edge12" class="edge">
<title>SharedModule&#45;&gt;SexagesimalPipe </title>
<path fill="none" stroke="#000000" stroke-dasharray="5,2" d="M491.7472,-175C423.5743,-175 308.7569,-175 308.7569,-175 308.7569,-175 308.7569,-205.9775 308.7569,-205.9775"/>
<polygon fill="#000000" stroke="#000000" points="305.2569,-205.9774 308.7569,-215.9775 312.2569,-205.9775 305.2569,-205.9774"/>
</g>
<!-- PersistenceService  -->
<g id="node14" class="node">
<title>PersistenceService </title>
<polygon fill="#fb8072" stroke="#000000" points="180.4504,-252 55.5496,-252 55.5496,-216 180.4504,-216 180.4504,-252"/>
<text text-anchor="middle" x="118" y="-229.8" font-family="Times,serif" font-size="14.00" fill="#000000">PersistenceService </text>
</g>
<!-- SharedModule&#45;&gt;PersistenceService  -->
<g id="edge13" class="edge">
<title>SharedModule&#45;&gt;PersistenceService </title>
<path fill="none" stroke="#000000" stroke-dasharray="5,2" d="M491.6487,-169C380.0659,-169 118,-169 118,-169 118,-169 118,-205.8939 118,-205.8939"/>
<polygon fill="#000000" stroke="#000000" points="114.5001,-205.8938 118,-215.8939 121.5001,-205.8939 114.5001,-205.8938"/>
</g>
<!-- UnitsModule -->
<g id="node7" class="node">
<title>UnitsModule</title>
<polygon fill="#8dd3c7" stroke="#000000" points="303.8823,-122 300.8823,-126 279.8823,-126 276.8823,-122 214.1177,-122 214.1177,-86 303.8823,-86 303.8823,-122"/>
<text text-anchor="middle" x="259" y="-99.8" font-family="Times,serif" font-size="14.00" fill="#000000">UnitsModule</text>
</g>
<!-- UnitsModule&#45;&gt;SharedModule -->
<g id="edge6" class="edge">
<title>UnitsModule&#45;&gt;SharedModule</title>
<path fill="none" stroke="#000000" d="M259,-122.2396C259,-137.5706 259,-157 259,-157 259,-157 481.5567,-157 481.5567,-157"/>
<polygon fill="#000000" stroke="#000000" points="481.5567,-160.5001 491.5567,-157 481.5566,-153.5001 481.5567,-160.5001"/>
</g>
<!-- PersistenceService -->
<g id="node15" class="node">
<title>PersistenceService</title>
<ellipse fill="#fdb462" stroke="#000000" cx="107" cy="-104" rx="83.3577" ry="18"/>
<text text-anchor="middle" x="107" y="-99.8" font-family="Times,serif" font-size="14.00" fill="#000000">PersistenceService</text>
</g>
<!-- PersistenceService&#45;&gt;SharedModule -->
<g id="edge14" class="edge">
<title>PersistenceService&#45;&gt;SharedModule</title>
<path fill="none" stroke="#000000" d="M185.3268,-110.314C185.3268,-125.5344 185.3268,-163 185.3268,-163 185.3268,-163 481.5452,-163 481.5452,-163"/>
<polygon fill="#000000" stroke="#000000" points="481.5452,-166.5001 491.5452,-163 481.5451,-159.5001 481.5452,-166.5001"/>
</g>
</g>
</svg>
