<?xml version="1.0" encoding="UTF-8" standalone="no"?>
<!DOCTYPE svg PUBLIC "-//W3C//DTD SVG 1.1//EN"
 "http://www.w3.org/Graphics/SVG/1.1/DTD/svg11.dtd">
<!-- Generated by graphviz version 2.40.1 (20161225.0304)
 -->
<!-- Title: dependencies Pages: 1 -->
<svg width="1414pt" height="284pt"
 viewBox="0.00 0.00 1414.00 284.00" xmlns="http://www.w3.org/2000/svg" xmlns:xlink="http://www.w3.org/1999/xlink">
<g id="graph0" class="graph" transform="scale(1 1) rotate(0) translate(4 280)">
<title>dependencies</title>
<polygon fill="#ffffff" stroke="transparent" points="-4,4 -4,-280 1410,-280 1410,4 -4,4"/>
<text text-anchor="start" x="682.0091" y="-42.4" font-family="sans-serif" font-weight="bold" font-size="14.00" fill="#000000">Legend</text>
<polygon fill="#ffffb3" stroke="transparent" points="469,-10 469,-30 489,-30 489,-10 469,-10"/>
<text text-anchor="start" x="492.629" y="-15.4" font-family="sans-serif" font-size="14.00" fill="#000000"> &#160;Declarations</text>
<polygon fill="#8dd3c7" stroke="transparent" points="582,-10 582,-30 602,-30 602,-10 582,-10"/>
<text text-anchor="start" x="605.7251" y="-15.4" font-family="sans-serif" font-size="14.00" fill="#000000"> &#160;Module</text>
<polygon fill="#80b1d3" stroke="transparent" points="668,-10 668,-30 688,-30 688,-10 668,-10"/>
<text text-anchor="start" x="691.7812" y="-15.4" font-family="sans-serif" font-size="14.00" fill="#000000"> &#160;Bootstrap</text>
<polygon fill="#fdb462" stroke="transparent" points="765,-10 765,-30 785,-30 785,-10 765,-10"/>
<text text-anchor="start" x="788.6732" y="-15.4" font-family="sans-serif" font-size="14.00" fill="#000000"> &#160;Providers</text>
<polygon fill="#fb8072" stroke="transparent" points="861,-10 861,-30 881,-30 881,-10 861,-10"/>
<text text-anchor="start" x="884.7258" y="-15.4" font-family="sans-serif" font-size="14.00" fill="#000000"> &#160;Exports</text>
<g id="clust1" class="cluster">
<title>cluster_SharedModule</title>
<polygon fill="none" stroke="#000000" stroke-dasharray="1,5" points="8,-70 8,-268 1398,-268 1398,-70 8,-70"/>
</g>
<g id="clust2" class="cluster">
<title>cluster_SharedModule_declarations</title>
<polygon fill="none" stroke="#000000" points="632,-78 632,-130 1390,-130 1390,-78 632,-78"/>
</g>
<g id="clust8" class="cluster">
<title>cluster_SharedModule_imports</title>
<polygon fill="none" stroke="#000000" points="518,-78 518,-130 624,-130 624,-78 518,-78"/>
</g>
<g id="clust9" class="cluster">
<title>cluster_SharedModule_exports</title>
<polygon fill="none" stroke="#000000" points="401,-208 401,-260 1107,-260 1107,-208 401,-208"/>
</g>
<g id="clust11" class="cluster">
<title>cluster_SharedModule_providers</title>
<polygon fill="none" stroke="#000000" points="16,-78 16,-130 510,-130 510,-78 16,-78"/>
</g>
<!-- ModularPanelComponent -->
<g id="node1" class="node">
<title>ModularPanelComponent</title>
<polygon fill="#ffffb3" stroke="#000000" points="1382.1456,-122 1221.8544,-122 1221.8544,-86 1382.1456,-86 1382.1456,-122"/>
<text text-anchor="middle" x="1302" y="-99.8" font-family="Times,serif" font-size="14.00" fill="#000000">ModularPanelComponent</text>
</g>
<!-- SharedModule -->
<g id="node6" class="node">
<title>SharedModule</title>
<polygon fill="#8dd3c7" stroke="#000000" points="773.4231,-187 770.4231,-191 749.4231,-191 746.4231,-187 674.5769,-187 674.5769,-151 773.4231,-151 773.4231,-187"/>
<text text-anchor="middle" x="724" y="-164.8" font-family="Times,serif" font-size="14.00" fill="#000000">SharedModule</text>
</g>
<!-- ModularPanelComponent&#45;&gt;SharedModule -->
<g id="edge1" class="edge">
<title>ModularPanelComponent&#45;&gt;SharedModule</title>
<path fill="none" stroke="#000000" d="M1302,-122.2228C1302,-142.3652 1302,-172 1302,-172 1302,-172 783.28,-172 783.28,-172"/>
<polygon fill="#000000" stroke="#000000" points="783.28,-168.5001 773.28,-172 783.2799,-175.5001 783.28,-168.5001"/>
</g>
<!-- DelayTooltipDirective -->
<g id="node2" class="node">
<title>DelayTooltipDirective</title>
<polygon fill="#ffffb3" stroke="#000000" points="1203.2338,-122 1060.7662,-122 1060.7662,-86 1203.2338,-86 1203.2338,-122"/>
<text text-anchor="middle" x="1132" y="-99.8" font-family="Times,serif" font-size="14.00" fill="#000000">DelayTooltipDirective</text>
</g>
<!-- DelayTooltipDirective&#45;&gt;SharedModule -->
<g id="edge2" class="edge">
<title>DelayTooltipDirective&#45;&gt;SharedModule</title>
<path fill="none" stroke="#000000" d="M1079.6622,-122.2222C1079.6622,-140.8285 1079.6622,-167 1079.6622,-167 1079.6622,-167 783.4533,-167 783.4533,-167"/>
<polygon fill="#000000" stroke="#000000" points="783.4533,-163.5001 773.4533,-167 783.4533,-170.5001 783.4533,-163.5001"/>
</g>
<!-- DegreesPipe -->
<g id="node3" class="node">
<title>DegreesPipe</title>
<polygon fill="#ffffb3" stroke="#000000" points="1042.2438,-122 955.7562,-122 955.7562,-86 1042.2438,-86 1042.2438,-122"/>
<text text-anchor="middle" x="999" y="-99.8" font-family="Times,serif" font-size="14.00" fill="#000000">DegreesPipe</text>
</g>
<!-- DegreesPipe&#45;&gt;SharedModule -->
<g id="edge3" class="edge">
<title>DegreesPipe&#45;&gt;SharedModule</title>
<path fill="none" stroke="#000000" d="M971.2951,-122.0336C971.2951,-139.0597 971.2951,-162 971.2951,-162 971.2951,-162 783.4495,-162 783.4495,-162"/>
<polygon fill="#000000" stroke="#000000" points="783.4495,-158.5001 773.4495,-162 783.4495,-165.5001 783.4495,-158.5001"/>
</g>
<!-- SexagesimalPipe -->
<g id="node4" class="node">
<title>SexagesimalPipe</title>
<polygon fill="#ffffb3" stroke="#000000" points="937.6458,-122 826.3542,-122 826.3542,-86 937.6458,-86 937.6458,-122"/>
<text text-anchor="middle" x="882" y="-99.8" font-family="Times,serif" font-size="14.00" fill="#000000">SexagesimalPipe</text>
</g>
<!-- SexagesimalPipe&#45;&gt;SharedModule -->
<g id="edge4" class="edge">
<title>SexagesimalPipe&#45;&gt;SharedModule</title>
<path fill="none" stroke="#000000" d="M882,-122.2396C882,-137.5706 882,-157 882,-157 882,-157 783.5587,-157 783.5587,-157"/>
<polygon fill="#000000" stroke="#000000" points="783.5587,-153.5001 773.5587,-157 783.5586,-160.5001 783.5587,-153.5001"/>
</g>
<!-- SystemSelectorComponent -->
<g id="node5" class="node">
<title>SystemSelectorComponent</title>
<polygon fill="#ffffb3" stroke="#000000" points="808.4241,-122 639.5759,-122 639.5759,-86 808.4241,-86 808.4241,-122"/>
<text text-anchor="middle" x="724" y="-99.8" font-family="Times,serif" font-size="14.00" fill="#000000">SystemSelectorComponent</text>
</g>
<!-- SystemSelectorComponent&#45;&gt;SharedModule -->
<g id="edge5" class="edge">
<title>SystemSelectorComponent&#45;&gt;SharedModule</title>
<path fill="none" stroke="#000000" d="M724,-122.1061C724,-122.1061 724,-140.991 724,-140.991"/>
<polygon fill="#000000" stroke="#000000" points="720.5001,-140.9909 724,-150.991 727.5001,-140.991 720.5001,-140.9909"/>
</g>
<!-- UnitsModule  -->
<g id="node8" class="node">
<title>UnitsModule </title>
<polygon fill="#fb8072" stroke="#000000" points="1098.883,-252 1005.117,-252 1005.117,-216 1098.883,-216 1098.883,-252"/>
<text text-anchor="middle" x="1052" y="-229.8" font-family="Times,serif" font-size="14.00" fill="#000000">UnitsModule </text>
</g>
<!-- SharedModule&#45;&gt;UnitsModule  -->
<g id="edge7" class="edge">
<title>SharedModule&#45;&gt;UnitsModule </title>
<path fill="none" stroke="#000000" stroke-dasharray="5,2" d="M773.5125,-177C858.6756,-177 1023.8403,-177 1023.8403,-177 1023.8403,-177 1023.8403,-205.9648 1023.8403,-205.9648"/>
<polygon fill="#000000" stroke="#000000" points="1020.3404,-205.9648 1023.8403,-215.9648 1027.3404,-205.9649 1020.3404,-205.9648"/>
</g>
<!-- SystemSelectorComponent  -->
<g id="node9" class="node">
<title>SystemSelectorComponent </title>
<polygon fill="#fb8072" stroke="#000000" points="986.9236,-252 815.0764,-252 815.0764,-216 986.9236,-216 986.9236,-252"/>
<text text-anchor="middle" x="901" y="-229.8" font-family="Times,serif" font-size="14.00" fill="#000000">SystemSelectorComponent </text>
</g>
<!-- SharedModule&#45;&gt;SystemSelectorComponent  -->
<g id="edge8" class="edge">
<title>SharedModule&#45;&gt;SystemSelectorComponent </title>
<path fill="none" stroke="#000000" stroke-dasharray="5,2" d="M773.4359,-182C797.2047,-182 820.6078,-182 820.6078,-182 820.6078,-182 820.6078,-205.8129 820.6078,-205.8129"/>
<polygon fill="#000000" stroke="#000000" points="817.1079,-205.8129 820.6078,-215.8129 824.1079,-205.813 817.1079,-205.8129"/>
</g>
<!-- DelayTooltipDirective  -->
<g id="node10" class="node">
<title>DelayTooltipDirective </title>
<polygon fill="#fb8072" stroke="#000000" points="797.2338,-252 650.7662,-252 650.7662,-216 797.2338,-216 797.2338,-252"/>
<text text-anchor="middle" x="724" y="-229.8" font-family="Times,serif" font-size="14.00" fill="#000000">DelayTooltipDirective </text>
</g>
<!-- SharedModule&#45;&gt;DelayTooltipDirective  -->
<g id="edge9" class="edge">
<title>SharedModule&#45;&gt;DelayTooltipDirective </title>
<path fill="none" stroke="#000000" stroke-dasharray="5,2" d="M724,-187.1061C724,-187.1061 724,-205.991 724,-205.991"/>
<polygon fill="#000000" stroke="#000000" points="720.5001,-205.9909 724,-215.991 727.5001,-205.991 720.5001,-205.9909"/>
</g>
<!-- DegreesPipe  -->
<g id="node11" class="node">
<title>DegreesPipe </title>
<polygon fill="#fb8072" stroke="#000000" points="633.2437,-252 542.7563,-252 542.7563,-216 633.2437,-216 633.2437,-252"/>
<text text-anchor="middle" x="588" y="-229.8" font-family="Times,serif" font-size="14.00" fill="#000000">DegreesPipe </text>
</g>
<!-- SharedModule&#45;&gt;DegreesPipe  -->
<g id="edge10" class="edge">
<title>SharedModule&#45;&gt;DegreesPipe </title>
<path fill="none" stroke="#000000" stroke-dasharray="5,2" d="M674.5571,-182C649.5932,-182 624.5314,-182 624.5314,-182 624.5314,-182 624.5314,-205.8129 624.5314,-205.8129"/>
<polygon fill="#000000" stroke="#000000" points="621.0315,-205.8129 624.5314,-215.8129 628.0315,-205.813 621.0315,-205.8129"/>
</g>
<!-- SexagesimalPipe  -->
<g id="node12" class="node">
<title>SexagesimalPipe </title>
<polygon fill="#fb8072" stroke="#000000" points="524.6453,-252 409.3547,-252 409.3547,-216 524.6453,-216 524.6453,-252"/>
<text text-anchor="middle" x="467" y="-229.8" font-family="Times,serif" font-size="14.00" fill="#000000">SexagesimalPipe </text>
</g>
<!-- SharedModule&#45;&gt;SexagesimalPipe  -->
<g id="edge11" class="edge">
<title>SharedModule&#45;&gt;SexagesimalPipe </title>
<path fill="none" stroke="#000000" stroke-dasharray="5,2" d="M674.6473,-177C612.43,-177 513.5007,-177 513.5007,-177 513.5007,-177 513.5007,-205.9648 513.5007,-205.9648"/>
<polygon fill="#000000" stroke="#000000" points="510.0008,-205.9648 513.5007,-215.9648 517.0008,-205.9649 510.0008,-205.9648"/>
</g>
<!-- UnitsModule -->
<g id="node7" class="node">
<title>UnitsModule</title>
<polygon fill="#8dd3c7" stroke="#000000" points="615.8823,-122 612.8823,-126 591.8823,-126 588.8823,-122 526.1177,-122 526.1177,-86 615.8823,-86 615.8823,-122"/>
<text text-anchor="middle" x="571" y="-99.8" font-family="Times,serif" font-size="14.00" fill="#000000">UnitsModule</text>
</g>
<!-- UnitsModule&#45;&gt;SharedModule -->
<g id="edge6" class="edge">
<title>UnitsModule&#45;&gt;SharedModule</title>
<path fill="none" stroke="#000000" d="M579.4097,-122.2396C579.4097,-137.5706 579.4097,-157 579.4097,-157 579.4097,-157 664.6446,-157 664.6446,-157"/>
<polygon fill="#000000" stroke="#000000" points="664.6447,-160.5001 674.6446,-157 664.6446,-153.5001 664.6447,-160.5001"/>
</g>
<!-- ProjectService -->
<g id="node13" class="node">
<title>PersistenceService</title>
<ellipse fill="#fdb462" stroke="#000000" cx="419" cy="-104" rx="83.3577" ry="18"/>
<text text-anchor="middle" x="419" y="-99.8" font-family="Times,serif" font-size="14.00" fill="#000000">PersistenceService</text>
</g>
<!-- ProjectService&#45;&gt;SharedModule -->
<g id="edge12" class="edge">
<title>PersistenceService&#45;&gt;SharedModule</title>
<path fill="none" stroke="#000000" d="M455.9281,-120.1562C455.9281,-137.318 455.9281,-162 455.9281,-162 455.9281,-162 664.5191,-162 664.5191,-162"/>
<polygon fill="#000000" stroke="#000000" points="664.5191,-165.5001 674.5191,-162 664.519,-158.5001 664.5191,-165.5001"/>
</g>
<!-- SystemService -->
<g id="node14" class="node">
<title>SystemService</title>
<ellipse fill="#fdb462" stroke="#000000" cx="249" cy="-104" rx="68.3536" ry="18"/>
<text text-anchor="middle" x="249" y="-99.8" font-family="Times,serif" font-size="14.00" fill="#000000">SystemService</text>
</g>
<!-- SystemService&#45;&gt;SharedModule -->
<g id="edge13" class="edge">
<title>SystemService&#45;&gt;SharedModule</title>
<path fill="none" stroke="#000000" d="M249,-122.2222C249,-140.8285 249,-167 249,-167 249,-167 664.5109,-167 664.5109,-167"/>
<polygon fill="#000000" stroke="#000000" points="664.5109,-170.5001 674.5109,-167 664.5109,-163.5001 664.5109,-170.5001"/>
</g>
<!-- SimbadService -->
<g id="node15" class="node">
<title>SimbadService</title>
<ellipse fill="#fdb462" stroke="#000000" cx="93" cy="-104" rx="69.4993" ry="18"/>
<text text-anchor="middle" x="93" y="-99.8" font-family="Times,serif" font-size="14.00" fill="#000000">SimbadService</text>
</g>
<!-- SimbadService&#45;&gt;SharedModule -->
<g id="edge14" class="edge">
<title>SimbadService&#45;&gt;SharedModule</title>
<path fill="none" stroke="#000000" d="M93,-122.2228C93,-142.3652 93,-172 93,-172 93,-172 664.7493,-172 664.7493,-172"/>
<polygon fill="#000000" stroke="#000000" points="664.7494,-175.5001 674.7493,-172 664.7493,-168.5001 664.7494,-175.5001"/>
</g>
</g>
</svg>
