<?xml version="1.0" encoding="UTF-8" standalone="no"?>
<!DOCTYPE svg PUBLIC "-//W3C//DTD SVG 1.1//EN"
 "http://www.w3.org/Graphics/SVG/1.1/DTD/svg11.dtd">
<!-- Generated by graphviz version 2.40.1 (20161225.0304)
 -->
<!-- Title: dependencies Pages: 1 -->
<svg width="626pt" height="284pt"
 viewBox="0.00 0.00 626.00 284.00" xmlns="http://www.w3.org/2000/svg" xmlns:xlink="http://www.w3.org/1999/xlink">
<g id="graph0" class="graph" transform="scale(1 1) rotate(0) translate(4 280)">
<title>dependencies</title>
<polygon fill="#ffffff" stroke="transparent" points="-4,4 -4,-280 622,-280 622,4 -4,4"/>
<text text-anchor="start" x="288.0091" y="-42.4" font-family="sans-serif" font-weight="bold" font-size="14.00" fill="#000000">Legend</text>
<polygon fill="#ffffb3" stroke="transparent" points="75,-10 75,-30 95,-30 95,-10 75,-10"/>
<text text-anchor="start" x="98.629" y="-15.4" font-family="sans-serif" font-size="14.00" fill="#000000"> &#160;Declarations</text>
<polygon fill="#8dd3c7" stroke="transparent" points="188,-10 188,-30 208,-30 208,-10 188,-10"/>
<text text-anchor="start" x="211.7251" y="-15.4" font-family="sans-serif" font-size="14.00" fill="#000000"> &#160;Module</text>
<polygon fill="#80b1d3" stroke="transparent" points="274,-10 274,-30 294,-30 294,-10 274,-10"/>
<text text-anchor="start" x="297.7812" y="-15.4" font-family="sans-serif" font-size="14.00" fill="#000000"> &#160;Bootstrap</text>
<polygon fill="#fdb462" stroke="transparent" points="371,-10 371,-30 391,-30 391,-10 371,-10"/>
<text text-anchor="start" x="394.6732" y="-15.4" font-family="sans-serif" font-size="14.00" fill="#000000"> &#160;Providers</text>
<polygon fill="#fb8072" stroke="transparent" points="467,-10 467,-30 487,-30 487,-10 467,-10"/>
<text text-anchor="start" x="490.7258" y="-15.4" font-family="sans-serif" font-size="14.00" fill="#000000"> &#160;Exports</text>
<g id="clust1" class="cluster">
<title>cluster_SharedModule</title>
<polygon fill="none" stroke="#000000" stroke-dasharray="1,5" points="8,-70 8,-268 610,-268 610,-70 8,-70"/>
</g>
<g id="clust2" class="cluster">
<title>cluster_SharedModule_declarations</title>
<polygon fill="none" stroke="#000000" points="24,-78 24,-130 596,-130 596,-78 24,-78"/>
</g>
<g id="clust8" class="cluster">
<title>cluster_SharedModule_exports</title>
<polygon fill="none" stroke="#000000" points="16,-208 16,-260 602,-260 602,-208 16,-208"/>
</g>
<!-- ModularPanelComponent -->
<g id="node1" class="node">
<title>ModularPanelComponent</title>
<polygon fill="#ffffb3" stroke="#000000" points="588.1456,-122 427.8544,-122 427.8544,-86 588.1456,-86 588.1456,-122"/>
<text text-anchor="middle" x="508" y="-99.8" font-family="Times,serif" font-size="14.00" fill="#000000">ModularPanelComponent</text>
</g>
<!-- SharedModule -->
<g id="node5" class="node">
<title>SharedModule</title>
<polygon fill="#8dd3c7" stroke="#000000" points="257.4231,-187 254.4231,-191 233.4231,-191 230.4231,-187 158.5769,-187 158.5769,-151 257.4231,-151 257.4231,-187"/>
<text text-anchor="middle" x="208" y="-164.8" font-family="Times,serif" font-size="14.00" fill="#000000">SharedModule</text>
</g>
<!-- ModularPanelComponent&#45;&gt;SharedModule -->
<g id="edge1" class="edge">
<title>ModularPanelComponent&#45;&gt;SharedModule</title>
<path fill="none" stroke="#000000" d="M535.5242,-122.0225C535.5242,-139.3734 535.5242,-163 535.5242,-163 535.5242,-163 267.3883,-163 267.3883,-163"/>
<polygon fill="#000000" stroke="#000000" points="267.3883,-159.5001 257.3883,-163 267.3883,-166.5001 267.3883,-159.5001"/>
</g>
<!-- DelayTooltipDirective -->
<g id="node2" class="node">
<title>DelayTooltipDirective</title>
<polygon fill="#ffffb3" stroke="#000000" points="409.2338,-122 266.7662,-122 266.7662,-86 409.2338,-86 409.2338,-122"/>
<text text-anchor="middle" x="338" y="-99.8" font-family="Times,serif" font-size="14.00" fill="#000000">DelayTooltipDirective</text>
</g>
<!-- DelayTooltipDirective&#45;&gt;SharedModule -->
<g id="edge2" class="edge">
<title>DelayTooltipDirective&#45;&gt;SharedModule</title>
<path fill="none" stroke="#000000" d="M266.4816,-104C258.2847,-104 252.7914,-104 252.7914,-104 252.7914,-104 252.7914,-140.8939 252.7914,-140.8939"/>
<polygon fill="#000000" stroke="#000000" points="249.2915,-140.8938 252.7914,-150.8939 256.2915,-140.8939 249.2915,-140.8938"/>
</g>
<!-- DegreesPipe -->
<g id="node3" class="node">
<title>DegreesPipe</title>
<polygon fill="#ffffb3" stroke="#000000" points="248.2438,-122 161.7562,-122 161.7562,-86 248.2438,-86 248.2438,-122"/>
<text text-anchor="middle" x="205" y="-99.8" font-family="Times,serif" font-size="14.00" fill="#000000">DegreesPipe</text>
</g>
<!-- DegreesPipe&#45;&gt;SharedModule -->
<g id="edge3" class="edge">
<title>DegreesPipe&#45;&gt;SharedModule</title>
<path fill="none" stroke="#000000" d="M205,-122.1061C205,-122.1061 205,-140.991 205,-140.991"/>
<polygon fill="#000000" stroke="#000000" points="201.5001,-140.9909 205,-150.991 208.5001,-140.991 201.5001,-140.9909"/>
</g>
<!-- SexagesimalPipe -->
<g id="node4" class="node">
<title>SexagesimalPipe</title>
<polygon fill="#ffffb3" stroke="#000000" points="143.6458,-122 32.3542,-122 32.3542,-86 143.6458,-86 143.6458,-122"/>
<text text-anchor="middle" x="88" y="-99.8" font-family="Times,serif" font-size="14.00" fill="#000000">SexagesimalPipe</text>
</g>
<!-- SexagesimalPipe&#45;&gt;SharedModule -->
<g id="edge4" class="edge">
<title>SexagesimalPipe&#45;&gt;SharedModule</title>
<path fill="none" stroke="#000000" d="M103.7742,-122.0225C103.7742,-139.3734 103.7742,-163 103.7742,-163 103.7742,-163 148.6341,-163 148.6341,-163"/>
<polygon fill="#000000" stroke="#000000" points="148.6341,-166.5001 158.6341,-163 148.6341,-159.5001 148.6341,-166.5001"/>
</g>
<!-- ModularPanelComponent  -->
<g id="node6" class="node">
<title>ModularPanelComponent </title>
<polygon fill="#fb8072" stroke="#000000" points="594.1453,-252 429.8547,-252 429.8547,-216 594.1453,-216 594.1453,-252"/>
<text text-anchor="middle" x="512" y="-229.8" font-family="Times,serif" font-size="14.00" fill="#000000">ModularPanelComponent </text>
</g>
<!-- SharedModule&#45;&gt;ModularPanelComponent  -->
<g id="edge5" class="edge">
<title>SharedModule&#45;&gt;ModularPanelComponent </title>
<path fill="none" stroke="#000000" stroke-dasharray="5,2" d="M257.4328,-175C336.528,-175 482.7258,-175 482.7258,-175 482.7258,-175 482.7258,-205.9775 482.7258,-205.9775"/>
<polygon fill="#000000" stroke="#000000" points="479.2259,-205.9774 482.7258,-215.9775 486.2259,-205.9775 479.2259,-205.9774"/>
</g>
<!-- DelayTooltipDirective  -->
<g id="node7" class="node">
<title>DelayTooltipDirective </title>
<polygon fill="#fb8072" stroke="#000000" points="412.2338,-252 265.7662,-252 265.7662,-216 412.2338,-216 412.2338,-252"/>
<text text-anchor="middle" x="339" y="-229.8" font-family="Times,serif" font-size="14.00" fill="#000000">DelayTooltipDirective </text>
</g>
<!-- SharedModule&#45;&gt;DelayTooltipDirective  -->
<g id="edge6" class="edge">
<title>SharedModule&#45;&gt;DelayTooltipDirective </title>
<path fill="none" stroke="#000000" stroke-dasharray="5,2" d="M252.6664,-187.1061C252.6664,-206.3391 252.6664,-234 252.6664,-234 252.6664,-234 255.7786,-234 255.7786,-234"/>
<polygon fill="#000000" stroke="#000000" points="255.7787,-237.5001 265.7786,-234 255.7786,-230.5001 255.7787,-237.5001"/>
</g>
<!-- DegreesPipe  -->
<g id="node8" class="node">
<title>DegreesPipe </title>
<polygon fill="#fb8072" stroke="#000000" points="248.2437,-252 157.7563,-252 157.7563,-216 248.2437,-216 248.2437,-252"/>
<text text-anchor="middle" x="203" y="-229.8" font-family="Times,serif" font-size="14.00" fill="#000000">DegreesPipe </text>
</g>
<!-- SharedModule&#45;&gt;DegreesPipe  -->
<g id="edge7" class="edge">
<title>SharedModule&#45;&gt;DegreesPipe </title>
<path fill="none" stroke="#000000" stroke-dasharray="5,2" d="M203.4553,-187.1061C203.4553,-187.1061 203.4553,-205.991 203.4553,-205.991"/>
<polygon fill="#000000" stroke="#000000" points="199.9554,-205.9909 203.4553,-215.991 206.9554,-205.991 199.9554,-205.9909"/>
</g>
<!-- SexagesimalPipe  -->
<g id="node9" class="node">
<title>SexagesimalPipe </title>
<polygon fill="#fb8072" stroke="#000000" points="139.6453,-252 24.3547,-252 24.3547,-216 139.6453,-216 139.6453,-252"/>
<text text-anchor="middle" x="82" y="-229.8" font-family="Times,serif" font-size="14.00" fill="#000000">SexagesimalPipe </text>
</g>
<!-- SharedModule&#45;&gt;SexagesimalPipe  -->
<g id="edge8" class="edge">
<title>SharedModule&#45;&gt;SexagesimalPipe </title>
<path fill="none" stroke="#000000" stroke-dasharray="5,2" d="M158.6327,-175C118.3189,-175 67.9758,-175 67.9758,-175 67.9758,-175 67.9758,-205.9775 67.9758,-205.9775"/>
<polygon fill="#000000" stroke="#000000" points="64.4759,-205.9774 67.9758,-215.9775 71.4759,-205.9775 64.4759,-205.9774"/>
</g>
</g>
</svg>
