<?xml version="1.0" encoding="UTF-8" standalone="no"?>
<!DOCTYPE svg PUBLIC "-//W3C//DTD SVG 1.1//EN"
 "http://www.w3.org/Graphics/SVG/1.1/DTD/svg11.dtd">
<!-- Generated by graphviz version 2.40.1 (20161225.0304)
 -->
<!-- Title: dependencies Pages: 1 -->
<svg width="1257pt" height="284pt"
 viewBox="0.00 0.00 1257.00 284.00" xmlns="http://www.w3.org/2000/svg" xmlns:xlink="http://www.w3.org/1999/xlink">
<g id="graph0" class="graph" transform="scale(1 1) rotate(0) translate(4 280)">
<title>dependencies</title>
<polygon fill="#ffffff" stroke="transparent" points="-4,4 -4,-280 1253,-280 1253,4 -4,4"/>
<text text-anchor="start" x="603.5091" y="-42.4" font-family="sans-serif" font-weight="bold" font-size="14.00" fill="#000000">Legend</text>
<polygon fill="#ffffb3" stroke="transparent" points="390.5,-10 390.5,-30 410.5,-30 410.5,-10 390.5,-10"/>
<text text-anchor="start" x="414.129" y="-15.4" font-family="sans-serif" font-size="14.00" fill="#000000"> &#160;Declarations</text>
<polygon fill="#8dd3c7" stroke="transparent" points="503.5,-10 503.5,-30 523.5,-30 523.5,-10 503.5,-10"/>
<text text-anchor="start" x="527.2251" y="-15.4" font-family="sans-serif" font-size="14.00" fill="#000000"> &#160;Module</text>
<polygon fill="#80b1d3" stroke="transparent" points="589.5,-10 589.5,-30 609.5,-30 609.5,-10 589.5,-10"/>
<text text-anchor="start" x="613.2812" y="-15.4" font-family="sans-serif" font-size="14.00" fill="#000000"> &#160;Bootstrap</text>
<polygon fill="#fdb462" stroke="transparent" points="686.5,-10 686.5,-30 706.5,-30 706.5,-10 686.5,-10"/>
<text text-anchor="start" x="710.1732" y="-15.4" font-family="sans-serif" font-size="14.00" fill="#000000"> &#160;Providers</text>
<polygon fill="#fb8072" stroke="transparent" points="782.5,-10 782.5,-30 802.5,-30 802.5,-10 782.5,-10"/>
<text text-anchor="start" x="806.2258" y="-15.4" font-family="sans-serif" font-size="14.00" fill="#000000"> &#160;Exports</text>
<g id="clust1" class="cluster">
<title>cluster_SharedModule</title>
<polygon fill="none" stroke="#000000" stroke-dasharray="1,5" points="8,-70 8,-268 1241,-268 1241,-70 8,-70"/>
</g>
<g id="clust2" class="cluster">
<title>cluster_SharedModule_declarations</title>
<polygon fill="none" stroke="#000000" points="475,-78 475,-130 1233,-130 1233,-78 475,-78"/>
</g>
<g id="clust8" class="cluster">
<title>cluster_SharedModule_imports</title>
<polygon fill="none" stroke="#000000" points="361,-78 361,-130 467,-130 467,-78 361,-78"/>
</g>
<g id="clust9" class="cluster">
<title>cluster_SharedModule_exports</title>
<polygon fill="none" stroke="#000000" points="206,-208 206,-260 1094,-260 1094,-208 206,-208"/>
</g>
<g id="clust11" class="cluster">
<title>cluster_SharedModule_providers</title>
<polygon fill="none" stroke="#000000" points="16,-78 16,-130 353,-130 353,-78 16,-78"/>
</g>
<!-- ModularPanelComponent -->
<g id="node1" class="node">
<title>ModularPanelComponent</title>
<polygon fill="#ffffb3" stroke="#000000" points="1225.1456,-122 1064.8544,-122 1064.8544,-86 1225.1456,-86 1225.1456,-122"/>
<text text-anchor="middle" x="1145" y="-99.8" font-family="Times,serif" font-size="14.00" fill="#000000">ModularPanelComponent</text>
</g>
<!-- SharedModule -->
<g id="node6" class="node">
<title>SharedModule</title>
<polygon fill="#8dd3c7" stroke="#000000" points="666.4231,-187 663.4231,-191 642.4231,-191 639.4231,-187 567.5769,-187 567.5769,-151 666.4231,-151 666.4231,-187"/>
<text text-anchor="middle" x="617" y="-164.8" font-family="Times,serif" font-size="14.00" fill="#000000">SharedModule</text>
</g>
<!-- ModularPanelComponent&#45;&gt;SharedModule -->
<g id="edge1" class="edge">
<title>ModularPanelComponent&#45;&gt;SharedModule</title>
<path fill="none" stroke="#000000" d="M1075.1843,-122.1061C1075.1843,-141.3391 1075.1843,-169 1075.1843,-169 1075.1843,-169 676.4691,-169 676.4691,-169"/>
<polygon fill="#000000" stroke="#000000" points="676.4691,-165.5001 666.4691,-169 676.469,-172.5001 676.4691,-165.5001"/>
</g>
<!-- DelayTooltipDirective -->
<g id="node2" class="node">
<title>DelayTooltipDirective</title>
<polygon fill="#ffffb3" stroke="#000000" points="1046.2338,-122 903.7662,-122 903.7662,-86 1046.2338,-86 1046.2338,-122"/>
<text text-anchor="middle" x="975" y="-99.8" font-family="Times,serif" font-size="14.00" fill="#000000">DelayTooltipDirective</text>
</g>
<!-- DelayTooltipDirective&#45;&gt;SharedModule -->
<g id="edge2" class="edge">
<title>DelayTooltipDirective&#45;&gt;SharedModule</title>
<path fill="none" stroke="#000000" d="M938.8529,-122.0225C938.8529,-139.3734 938.8529,-163 938.8529,-163 938.8529,-163 676.2329,-163 676.2329,-163"/>
<polygon fill="#000000" stroke="#000000" points="676.2329,-159.5001 666.2329,-163 676.2328,-166.5001 676.2329,-159.5001"/>
</g>
<!-- DegreesPipe -->
<g id="node3" class="node">
<title>DegreesPipe</title>
<polygon fill="#ffffb3" stroke="#000000" points="885.2438,-122 798.7562,-122 798.7562,-86 885.2438,-86 885.2438,-122"/>
<text text-anchor="middle" x="842" y="-99.8" font-family="Times,serif" font-size="14.00" fill="#000000">DegreesPipe</text>
</g>
<!-- DegreesPipe&#45;&gt;SharedModule -->
<g id="edge3" class="edge">
<title>DegreesPipe&#45;&gt;SharedModule</title>
<path fill="none" stroke="#000000" d="M804.2778,-122.2396C804.2778,-137.5706 804.2778,-157 804.2778,-157 804.2778,-157 676.6953,-157 676.6953,-157"/>
<polygon fill="#000000" stroke="#000000" points="676.6954,-153.5001 666.6953,-157 676.6953,-160.5001 676.6954,-153.5001"/>
</g>
<!-- SexagesimalPipe -->
<g id="node4" class="node">
<title>SexagesimalPipe</title>
<polygon fill="#ffffb3" stroke="#000000" points="780.6458,-122 669.3542,-122 669.3542,-86 780.6458,-86 780.6458,-122"/>
<text text-anchor="middle" x="725" y="-99.8" font-family="Times,serif" font-size="14.00" fill="#000000">SexagesimalPipe</text>
</g>
<!-- SexagesimalPipe&#45;&gt;SharedModule -->
<g id="edge4" class="edge">
<title>SexagesimalPipe&#45;&gt;SharedModule</title>
<path fill="none" stroke="#000000" d="M669.069,-104C662.8545,-104 658.7115,-104 658.7115,-104 658.7115,-104 658.7115,-140.8939 658.7115,-140.8939"/>
<polygon fill="#000000" stroke="#000000" points="655.2115,-140.8938 658.7115,-150.8939 662.2115,-140.8939 655.2115,-140.8938"/>
</g>
<!-- SystemSelectorComponent -->
<g id="node5" class="node">
<title>SystemSelectorComponent</title>
<polygon fill="#ffffb3" stroke="#000000" points="651.4241,-122 482.5759,-122 482.5759,-86 651.4241,-86 651.4241,-122"/>
<text text-anchor="middle" x="567" y="-99.8" font-family="Times,serif" font-size="14.00" fill="#000000">SystemSelectorComponent</text>
</g>
<!-- SystemSelectorComponent&#45;&gt;SharedModule -->
<g id="edge5" class="edge">
<title>SystemSelectorComponent&#45;&gt;SharedModule</title>
<path fill="none" stroke="#000000" d="M609.5004,-122.1061C609.5004,-122.1061 609.5004,-140.991 609.5004,-140.991"/>
<polygon fill="#000000" stroke="#000000" points="606.0004,-140.9909 609.5004,-150.991 613.0004,-140.991 606.0004,-140.9909"/>
</g>
<!-- UnitsModule  -->
<g id="node8" class="node">
<title>UnitsModule </title>
<polygon fill="#fb8072" stroke="#000000" points="1085.883,-252 992.117,-252 992.117,-216 1085.883,-216 1085.883,-252"/>
<text text-anchor="middle" x="1039" y="-229.8" font-family="Times,serif" font-size="14.00" fill="#000000">UnitsModule </text>
</g>
<!-- SharedModule&#45;&gt;UnitsModule  -->
<g id="edge7" class="edge">
<title>SharedModule&#45;&gt;UnitsModule </title>
<path fill="none" stroke="#000000" stroke-dasharray="5,2" d="M666.3345,-175C773.7703,-175 1019.3379,-175 1019.3379,-175 1019.3379,-175 1019.3379,-205.9775 1019.3379,-205.9775"/>
<polygon fill="#000000" stroke="#000000" points="1015.8379,-205.9774 1019.3379,-215.9775 1022.8379,-205.9775 1015.8379,-205.9774"/>
</g>
<!-- ModularPanelComponent  -->
<g id="node9" class="node">
<title>ModularPanelComponent </title>
<polygon fill="#fb8072" stroke="#000000" points="974.1453,-252 809.8547,-252 809.8547,-216 974.1453,-216 974.1453,-252"/>
<text text-anchor="middle" x="892" y="-229.8" font-family="Times,serif" font-size="14.00" fill="#000000">ModularPanelComponent </text>
</g>
<!-- SharedModule&#45;&gt;ModularPanelComponent  -->
<g id="edge8" class="edge">
<title>SharedModule&#45;&gt;ModularPanelComponent </title>
<path fill="none" stroke="#000000" stroke-dasharray="5,2" d="M666.4801,-181C734.2525,-181 847.6496,-181 847.6496,-181 847.6496,-181 847.6496,-205.7604 847.6496,-205.7604"/>
<polygon fill="#000000" stroke="#000000" points="844.1496,-205.7604 847.6496,-215.7604 851.1496,-205.7604 844.1496,-205.7604"/>
</g>
<!-- SystemSelectorComponent  -->
<g id="node10" class="node">
<title>SystemSelectorComponent </title>
<polygon fill="#fb8072" stroke="#000000" points="791.9236,-252 620.0764,-252 620.0764,-216 791.9236,-216 791.9236,-252"/>
<text text-anchor="middle" x="706" y="-229.8" font-family="Times,serif" font-size="14.00" fill="#000000">SystemSelectorComponent </text>
</g>
<!-- SharedModule&#45;&gt;SystemSelectorComponent  -->
<g id="edge9" class="edge">
<title>SharedModule&#45;&gt;SystemSelectorComponent </title>
<path fill="none" stroke="#000000" stroke-dasharray="5,2" d="M643.1247,-187.1061C643.1247,-187.1061 643.1247,-205.991 643.1247,-205.991"/>
<polygon fill="#000000" stroke="#000000" points="639.6247,-205.9909 643.1247,-215.991 646.6247,-205.991 639.6247,-205.9909"/>
</g>
<!-- DelayTooltipDirective  -->
<g id="node11" class="node">
<title>DelayTooltipDirective </title>
<polygon fill="#fb8072" stroke="#000000" points="602.2338,-252 455.7662,-252 455.7662,-216 602.2338,-216 602.2338,-252"/>
<text text-anchor="middle" x="529" y="-229.8" font-family="Times,serif" font-size="14.00" fill="#000000">DelayTooltipDirective </text>
</g>
<!-- SharedModule&#45;&gt;DelayTooltipDirective  -->
<g id="edge10" class="edge">
<title>SharedModule&#45;&gt;DelayTooltipDirective </title>
<path fill="none" stroke="#000000" stroke-dasharray="5,2" d="M584.9529,-187.1061C584.9529,-187.1061 584.9529,-205.991 584.9529,-205.991"/>
<polygon fill="#000000" stroke="#000000" points="581.4529,-205.9909 584.9529,-215.991 588.4529,-205.991 581.4529,-205.9909"/>
</g>
<!-- DegreesPipe  -->
<g id="node12" class="node">
<title>DegreesPipe </title>
<polygon fill="#fb8072" stroke="#000000" points="438.2437,-252 347.7563,-252 347.7563,-216 438.2437,-216 438.2437,-252"/>
<text text-anchor="middle" x="393" y="-229.8" font-family="Times,serif" font-size="14.00" fill="#000000">DegreesPipe </text>
</g>
<!-- SharedModule&#45;&gt;DegreesPipe  -->
<g id="edge11" class="edge">
<title>SharedModule&#45;&gt;DegreesPipe </title>
<path fill="none" stroke="#000000" stroke-dasharray="5,2" d="M567.7715,-181C504.7465,-181 403.5903,-181 403.5903,-181 403.5903,-181 403.5903,-205.7604 403.5903,-205.7604"/>
<polygon fill="#000000" stroke="#000000" points="400.0904,-205.7604 403.5903,-215.7604 407.0904,-205.7604 400.0904,-205.7604"/>
</g>
<!-- SexagesimalPipe  -->
<g id="node13" class="node">
<title>SexagesimalPipe </title>
<polygon fill="#fb8072" stroke="#000000" points="329.6453,-252 214.3547,-252 214.3547,-216 329.6453,-216 329.6453,-252"/>
<text text-anchor="middle" x="272" y="-229.8" font-family="Times,serif" font-size="14.00" fill="#000000">SexagesimalPipe </text>
</g>
<!-- SharedModule&#45;&gt;SexagesimalPipe  -->
<g id="edge12" class="edge">
<title>SharedModule&#45;&gt;SexagesimalPipe </title>
<path fill="none" stroke="#000000" stroke-dasharray="5,2" d="M567.5699,-175C472.1743,-175 272,-175 272,-175 272,-175 272,-205.9775 272,-205.9775"/>
<polygon fill="#000000" stroke="#000000" points="268.5001,-205.9774 272,-215.9775 275.5001,-205.9775 268.5001,-205.9774"/>
</g>
<!-- UnitsModule -->
<g id="node7" class="node">
<title>UnitsModule</title>
<polygon fill="#8dd3c7" stroke="#000000" points="458.8823,-122 455.8823,-126 434.8823,-126 431.8823,-122 369.1177,-122 369.1177,-86 458.8823,-86 458.8823,-122"/>
<text text-anchor="middle" x="414" y="-99.8" font-family="Times,serif" font-size="14.00" fill="#000000">UnitsModule</text>
</g>
<!-- UnitsModule&#45;&gt;SharedModule -->
<g id="edge6" class="edge">
<title>UnitsModule&#45;&gt;SharedModule</title>
<path fill="none" stroke="#000000" d="M447.0025,-122.2396C447.0025,-137.5706 447.0025,-157 447.0025,-157 447.0025,-157 557.3727,-157 557.3727,-157"/>
<polygon fill="#000000" stroke="#000000" points="557.3727,-160.5001 567.3727,-157 557.3726,-153.5001 557.3727,-160.5001"/>
</g>
<!-- PersistenceService -->
<g id="node14" class="node">
<title>PersistenceService</title>
<ellipse fill="#fdb462" stroke="#000000" cx="262" cy="-104" rx="83.3577" ry="18"/>
<text text-anchor="middle" x="262" y="-99.8" font-family="Times,serif" font-size="14.00" fill="#000000">PersistenceService</text>
</g>
<!-- PersistenceService&#45;&gt;SharedModule -->
<g id="edge13" class="edge">
<title>PersistenceService&#45;&gt;SharedModule</title>
<path fill="none" stroke="#000000" d="M337.5007,-111.7132C337.5007,-127.7059 337.5007,-163 337.5007,-163 337.5007,-163 557.6745,-163 557.6745,-163"/>
<polygon fill="#000000" stroke="#000000" points="557.6746,-166.5001 567.6745,-163 557.6745,-159.5001 557.6746,-166.5001"/>
</g>
<!-- SystemService -->
<g id="node15" class="node">
<title>SystemService</title>
<ellipse fill="#fdb462" stroke="#000000" cx="92" cy="-104" rx="68.3536" ry="18"/>
<text text-anchor="middle" x="92" y="-99.8" font-family="Times,serif" font-size="14.00" fill="#000000">SystemService</text>
</g>
<!-- SystemService&#45;&gt;SharedModule -->
<g id="edge14" class="edge">
<title>SystemService&#45;&gt;SharedModule</title>
<path fill="none" stroke="#000000" d="M92,-122.1061C92,-141.3391 92,-169 92,-169 92,-169 557.6093,-169 557.6093,-169"/>
<polygon fill="#000000" stroke="#000000" points="557.6093,-172.5001 567.6093,-169 557.6092,-165.5001 557.6093,-172.5001"/>
</g>
</g>
</svg>
