<?xml version="1.0" encoding="UTF-8" standalone="no"?>
<!DOCTYPE svg PUBLIC "-//W3C//DTD SVG 1.1//EN"
 "http://www.w3.org/Graphics/SVG/1.1/DTD/svg11.dtd">
<!-- Generated by graphviz version 2.40.1 (20161225.0304)
 -->
<!-- Title: dependencies Pages: 1 -->
<svg width="772pt" height="211pt"
 viewBox="0.00 0.00 772.00 211.00" xmlns="http://www.w3.org/2000/svg" xmlns:xlink="http://www.w3.org/1999/xlink">
<g id="graph0" class="graph" transform="scale(1 1) rotate(0) translate(4 207)">
<title>dependencies</title>
<polygon fill="#ffffff" stroke="transparent" points="-4,4 -4,-207 768,-207 768,4 -4,4"/>
<text text-anchor="start" x="361.0091" y="-42.4" font-family="sans-serif" font-weight="bold" font-size="14.00" fill="#000000">Legend</text>
<polygon fill="#ffffb3" stroke="transparent" points="148,-10 148,-30 168,-30 168,-10 148,-10"/>
<text text-anchor="start" x="171.629" y="-15.4" font-family="sans-serif" font-size="14.00" fill="#000000"> &#160;Declarations</text>
<polygon fill="#8dd3c7" stroke="transparent" points="261,-10 261,-30 281,-30 281,-10 261,-10"/>
<text text-anchor="start" x="284.7251" y="-15.4" font-family="sans-serif" font-size="14.00" fill="#000000"> &#160;Module</text>
<polygon fill="#80b1d3" stroke="transparent" points="347,-10 347,-30 367,-30 367,-10 347,-10"/>
<text text-anchor="start" x="370.7812" y="-15.4" font-family="sans-serif" font-size="14.00" fill="#000000"> &#160;Bootstrap</text>
<polygon fill="#fdb462" stroke="transparent" points="444,-10 444,-30 464,-30 464,-10 444,-10"/>
<text text-anchor="start" x="467.6732" y="-15.4" font-family="sans-serif" font-size="14.00" fill="#000000"> &#160;Providers</text>
<polygon fill="#fb8072" stroke="transparent" points="540,-10 540,-30 560,-30 560,-10 540,-10"/>
<text text-anchor="start" x="563.7258" y="-15.4" font-family="sans-serif" font-size="14.00" fill="#000000"> &#160;Exports</text>
<g id="clust1" class="cluster">
<title>cluster_AlmaInvestigatorSearchModule</title>
<polygon fill="none" stroke="#000000" stroke-dasharray="1,5" points="8,-70 8,-195 756,-195 756,-70 8,-70"/>
</g>
<g id="clust2" class="cluster">
<title>cluster_AlmaInvestigatorSearchModule_declarations</title>
<polygon fill="none" stroke="#000000" points="138,-78 138,-130 748,-130 748,-78 138,-78"/>
</g>
<g id="clust6" class="cluster">
<title>cluster_AlmaInvestigatorSearchModule_imports</title>
<polygon fill="none" stroke="#000000" points="16,-78 16,-130 130,-130 130,-78 16,-78"/>
</g>
<!-- AlmaInvestigatorSearchModalComponent -->
<g id="node1" class="node">
<title>AlmaInvestigatorSearchModalComponent</title>
<polygon fill="#ffffb3" stroke="#000000" points="739.9384,-122 486.0616,-122 486.0616,-86 739.9384,-86 739.9384,-122"/>
<text text-anchor="middle" x="613" y="-99.8" font-family="Times,serif" font-size="14.00" fill="#000000">AlmaInvestigatorSearchModalComponent</text>
</g>
<!-- AlmaInvestigatorSearchModule -->
<g id="node4" class="node">
<title>AlmaInvestigatorSearchModule</title>
<polygon fill="#8dd3c7" stroke="#000000" points="405.6064,-187 402.6064,-191 381.6064,-191 378.6064,-187 210.3936,-187 210.3936,-151 405.6064,-151 405.6064,-187"/>
<text text-anchor="middle" x="308" y="-164.8" font-family="Times,serif" font-size="14.00" fill="#000000">AlmaInvestigatorSearchModule</text>
</g>
<!-- AlmaInvestigatorSearchModalComponent&#45;&gt;AlmaInvestigatorSearchModule -->
<g id="edge1" class="edge">
<title>AlmaInvestigatorSearchModalComponent&#45;&gt;AlmaInvestigatorSearchModule</title>
<path fill="none" stroke="#000000" d="M613,-122.1061C613,-141.3391 613,-169 613,-169 613,-169 415.7624,-169 415.7624,-169"/>
<polygon fill="#000000" stroke="#000000" points="415.7625,-165.5001 405.7624,-169 415.7624,-172.5001 415.7625,-165.5001"/>
</g>
<!-- RefinePanelComponent -->
<g id="node2" class="node">
<title>RefinePanelComponent</title>
<polygon fill="#ffffb3" stroke="#000000" points="467.752,-122 318.248,-122 318.248,-86 467.752,-86 467.752,-122"/>
<text text-anchor="middle" x="393" y="-99.8" font-family="Times,serif" font-size="14.00" fill="#000000">RefinePanelComponent</text>
</g>
<!-- RefinePanelComponent&#45;&gt;AlmaInvestigatorSearchModule -->
<g id="edge2" class="edge">
<title>RefinePanelComponent&#45;&gt;AlmaInvestigatorSearchModule</title>
<path fill="none" stroke="#000000" d="M361.9636,-122.1061C361.9636,-122.1061 361.9636,-140.991 361.9636,-140.991"/>
<polygon fill="#000000" stroke="#000000" points="358.4636,-140.9909 361.9636,-150.991 365.4636,-140.991 358.4636,-140.9909"/>
</g>
<!-- ResultsTableComponent -->
<g id="node3" class="node">
<title>ResultsTableComponent</title>
<polygon fill="#ffffb3" stroke="#000000" points="300.427,-122 145.573,-122 145.573,-86 300.427,-86 300.427,-122"/>
<text text-anchor="middle" x="223" y="-99.8" font-family="Times,serif" font-size="14.00" fill="#000000">ResultsTableComponent</text>
</g>
<!-- ResultsTableComponent&#45;&gt;AlmaInvestigatorSearchModule -->
<g id="edge3" class="edge">
<title>ResultsTableComponent&#45;&gt;AlmaInvestigatorSearchModule</title>
<path fill="none" stroke="#000000" d="M255.2051,-122.1061C255.2051,-122.1061 255.2051,-140.991 255.2051,-140.991"/>
<polygon fill="#000000" stroke="#000000" points="251.7052,-140.9909 255.2051,-150.991 258.7052,-140.991 251.7052,-140.9909"/>
</g>
<!-- SharedModule -->
<g id="node5" class="node">
<title>SharedModule</title>
<polygon fill="#8dd3c7" stroke="#000000" points="122.4231,-122 119.4231,-126 98.4231,-126 95.4231,-122 23.5769,-122 23.5769,-86 122.4231,-86 122.4231,-122"/>
<text text-anchor="middle" x="73" y="-99.8" font-family="Times,serif" font-size="14.00" fill="#000000">SharedModule</text>
</g>
<!-- SharedModule&#45;&gt;AlmaInvestigatorSearchModule -->
<g id="edge4" class="edge">
<title>SharedModule&#45;&gt;AlmaInvestigatorSearchModule</title>
<path fill="none" stroke="#000000" d="M73,-122.1061C73,-141.3391 73,-169 73,-169 73,-169 200.3804,-169 200.3804,-169"/>
<polygon fill="#000000" stroke="#000000" points="200.3805,-172.5001 210.3804,-169 200.3804,-165.5001 200.3805,-172.5001"/>
</g>
</g>
</svg>
