<?xml version="1.0" encoding="UTF-8" standalone="no"?>
<!DOCTYPE svg PUBLIC "-//W3C//DTD SVG 1.1//EN"
 "http://www.w3.org/Graphics/SVG/1.1/DTD/svg11.dtd">
<!-- Generated by graphviz version 2.40.1 (20161225.0304)
 -->
<!-- Title: dependencies Pages: 1 -->
<svg width="2834pt" height="284pt"
 viewBox="0.00 0.00 2834.00 284.00" xmlns="http://www.w3.org/2000/svg" xmlns:xlink="http://www.w3.org/1999/xlink">
<g id="graph0" class="graph" transform="scale(1 1) rotate(0) translate(4 280)">
<title>dependencies</title>
<polygon fill="#ffffff" stroke="transparent" points="-4,4 -4,-280 2830,-280 2830,4 -4,4"/>
<text text-anchor="start" x="1392.0091" y="-42.4" font-family="sans-serif" font-weight="bold" font-size="14.00" fill="#000000">Legend</text>
<polygon fill="#ffffb3" stroke="transparent" points="1179,-10 1179,-30 1199,-30 1199,-10 1179,-10"/>
<text text-anchor="start" x="1202.629" y="-15.4" font-family="sans-serif" font-size="14.00" fill="#000000"> &#160;Declarations</text>
<polygon fill="#8dd3c7" stroke="transparent" points="1292,-10 1292,-30 1312,-30 1312,-10 1292,-10"/>
<text text-anchor="start" x="1315.7251" y="-15.4" font-family="sans-serif" font-size="14.00" fill="#000000"> &#160;Module</text>
<polygon fill="#80b1d3" stroke="transparent" points="1378,-10 1378,-30 1398,-30 1398,-10 1378,-10"/>
<text text-anchor="start" x="1401.7812" y="-15.4" font-family="sans-serif" font-size="14.00" fill="#000000"> &#160;Bootstrap</text>
<polygon fill="#fdb462" stroke="transparent" points="1475,-10 1475,-30 1495,-30 1495,-10 1475,-10"/>
<text text-anchor="start" x="1498.6732" y="-15.4" font-family="sans-serif" font-size="14.00" fill="#000000"> &#160;Providers</text>
<polygon fill="#fb8072" stroke="transparent" points="1571,-10 1571,-30 1591,-30 1591,-10 1571,-10"/>
<text text-anchor="start" x="1594.7258" y="-15.4" font-family="sans-serif" font-size="14.00" fill="#000000"> &#160;Exports</text>
<g id="clust1" class="cluster">
<title>cluster_UnitsModule</title>
<polygon fill="none" stroke="#000000" stroke-dasharray="1,5" points="8,-70 8,-268 2818,-268 2818,-70 8,-70"/>
</g>
<g id="clust2" class="cluster">
<title>cluster_UnitsModule_declarations</title>
<polygon fill="none" stroke="#000000" points="2106,-78 2106,-130 2810,-130 2810,-78 2106,-78"/>
</g>
<g id="clust12" class="cluster">
<title>cluster_UnitsModule_exports</title>
<polygon fill="none" stroke="#000000" points="1719,-208 1719,-260 2443,-260 2443,-208 1719,-208"/>
</g>
<g id="clust14" class="cluster">
<title>cluster_UnitsModule_providers</title>
<polygon fill="none" stroke="#000000" points="16,-78 16,-130 2098,-130 2098,-78 16,-78"/>
</g>
<!-- Angle -->
<g id="node1" class="node">
<title>Angle</title>
<polygon fill="#ffffb3" stroke="#000000" points="2802,-122 2748,-122 2748,-86 2802,-86 2802,-122"/>
<text text-anchor="middle" x="2775" y="-99.8" font-family="Times,serif" font-size="14.00" fill="#000000">Angle</text>
</g>
<!-- UnitsModule -->
<g id="node9" class="node">
<title>UnitsModule</title>
<polygon fill="#8dd3c7" stroke="#000000" points="2105.8823,-187 2102.8823,-191 2081.8823,-191 2078.8823,-187 2016.1177,-187 2016.1177,-151 2105.8823,-151 2105.8823,-187"/>
<text text-anchor="middle" x="2061" y="-164.8" font-family="Times,serif" font-size="14.00" fill="#000000">UnitsModule</text>
</g>
<!-- Angle&#45;&gt;UnitsModule -->
<g id="edge1" class="edge">
<title>Angle&#45;&gt;UnitsModule</title>
<path fill="none" stroke="#000000" d="M2775,-122.0267C2775,-142.7672 2775,-174 2775,-174 2775,-174 2115.9344,-174 2115.9344,-174"/>
<polygon fill="#000000" stroke="#000000" points="2115.9344,-170.5001 2105.9344,-174 2115.9343,-177.5001 2115.9344,-170.5001"/>
</g>
<!-- AngularVelocity -->
<g id="node2" class="node">
<title>AngularVelocity</title>
<polygon fill="#ffffb3" stroke="#000000" points="2730.08,-122 2619.92,-122 2619.92,-86 2730.08,-86 2730.08,-122"/>
<text text-anchor="middle" x="2675" y="-99.8" font-family="Times,serif" font-size="14.00" fill="#000000">AngularVelocity</text>
</g>
<!-- AngularVelocity&#45;&gt;UnitsModule -->
<g id="edge2" class="edge">
<title>AngularVelocity&#45;&gt;UnitsModule</title>
<path fill="none" stroke="#000000" d="M2675,-122.308C2675,-142.1455 2675,-171 2675,-171 2675,-171 2116.1489,-171 2116.1489,-171"/>
<polygon fill="#000000" stroke="#000000" points="2116.1489,-167.5001 2106.1489,-171 2116.1489,-174.5001 2116.1489,-167.5001"/>
</g>
<!-- Frequency -->
<g id="node3" class="node">
<title>Frequency</title>
<polygon fill="#ffffb3" stroke="#000000" points="2601.5871,-122 2526.4129,-122 2526.4129,-86 2601.5871,-86 2601.5871,-122"/>
<text text-anchor="middle" x="2564" y="-99.8" font-family="Times,serif" font-size="14.00" fill="#000000">Frequency</text>
</g>
<!-- Frequency&#45;&gt;UnitsModule -->
<g id="edge3" class="edge">
<title>Frequency&#45;&gt;UnitsModule</title>
<path fill="none" stroke="#000000" d="M2564,-122.1686C2564,-141.0898 2564,-168 2564,-168 2564,-168 2116.0806,-168 2116.0806,-168"/>
<polygon fill="#000000" stroke="#000000" points="2116.0806,-164.5001 2106.0806,-168 2116.0805,-171.5001 2116.0806,-164.5001"/>
</g>
<!-- Latitude -->
<g id="node4" class="node">
<title>Latitude</title>
<polygon fill="#ffffb3" stroke="#000000" points="2508.1546,-122 2445.8454,-122 2445.8454,-86 2508.1546,-86 2508.1546,-122"/>
<text text-anchor="middle" x="2477" y="-99.8" font-family="Times,serif" font-size="14.00" fill="#000000">Latitude</text>
</g>
<!-- Latitude&#45;&gt;UnitsModule -->
<g id="edge4" class="edge">
<title>Latitude&#45;&gt;UnitsModule</title>
<path fill="none" stroke="#000000" d="M2477,-122.302C2477,-140.2699 2477,-165 2477,-165 2477,-165 2115.9145,-165 2115.9145,-165"/>
<polygon fill="#000000" stroke="#000000" points="2115.9146,-161.5001 2105.9145,-165 2115.9145,-168.5001 2115.9146,-161.5001"/>
</g>
<!-- Length -->
<g id="node5" class="node">
<title>Length</title>
<polygon fill="#ffffb3" stroke="#000000" points="2427.6588,-122 2372.3412,-122 2372.3412,-86 2427.6588,-86 2427.6588,-122"/>
<text text-anchor="middle" x="2400" y="-99.8" font-family="Times,serif" font-size="14.00" fill="#000000">Length</text>
</g>
<!-- Length&#45;&gt;UnitsModule -->
<g id="edge5" class="edge">
<title>Length&#45;&gt;UnitsModule</title>
<path fill="none" stroke="#000000" d="M2376.5855,-122.0352C2376.5855,-138.7344 2376.5855,-161 2376.5855,-161 2376.5855,-161 2116.2157,-161 2116.2157,-161"/>
<polygon fill="#000000" stroke="#000000" points="2116.2157,-157.5001 2106.2157,-161 2116.2157,-164.5001 2116.2157,-157.5001"/>
</g>
<!-- Longitude -->
<g id="node6" class="node">
<title>Longitude</title>
<polygon fill="#ffffb3" stroke="#000000" points="2353.5498,-122 2280.4502,-122 2280.4502,-86 2353.5498,-86 2353.5498,-122"/>
<text text-anchor="middle" x="2317" y="-99.8" font-family="Times,serif" font-size="14.00" fill="#000000">Longitude</text>
</g>
<!-- Longitude&#45;&gt;UnitsModule -->
<g id="edge6" class="edge">
<title>Longitude&#45;&gt;UnitsModule</title>
<path fill="none" stroke="#000000" d="M2317,-122.2819C2317,-137.9478 2317,-158 2317,-158 2317,-158 2115.8847,-158 2115.8847,-158"/>
<polygon fill="#000000" stroke="#000000" points="2115.8848,-154.5001 2105.8847,-158 2115.8847,-161.5001 2115.8848,-154.5001"/>
</g>
<!-- Sensitivity -->
<g id="node7" class="node">
<title>Sensitivity</title>
<polygon fill="#ffffb3" stroke="#000000" points="2261.8949,-122 2186.1051,-122 2186.1051,-86 2261.8949,-86 2261.8949,-122"/>
<text text-anchor="middle" x="2224" y="-99.8" font-family="Times,serif" font-size="14.00" fill="#000000">Sensitivity</text>
</g>
<!-- Sensitivity&#45;&gt;UnitsModule -->
<g id="edge7" class="edge">
<title>Sensitivity&#45;&gt;UnitsModule</title>
<path fill="none" stroke="#000000" d="M2208.6731,-122.1243C2208.6731,-136.7832 2208.6731,-155 2208.6731,-155 2208.6731,-155 2116.1092,-155 2116.1092,-155"/>
<polygon fill="#000000" stroke="#000000" points="2116.1092,-151.5001 2106.1092,-155 2116.1092,-158.5001 2116.1092,-151.5001"/>
</g>
<!-- Speed -->
<g id="node8" class="node">
<title>Speed</title>
<polygon fill="#ffffb3" stroke="#000000" points="2168,-122 2114,-122 2114,-86 2168,-86 2168,-122"/>
<text text-anchor="middle" x="2141" y="-99.8" font-family="Times,serif" font-size="14.00" fill="#000000">Speed</text>
</g>
<!-- Speed&#45;&gt;UnitsModule -->
<g id="edge8" class="edge">
<title>Speed&#45;&gt;UnitsModule</title>
<path fill="none" stroke="#000000" d="M2113.5416,-104C2105.1196,-104 2098.0275,-104 2098.0275,-104 2098.0275,-104 2098.0275,-140.8939 2098.0275,-140.8939"/>
<polygon fill="#000000" stroke="#000000" points="2094.5276,-140.8938 2098.0275,-150.8939 2101.5276,-140.8939 2094.5276,-140.8938"/>
</g>
<!-- Angle  -->
<g id="node10" class="node">
<title>Angle </title>
<polygon fill="#fb8072" stroke="#000000" points="2435,-252 2381,-252 2381,-216 2435,-216 2435,-252"/>
<text text-anchor="middle" x="2408" y="-229.8" font-family="Times,serif" font-size="14.00" fill="#000000">Angle </text>
</g>
<!-- UnitsModule&#45;&gt;Angle  -->
<g id="edge9" class="edge">
<title>UnitsModule&#45;&gt;Angle </title>
<path fill="none" stroke="#000000" stroke-dasharray="5,2" d="M2105.8954,-178C2198.982,-178 2404.4145,-178 2404.4145,-178 2404.4145,-178 2404.4145,-205.973 2404.4145,-205.973"/>
<polygon fill="#000000" stroke="#000000" points="2400.9145,-205.973 2404.4145,-215.973 2407.9145,-205.973 2400.9145,-205.973"/>
</g>
<!-- AngularVelocity  -->
<g id="node11" class="node">
<title>AngularVelocity </title>
<polygon fill="#fb8072" stroke="#000000" points="2362.5808,-252 2249.4192,-252 2249.4192,-216 2362.5808,-216 2362.5808,-252"/>
<text text-anchor="middle" x="2306" y="-229.8" font-family="Times,serif" font-size="14.00" fill="#000000">AngularVelocity </text>
</g>
<!-- UnitsModule&#45;&gt;AngularVelocity  -->
<g id="edge10" class="edge">
<title>UnitsModule&#45;&gt;AngularVelocity </title>
<path fill="none" stroke="#000000" stroke-dasharray="5,2" d="M2106.1293,-181C2163.6099,-181 2255.5787,-181 2255.5787,-181 2255.5787,-181 2255.5787,-205.7604 2255.5787,-205.7604"/>
<polygon fill="#000000" stroke="#000000" points="2252.0788,-205.7604 2255.5787,-215.7604 2259.0788,-205.7604 2252.0788,-205.7604"/>
</g>
<!-- Frequency  -->
<g id="node12" class="node">
<title>Frequency </title>
<polygon fill="#fb8072" stroke="#000000" points="2231.0881,-252 2152.9119,-252 2152.9119,-216 2231.0881,-216 2231.0881,-252"/>
<text text-anchor="middle" x="2192" y="-229.8" font-family="Times,serif" font-size="14.00" fill="#000000">Frequency </text>
</g>
<!-- UnitsModule&#45;&gt;Frequency  -->
<g id="edge11" class="edge">
<title>UnitsModule&#45;&gt;Frequency </title>
<path fill="none" stroke="#000000" stroke-dasharray="5,2" d="M2106.0255,-184C2132.3131,-184 2160.3533,-184 2160.3533,-184 2160.3533,-184 2160.3533,-205.9489 2160.3533,-205.9489"/>
<polygon fill="#000000" stroke="#000000" points="2156.8533,-205.9488 2160.3533,-215.9489 2163.8533,-205.9489 2156.8533,-205.9488"/>
</g>
<!-- Latitude  -->
<g id="node13" class="node">
<title>Latitude </title>
<polygon fill="#fb8072" stroke="#000000" points="2135.1538,-252 2068.8462,-252 2068.8462,-216 2135.1538,-216 2135.1538,-252"/>
<text text-anchor="middle" x="2102" y="-229.8" font-family="Times,serif" font-size="14.00" fill="#000000">Latitude </text>
</g>
<!-- UnitsModule&#45;&gt;Latitude  -->
<g id="edge12" class="edge">
<title>UnitsModule&#45;&gt;Latitude </title>
<path fill="none" stroke="#000000" stroke-dasharray="5,2" d="M2087.4322,-187.1061C2087.4322,-187.1061 2087.4322,-205.991 2087.4322,-205.991"/>
<polygon fill="#000000" stroke="#000000" points="2083.9322,-205.9909 2087.4322,-215.991 2090.9322,-205.991 2083.9322,-205.9909"/>
</g>
<!-- Length  -->
<g id="node14" class="node">
<title>Length </title>
<polygon fill="#fb8072" stroke="#000000" points="2050.658,-252 1991.342,-252 1991.342,-216 2050.658,-216 2050.658,-252"/>
<text text-anchor="middle" x="2021" y="-229.8" font-family="Times,serif" font-size="14.00" fill="#000000">Length </text>
</g>
<!-- UnitsModule&#45;&gt;Length  -->
<g id="edge13" class="edge">
<title>UnitsModule&#45;&gt;Length </title>
<path fill="none" stroke="#000000" stroke-dasharray="5,2" d="M2033.3189,-187.1061C2033.3189,-187.1061 2033.3189,-205.991 2033.3189,-205.991"/>
<polygon fill="#000000" stroke="#000000" points="2029.819,-205.9909 2033.3189,-215.991 2036.819,-205.991 2029.819,-205.9909"/>
</g>
<!-- Longitude  -->
<g id="node15" class="node">
<title>Longitude </title>
<polygon fill="#fb8072" stroke="#000000" points="1973.5484,-252 1896.4516,-252 1896.4516,-216 1973.5484,-216 1973.5484,-252"/>
<text text-anchor="middle" x="1935" y="-229.8" font-family="Times,serif" font-size="14.00" fill="#000000">Longitude </text>
</g>
<!-- UnitsModule&#45;&gt;Longitude  -->
<g id="edge14" class="edge">
<title>UnitsModule&#45;&gt;Longitude </title>
<path fill="none" stroke="#000000" stroke-dasharray="5,2" d="M2015.867,-184C1979.7126,-184 1935,-184 1935,-184 1935,-184 1935,-205.9489 1935,-205.9489"/>
<polygon fill="#000000" stroke="#000000" points="1931.5001,-205.9488 1935,-215.9489 1938.5001,-205.9489 1931.5001,-205.9488"/>
</g>
<!-- Sensitivity  -->
<g id="node16" class="node">
<title>Sensitivity </title>
<polygon fill="#fb8072" stroke="#000000" points="1878.8958,-252 1799.1042,-252 1799.1042,-216 1878.8958,-216 1878.8958,-252"/>
<text text-anchor="middle" x="1839" y="-229.8" font-family="Times,serif" font-size="14.00" fill="#000000">Sensitivity </text>
</g>
<!-- UnitsModule&#45;&gt;Sensitivity  -->
<g id="edge15" class="edge">
<title>UnitsModule&#45;&gt;Sensitivity </title>
<path fill="none" stroke="#000000" stroke-dasharray="5,2" d="M2015.9529,-181C1957.9831,-181 1864.648,-181 1864.648,-181 1864.648,-181 1864.648,-205.7604 1864.648,-205.7604"/>
<polygon fill="#000000" stroke="#000000" points="1861.1481,-205.7604 1864.648,-215.7604 1868.1481,-205.7604 1861.1481,-205.7604"/>
</g>
<!-- Speed  -->
<g id="node17" class="node">
<title>Speed </title>
<polygon fill="#fb8072" stroke="#000000" points="1781,-252 1727,-252 1727,-216 1781,-216 1781,-252"/>
<text text-anchor="middle" x="1754" y="-229.8" font-family="Times,serif" font-size="14.00" fill="#000000">Speed </text>
</g>
<!-- UnitsModule&#45;&gt;Speed  -->
<g id="edge16" class="edge">
<title>UnitsModule&#45;&gt;Speed </title>
<path fill="none" stroke="#000000" stroke-dasharray="5,2" d="M2016.0308,-178C1930.7586,-178 1754,-178 1754,-178 1754,-178 1754,-205.973 1754,-205.973"/>
<polygon fill="#000000" stroke="#000000" points="1750.5001,-205.973 1754,-215.973 1757.5001,-205.973 1750.5001,-205.973"/>
</g>
<!-- AngleConversionService -->
<g id="node18" class="node">
<title>AngleConversionService</title>
<ellipse fill="#fdb462" stroke="#000000" cx="1982" cy="-104" rx="108.2279" ry="18"/>
<text text-anchor="middle" x="1982" y="-99.8" font-family="Times,serif" font-size="14.00" fill="#000000">AngleConversionService</text>
</g>
<!-- AngleConversionService&#45;&gt;UnitsModule -->
<g id="edge17" class="edge">
<title>AngleConversionService&#45;&gt;UnitsModule</title>
<path fill="none" stroke="#000000" d="M2053.0864,-117.7848C2053.0864,-117.7848 2053.0864,-140.5475 2053.0864,-140.5475"/>
<polygon fill="#000000" stroke="#000000" points="2049.5865,-140.5474 2053.0864,-150.5475 2056.5865,-140.5475 2049.5865,-140.5474"/>
</g>
<!-- AngularVelocityConversionService -->
<g id="node19" class="node">
<title>AngularVelocityConversionService</title>
<ellipse fill="#fdb462" stroke="#000000" cx="1706" cy="-104" rx="149.3199" ry="18"/>
<text text-anchor="middle" x="1706" y="-99.8" font-family="Times,serif" font-size="14.00" fill="#000000">AngularVelocityConversionService</text>
</g>
<!-- AngularVelocityConversionService&#45;&gt;UnitsModule -->
<g id="edge18" class="edge">
<title>AngularVelocityConversionService&#45;&gt;UnitsModule</title>
<path fill="none" stroke="#000000" d="M1827.3563,-114.8158C1827.3563,-129.7864 1827.3563,-155 1827.3563,-155 1827.3563,-155 2005.9511,-155 2005.9511,-155"/>
<polygon fill="#000000" stroke="#000000" points="2005.9512,-158.5001 2015.9511,-155 2005.9511,-151.5001 2005.9512,-158.5001"/>
</g>
<!-- FrequencyConversionService -->
<g id="node20" class="node">
<title>FrequencyConversionService</title>
<ellipse fill="#fdb462" stroke="#000000" cx="1413" cy="-104" rx="125.0451" ry="18"/>
<text text-anchor="middle" x="1413" y="-99.8" font-family="Times,serif" font-size="14.00" fill="#000000">FrequencyConversionService</text>
</g>
<!-- FrequencyConversionService&#45;&gt;UnitsModule -->
<g id="edge19" class="edge">
<title>FrequencyConversionService&#45;&gt;UnitsModule</title>
<path fill="none" stroke="#000000" d="M1413,-122.2819C1413,-137.9478 1413,-158 1413,-158 1413,-158 2005.9484,-158 2005.9484,-158"/>
<polygon fill="#000000" stroke="#000000" points="2005.9484,-161.5001 2015.9484,-158 2005.9483,-154.5001 2005.9484,-161.5001"/>
</g>
<!-- LatitudeConversionService -->
<g id="node21" class="node">
<title>LatitudeConversionService</title>
<ellipse fill="#fdb462" stroke="#000000" cx="1153" cy="-104" rx="116.8924" ry="18"/>
<text text-anchor="middle" x="1153" y="-99.8" font-family="Times,serif" font-size="14.00" fill="#000000">LatitudeConversionService</text>
</g>
<!-- LatitudeConversionService&#45;&gt;UnitsModule -->
<g id="edge20" class="edge">
<title>LatitudeConversionService&#45;&gt;UnitsModule</title>
<path fill="none" stroke="#000000" d="M1153,-122.0352C1153,-138.7344 1153,-161 1153,-161 1153,-161 2005.9721,-161 2005.9721,-161"/>
<polygon fill="#000000" stroke="#000000" points="2005.9722,-164.5001 2015.9721,-161 2005.9721,-157.5001 2005.9722,-164.5001"/>
</g>
<!-- LengthConversionService -->
<g id="node22" class="node">
<title>LengthConversionService</title>
<ellipse fill="#fdb462" stroke="#000000" cx="906" cy="-104" rx="111.7411" ry="18"/>
<text text-anchor="middle" x="906" y="-99.8" font-family="Times,serif" font-size="14.00" fill="#000000">LengthConversionService</text>
</g>
<!-- LengthConversionService&#45;&gt;UnitsModule -->
<g id="edge21" class="edge">
<title>LengthConversionService&#45;&gt;UnitsModule</title>
<path fill="none" stroke="#000000" d="M906,-122.302C906,-140.2699 906,-165 906,-165 906,-165 2006.0771,-165 2006.0771,-165"/>
<polygon fill="#000000" stroke="#000000" points="2006.0772,-168.5001 2016.0771,-165 2006.0771,-161.5001 2006.0772,-168.5001"/>
</g>
<!-- LongitudeConversionService -->
<g id="node23" class="node">
<title>LongitudeConversionService</title>
<ellipse fill="#fdb462" stroke="#000000" cx="652" cy="-104" rx="124.4225" ry="18"/>
<text text-anchor="middle" x="652" y="-99.8" font-family="Times,serif" font-size="14.00" fill="#000000">LongitudeConversionService</text>
</g>
<!-- LongitudeConversionService&#45;&gt;UnitsModule -->
<g id="edge22" class="edge">
<title>LongitudeConversionService&#45;&gt;UnitsModule</title>
<path fill="none" stroke="#000000" d="M652,-122.1686C652,-141.0898 652,-168 652,-168 652,-168 2006.1109,-168 2006.1109,-168"/>
<polygon fill="#000000" stroke="#000000" points="2006.1109,-171.5001 2016.1109,-168 2006.1108,-164.5001 2006.1109,-171.5001"/>
</g>
<!-- SensitivityConversionService -->
<g id="node24" class="node">
<title>SensitivityConversionService</title>
<ellipse fill="#fdb462" stroke="#000000" cx="384" cy="-104" rx="125.6594" ry="18"/>
<text text-anchor="middle" x="384" y="-99.8" font-family="Times,serif" font-size="14.00" fill="#000000">SensitivityConversionService</text>
</g>
<!-- SensitivityConversionService&#45;&gt;UnitsModule -->
<g id="edge23" class="edge">
<title>SensitivityConversionService&#45;&gt;UnitsModule</title>
<path fill="none" stroke="#000000" d="M384,-122.308C384,-142.1455 384,-171 384,-171 384,-171 2005.7104,-171 2005.7104,-171"/>
<polygon fill="#000000" stroke="#000000" points="2005.7104,-174.5001 2015.7104,-171 2005.7104,-167.5001 2005.7104,-174.5001"/>
</g>
<!-- SpeedConversionService -->
<g id="node25" class="node">
<title>SpeedConversionService</title>
<ellipse fill="#fdb462" stroke="#000000" cx="132" cy="-104" rx="108.2279" ry="18"/>
<text text-anchor="middle" x="132" y="-99.8" font-family="Times,serif" font-size="14.00" fill="#000000">SpeedConversionService</text>
</g>
<!-- SpeedConversionService&#45;&gt;UnitsModule -->
<g id="edge24" class="edge">
<title>SpeedConversionService&#45;&gt;UnitsModule</title>
<path fill="none" stroke="#000000" d="M132,-122.0267C132,-142.7672 132,-174 132,-174 132,-174 2005.6892,-174 2005.6892,-174"/>
<polygon fill="#000000" stroke="#000000" points="2005.6893,-177.5001 2015.6892,-174 2005.6892,-170.5001 2005.6893,-177.5001"/>
</g>
</g>
</svg>
