<?xml version="1.0" encoding="UTF-8" standalone="no"?>
<!DOCTYPE svg PUBLIC "-//W3C//DTD SVG 1.1//EN"
 "http://www.w3.org/Graphics/SVG/1.1/DTD/svg11.dtd">
<!-- Generated by graphviz version 2.40.1 (20161225.0304)
 -->
<!-- Title: dependencies Pages: 1 -->
<svg width="2122pt" height="211pt"
 viewBox="0.00 0.00 2122.00 211.00" xmlns="http://www.w3.org/2000/svg" xmlns:xlink="http://www.w3.org/1999/xlink">
<g id="graph0" class="graph" transform="scale(1 1) rotate(0) translate(4 207)">
<title>dependencies</title>
<polygon fill="#ffffff" stroke="transparent" points="-4,4 -4,-207 2118,-207 2118,4 -4,4"/>
<text text-anchor="start" x="1036.0091" y="-42.4" font-family="sans-serif" font-weight="bold" font-size="14.00" fill="#000000">Legend</text>
<polygon fill="#ffffb3" stroke="transparent" points="823,-10 823,-30 843,-30 843,-10 823,-10"/>
<text text-anchor="start" x="846.629" y="-15.4" font-family="sans-serif" font-size="14.00" fill="#000000"> &#160;Declarations</text>
<polygon fill="#8dd3c7" stroke="transparent" points="936,-10 936,-30 956,-30 956,-10 936,-10"/>
<text text-anchor="start" x="959.7251" y="-15.4" font-family="sans-serif" font-size="14.00" fill="#000000"> &#160;Module</text>
<polygon fill="#80b1d3" stroke="transparent" points="1022,-10 1022,-30 1042,-30 1042,-10 1022,-10"/>
<text text-anchor="start" x="1045.7812" y="-15.4" font-family="sans-serif" font-size="14.00" fill="#000000"> &#160;Bootstrap</text>
<polygon fill="#fdb462" stroke="transparent" points="1119,-10 1119,-30 1139,-30 1139,-10 1119,-10"/>
<text text-anchor="start" x="1142.6732" y="-15.4" font-family="sans-serif" font-size="14.00" fill="#000000"> &#160;Providers</text>
<polygon fill="#fb8072" stroke="transparent" points="1215,-10 1215,-30 1235,-30 1235,-10 1215,-10"/>
<text text-anchor="start" x="1238.7258" y="-15.4" font-family="sans-serif" font-size="14.00" fill="#000000"> &#160;Exports</text>
<g id="clust1" class="cluster">
<title>cluster_UnitsModule</title>
<polygon fill="none" stroke="#000000" stroke-dasharray="1,5" points="8,-70 8,-195 2106,-195 2106,-70 8,-70"/>
</g>
<g id="clust6" class="cluster">
<title>cluster_UnitsModule_providers</title>
<polygon fill="none" stroke="#000000" points="16,-78 16,-130 2098,-130 2098,-78 16,-78"/>
</g>
<!-- AngleConversionService -->
<g id="node1" class="node">
<title>AngleConversionService</title>
<ellipse fill="#fdb462" stroke="#000000" cx="1982" cy="-104" rx="108.2279" ry="18"/>
<text text-anchor="middle" x="1982" y="-99.8" font-family="Times,serif" font-size="14.00" fill="#000000">AngleConversionService</text>
</g>
<!-- UnitsModule -->
<g id="node9" class="node">
<title>UnitsModule</title>
<polygon fill="#8dd3c7" stroke="#000000" points="1073.8823,-187 1070.8823,-191 1049.8823,-191 1046.8823,-187 984.1177,-187 984.1177,-151 1073.8823,-151 1073.8823,-187"/>
<text text-anchor="middle" x="1029" y="-164.8" font-family="Times,serif" font-size="14.00" fill="#000000">UnitsModule</text>
</g>
<!-- AngleConversionService&#45;&gt;UnitsModule -->
<g id="edge1" class="edge">
<title>AngleConversionService&#45;&gt;UnitsModule</title>
<path fill="none" stroke="#000000" d="M1982,-122.2921C1982,-144.2057 1982,-178 1982,-178 1982,-178 1084.005,-178 1084.005,-178"/>
<polygon fill="#000000" stroke="#000000" points="1084.005,-174.5001 1074.005,-178 1084.005,-181.5001 1084.005,-174.5001"/>
</g>
<!-- AngularVelocityConversionService -->
<g id="node2" class="node">
<title>AngularVelocityConversionService</title>
<ellipse fill="#fdb462" stroke="#000000" cx="1706" cy="-104" rx="149.3199" ry="18"/>
<text text-anchor="middle" x="1706" y="-99.8" font-family="Times,serif" font-size="14.00" fill="#000000">AngularVelocityConversionService</text>
</g>
<!-- AngularVelocityConversionService&#45;&gt;UnitsModule -->
<g id="edge2" class="edge">
<title>AngularVelocityConversionService&#45;&gt;UnitsModule</title>
<path fill="none" stroke="#000000" d="M1706,-122.1061C1706,-141.3391 1706,-169 1706,-169 1706,-169 1083.9442,-169 1083.9442,-169"/>
<polygon fill="#000000" stroke="#000000" points="1083.9442,-165.5001 1073.9442,-169 1083.9441,-172.5001 1083.9442,-165.5001"/>
</g>
<!-- FrequencyConversionService -->
<g id="node3" class="node">
<title>FrequencyConversionService</title>
<ellipse fill="#fdb462" stroke="#000000" cx="1413" cy="-104" rx="125.0451" ry="18"/>
<text text-anchor="middle" x="1413" y="-99.8" font-family="Times,serif" font-size="14.00" fill="#000000">FrequencyConversionService</text>
</g>
<!-- FrequencyConversionService&#45;&gt;UnitsModule -->
<g id="edge3" class="edge">
<title>FrequencyConversionService&#45;&gt;UnitsModule</title>
<path fill="none" stroke="#000000" d="M1413,-122.027C1413,-138.3976 1413,-160 1413,-160 1413,-160 1084.1789,-160 1084.1789,-160"/>
<polygon fill="#000000" stroke="#000000" points="1084.1789,-156.5001 1074.1789,-160 1084.1788,-163.5001 1084.1789,-156.5001"/>
</g>
<!-- LatitudeConversionService -->
<g id="node4" class="node">
<title>LatitudeConversionService</title>
<ellipse fill="#fdb462" stroke="#000000" cx="1153" cy="-104" rx="116.8924" ry="18"/>
<text text-anchor="middle" x="1153" y="-99.8" font-family="Times,serif" font-size="14.00" fill="#000000">LatitudeConversionService</text>
</g>
<!-- LatitudeConversionService&#45;&gt;UnitsModule -->
<g id="edge4" class="edge">
<title>LatitudeConversionService&#45;&gt;UnitsModule</title>
<path fill="none" stroke="#000000" d="M1055.1225,-113.8721C1055.1225,-113.8721 1055.1225,-140.9074 1055.1225,-140.9074"/>
<polygon fill="#000000" stroke="#000000" points="1051.6226,-140.9073 1055.1225,-150.9074 1058.6226,-140.9074 1051.6226,-140.9073"/>
</g>
<!-- LengthConversionService -->
<g id="node5" class="node">
<title>LengthConversionService</title>
<ellipse fill="#fdb462" stroke="#000000" cx="906" cy="-104" rx="111.7411" ry="18"/>
<text text-anchor="middle" x="906" y="-99.8" font-family="Times,serif" font-size="14.00" fill="#000000">LengthConversionService</text>
</g>
<!-- LengthConversionService&#45;&gt;UnitsModule -->
<g id="edge5" class="edge">
<title>LengthConversionService&#45;&gt;UnitsModule</title>
<path fill="none" stroke="#000000" d="M1000.9647,-113.591C1000.9647,-113.591 1000.9647,-140.748 1000.9647,-140.748"/>
<polygon fill="#000000" stroke="#000000" points="997.4648,-140.7479 1000.9647,-150.748 1004.4648,-140.748 997.4648,-140.7479"/>
</g>
<!-- LongitudeConversionService -->
<g id="node6" class="node">
<title>LongitudeConversionService</title>
<ellipse fill="#fdb462" stroke="#000000" cx="652" cy="-104" rx="124.4225" ry="18"/>
<text text-anchor="middle" x="652" y="-99.8" font-family="Times,serif" font-size="14.00" fill="#000000">LongitudeConversionService</text>
</g>
<!-- LongitudeConversionService&#45;&gt;UnitsModule -->
<g id="edge6" class="edge">
<title>LongitudeConversionService&#45;&gt;UnitsModule</title>
<path fill="none" stroke="#000000" d="M652,-122.027C652,-138.3976 652,-160 652,-160 652,-160 973.8995,-160 973.8995,-160"/>
<polygon fill="#000000" stroke="#000000" points="973.8995,-163.5001 983.8995,-160 973.8994,-156.5001 973.8995,-163.5001"/>
</g>
<!-- SensitivityConversionService -->
<g id="node7" class="node">
<title>SensitivityConversionService</title>
<ellipse fill="#fdb462" stroke="#000000" cx="384" cy="-104" rx="125.6594" ry="18"/>
<text text-anchor="middle" x="384" y="-99.8" font-family="Times,serif" font-size="14.00" fill="#000000">SensitivityConversionService</text>
</g>
<!-- SensitivityConversionService&#45;&gt;UnitsModule -->
<g id="edge7" class="edge">
<title>SensitivityConversionService&#45;&gt;UnitsModule</title>
<path fill="none" stroke="#000000" d="M384,-122.1061C384,-141.3391 384,-169 384,-169 384,-169 973.9012,-169 973.9012,-169"/>
<polygon fill="#000000" stroke="#000000" points="973.9012,-172.5001 983.9012,-169 973.9012,-165.5001 973.9012,-172.5001"/>
</g>
<!-- SpeedConversionService -->
<g id="node8" class="node">
<title>SpeedConversionService</title>
<ellipse fill="#fdb462" stroke="#000000" cx="132" cy="-104" rx="108.2279" ry="18"/>
<text text-anchor="middle" x="132" y="-99.8" font-family="Times,serif" font-size="14.00" fill="#000000">SpeedConversionService</text>
</g>
<!-- SpeedConversionService&#45;&gt;UnitsModule -->
<g id="edge8" class="edge">
<title>SpeedConversionService&#45;&gt;UnitsModule</title>
<path fill="none" stroke="#000000" d="M132,-122.2921C132,-144.2057 132,-178 132,-178 132,-178 973.9029,-178 973.9029,-178"/>
<polygon fill="#000000" stroke="#000000" points="973.9029,-181.5001 983.9029,-178 973.9029,-174.5001 973.9029,-181.5001"/>
</g>
</g>
</svg>
