<?xml version="1.0" encoding="UTF-8" standalone="no"?>
<!DOCTYPE svg PUBLIC "-//W3C//DTD SVG 1.1//EN"
 "http://www.w3.org/Graphics/SVG/1.1/DTD/svg11.dtd">
<!-- Generated by graphviz version 2.40.1 (20161225.0304)
 -->
<!-- Title: dependencies Pages: 1 -->
<svg width="504pt" height="284pt"
 viewBox="0.00 0.00 504.00 284.00" xmlns="http://www.w3.org/2000/svg" xmlns:xlink="http://www.w3.org/1999/xlink">
<g id="graph0" class="graph" transform="scale(1 1) rotate(0) translate(4 280)">
<title>dependencies</title>
<polygon fill="#ffffff" stroke="transparent" points="-4,4 -4,-280 500,-280 500,4 -4,4"/>
<text text-anchor="start" x="227.0091" y="-42.4" font-family="sans-serif" font-weight="bold" font-size="14.00" fill="#000000">Legend</text>
<polygon fill="#ffffb3" stroke="transparent" points="14,-10 14,-30 34,-30 34,-10 14,-10"/>
<text text-anchor="start" x="37.629" y="-15.4" font-family="sans-serif" font-size="14.00" fill="#000000"> &#160;Declarations</text>
<polygon fill="#8dd3c7" stroke="transparent" points="127,-10 127,-30 147,-30 147,-10 127,-10"/>
<text text-anchor="start" x="150.7251" y="-15.4" font-family="sans-serif" font-size="14.00" fill="#000000"> &#160;Module</text>
<polygon fill="#80b1d3" stroke="transparent" points="213,-10 213,-30 233,-30 233,-10 213,-10"/>
<text text-anchor="start" x="236.7812" y="-15.4" font-family="sans-serif" font-size="14.00" fill="#000000"> &#160;Bootstrap</text>
<polygon fill="#fdb462" stroke="transparent" points="310,-10 310,-30 330,-30 330,-10 310,-10"/>
<text text-anchor="start" x="333.6732" y="-15.4" font-family="sans-serif" font-size="14.00" fill="#000000"> &#160;Providers</text>
<polygon fill="#fb8072" stroke="transparent" points="406,-10 406,-30 426,-30 426,-10 406,-10"/>
<text text-anchor="start" x="429.7258" y="-15.4" font-family="sans-serif" font-size="14.00" fill="#000000"> &#160;Exports</text>
<g id="clust1" class="cluster">
<title>cluster_UnitsModule</title>
<polygon fill="none" stroke="#000000" stroke-dasharray="1,5" points="96,-70 96,-268 400,-268 400,-70 96,-70"/>
</g>
<g id="clust2" class="cluster">
<title>cluster_UnitsModule_declarations</title>
<polygon fill="none" stroke="#000000" points="104,-78 104,-130 392,-130 392,-78 104,-78"/>
</g>
<g id="clust6" class="cluster">
<title>cluster_UnitsModule_exports</title>
<polygon fill="none" stroke="#000000" points="226,-208 226,-260 320,-260 320,-208 226,-208"/>
</g>
<!-- Longitude -->
<g id="node1" class="node">
<title>Longitude</title>
<polygon fill="#ffffb3" stroke="#000000" points="383.5498,-122 310.4502,-122 310.4502,-86 383.5498,-86 383.5498,-122"/>
<text text-anchor="middle" x="347" y="-99.8" font-family="Times,serif" font-size="14.00" fill="#000000">Longitude</text>
</g>
<!-- UnitsModule -->
<g id="node3" class="node">
<title>UnitsModule</title>
<polygon fill="#8dd3c7" stroke="#000000" points="317.8823,-187 314.8823,-191 293.8823,-191 290.8823,-187 228.1177,-187 228.1177,-151 317.8823,-151 317.8823,-187"/>
<text text-anchor="middle" x="273" y="-164.8" font-family="Times,serif" font-size="14.00" fill="#000000">UnitsModule</text>
</g>
<!-- Longitude&#45;&gt;UnitsModule -->
<g id="edge1" class="edge">
<title>Longitude&#45;&gt;UnitsModule</title>
<path fill="none" stroke="#000000" d="M314.0834,-122.1061C314.0834,-122.1061 314.0834,-140.991 314.0834,-140.991"/>
<polygon fill="#000000" stroke="#000000" points="310.5835,-140.9909 314.0834,-150.991 317.5835,-140.991 310.5835,-140.9909"/>
</g>
<!-- LongitudeConversionService -->
<g id="node2" class="node">
<title>LongitudeConversionService</title>
<polygon fill="#ffffb3" stroke="#000000" points="292.073,-122 111.927,-122 111.927,-86 292.073,-86 292.073,-122"/>
<text text-anchor="middle" x="202" y="-99.8" font-family="Times,serif" font-size="14.00" fill="#000000">LongitudeConversionService</text>
</g>
<!-- LongitudeConversionService&#45;&gt;UnitsModule -->
<g id="edge2" class="edge">
<title>LongitudeConversionService&#45;&gt;UnitsModule</title>
<path fill="none" stroke="#000000" d="M260.0477,-122.1061C260.0477,-122.1061 260.0477,-140.991 260.0477,-140.991"/>
<polygon fill="#000000" stroke="#000000" points="256.5478,-140.9909 260.0477,-150.991 263.5478,-140.991 256.5478,-140.9909"/>
</g>
<!-- Longitude  -->
<g id="node4" class="node">
<title>Longitude </title>
<polygon fill="#fb8072" stroke="#000000" points="311.5484,-252 234.4516,-252 234.4516,-216 311.5484,-216 311.5484,-252"/>
<text text-anchor="middle" x="273" y="-229.8" font-family="Times,serif" font-size="14.00" fill="#000000">Longitude </text>
</g>
<!-- UnitsModule&#45;&gt;Longitude  -->
<g id="edge3" class="edge">
<title>UnitsModule&#45;&gt;Longitude </title>
<path fill="none" stroke="#000000" stroke-dasharray="5,2" d="M273,-187.1061C273,-187.1061 273,-205.991 273,-205.991"/>
<polygon fill="#000000" stroke="#000000" points="269.5001,-205.9909 273,-215.991 276.5001,-205.991 269.5001,-205.9909"/>
</g>
</g>
</svg>
