<?xml version="1.0" encoding="UTF-8" standalone="no"?>
<!DOCTYPE svg PUBLIC "-//W3C//DTD SVG 1.1//EN"
 "http://www.w3.org/Graphics/SVG/1.1/DTD/svg11.dtd">
<!-- Generated by graphviz version 2.40.1 (20161225.0304)
 -->
<!-- Title: dependencies Pages: 1 -->
<svg width="1525pt" height="284pt"
 viewBox="0.00 0.00 1525.00 284.00" xmlns="http://www.w3.org/2000/svg" xmlns:xlink="http://www.w3.org/1999/xlink">
<g id="graph0" class="graph" transform="scale(1 1) rotate(0) translate(4 280)">
<title>dependencies</title>
<polygon fill="#ffffff" stroke="transparent" points="-4,4 -4,-280 1521,-280 1521,4 -4,4"/>
<text text-anchor="start" x="737.5091" y="-42.4" font-family="sans-serif" font-weight="bold" font-size="14.00" fill="#000000">Legend</text>
<polygon fill="#ffffb3" stroke="transparent" points="524.5,-10 524.5,-30 544.5,-30 544.5,-10 524.5,-10"/>
<text text-anchor="start" x="548.129" y="-15.4" font-family="sans-serif" font-size="14.00" fill="#000000"> &#160;Declarations</text>
<polygon fill="#8dd3c7" stroke="transparent" points="637.5,-10 637.5,-30 657.5,-30 657.5,-10 637.5,-10"/>
<text text-anchor="start" x="661.2251" y="-15.4" font-family="sans-serif" font-size="14.00" fill="#000000"> &#160;Module</text>
<polygon fill="#80b1d3" stroke="transparent" points="723.5,-10 723.5,-30 743.5,-30 743.5,-10 723.5,-10"/>
<text text-anchor="start" x="747.2812" y="-15.4" font-family="sans-serif" font-size="14.00" fill="#000000"> &#160;Bootstrap</text>
<polygon fill="#fdb462" stroke="transparent" points="820.5,-10 820.5,-30 840.5,-30 840.5,-10 820.5,-10"/>
<text text-anchor="start" x="844.1732" y="-15.4" font-family="sans-serif" font-size="14.00" fill="#000000"> &#160;Providers</text>
<polygon fill="#fb8072" stroke="transparent" points="916.5,-10 916.5,-30 936.5,-30 936.5,-10 916.5,-10"/>
<text text-anchor="start" x="940.2258" y="-15.4" font-family="sans-serif" font-size="14.00" fill="#000000"> &#160;Exports</text>
<g id="clust1" class="cluster">
<title>cluster_PiSelectModule</title>
<polygon fill="none" stroke="#000000" stroke-dasharray="1,5" points="8,-70 8,-268 1509,-268 1509,-70 8,-70"/>
</g>
<g id="clust2" class="cluster">
<title>cluster_PiSelectModule_declarations</title>
<polygon fill="none" stroke="#000000" points="564,-78 564,-130 1501,-130 1501,-78 564,-78"/>
</g>
<g id="clust9" class="cluster">
<title>cluster_PiSelectModule_imports</title>
<polygon fill="none" stroke="#000000" points="274,-78 274,-130 556,-130 556,-78 274,-78"/>
</g>
<g id="clust10" class="cluster">
<title>cluster_PiSelectModule_exports</title>
<polygon fill="none" stroke="#000000" points="746,-208 746,-260 892,-260 892,-208 746,-208"/>
</g>
<g id="clust12" class="cluster">
<title>cluster_PiSelectModule_providers</title>
<polygon fill="none" stroke="#000000" points="16,-78 16,-130 266,-130 266,-78 16,-78"/>
</g>
<!-- PiEntryComponent -->
<g id="node1" class="node">
<title>PiEntryComponent</title>
<polygon fill="#ffffb3" stroke="#000000" points="1493.1094,-122 1368.8906,-122 1368.8906,-86 1493.1094,-86 1493.1094,-122"/>
<text text-anchor="middle" x="1431" y="-99.8" font-family="Times,serif" font-size="14.00" fill="#000000">PiEntryComponent</text>
</g>
<!-- PiSelectModule -->
<g id="node7" class="node">
<title>PiSelectModule</title>
<polygon fill="#8dd3c7" stroke="#000000" points="871.9315,-187 868.9315,-191 847.9315,-191 844.9315,-187 766.0685,-187 766.0685,-151 871.9315,-151 871.9315,-187"/>
<text text-anchor="middle" x="819" y="-164.8" font-family="Times,serif" font-size="14.00" fill="#000000">PiSelectModule</text>
</g>
<!-- PiEntryComponent&#45;&gt;PiSelectModule -->
<g id="edge1" class="edge">
<title>PiEntryComponent&#45;&gt;PiSelectModule</title>
<path fill="none" stroke="#000000" d="M1431,-122.0109C1431,-144.4852 1431,-180 1431,-180 1431,-180 881.9741,-180 881.9741,-180"/>
<polygon fill="#000000" stroke="#000000" points="881.9742,-176.5001 871.9741,-180 881.9741,-183.5001 881.9742,-176.5001"/>
</g>
<!-- PiSearchComponent -->
<g id="node2" class="node">
<title>PiSearchComponent</title>
<polygon fill="#ffffb3" stroke="#000000" points="1350.5926,-122 1219.4074,-122 1219.4074,-86 1350.5926,-86 1350.5926,-122"/>
<text text-anchor="middle" x="1285" y="-99.8" font-family="Times,serif" font-size="14.00" fill="#000000">PiSearchComponent</text>
</g>
<!-- PiSearchComponent&#45;&gt;PiSelectModule -->
<g id="edge2" class="edge">
<title>PiSearchComponent&#45;&gt;PiSelectModule</title>
<path fill="none" stroke="#000000" d="M1285,-122.1289C1285,-142.5724 1285,-173 1285,-173 1285,-173 882.0024,-173 882.0024,-173"/>
<polygon fill="#000000" stroke="#000000" points="882.0025,-169.5001 872.0024,-173 882.0024,-176.5001 882.0025,-169.5001"/>
</g>
<!-- PiSelectComponent -->
<g id="node3" class="node">
<title>PiSelectComponent</title>
<polygon fill="#ffffb3" stroke="#000000" points="1201.7134,-122 1074.2866,-122 1074.2866,-86 1201.7134,-86 1201.7134,-122"/>
<text text-anchor="middle" x="1138" y="-99.8" font-family="Times,serif" font-size="14.00" fill="#000000">PiSelectComponent</text>
</g>
<!-- PiSelectComponent&#45;&gt;PiSelectModule -->
<g id="edge3" class="edge">
<title>PiSelectComponent&#45;&gt;PiSelectModule</title>
<path fill="none" stroke="#000000" d="M1138,-122.2667C1138,-140.5552 1138,-166 1138,-166 1138,-166 882.0345,-166 882.0345,-166"/>
<polygon fill="#000000" stroke="#000000" points="882.0345,-162.5001 872.0345,-166 882.0344,-169.5001 882.0345,-162.5001"/>
</g>
<!-- ProjectInfoComponent -->
<g id="node4" class="node">
<title>ProjectInfoComponent</title>
<polygon fill="#ffffb3" stroke="#000000" points="1056.3075,-122 911.6925,-122 911.6925,-86 1056.3075,-86 1056.3075,-122"/>
<text text-anchor="middle" x="984" y="-99.8" font-family="Times,serif" font-size="14.00" fill="#000000">ProjectInfoComponent</text>
</g>
<!-- ProjectInfoComponent&#45;&gt;PiSelectModule -->
<g id="edge4" class="edge">
<title>ProjectInfoComponent&#45;&gt;PiSelectModule</title>
<path fill="none" stroke="#000000" d="M984,-122.0091C984,-138.0494 984,-159 984,-159 984,-159 882.1153,-159 882.1153,-159"/>
<polygon fill="#000000" stroke="#000000" points="882.1153,-155.5001 872.1153,-159 882.1152,-162.5001 882.1153,-155.5001"/>
</g>
<!-- RefinePanelComponent -->
<g id="node5" class="node">
<title>RefinePanelComponent</title>
<polygon fill="#ffffb3" stroke="#000000" points="893.752,-122 744.248,-122 744.248,-86 893.752,-86 893.752,-122"/>
<text text-anchor="middle" x="819" y="-99.8" font-family="Times,serif" font-size="14.00" fill="#000000">RefinePanelComponent</text>
</g>
<!-- RefinePanelComponent&#45;&gt;PiSelectModule -->
<g id="edge5" class="edge">
<title>RefinePanelComponent&#45;&gt;PiSelectModule</title>
<path fill="none" stroke="#000000" d="M819,-122.1061C819,-122.1061 819,-140.991 819,-140.991"/>
<polygon fill="#000000" stroke="#000000" points="815.5001,-140.9909 819,-150.991 822.5001,-140.991 815.5001,-140.9909"/>
</g>
<!-- ResultsTableComponent -->
<g id="node6" class="node">
<title>ResultsTableComponent</title>
<polygon fill="#ffffb3" stroke="#000000" points="726.427,-122 571.573,-122 571.573,-86 726.427,-86 726.427,-122"/>
<text text-anchor="middle" x="649" y="-99.8" font-family="Times,serif" font-size="14.00" fill="#000000">ResultsTableComponent</text>
</g>
<!-- ResultsTableComponent&#45;&gt;PiSelectModule -->
<g id="edge6" class="edge">
<title>ResultsTableComponent&#45;&gt;PiSelectModule</title>
<path fill="none" stroke="#000000" d="M649,-122.0091C649,-138.0494 649,-159 649,-159 649,-159 756.1428,-159 756.1428,-159"/>
<polygon fill="#000000" stroke="#000000" points="756.1428,-162.5001 766.1428,-159 756.1428,-155.5001 756.1428,-162.5001"/>
</g>
<!-- PiSelectComponent  -->
<g id="node10" class="node">
<title>PiSelectComponent </title>
<polygon fill="#fb8072" stroke="#000000" points="884.2135,-252 753.7865,-252 753.7865,-216 884.2135,-216 884.2135,-252"/>
<text text-anchor="middle" x="819" y="-229.8" font-family="Times,serif" font-size="14.00" fill="#000000">PiSelectComponent </text>
</g>
<!-- PiSelectModule&#45;&gt;PiSelectComponent  -->
<g id="edge9" class="edge">
<title>PiSelectModule&#45;&gt;PiSelectComponent </title>
<path fill="none" stroke="#000000" stroke-dasharray="5,2" d="M819,-187.1061C819,-187.1061 819,-205.991 819,-205.991"/>
<polygon fill="#000000" stroke="#000000" points="815.5001,-205.9909 819,-215.991 822.5001,-205.991 815.5001,-205.9909"/>
</g>
<!-- PiSelectRoutingModule -->
<g id="node8" class="node">
<title>PiSelectRoutingModule</title>
<polygon fill="#8dd3c7" stroke="#000000" points="548.0491,-122 545.0491,-126 524.0491,-126 521.0491,-122 397.9509,-122 397.9509,-86 548.0491,-86 548.0491,-122"/>
<text text-anchor="middle" x="473" y="-99.8" font-family="Times,serif" font-size="14.00" fill="#000000">PiSelectRoutingModule</text>
</g>
<!-- PiSelectRoutingModule&#45;&gt;PiSelectModule -->
<g id="edge7" class="edge">
<title>PiSelectRoutingModule&#45;&gt;PiSelectModule</title>
<path fill="none" stroke="#000000" d="M473,-122.2667C473,-140.5552 473,-166 473,-166 473,-166 756.0734,-166 756.0734,-166"/>
<polygon fill="#000000" stroke="#000000" points="756.0734,-169.5001 766.0734,-166 756.0734,-162.5001 756.0734,-169.5001"/>
</g>
<!-- SharedModule -->
<g id="node9" class="node">
<title>SharedModule</title>
<polygon fill="#8dd3c7" stroke="#000000" points="380.4231,-122 377.4231,-126 356.4231,-126 353.4231,-122 281.5769,-122 281.5769,-86 380.4231,-86 380.4231,-122"/>
<text text-anchor="middle" x="331" y="-99.8" font-family="Times,serif" font-size="14.00" fill="#000000">SharedModule</text>
</g>
<!-- SharedModule&#45;&gt;PiSelectModule -->
<g id="edge8" class="edge">
<title>SharedModule&#45;&gt;PiSelectModule</title>
<path fill="none" stroke="#000000" d="M331,-122.1289C331,-142.5724 331,-173 331,-173 331,-173 755.8465,-173 755.8465,-173"/>
<polygon fill="#000000" stroke="#000000" points="755.8465,-176.5001 765.8465,-173 755.8464,-169.5001 755.8465,-176.5001"/>
</g>
<!-- PrimaryInvestigatorService -->
<g id="node11" class="node">
<title>PrimaryInvestigatorService</title>
<ellipse fill="#fdb462" stroke="#000000" cx="141" cy="-104" rx="117.449" ry="18"/>
<text text-anchor="middle" x="141" y="-99.8" font-family="Times,serif" font-size="14.00" fill="#000000">PrimaryInvestigatorService</text>
</g>
<!-- PrimaryInvestigatorService&#45;&gt;PiSelectModule -->
<g id="edge10" class="edge">
<title>PrimaryInvestigatorService&#45;&gt;PiSelectModule</title>
<path fill="none" stroke="#000000" d="M141,-122.0109C141,-144.4852 141,-180 141,-180 141,-180 756.0809,-180 756.0809,-180"/>
<polygon fill="#000000" stroke="#000000" points="756.0809,-183.5001 766.0809,-180 756.0808,-176.5001 756.0809,-183.5001"/>
</g>
</g>
</svg>
