<?xml version="1.0" encoding="UTF-8" standalone="no"?>
<!DOCTYPE svg PUBLIC "-//W3C//DTD SVG 1.1//EN"
 "http://www.w3.org/Graphics/SVG/1.1/DTD/svg11.dtd">
<!-- Generated by graphviz version 2.40.1 (20161225.0304)
 -->
<!-- Title: dependencies Pages: 1 -->
<svg width="1677pt" height="284pt"
 viewBox="0.00 0.00 1677.00 284.00" xmlns="http://www.w3.org/2000/svg" xmlns:xlink="http://www.w3.org/1999/xlink">
<g id="graph0" class="graph" transform="scale(1 1) rotate(0) translate(4 280)">
<title>dependencies</title>
<polygon fill="#ffffff" stroke="transparent" points="-4,4 -4,-280 1673,-280 1673,4 -4,4"/>
<text text-anchor="start" x="813.5091" y="-42.4" font-family="sans-serif" font-weight="bold" font-size="14.00" fill="#000000">Legend</text>
<polygon fill="#ffffb3" stroke="transparent" points="600.5,-10 600.5,-30 620.5,-30 620.5,-10 600.5,-10"/>
<text text-anchor="start" x="624.129" y="-15.4" font-family="sans-serif" font-size="14.00" fill="#000000"> &#160;Declarations</text>
<polygon fill="#8dd3c7" stroke="transparent" points="713.5,-10 713.5,-30 733.5,-30 733.5,-10 713.5,-10"/>
<text text-anchor="start" x="737.2251" y="-15.4" font-family="sans-serif" font-size="14.00" fill="#000000"> &#160;Module</text>
<polygon fill="#80b1d3" stroke="transparent" points="799.5,-10 799.5,-30 819.5,-30 819.5,-10 799.5,-10"/>
<text text-anchor="start" x="823.2812" y="-15.4" font-family="sans-serif" font-size="14.00" fill="#000000"> &#160;Bootstrap</text>
<polygon fill="#fdb462" stroke="transparent" points="896.5,-10 896.5,-30 916.5,-30 916.5,-10 896.5,-10"/>
<text text-anchor="start" x="920.1732" y="-15.4" font-family="sans-serif" font-size="14.00" fill="#000000"> &#160;Providers</text>
<polygon fill="#fb8072" stroke="transparent" points="992.5,-10 992.5,-30 1012.5,-30 1012.5,-10 992.5,-10"/>
<text text-anchor="start" x="1016.2258" y="-15.4" font-family="sans-serif" font-size="14.00" fill="#000000"> &#160;Exports</text>
<g id="clust1" class="cluster">
<title>cluster_PiSelectModule</title>
<polygon fill="none" stroke="#000000" stroke-dasharray="1,5" points="8,-70 8,-268 1661,-268 1661,-70 8,-70"/>
</g>
<g id="clust2" class="cluster">
<title>cluster_PiSelectModule_declarations</title>
<polygon fill="none" stroke="#000000" points="564,-78 564,-130 1653,-130 1653,-78 564,-78"/>
</g>
<g id="clust10" class="cluster">
<title>cluster_PiSelectModule_imports</title>
<polygon fill="none" stroke="#000000" points="274,-78 274,-130 556,-130 556,-78 274,-78"/>
</g>
<g id="clust11" class="cluster">
<title>cluster_PiSelectModule_exports</title>
<polygon fill="none" stroke="#000000" points="828,-208 828,-260 974,-260 974,-208 828,-208"/>
</g>
<g id="clust13" class="cluster">
<title>cluster_PiSelectModule_providers</title>
<polygon fill="none" stroke="#000000" points="16,-78 16,-130 266,-130 266,-78 16,-78"/>
</g>
<!-- PiEntryComponent -->
<g id="node1" class="node">
<title>PiEntryComponent</title>
<polygon fill="#ffffb3" stroke="#000000" points="1645.1094,-122 1520.8906,-122 1520.8906,-86 1645.1094,-86 1645.1094,-122"/>
<text text-anchor="middle" x="1583" y="-99.8" font-family="Times,serif" font-size="14.00" fill="#000000">PiEntryComponent</text>
</g>
<!-- PiSearchModule -->
<g id="node8" class="node">
<title>PiSelectModule</title>
<polygon fill="#8dd3c7" stroke="#000000" points="953.9315,-187 950.9315,-191 929.9315,-191 926.9315,-187 848.0685,-187 848.0685,-151 953.9315,-151 953.9315,-187"/>
<text text-anchor="middle" x="901" y="-164.8" font-family="Times,serif" font-size="14.00" fill="#000000">PiSelectModule</text>
</g>
<!-- PiEntryComponent&#45;&gt;PiSearchModule -->
<g id="edge1" class="edge">
<title>PiEntryComponent&#45;&gt;PiSelectModule</title>
<path fill="none" stroke="#000000" d="M1583,-122.0109C1583,-144.4852 1583,-180 1583,-180 1583,-180 963.9479,-180 963.9479,-180"/>
<polygon fill="#000000" stroke="#000000" points="963.9479,-176.5001 953.9479,-180 963.9479,-183.5001 963.9479,-176.5001"/>
</g>
<!-- PiResultsComponent -->
<g id="node2" class="node">
<title>PiResultsComponent</title>
<polygon fill="#ffffb3" stroke="#000000" points="1503.2274,-122 1368.7726,-122 1368.7726,-86 1503.2274,-86 1503.2274,-122"/>
<text text-anchor="middle" x="1436" y="-99.8" font-family="Times,serif" font-size="14.00" fill="#000000">PiResultsComponent</text>
</g>
<!-- PiResultsComponent&#45;&gt;PiSearchModule -->
<g id="edge2" class="edge">
<title>PiResultsComponent&#45;&gt;PiSelectModule</title>
<path fill="none" stroke="#000000" d="M1436,-122.1289C1436,-142.5724 1436,-173 1436,-173 1436,-173 963.762,-173 963.762,-173"/>
<polygon fill="#000000" stroke="#000000" points="963.7621,-169.5001 953.762,-173 963.762,-176.5001 963.7621,-169.5001"/>
</g>
<!-- PiSearchComponent -->
<g id="node3" class="node">
<title>PiSearchComponent</title>
<polygon fill="#ffffb3" stroke="#000000" points="1350.5926,-122 1219.4074,-122 1219.4074,-86 1350.5926,-86 1350.5926,-122"/>
<text text-anchor="middle" x="1285" y="-99.8" font-family="Times,serif" font-size="14.00" fill="#000000">PiSearchComponent</text>
</g>
<!-- PiSearchComponent&#45;&gt;PiSearchModule -->
<g id="edge3" class="edge">
<title>PiSearchComponent&#45;&gt;PiSelectModule</title>
<path fill="none" stroke="#000000" d="M1285,-122.2667C1285,-140.5552 1285,-166 1285,-166 1285,-166 963.9904,-166 963.9904,-166"/>
<polygon fill="#000000" stroke="#000000" points="963.9904,-162.5001 953.9904,-166 963.9904,-169.5001 963.9904,-162.5001"/>
</g>
<!-- PiSelectComponent -->
<g id="node4" class="node">
<title>PiSelectComponent</title>
<polygon fill="#ffffb3" stroke="#000000" points="1201.7134,-122 1074.2866,-122 1074.2866,-86 1201.7134,-86 1201.7134,-122"/>
<text text-anchor="middle" x="1138" y="-99.8" font-family="Times,serif" font-size="14.00" fill="#000000">PiSelectComponent</text>
</g>
<!-- PiSelectComponent&#45;&gt;PiSearchModule -->
<g id="edge4" class="edge">
<title>PiSelectComponent&#45;&gt;PiSelectModule</title>
<path fill="none" stroke="#000000" d="M1138,-122.0091C1138,-138.0494 1138,-159 1138,-159 1138,-159 963.8924,-159 963.8924,-159"/>
<polygon fill="#000000" stroke="#000000" points="963.8925,-155.5001 953.8924,-159 963.8924,-162.5001 963.8925,-155.5001"/>
</g>
<!-- ProjectInfoComponent -->
<g id="node5" class="node">
<title>ProjectInfoComponent</title>
<polygon fill="#ffffb3" stroke="#000000" points="1056.3075,-122 911.6925,-122 911.6925,-86 1056.3075,-86 1056.3075,-122"/>
<text text-anchor="middle" x="984" y="-99.8" font-family="Times,serif" font-size="14.00" fill="#000000">ProjectInfoComponent</text>
</g>
<!-- ProjectInfoComponent&#45;&gt;PiSearchModule -->
<g id="edge5" class="edge">
<title>ProjectInfoComponent&#45;&gt;PiSelectModule</title>
<path fill="none" stroke="#000000" d="M932.7809,-122.1061C932.7809,-122.1061 932.7809,-140.991 932.7809,-140.991"/>
<polygon fill="#000000" stroke="#000000" points="929.2809,-140.9909 932.7809,-150.991 936.2809,-140.991 929.2809,-140.9909"/>
</g>
<!-- RefinePanelComponent -->
<g id="node6" class="node">
<title>RefinePanelComponent</title>
<polygon fill="#ffffb3" stroke="#000000" points="893.752,-122 744.248,-122 744.248,-86 893.752,-86 893.752,-122"/>
<text text-anchor="middle" x="819" y="-99.8" font-family="Times,serif" font-size="14.00" fill="#000000">RefinePanelComponent</text>
</g>
<!-- RefinePanelComponent&#45;&gt;PiSearchModule -->
<g id="edge6" class="edge">
<title>RefinePanelComponent&#45;&gt;PiSelectModule</title>
<path fill="none" stroke="#000000" d="M871.0803,-122.1061C871.0803,-122.1061 871.0803,-140.991 871.0803,-140.991"/>
<polygon fill="#000000" stroke="#000000" points="867.5804,-140.9909 871.0803,-150.991 874.5804,-140.991 867.5804,-140.9909"/>
</g>
<!-- ResultsTableComponent -->
<g id="node7" class="node">
<title>ResultsTableComponent</title>
<polygon fill="#ffffb3" stroke="#000000" points="726.427,-122 571.573,-122 571.573,-86 726.427,-86 726.427,-122"/>
<text text-anchor="middle" x="649" y="-99.8" font-family="Times,serif" font-size="14.00" fill="#000000">ResultsTableComponent</text>
</g>
<!-- ResultsTableComponent&#45;&gt;PiSearchModule -->
<g id="edge7" class="edge">
<title>ResultsTableComponent&#45;&gt;PiSelectModule</title>
<path fill="none" stroke="#000000" d="M649,-122.0091C649,-138.0494 649,-159 649,-159 649,-159 838.1725,-159 838.1725,-159"/>
<polygon fill="#000000" stroke="#000000" points="838.1726,-162.5001 848.1725,-159 838.1725,-155.5001 838.1726,-162.5001"/>
</g>
<!-- PiSelectComponent  -->
<g id="node11" class="node">
<title>PiSelectComponent </title>
<polygon fill="#fb8072" stroke="#000000" points="966.2135,-252 835.7865,-252 835.7865,-216 966.2135,-216 966.2135,-252"/>
<text text-anchor="middle" x="901" y="-229.8" font-family="Times,serif" font-size="14.00" fill="#000000">PiSelectComponent </text>
</g>
<!-- PiSearchModule&#45;&gt;PiSelectComponent  -->
<g id="edge10" class="edge">
<title>PiSelectModule&#45;&gt;PiSelectComponent </title>
<path fill="none" stroke="#000000" stroke-dasharray="5,2" d="M901,-187.1061C901,-187.1061 901,-205.991 901,-205.991"/>
<polygon fill="#000000" stroke="#000000" points="897.5001,-205.9909 901,-215.991 904.5001,-205.991 897.5001,-205.9909"/>
</g>
<!-- PiSelectRoutingModule -->
<g id="node9" class="node">
<title>PiSelectRoutingModule</title>
<polygon fill="#8dd3c7" stroke="#000000" points="548.0491,-122 545.0491,-126 524.0491,-126 521.0491,-122 397.9509,-122 397.9509,-86 548.0491,-86 548.0491,-122"/>
<text text-anchor="middle" x="473" y="-99.8" font-family="Times,serif" font-size="14.00" fill="#000000">PiSelectRoutingModule</text>
</g>
<!-- PiSelectRoutingModule&#45;&gt;PiSearchModule -->
<g id="edge8" class="edge">
<title>PiSelectRoutingModule&#45;&gt;PiSelectModule</title>
<path fill="none" stroke="#000000" d="M473,-122.2667C473,-140.5552 473,-166 473,-166 473,-166 838.0895,-166 838.0895,-166"/>
<polygon fill="#000000" stroke="#000000" points="838.0896,-169.5001 848.0895,-166 838.0895,-162.5001 838.0896,-169.5001"/>
</g>
<!-- SharedModule -->
<g id="node10" class="node">
<title>SharedModule</title>
<polygon fill="#8dd3c7" stroke="#000000" points="380.4231,-122 377.4231,-126 356.4231,-126 353.4231,-122 281.5769,-122 281.5769,-86 380.4231,-86 380.4231,-122"/>
<text text-anchor="middle" x="331" y="-99.8" font-family="Times,serif" font-size="14.00" fill="#000000">SharedModule</text>
</g>
<!-- SharedModule&#45;&gt;PiSearchModule -->
<g id="edge9" class="edge">
<title>SharedModule&#45;&gt;PiSelectModule</title>
<path fill="none" stroke="#000000" d="M331,-122.1289C331,-142.5724 331,-173 331,-173 331,-173 838.1428,-173 838.1428,-173"/>
<polygon fill="#000000" stroke="#000000" points="838.1428,-176.5001 848.1428,-173 838.1428,-169.5001 838.1428,-176.5001"/>
</g>
<!-- PrimaryInvestigatorService -->
<g id="node12" class="node">
<title>PrimaryInvestigatorService</title>
<ellipse fill="#fdb462" stroke="#000000" cx="141" cy="-104" rx="117.449" ry="18"/>
<text text-anchor="middle" x="141" y="-99.8" font-family="Times,serif" font-size="14.00" fill="#000000">PrimaryInvestigatorService</text>
</g>
<!-- PrimaryInvestigatorService&#45;&gt;PiSearchModule -->
<g id="edge11" class="edge">
<title>PrimaryInvestigatorService&#45;&gt;PiSelectModule</title>
<path fill="none" stroke="#000000" d="M141,-122.0109C141,-144.4852 141,-180 141,-180 141,-180 838.1617,-180 838.1617,-180"/>
<polygon fill="#000000" stroke="#000000" points="838.1617,-183.5001 848.1617,-180 838.1616,-176.5001 838.1617,-183.5001"/>
</g>
</g>
</svg>
