<?xml version="1.0" encoding="UTF-8" standalone="no"?>
<!DOCTYPE svg PUBLIC "-//W3C//DTD SVG 1.1//EN"
 "http://www.w3.org/Graphics/SVG/1.1/DTD/svg11.dtd">
<!-- Generated by graphviz version 2.40.1 (20161225.0304)
 -->
<!-- Title: dependencies Pages: 1 -->
<svg width="1072pt" height="284pt"
 viewBox="0.00 0.00 1072.00 284.00" xmlns="http://www.w3.org/2000/svg" xmlns:xlink="http://www.w3.org/1999/xlink">
<g id="graph0" class="graph" transform="scale(1 1) rotate(0) translate(4 280)">
<title>dependencies</title>
<polygon fill="#ffffff" stroke="transparent" points="-4,4 -4,-280 1068,-280 1068,4 -4,4"/>
<text text-anchor="start" x="511.0091" y="-42.4" font-family="sans-serif" font-weight="bold" font-size="14.00" fill="#000000">Legend</text>
<polygon fill="#ffffb3" stroke="transparent" points="298,-10 298,-30 318,-30 318,-10 298,-10"/>
<text text-anchor="start" x="321.629" y="-15.4" font-family="sans-serif" font-size="14.00" fill="#000000"> &#160;Declarations</text>
<polygon fill="#8dd3c7" stroke="transparent" points="411,-10 411,-30 431,-30 431,-10 411,-10"/>
<text text-anchor="start" x="434.7251" y="-15.4" font-family="sans-serif" font-size="14.00" fill="#000000"> &#160;Module</text>
<polygon fill="#80b1d3" stroke="transparent" points="497,-10 497,-30 517,-30 517,-10 497,-10"/>
<text text-anchor="start" x="520.7812" y="-15.4" font-family="sans-serif" font-size="14.00" fill="#000000"> &#160;Bootstrap</text>
<polygon fill="#fdb462" stroke="transparent" points="594,-10 594,-30 614,-30 614,-10 594,-10"/>
<text text-anchor="start" x="617.6732" y="-15.4" font-family="sans-serif" font-size="14.00" fill="#000000"> &#160;Providers</text>
<polygon fill="#fb8072" stroke="transparent" points="690,-10 690,-30 710,-30 710,-10 690,-10"/>
<text text-anchor="start" x="713.7258" y="-15.4" font-family="sans-serif" font-size="14.00" fill="#000000"> &#160;Exports</text>
<g id="clust1" class="cluster">
<title>cluster_PiSelectModule</title>
<polygon fill="none" stroke="#000000" stroke-dasharray="1,5" points="8,-70 8,-268 1056,-268 1056,-70 8,-70"/>
</g>
<g id="clust2" class="cluster">
<title>cluster_PiSelectModule_declarations</title>
<polygon fill="none" stroke="#000000" points="274,-78 274,-130 1048,-130 1048,-78 274,-78"/>
</g>
<g id="clust9" class="cluster">
<title>cluster_PiSelectModule_exports</title>
<polygon fill="none" stroke="#000000" points="534,-208 534,-260 680,-260 680,-208 534,-208"/>
</g>
<g id="clust11" class="cluster">
<title>cluster_PiSelectModule_providers</title>
<polygon fill="none" stroke="#000000" points="16,-78 16,-130 266,-130 266,-78 16,-78"/>
</g>
<!-- PiEntryComponent -->
<g id="node1" class="node">
<title>PiEntryComponent</title>
<polygon fill="#ffffb3" stroke="#000000" points="1040.1094,-122 915.8906,-122 915.8906,-86 1040.1094,-86 1040.1094,-122"/>
<text text-anchor="middle" x="978" y="-99.8" font-family="Times,serif" font-size="14.00" fill="#000000">PiEntryComponent</text>
</g>
<!-- PiSelectModule -->
<g id="node6" class="node">
<title>PiSelectModule</title>
<polygon fill="#8dd3c7" stroke="#000000" points="659.9315,-187 656.9315,-191 635.9315,-191 632.9315,-187 554.0685,-187 554.0685,-151 659.9315,-151 659.9315,-187"/>
<text text-anchor="middle" x="607" y="-164.8" font-family="Times,serif" font-size="14.00" fill="#000000">PiSelectModule</text>
</g>
<!-- PiEntryComponent&#45;&gt;PiSelectModule -->
<g id="edge1" class="edge">
<title>PiEntryComponent&#45;&gt;PiSelectModule</title>
<path fill="none" stroke="#000000" d="M978,-122.2843C978,-143.3211 978,-175 978,-175 978,-175 669.7613,-175 669.7613,-175"/>
<polygon fill="#000000" stroke="#000000" points="669.7613,-171.5001 659.7613,-175 669.7612,-178.5001 669.7613,-171.5001"/>
</g>
<!-- PiSearchComponent -->
<g id="node2" class="node">
<title>PiSearchComponent</title>
<polygon fill="#ffffb3" stroke="#000000" points="897.5926,-122 766.4074,-122 766.4074,-86 897.5926,-86 897.5926,-122"/>
<text text-anchor="middle" x="832" y="-99.8" font-family="Times,serif" font-size="14.00" fill="#000000">PiSearchComponent</text>
</g>
<!-- PiSearchComponent&#45;&gt;PiSelectModule -->
<g id="edge2" class="edge">
<title>PiSearchComponent&#45;&gt;PiSelectModule</title>
<path fill="none" stroke="#000000" d="M832,-122.0225C832,-139.3734 832,-163 832,-163 832,-163 669.7525,-163 669.7525,-163"/>
<polygon fill="#000000" stroke="#000000" points="669.7525,-159.5001 659.7525,-163 669.7525,-166.5001 669.7525,-159.5001"/>
</g>
<!-- PiSelectComponent -->
<g id="node3" class="node">
<title>PiSelectComponent</title>
<polygon fill="#ffffb3" stroke="#000000" points="748.7134,-122 621.2866,-122 621.2866,-86 748.7134,-86 748.7134,-122"/>
<text text-anchor="middle" x="685" y="-99.8" font-family="Times,serif" font-size="14.00" fill="#000000">PiSelectComponent</text>
</g>
<!-- PiSelectComponent&#45;&gt;PiSelectModule -->
<g id="edge3" class="edge">
<title>PiSelectComponent&#45;&gt;PiSelectModule</title>
<path fill="none" stroke="#000000" d="M640.5544,-122.1061C640.5544,-122.1061 640.5544,-140.991 640.5544,-140.991"/>
<polygon fill="#000000" stroke="#000000" points="637.0544,-140.9909 640.5544,-150.991 644.0544,-140.991 637.0544,-140.9909"/>
</g>
<!-- RefinePanelComponent -->
<g id="node4" class="node">
<title>RefinePanelComponent</title>
<polygon fill="#ffffb3" stroke="#000000" points="603.752,-122 454.248,-122 454.248,-86 603.752,-86 603.752,-122"/>
<text text-anchor="middle" x="529" y="-99.8" font-family="Times,serif" font-size="14.00" fill="#000000">RefinePanelComponent</text>
</g>
<!-- RefinePanelComponent&#45;&gt;PiSelectModule -->
<g id="edge4" class="edge">
<title>RefinePanelComponent&#45;&gt;PiSelectModule</title>
<path fill="none" stroke="#000000" d="M579.0803,-122.1061C579.0803,-122.1061 579.0803,-140.991 579.0803,-140.991"/>
<polygon fill="#000000" stroke="#000000" points="575.5804,-140.9909 579.0803,-150.991 582.5804,-140.991 575.5804,-140.9909"/>
</g>
<!-- ResultsTableComponent -->
<g id="node5" class="node">
<title>ResultsTableComponent</title>
<polygon fill="#ffffb3" stroke="#000000" points="436.427,-122 281.573,-122 281.573,-86 436.427,-86 436.427,-122"/>
<text text-anchor="middle" x="359" y="-99.8" font-family="Times,serif" font-size="14.00" fill="#000000">ResultsTableComponent</text>
</g>
<!-- ResultsTableComponent&#45;&gt;PiSelectModule -->
<g id="edge5" class="edge">
<title>ResultsTableComponent&#45;&gt;PiSelectModule</title>
<path fill="none" stroke="#000000" d="M359,-122.0225C359,-139.3734 359,-163 359,-163 359,-163 544.102,-163 544.102,-163"/>
<polygon fill="#000000" stroke="#000000" points="544.102,-166.5001 554.102,-163 544.1019,-159.5001 544.102,-166.5001"/>
</g>
<!-- PiSelectComponent  -->
<g id="node7" class="node">
<title>PiSelectComponent </title>
<polygon fill="#fb8072" stroke="#000000" points="672.2135,-252 541.7865,-252 541.7865,-216 672.2135,-216 672.2135,-252"/>
<text text-anchor="middle" x="607" y="-229.8" font-family="Times,serif" font-size="14.00" fill="#000000">PiSelectComponent </text>
</g>
<!-- PiSelectModule&#45;&gt;PiSelectComponent  -->
<g id="edge6" class="edge">
<title>PiSelectModule&#45;&gt;PiSelectComponent </title>
<path fill="none" stroke="#000000" stroke-dasharray="5,2" d="M607,-187.1061C607,-187.1061 607,-205.991 607,-205.991"/>
<polygon fill="#000000" stroke="#000000" points="603.5001,-205.9909 607,-215.991 610.5001,-205.991 603.5001,-205.9909"/>
</g>
<!-- PrimaryInvestigatorService -->
<g id="node8" class="node">
<title>PrimaryInvestigatorService</title>
<ellipse fill="#fdb462" stroke="#000000" cx="141" cy="-104" rx="117.449" ry="18"/>
<text text-anchor="middle" x="141" y="-99.8" font-family="Times,serif" font-size="14.00" fill="#000000">PrimaryInvestigatorService</text>
</g>
<!-- PrimaryInvestigatorService&#45;&gt;PiSelectModule -->
<g id="edge7" class="edge">
<title>PrimaryInvestigatorService&#45;&gt;PiSelectModule</title>
<path fill="none" stroke="#000000" d="M141,-122.2843C141,-143.3211 141,-175 141,-175 141,-175 543.9976,-175 543.9976,-175"/>
<polygon fill="#000000" stroke="#000000" points="543.9976,-178.5001 553.9976,-175 543.9975,-171.5001 543.9976,-178.5001"/>
</g>
</g>
</svg>
