<?xml version="1.0" encoding="UTF-8" standalone="no"?>
<!DOCTYPE svg PUBLIC "-//W3C//DTD SVG 1.1//EN"
 "http://www.w3.org/Graphics/SVG/1.1/DTD/svg11.dtd">
<!-- Generated by graphviz version 2.40.1 (20161225.0304)
 -->
<!-- Title: dependencies Pages: 1 -->
<svg width="1592pt" height="284pt"
 viewBox="0.00 0.00 1592.00 284.00" xmlns="http://www.w3.org/2000/svg" xmlns:xlink="http://www.w3.org/1999/xlink">
<g id="graph0" class="graph" transform="scale(1 1) rotate(0) translate(4 280)">
<title>dependencies</title>
<polygon fill="#ffffff" stroke="transparent" points="-4,4 -4,-280 1588,-280 1588,4 -4,4"/>
<text text-anchor="start" x="771.0091" y="-42.4" font-family="sans-serif" font-weight="bold" font-size="14.00" fill="#000000">Legend</text>
<polygon fill="#ffffb3" stroke="transparent" points="558,-10 558,-30 578,-30 578,-10 558,-10"/>
<text text-anchor="start" x="581.629" y="-15.4" font-family="sans-serif" font-size="14.00" fill="#000000"> &#160;Declarations</text>
<polygon fill="#8dd3c7" stroke="transparent" points="671,-10 671,-30 691,-30 691,-10 671,-10"/>
<text text-anchor="start" x="694.7251" y="-15.4" font-family="sans-serif" font-size="14.00" fill="#000000"> &#160;Module</text>
<polygon fill="#80b1d3" stroke="transparent" points="757,-10 757,-30 777,-30 777,-10 757,-10"/>
<text text-anchor="start" x="780.7812" y="-15.4" font-family="sans-serif" font-size="14.00" fill="#000000"> &#160;Bootstrap</text>
<polygon fill="#fdb462" stroke="transparent" points="854,-10 854,-30 874,-30 874,-10 854,-10"/>
<text text-anchor="start" x="877.6732" y="-15.4" font-family="sans-serif" font-size="14.00" fill="#000000"> &#160;Providers</text>
<polygon fill="#fb8072" stroke="transparent" points="950,-10 950,-30 970,-30 970,-10 950,-10"/>
<text text-anchor="start" x="973.7258" y="-15.4" font-family="sans-serif" font-size="14.00" fill="#000000"> &#160;Exports</text>
<g id="clust1" class="cluster">
<title>cluster_ScienceGoalModule</title>
<polygon fill="none" stroke="#000000" stroke-dasharray="1,5" points="8,-70 8,-268 1576,-268 1576,-70 8,-70"/>
</g>
<g id="clust2" class="cluster">
<title>cluster_ScienceGoalModule_declarations</title>
<polygon fill="none" stroke="#000000" points="625,-78 625,-130 1568,-130 1568,-78 625,-78"/>
</g>
<g id="clust8" class="cluster">
<title>cluster_ScienceGoalModule_imports</title>
<polygon fill="none" stroke="#000000" points="16,-78 16,-130 617,-130 617,-78 16,-78"/>
</g>
<g id="clust9" class="cluster">
<title>cluster_ScienceGoalModule_exports</title>
<polygon fill="none" stroke="#000000" points="623,-208 623,-260 795,-260 795,-208 623,-208"/>
</g>
<!-- CalibrationSetupComponent -->
<g id="node1" class="node">
<title>CalibrationSetupComponent</title>
<polygon fill="#ffffb3" stroke="#000000" points="1560.2091,-122 1383.7909,-122 1383.7909,-86 1560.2091,-86 1560.2091,-122"/>
<text text-anchor="middle" x="1472" y="-99.8" font-family="Times,serif" font-size="14.00" fill="#000000">CalibrationSetupComponent</text>
</g>
<!-- ScienceGoalModule -->
<g id="node6" class="node">
<title>ScienceGoalModule</title>
<polygon fill="#8dd3c7" stroke="#000000" points="774.2935,-187 771.2935,-191 750.2935,-191 747.2935,-187 643.7065,-187 643.7065,-151 774.2935,-151 774.2935,-187"/>
<text text-anchor="middle" x="709" y="-164.8" font-family="Times,serif" font-size="14.00" fill="#000000">ScienceGoalModule</text>
</g>
<!-- CalibrationSetupComponent&#45;&gt;ScienceGoalModule -->
<g id="edge1" class="edge">
<title>CalibrationSetupComponent&#45;&gt;ScienceGoalModule</title>
<path fill="none" stroke="#000000" d="M1472,-122.0109C1472,-144.4852 1472,-180 1472,-180 1472,-180 784.3828,-180 784.3828,-180"/>
<polygon fill="#000000" stroke="#000000" points="784.3828,-176.5001 774.3828,-180 784.3828,-183.5001 784.3828,-176.5001"/>
</g>
<!-- ControlPerformanceComponent -->
<g id="node2" class="node">
<title>ControlPerformanceComponent</title>
<polygon fill="#ffffb3" stroke="#000000" points="1365.6246,-122 1170.3754,-122 1170.3754,-86 1365.6246,-86 1365.6246,-122"/>
<text text-anchor="middle" x="1268" y="-99.8" font-family="Times,serif" font-size="14.00" fill="#000000">ControlPerformanceComponent</text>
</g>
<!-- ControlPerformanceComponent&#45;&gt;ScienceGoalModule -->
<g id="edge2" class="edge">
<title>ControlPerformanceComponent&#45;&gt;ScienceGoalModule</title>
<path fill="none" stroke="#000000" d="M1268,-122.1289C1268,-142.5724 1268,-173 1268,-173 1268,-173 784.2184,-173 784.2184,-173"/>
<polygon fill="#000000" stroke="#000000" points="784.2185,-169.5001 774.2184,-173 784.2184,-176.5001 784.2185,-169.5001"/>
</g>
<!-- GeneralComponent -->
<g id="node3" class="node">
<title>GeneralComponent</title>
<polygon fill="#ffffb3" stroke="#000000" points="1151.6345,-122 1026.3655,-122 1026.3655,-86 1151.6345,-86 1151.6345,-122"/>
<text text-anchor="middle" x="1089" y="-99.8" font-family="Times,serif" font-size="14.00" fill="#000000">GeneralComponent</text>
</g>
<!-- GeneralComponent&#45;&gt;ScienceGoalModule -->
<g id="edge3" class="edge">
<title>GeneralComponent&#45;&gt;ScienceGoalModule</title>
<path fill="none" stroke="#000000" d="M1089,-122.2667C1089,-140.5552 1089,-166 1089,-166 1089,-166 784.3243,-166 784.3243,-166"/>
<polygon fill="#000000" stroke="#000000" points="784.3244,-162.5001 774.3243,-166 784.3243,-169.5001 784.3244,-162.5001"/>
</g>
<!-- TechnicalJustificationComponent -->
<g id="node4" class="node">
<title>TechnicalJustificationComponent</title>
<polygon fill="#ffffb3" stroke="#000000" points="1008.4566,-122 803.5434,-122 803.5434,-86 1008.4566,-86 1008.4566,-122"/>
<text text-anchor="middle" x="906" y="-99.8" font-family="Times,serif" font-size="14.00" fill="#000000">TechnicalJustificationComponent</text>
</g>
<!-- TechnicalJustificationComponent&#45;&gt;ScienceGoalModule -->
<g id="edge4" class="edge">
<title>TechnicalJustificationComponent&#45;&gt;ScienceGoalModule</title>
<path fill="none" stroke="#000000" d="M906,-122.0091C906,-138.0494 906,-159 906,-159 906,-159 784.3245,-159 784.3245,-159"/>
<polygon fill="#000000" stroke="#000000" points="784.3245,-155.5001 774.3245,-159 784.3245,-162.5001 784.3245,-155.5001"/>
</g>
<!-- ScienceGoalComponent -->
<g id="node5" class="node">
<title>ScienceGoalComponent</title>
<polygon fill="#ffffb3" stroke="#000000" points="785.0758,-122 632.9242,-122 632.9242,-86 785.0758,-86 785.0758,-122"/>
<text text-anchor="middle" x="709" y="-99.8" font-family="Times,serif" font-size="14.00" fill="#000000">ScienceGoalComponent</text>
</g>
<!-- ScienceGoalComponent&#45;&gt;ScienceGoalModule -->
<g id="edge5" class="edge">
<title>ScienceGoalComponent&#45;&gt;ScienceGoalModule</title>
<path fill="none" stroke="#000000" d="M709,-122.1061C709,-122.1061 709,-140.991 709,-140.991"/>
<polygon fill="#000000" stroke="#000000" points="705.5001,-140.9909 709,-150.991 712.5001,-140.991 705.5001,-140.9909"/>
</g>
<!-- ScienceGoalComponent  -->
<g id="node11" class="node">
<title>ScienceGoalComponent </title>
<polygon fill="#fb8072" stroke="#000000" points="786.5764,-252 631.4236,-252 631.4236,-216 786.5764,-216 786.5764,-252"/>
<text text-anchor="middle" x="709" y="-229.8" font-family="Times,serif" font-size="14.00" fill="#000000">ScienceGoalComponent </text>
</g>
<!-- ScienceGoalModule&#45;&gt;ScienceGoalComponent  -->
<g id="edge10" class="edge">
<title>ScienceGoalModule&#45;&gt;ScienceGoalComponent </title>
<path fill="none" stroke="#000000" stroke-dasharray="5,2" d="M709,-187.1061C709,-187.1061 709,-205.991 709,-205.991"/>
<polygon fill="#000000" stroke="#000000" points="705.5001,-205.9909 709,-215.991 712.5001,-205.991 705.5001,-205.9909"/>
</g>
<!-- FieldSetupModule -->
<g id="node7" class="node">
<title>FieldSetupModule</title>
<polygon fill="#8dd3c7" stroke="#000000" points="609.2162,-122 606.2162,-126 585.2162,-126 582.2162,-122 488.7838,-122 488.7838,-86 609.2162,-86 609.2162,-122"/>
<text text-anchor="middle" x="549" y="-99.8" font-family="Times,serif" font-size="14.00" fill="#000000">FieldSetupModule</text>
</g>
<!-- FieldSetupModule&#45;&gt;ScienceGoalModule -->
<g id="edge6" class="edge">
<title>FieldSetupModule&#45;&gt;ScienceGoalModule</title>
<path fill="none" stroke="#000000" d="M549,-122.0091C549,-138.0494 549,-159 549,-159 549,-159 633.4602,-159 633.4602,-159"/>
<polygon fill="#000000" stroke="#000000" points="633.4603,-162.5001 643.4602,-159 633.4602,-155.5001 633.4603,-162.5001"/>
</g>
<!-- SharedModule -->
<g id="node8" class="node">
<title>SharedModule</title>
<polygon fill="#8dd3c7" stroke="#000000" points="471.4231,-122 468.4231,-126 447.4231,-126 444.4231,-122 372.5769,-122 372.5769,-86 471.4231,-86 471.4231,-122"/>
<text text-anchor="middle" x="422" y="-99.8" font-family="Times,serif" font-size="14.00" fill="#000000">SharedModule</text>
</g>
<!-- SharedModule&#45;&gt;ScienceGoalModule -->
<g id="edge7" class="edge">
<title>SharedModule&#45;&gt;ScienceGoalModule</title>
<path fill="none" stroke="#000000" d="M422,-122.2667C422,-140.5552 422,-166 422,-166 422,-166 633.5161,-166 633.5161,-166"/>
<polygon fill="#000000" stroke="#000000" points="633.5162,-169.5001 643.5161,-166 633.5161,-162.5001 633.5162,-169.5001"/>
</g>
<!-- SpectralSetupModule -->
<g id="node9" class="node">
<title>SpectralSetupModule</title>
<polygon fill="#8dd3c7" stroke="#000000" points="354.8061,-122 351.8061,-126 330.8061,-126 327.8061,-122 217.1939,-122 217.1939,-86 354.8061,-86 354.8061,-122"/>
<text text-anchor="middle" x="286" y="-99.8" font-family="Times,serif" font-size="14.00" fill="#000000">SpectralSetupModule</text>
</g>
<!-- SpectralSetupModule&#45;&gt;ScienceGoalModule -->
<g id="edge8" class="edge">
<title>SpectralSetupModule&#45;&gt;ScienceGoalModule</title>
<path fill="none" stroke="#000000" d="M286,-122.1289C286,-142.5724 286,-173 286,-173 286,-173 633.8333,-173 633.8333,-173"/>
<polygon fill="#000000" stroke="#000000" points="633.8333,-176.5001 643.8333,-173 633.8332,-169.5001 633.8333,-176.5001"/>
</g>
<!-- ScienceGoalRoutingModule -->
<g id="node10" class="node">
<title>ScienceGoalRoutingModule</title>
<polygon fill="#8dd3c7" stroke="#000000" points="199.9115,-122 196.9115,-126 175.9115,-126 172.9115,-122 24.0885,-122 24.0885,-86 199.9115,-86 199.9115,-122"/>
<text text-anchor="middle" x="112" y="-99.8" font-family="Times,serif" font-size="14.00" fill="#000000">ScienceGoalRoutingModule</text>
</g>
<!-- ScienceGoalRoutingModule&#45;&gt;ScienceGoalModule -->
<g id="edge9" class="edge">
<title>ScienceGoalRoutingModule&#45;&gt;ScienceGoalModule</title>
<path fill="none" stroke="#000000" d="M112,-122.0109C112,-144.4852 112,-180 112,-180 112,-180 633.6887,-180 633.6887,-180"/>
<polygon fill="#000000" stroke="#000000" points="633.6887,-183.5001 643.6887,-180 633.6887,-176.5001 633.6887,-183.5001"/>
</g>
</g>
</svg>
