<?xml version="1.0" encoding="UTF-8" standalone="no"?>
<!DOCTYPE svg PUBLIC "-//W3C//DTD SVG 1.1//EN"
 "http://www.w3.org/Graphics/SVG/1.1/DTD/svg11.dtd">
<!-- Generated by graphviz version 2.40.1 (20161225.0304)
 -->
<!-- Title: dependencies Pages: 1 -->
<svg width="1423pt" height="284pt"
 viewBox="0.00 0.00 1423.00 284.00" xmlns="http://www.w3.org/2000/svg" xmlns:xlink="http://www.w3.org/1999/xlink">
<g id="graph0" class="graph" transform="scale(1 1) rotate(0) translate(4 280)">
<title>dependencies</title>
<polygon fill="#ffffff" stroke="transparent" points="-4,4 -4,-280 1419,-280 1419,4 -4,4"/>
<text text-anchor="start" x="686.5091" y="-42.4" font-family="sans-serif" font-weight="bold" font-size="14.00" fill="#000000">Legend</text>
<polygon fill="#ffffb3" stroke="transparent" points="473.5,-10 473.5,-30 493.5,-30 493.5,-10 473.5,-10"/>
<text text-anchor="start" x="497.129" y="-15.4" font-family="sans-serif" font-size="14.00" fill="#000000"> &#160;Declarations</text>
<polygon fill="#8dd3c7" stroke="transparent" points="586.5,-10 586.5,-30 606.5,-30 606.5,-10 586.5,-10"/>
<text text-anchor="start" x="610.2251" y="-15.4" font-family="sans-serif" font-size="14.00" fill="#000000"> &#160;Module</text>
<polygon fill="#80b1d3" stroke="transparent" points="672.5,-10 672.5,-30 692.5,-30 692.5,-10 672.5,-10"/>
<text text-anchor="start" x="696.2812" y="-15.4" font-family="sans-serif" font-size="14.00" fill="#000000"> &#160;Bootstrap</text>
<polygon fill="#fdb462" stroke="transparent" points="769.5,-10 769.5,-30 789.5,-30 789.5,-10 769.5,-10"/>
<text text-anchor="start" x="793.1732" y="-15.4" font-family="sans-serif" font-size="14.00" fill="#000000"> &#160;Providers</text>
<polygon fill="#fb8072" stroke="transparent" points="865.5,-10 865.5,-30 885.5,-30 885.5,-10 865.5,-10"/>
<text text-anchor="start" x="889.2258" y="-15.4" font-family="sans-serif" font-size="14.00" fill="#000000"> &#160;Exports</text>
<g id="clust1" class="cluster">
<title>cluster_ScienceGoalModule</title>
<polygon fill="none" stroke="#000000" stroke-dasharray="1,5" points="8,-70 8,-268 1407,-268 1407,-70 8,-70"/>
</g>
<g id="clust2" class="cluster">
<title>cluster_ScienceGoalModule_declarations</title>
<polygon fill="none" stroke="#000000" points="456,-78 456,-130 1399,-130 1399,-78 456,-78"/>
</g>
<g id="clust8" class="cluster">
<title>cluster_ScienceGoalModule_imports</title>
<polygon fill="none" stroke="#000000" points="256,-78 256,-130 448,-130 448,-78 256,-78"/>
</g>
<g id="clust9" class="cluster">
<title>cluster_ScienceGoalModule_exports</title>
<polygon fill="none" stroke="#000000" points="651,-208 651,-260 823,-260 823,-208 651,-208"/>
</g>
<g id="clust11" class="cluster">
<title>cluster_ScienceGoalModule_providers</title>
<polygon fill="none" stroke="#000000" points="16,-78 16,-130 248,-130 248,-78 16,-78"/>
</g>
<!-- CalibrationSetupComponent -->
<g id="node1" class="node">
<title>CalibrationSetupComponent</title>
<polygon fill="#ffffb3" stroke="#000000" points="1391.2091,-122 1214.7909,-122 1214.7909,-86 1391.2091,-86 1391.2091,-122"/>
<text text-anchor="middle" x="1303" y="-99.8" font-family="Times,serif" font-size="14.00" fill="#000000">CalibrationSetupComponent</text>
</g>
<!-- ScienceGoalModule -->
<g id="node6" class="node">
<title>ScienceGoalModule</title>
<polygon fill="#8dd3c7" stroke="#000000" points="802.2935,-187 799.2935,-191 778.2935,-191 775.2935,-187 671.7065,-187 671.7065,-151 802.2935,-151 802.2935,-187"/>
<text text-anchor="middle" x="737" y="-164.8" font-family="Times,serif" font-size="14.00" fill="#000000">ScienceGoalModule</text>
</g>
<!-- CalibrationSetupComponent&#45;&gt;ScienceGoalModule -->
<g id="edge1" class="edge">
<title>CalibrationSetupComponent&#45;&gt;ScienceGoalModule</title>
<path fill="none" stroke="#000000" d="M1303,-122.2921C1303,-144.2057 1303,-178 1303,-178 1303,-178 812.2036,-178 812.2036,-178"/>
<polygon fill="#000000" stroke="#000000" points="812.2037,-174.5001 802.2036,-178 812.2036,-181.5001 812.2037,-174.5001"/>
</g>
<!-- ControlPerformanceComponent -->
<g id="node2" class="node">
<title>ControlPerformanceComponent</title>
<polygon fill="#ffffb3" stroke="#000000" points="1196.6246,-122 1001.3754,-122 1001.3754,-86 1196.6246,-86 1196.6246,-122"/>
<text text-anchor="middle" x="1099" y="-99.8" font-family="Times,serif" font-size="14.00" fill="#000000">ControlPerformanceComponent</text>
</g>
<!-- ControlPerformanceComponent&#45;&gt;ScienceGoalModule -->
<g id="edge2" class="edge">
<title>ControlPerformanceComponent&#45;&gt;ScienceGoalModule</title>
<path fill="none" stroke="#000000" d="M1099,-122.1061C1099,-141.3391 1099,-169 1099,-169 1099,-169 812.5555,-169 812.5555,-169"/>
<polygon fill="#000000" stroke="#000000" points="812.5555,-165.5001 802.5555,-169 812.5554,-172.5001 812.5555,-165.5001"/>
</g>
<!-- GeneralComponent -->
<g id="node3" class="node">
<title>GeneralComponent</title>
<polygon fill="#ffffb3" stroke="#000000" points="982.6345,-122 857.3655,-122 857.3655,-86 982.6345,-86 982.6345,-122"/>
<text text-anchor="middle" x="920" y="-99.8" font-family="Times,serif" font-size="14.00" fill="#000000">GeneralComponent</text>
</g>
<!-- GeneralComponent&#45;&gt;ScienceGoalModule -->
<g id="edge3" class="edge">
<title>GeneralComponent&#45;&gt;ScienceGoalModule</title>
<path fill="none" stroke="#000000" d="M920,-122.027C920,-138.3976 920,-160 920,-160 920,-160 812.2922,-160 812.2922,-160"/>
<polygon fill="#000000" stroke="#000000" points="812.2922,-156.5001 802.2922,-160 812.2921,-163.5001 812.2922,-156.5001"/>
</g>
<!-- TechnicalJustificationComponent -->
<g id="node4" class="node">
<title>TechnicalJustificationComponent</title>
<polygon fill="#ffffb3" stroke="#000000" points="839.4566,-122 634.5434,-122 634.5434,-86 839.4566,-86 839.4566,-122"/>
<text text-anchor="middle" x="737" y="-99.8" font-family="Times,serif" font-size="14.00" fill="#000000">TechnicalJustificationComponent</text>
</g>
<!-- TechnicalJustificationComponent&#45;&gt;ScienceGoalModule -->
<g id="edge4" class="edge">
<title>TechnicalJustificationComponent&#45;&gt;ScienceGoalModule</title>
<path fill="none" stroke="#000000" d="M737,-122.1061C737,-122.1061 737,-140.991 737,-140.991"/>
<polygon fill="#000000" stroke="#000000" points="733.5001,-140.9909 737,-150.991 740.5001,-140.991 733.5001,-140.9909"/>
</g>
<!-- ScienceGoalComponent -->
<g id="node5" class="node">
<title>ScienceGoalComponent</title>
<polygon fill="#ffffb3" stroke="#000000" points="616.0758,-122 463.9242,-122 463.9242,-86 616.0758,-86 616.0758,-122"/>
<text text-anchor="middle" x="540" y="-99.8" font-family="Times,serif" font-size="14.00" fill="#000000">ScienceGoalComponent</text>
</g>
<!-- ScienceGoalComponent&#45;&gt;ScienceGoalModule -->
<g id="edge5" class="edge">
<title>ScienceGoalComponent&#45;&gt;ScienceGoalModule</title>
<path fill="none" stroke="#000000" d="M540,-122.027C540,-138.3976 540,-160 540,-160 540,-160 661.6755,-160 661.6755,-160"/>
<polygon fill="#000000" stroke="#000000" points="661.6755,-163.5001 671.6755,-160 661.6755,-156.5001 661.6755,-163.5001"/>
</g>
<!-- ScienceGoalComponent  -->
<g id="node8" class="node">
<title>ScienceGoalComponent </title>
<polygon fill="#fb8072" stroke="#000000" points="814.5764,-252 659.4236,-252 659.4236,-216 814.5764,-216 814.5764,-252"/>
<text text-anchor="middle" x="737" y="-229.8" font-family="Times,serif" font-size="14.00" fill="#000000">ScienceGoalComponent </text>
</g>
<!-- ScienceGoalModule&#45;&gt;ScienceGoalComponent  -->
<g id="edge7" class="edge">
<title>ScienceGoalModule&#45;&gt;ScienceGoalComponent </title>
<path fill="none" stroke="#000000" stroke-dasharray="5,2" d="M737,-187.1061C737,-187.1061 737,-205.991 737,-205.991"/>
<polygon fill="#000000" stroke="#000000" points="733.5001,-205.9909 737,-215.991 740.5001,-205.991 733.5001,-205.9909"/>
</g>
<!-- ScienceGoalRoutingModule -->
<g id="node7" class="node">
<title>ScienceGoalRoutingModule</title>
<polygon fill="#8dd3c7" stroke="#000000" points="439.9115,-122 436.9115,-126 415.9115,-126 412.9115,-122 264.0885,-122 264.0885,-86 439.9115,-86 439.9115,-122"/>
<text text-anchor="middle" x="352" y="-99.8" font-family="Times,serif" font-size="14.00" fill="#000000">ScienceGoalRoutingModule</text>
</g>
<!-- ScienceGoalRoutingModule&#45;&gt;ScienceGoalModule -->
<g id="edge6" class="edge">
<title>ScienceGoalRoutingModule&#45;&gt;ScienceGoalModule</title>
<path fill="none" stroke="#000000" d="M352,-122.1061C352,-141.3391 352,-169 352,-169 352,-169 661.69,-169 661.69,-169"/>
<polygon fill="#000000" stroke="#000000" points="661.69,-172.5001 671.69,-169 661.69,-165.5001 661.69,-172.5001"/>
</g>
<!-- ScienceGoalPageService -->
<g id="node9" class="node">
<title>ScienceGoalPageService</title>
<ellipse fill="#fdb462" stroke="#000000" cx="132" cy="-104" rx="107.6192" ry="18"/>
<text text-anchor="middle" x="132" y="-99.8" font-family="Times,serif" font-size="14.00" fill="#000000">ScienceGoalPageService</text>
</g>
<!-- ScienceGoalPageService&#45;&gt;ScienceGoalModule -->
<g id="edge8" class="edge">
<title>ScienceGoalPageService&#45;&gt;ScienceGoalModule</title>
<path fill="none" stroke="#000000" d="M132,-122.2921C132,-144.2057 132,-178 132,-178 132,-178 661.6796,-178 661.6796,-178"/>
<polygon fill="#000000" stroke="#000000" points="661.6796,-181.5001 671.6796,-178 661.6795,-174.5001 661.6796,-181.5001"/>
</g>
</g>
</svg>
