<?xml version="1.0" encoding="UTF-8" standalone="no"?>
<!DOCTYPE svg PUBLIC "-//W3C//DTD SVG 1.1//EN"
 "http://www.w3.org/Graphics/SVG/1.1/DTD/svg11.dtd">
<!-- Generated by graphviz version 2.40.1 (20161225.0304)
 -->
<!-- Title: dependencies Pages: 1 -->
<svg width="3305pt" height="349pt"
 viewBox="0.00 0.00 3305.00 349.00" xmlns="http://www.w3.org/2000/svg" xmlns:xlink="http://www.w3.org/1999/xlink">
<g id="graph0" class="graph" transform="scale(1 1) rotate(0) translate(4 345)">
<title>dependencies</title>
<polygon fill="#ffffff" stroke="transparent" points="-4,4 -4,-345 3301,-345 3301,4 -4,4"/>
<text text-anchor="start" x="1627.5091" y="-42.4" font-family="sans-serif" font-weight="bold" font-size="14.00" fill="#000000">Legend</text>
<polygon fill="#ffffb3" stroke="transparent" points="1414.5,-10 1414.5,-30 1434.5,-30 1434.5,-10 1414.5,-10"/>
<text text-anchor="start" x="1438.129" y="-15.4" font-family="sans-serif" font-size="14.00" fill="#000000"> &#160;Declarations</text>
<polygon fill="#8dd3c7" stroke="transparent" points="1527.5,-10 1527.5,-30 1547.5,-30 1547.5,-10 1527.5,-10"/>
<text text-anchor="start" x="1551.2251" y="-15.4" font-family="sans-serif" font-size="14.00" fill="#000000"> &#160;Module</text>
<polygon fill="#80b1d3" stroke="transparent" points="1613.5,-10 1613.5,-30 1633.5,-30 1633.5,-10 1613.5,-10"/>
<text text-anchor="start" x="1637.2812" y="-15.4" font-family="sans-serif" font-size="14.00" fill="#000000"> &#160;Bootstrap</text>
<polygon fill="#fdb462" stroke="transparent" points="1710.5,-10 1710.5,-30 1730.5,-30 1730.5,-10 1710.5,-10"/>
<text text-anchor="start" x="1734.1732" y="-15.4" font-family="sans-serif" font-size="14.00" fill="#000000"> &#160;Providers</text>
<polygon fill="#fb8072" stroke="transparent" points="1806.5,-10 1806.5,-30 1826.5,-30 1826.5,-10 1806.5,-10"/>
<text text-anchor="start" x="1830.2258" y="-15.4" font-family="sans-serif" font-size="14.00" fill="#000000"> &#160;Exports</text>
<g id="clust1" class="cluster">
<title>cluster_AppModule</title>
<polygon fill="none" stroke="#000000" stroke-dasharray="1,5" points="8,-70 8,-333 3289,-333 3289,-70 8,-70"/>
</g>
<g id="clust2" class="cluster">
<title>cluster_AppModule_declarations</title>
<polygon fill="none" stroke="#000000" points="426,-143 426,-195 3281,-195 3281,-143 426,-143"/>
</g>
<g id="clust3" class="cluster">
<title>cluster_AppModule_AppComponent_providers</title>
<polygon fill="none" stroke="#000000" points="3099,-78 3099,-130 3281,-130 3281,-78 3099,-78"/>
</g>
<g id="clust19" class="cluster">
<title>cluster_AppModule_imports</title>
<polygon fill="none" stroke="#000000" points="16,-143 16,-195 418,-195 418,-143 16,-143"/>
</g>
<g id="clust21" class="cluster">
<title>cluster_AppModule_bootstrap</title>
<polygon fill="none" stroke="#000000" points="1561,-273 1561,-325 1685,-325 1685,-273 1561,-273"/>
</g>
<!-- AppComponent -->
<g id="node1" class="node">
<title>AppComponent</title>
<polygon fill="#ffffb3" stroke="#000000" points="3272.9399,-187 3167.0601,-187 3167.0601,-151 3272.9399,-151 3272.9399,-187"/>
<text text-anchor="middle" x="3220" y="-164.8" font-family="Times,serif" font-size="14.00" fill="#000000">AppComponent</text>
</g>
<!-- AppModule -->
<g id="node17" class="node">
<title>AppModule</title>
<polygon fill="#8dd3c7" stroke="#000000" points="1664.6571,-252 1661.6571,-256 1640.6571,-256 1637.6571,-252 1581.3429,-252 1581.3429,-216 1664.6571,-216 1664.6571,-252"/>
<text text-anchor="middle" x="1623" y="-229.8" font-family="Times,serif" font-size="14.00" fill="#000000">AppModule</text>
</g>
<!-- AppComponent&#45;&gt;AppModule -->
<g id="edge1" class="edge">
<title>AppComponent&#45;&gt;AppModule</title>
<path fill="none" stroke="#000000" d="M3220,-187.1532C3220,-210.7566 3220,-249 3220,-249 3220,-249 1674.895,-249 1674.895,-249"/>
<polygon fill="#000000" stroke="#000000" points="1674.895,-245.5001 1664.895,-249 1674.895,-252.5001 1674.895,-245.5001"/>
</g>
<!-- FieldCenterCoordinatesComponent -->
<g id="node2" class="node">
<title>FieldCenterCoordinatesComponent</title>
<polygon fill="#ffffb3" stroke="#000000" points="3149.58,-187 2934.42,-187 2934.42,-151 3149.58,-151 3149.58,-187"/>
<text text-anchor="middle" x="3042" y="-164.8" font-family="Times,serif" font-size="14.00" fill="#000000">FieldCenterCoordinatesComponent</text>
</g>
<!-- FieldCenterCoordinatesComponent&#45;&gt;AppModule -->
<g id="edge3" class="edge">
<title>FieldCenterCoordinatesComponent&#45;&gt;AppModule</title>
<path fill="none" stroke="#000000" d="M3042,-187.0109C3042,-209.4852 3042,-245 3042,-245 3042,-245 1674.6995,-245 1674.6995,-245"/>
<polygon fill="#000000" stroke="#000000" points="1674.6995,-241.5001 1664.6995,-245 1674.6995,-248.5001 1674.6995,-241.5001"/>
</g>
<!-- FieldSetupComponent -->
<g id="node3" class="node">
<title>FieldSetupComponent</title>
<polygon fill="#ffffb3" stroke="#000000" points="2915.9986,-187 2774.0014,-187 2774.0014,-151 2915.9986,-151 2915.9986,-187"/>
<text text-anchor="middle" x="2845" y="-164.8" font-family="Times,serif" font-size="14.00" fill="#000000">FieldSetupComponent</text>
</g>
<!-- FieldSetupComponent&#45;&gt;AppModule -->
<g id="edge4" class="edge">
<title>FieldSetupComponent&#45;&gt;AppModule</title>
<path fill="none" stroke="#000000" d="M2845,-187.0449C2845,-208.6623 2845,-242 2845,-242 2845,-242 1674.7105,-242 1674.7105,-242"/>
<polygon fill="#000000" stroke="#000000" points="1674.7105,-238.5001 1664.7105,-242 1674.7105,-245.5001 1674.7105,-238.5001"/>
</g>
<!-- FovParametersComponent -->
<g id="node4" class="node">
<title>FovParametersComponent</title>
<polygon fill="#ffffb3" stroke="#000000" points="2755.8033,-187 2590.1967,-187 2590.1967,-151 2755.8033,-151 2755.8033,-187"/>
<text text-anchor="middle" x="2673" y="-164.8" font-family="Times,serif" font-size="14.00" fill="#000000">FovParametersComponent</text>
</g>
<!-- FovParametersComponent&#45;&gt;AppModule -->
<g id="edge5" class="edge">
<title>FovParametersComponent&#45;&gt;AppModule</title>
<path fill="none" stroke="#000000" d="M2673,-187.1289C2673,-207.5724 2673,-238 2673,-238 2673,-238 1674.8092,-238 1674.8092,-238"/>
<polygon fill="#000000" stroke="#000000" points="1674.8092,-234.5001 1664.8092,-238 1674.8092,-241.5001 1674.8092,-234.5001"/>
</g>
<!-- ImageQueryComponent -->
<g id="node5" class="node">
<title>ImageQueryComponent</title>
<polygon fill="#ffffb3" stroke="#000000" points="2572.7949,-187 2421.2051,-187 2421.2051,-151 2572.7949,-151 2572.7949,-187"/>
<text text-anchor="middle" x="2497" y="-164.8" font-family="Times,serif" font-size="14.00" fill="#000000">ImageQueryComponent</text>
</g>
<!-- ImageQueryComponent&#45;&gt;AppModule -->
<g id="edge6" class="edge">
<title>ImageQueryComponent&#45;&gt;AppModule</title>
<path fill="none" stroke="#000000" d="M2497,-187.1061C2497,-206.3391 2497,-234 2497,-234 2497,-234 1674.8604,-234 1674.8604,-234"/>
<polygon fill="#000000" stroke="#000000" points="1674.8604,-230.5001 1664.8604,-234 1674.8604,-237.5001 1674.8604,-230.5001"/>
</g>
<!-- NavbarComponent -->
<g id="node6" class="node">
<title>NavbarComponent</title>
<polygon fill="#ffffb3" stroke="#000000" points="2403.0297,-187 2280.9703,-187 2280.9703,-151 2403.0297,-151 2403.0297,-187"/>
<text text-anchor="middle" x="2342" y="-164.8" font-family="Times,serif" font-size="14.00" fill="#000000">NavbarComponent</text>
</g>
<!-- NavbarComponent&#45;&gt;AppModule -->
<g id="edge7" class="edge">
<title>NavbarComponent&#45;&gt;AppModule</title>
<path fill="none" stroke="#000000" d="M2342,-187.2667C2342,-205.5552 2342,-231 2342,-231 2342,-231 1674.7643,-231 1674.7643,-231"/>
<polygon fill="#000000" stroke="#000000" points="1674.7643,-227.5001 1664.7643,-231 1674.7642,-234.5001 1674.7643,-227.5001"/>
</g>
<!-- SourceComponent -->
<g id="node7" class="node">
<title>SourceComponent</title>
<polygon fill="#ffffb3" stroke="#000000" points="2263.205,-187 2142.795,-187 2142.795,-151 2263.205,-151 2263.205,-187"/>
<text text-anchor="middle" x="2203" y="-164.8" font-family="Times,serif" font-size="14.00" fill="#000000">SourceComponent</text>
</g>
<!-- SourceComponent&#45;&gt;AppModule -->
<g id="edge8" class="edge">
<title>SourceComponent&#45;&gt;AppModule</title>
<path fill="none" stroke="#000000" d="M2203,-187.0336C2203,-204.0597 2203,-227 2203,-227 2203,-227 1674.7122,-227 1674.7122,-227"/>
<polygon fill="#000000" stroke="#000000" points="1674.7122,-223.5001 1664.7122,-227 1674.7121,-230.5001 1674.7122,-223.5001"/>
</g>
<!-- SourceExpectedPropertiesComponent -->
<g id="node8" class="node">
<title>SourceExpectedPropertiesComponent</title>
<polygon fill="#ffffb3" stroke="#000000" points="2124.5506,-187 1895.4494,-187 1895.4494,-151 2124.5506,-151 2124.5506,-187"/>
<text text-anchor="middle" x="2010" y="-164.8" font-family="Times,serif" font-size="14.00" fill="#000000">SourceExpectedPropertiesComponent</text>
</g>
<!-- SourceExpectedPropertiesComponent&#45;&gt;AppModule -->
<g id="edge9" class="edge">
<title>SourceExpectedPropertiesComponent&#45;&gt;AppModule</title>
<path fill="none" stroke="#000000" d="M2010,-187.0091C2010,-203.0494 2010,-224 2010,-224 2010,-224 1674.7835,-224 1674.7835,-224"/>
<polygon fill="#000000" stroke="#000000" points="1674.7835,-220.5001 1664.7835,-224 1674.7834,-227.5001 1674.7835,-220.5001"/>
</g>
<!-- SpacialImageComponent -->
<g id="node9" class="node">
<title>SpacialImageComponent</title>
<polygon fill="#ffffb3" stroke="#000000" points="1877.5211,-187 1720.4789,-187 1720.4789,-151 1877.5211,-151 1877.5211,-187"/>
<text text-anchor="middle" x="1799" y="-164.8" font-family="Times,serif" font-size="14.00" fill="#000000">SpacialImageComponent</text>
</g>
<!-- SpacialImageComponent&#45;&gt;AppModule -->
<g id="edge10" class="edge">
<title>SpacialImageComponent&#45;&gt;AppModule</title>
<path fill="none" stroke="#000000" d="M1799,-187.1243C1799,-201.7832 1799,-220 1799,-220 1799,-220 1674.7095,-220 1674.7095,-220"/>
<polygon fill="#000000" stroke="#000000" points="1674.7096,-216.5001 1664.7095,-220 1674.7095,-223.5001 1674.7096,-216.5001"/>
</g>
<!-- SpectralSetupComponent -->
<g id="node10" class="node">
<title>SpectralSetupComponent</title>
<polygon fill="#ffffb3" stroke="#000000" points="1702.5884,-187 1543.4116,-187 1543.4116,-151 1702.5884,-151 1702.5884,-187"/>
<text text-anchor="middle" x="1623" y="-164.8" font-family="Times,serif" font-size="14.00" fill="#000000">SpectralSetupComponent</text>
</g>
<!-- SpectralSetupComponent&#45;&gt;AppModule -->
<g id="edge11" class="edge">
<title>SpectralSetupComponent&#45;&gt;AppModule</title>
<path fill="none" stroke="#000000" d="M1623,-187.1061C1623,-187.1061 1623,-205.991 1623,-205.991"/>
<polygon fill="#000000" stroke="#000000" points="1619.5001,-205.9909 1623,-215.991 1626.5001,-205.991 1619.5001,-205.9909"/>
</g>
<!-- VisualisationControlComponent -->
<g id="node11" class="node">
<title>VisualisationControlComponent</title>
<polygon fill="#ffffb3" stroke="#000000" points="1524.9888,-187 1327.0112,-187 1327.0112,-151 1524.9888,-151 1524.9888,-187"/>
<text text-anchor="middle" x="1426" y="-164.8" font-family="Times,serif" font-size="14.00" fill="#000000">VisualisationControlComponent</text>
</g>
<!-- VisualisationControlComponent&#45;&gt;AppModule -->
<g id="edge12" class="edge">
<title>VisualisationControlComponent&#45;&gt;AppModule</title>
<path fill="none" stroke="#000000" d="M1426,-187.1243C1426,-201.7832 1426,-220 1426,-220 1426,-220 1571.2214,-220 1571.2214,-220"/>
<polygon fill="#000000" stroke="#000000" points="1571.2214,-223.5001 1581.2214,-220 1571.2213,-216.5001 1571.2214,-223.5001"/>
</g>
<!-- TypeComponent -->
<g id="node12" class="node">
<title>TypeComponent</title>
<polygon fill="#ffffb3" stroke="#000000" points="1309.0996,-187 1198.9004,-187 1198.9004,-151 1309.0996,-151 1309.0996,-187"/>
<text text-anchor="middle" x="1254" y="-164.8" font-family="Times,serif" font-size="14.00" fill="#000000">TypeComponent</text>
</g>
<!-- TypeComponent&#45;&gt;AppModule -->
<g id="edge13" class="edge">
<title>TypeComponent&#45;&gt;AppModule</title>
<path fill="none" stroke="#000000" d="M1254,-187.0091C1254,-203.0494 1254,-224 1254,-224 1254,-224 1571.0303,-224 1571.0303,-224"/>
<polygon fill="#000000" stroke="#000000" points="1571.0303,-227.5001 1581.0303,-224 1571.0302,-220.5001 1571.0303,-227.5001"/>
</g>
<!-- FccIndividualComponent -->
<g id="node13" class="node">
<title>FccIndividualComponent</title>
<polygon fill="#ffffb3" stroke="#000000" points="1180.5912,-187 1021.4088,-187 1021.4088,-151 1180.5912,-151 1180.5912,-187"/>
<text text-anchor="middle" x="1101" y="-164.8" font-family="Times,serif" font-size="14.00" fill="#000000">FccIndividualComponent</text>
</g>
<!-- FccIndividualComponent&#45;&gt;AppModule -->
<g id="edge14" class="edge">
<title>FccIndividualComponent&#45;&gt;AppModule</title>
<path fill="none" stroke="#000000" d="M1101,-187.0336C1101,-204.0597 1101,-227 1101,-227 1101,-227 1571.1649,-227 1571.1649,-227"/>
<polygon fill="#000000" stroke="#000000" points="1571.165,-230.5001 1581.1649,-227 1571.1649,-223.5001 1571.165,-230.5001"/>
</g>
<!-- FccRectangularComponent -->
<g id="node14" class="node">
<title>FccRectangularComponent</title>
<polygon fill="#ffffb3" stroke="#000000" points="1003.6811,-187 834.3189,-187 834.3189,-151 1003.6811,-151 1003.6811,-187"/>
<text text-anchor="middle" x="919" y="-164.8" font-family="Times,serif" font-size="14.00" fill="#000000">FccRectangularComponent</text>
</g>
<!-- FccRectangularComponent&#45;&gt;AppModule -->
<g id="edge15" class="edge">
<title>FccRectangularComponent&#45;&gt;AppModule</title>
<path fill="none" stroke="#000000" d="M919,-187.2667C919,-205.5552 919,-231 919,-231 919,-231 1571.3302,-231 1571.3302,-231"/>
<polygon fill="#000000" stroke="#000000" points="1571.3303,-234.5001 1581.3302,-231 1571.3302,-227.5001 1571.3303,-234.5001"/>
</g>
<!-- SystemSelectorComponent -->
<g id="node15" class="node">
<title>SystemSelectorComponent</title>
<polygon fill="#ffffb3" stroke="#000000" points="816.4241,-187 647.5759,-187 647.5759,-151 816.4241,-151 816.4241,-187"/>
<text text-anchor="middle" x="732" y="-164.8" font-family="Times,serif" font-size="14.00" fill="#000000">SystemSelectorComponent</text>
</g>
<!-- SystemSelectorComponent&#45;&gt;AppModule -->
<g id="edge16" class="edge">
<title>SystemSelectorComponent&#45;&gt;AppModule</title>
<path fill="none" stroke="#000000" d="M732,-187.1061C732,-206.3391 732,-234 732,-234 732,-234 1571.2203,-234 1571.2203,-234"/>
<polygon fill="#000000" stroke="#000000" points="1571.2203,-237.5001 1581.2203,-234 1571.2203,-230.5001 1571.2203,-237.5001"/>
</g>
<!-- VisualisationViewerComponent -->
<g id="node16" class="node">
<title>VisualisationViewerComponent</title>
<polygon fill="#ffffb3" stroke="#000000" points="630.4044,-187 433.5956,-187 433.5956,-151 630.4044,-151 630.4044,-187"/>
<text text-anchor="middle" x="532" y="-164.8" font-family="Times,serif" font-size="14.00" fill="#000000">VisualisationViewerComponent</text>
</g>
<!-- VisualisationViewerComponent&#45;&gt;AppModule -->
<g id="edge17" class="edge">
<title>VisualisationViewerComponent&#45;&gt;AppModule</title>
<path fill="none" stroke="#000000" d="M532,-187.1289C532,-207.5724 532,-238 532,-238 532,-238 1571.2325,-238 1571.2325,-238"/>
<polygon fill="#000000" stroke="#000000" points="1571.2325,-241.5001 1581.2325,-238 1571.2324,-234.5001 1571.2325,-241.5001"/>
</g>
<!-- AppComponent  -->
<g id="node22" class="node">
<title>AppComponent </title>
<polygon fill="#80b1d3" stroke="#000000" points="1677.439,-317 1568.561,-317 1568.561,-281 1677.439,-281 1677.439,-317"/>
<text text-anchor="middle" x="1623" y="-294.8" font-family="Times,serif" font-size="14.00" fill="#000000">AppComponent </text>
</g>
<!-- AppModule&#45;&gt;AppComponent  -->
<g id="edge21" class="edge">
<title>AppModule&#45;&gt;AppComponent </title>
<path fill="none" stroke="#000000" stroke-dasharray="1,5" d="M1623,-252.1061C1623,-252.1061 1623,-270.991 1623,-270.991"/>
<polygon fill="#000000" stroke="#000000" points="1619.5001,-270.9909 1623,-280.991 1626.5001,-270.991 1619.5001,-270.9909"/>
</g>
<!-- NgbTooltipConfig -->
<g id="node18" class="node">
<title>NgbTooltipConfig</title>
<ellipse fill="#fdb462" stroke="#000000" cx="3190" cy="-104" rx="82.8495" ry="18"/>
<text text-anchor="middle" x="3190" y="-99.8" font-family="Times,serif" font-size="14.00" fill="#000000">NgbTooltipConfig</text>
</g>
<!-- NgbTooltipConfig&#45;&gt;AppComponent -->
<g id="edge2" class="edge">
<title>NgbTooltipConfig&#45;&gt;AppComponent</title>
<path fill="none" stroke="#000000" d="M3220,-121.078C3220,-121.078 3220,-140.8993 3220,-140.8993"/>
<polygon fill="#000000" stroke="#000000" points="3216.5001,-140.8992 3220,-150.8993 3223.5001,-140.8993 3216.5001,-140.8992"/>
</g>
<!-- SharedModule -->
<g id="node19" class="node">
<title>SharedModule</title>
<polygon fill="#8dd3c7" stroke="#000000" points="410.4231,-187 407.4231,-191 386.4231,-191 383.4231,-187 311.5769,-187 311.5769,-151 410.4231,-151 410.4231,-187"/>
<text text-anchor="middle" x="361" y="-164.8" font-family="Times,serif" font-size="14.00" fill="#000000">SharedModule</text>
</g>
<!-- SharedModule&#45;&gt;AppModule -->
<g id="edge18" class="edge">
<title>SharedModule&#45;&gt;AppModule</title>
<path fill="none" stroke="#000000" d="M361,-187.0449C361,-208.6623 361,-242 361,-242 361,-242 1571.011,-242 1571.011,-242"/>
<polygon fill="#000000" stroke="#000000" points="1571.011,-245.5001 1581.011,-242 1571.011,-238.5001 1571.011,-245.5001"/>
</g>
<!-- PiSelectionModule -->
<g id="node20" class="node">
<title>PiSelectionModule</title>
<polygon fill="#8dd3c7" stroke="#000000" points="293.8216,-187 290.8216,-191 269.8216,-191 266.8216,-187 170.1784,-187 170.1784,-151 293.8216,-151 293.8216,-187"/>
<text text-anchor="middle" x="232" y="-164.8" font-family="Times,serif" font-size="14.00" fill="#000000">PiSelectionModule</text>
</g>
<!-- PiSelectionModule&#45;&gt;AppModule -->
<g id="edge19" class="edge">
<title>PiSelectionModule&#45;&gt;AppModule</title>
<path fill="none" stroke="#000000" d="M232,-187.0109C232,-209.4852 232,-245 232,-245 232,-245 1570.9912,-245 1570.9912,-245"/>
<polygon fill="#000000" stroke="#000000" points="1570.9912,-248.5001 1580.9912,-245 1570.9911,-241.5001 1570.9912,-248.5001"/>
</g>
<!-- AppRoutingModule -->
<g id="node21" class="node">
<title>AppRoutingModule</title>
<polygon fill="#8dd3c7" stroke="#000000" points="152.2744,-187 149.2744,-191 128.2744,-191 125.2744,-187 23.7256,-187 23.7256,-151 152.2744,-151 152.2744,-187"/>
<text text-anchor="middle" x="88" y="-164.8" font-family="Times,serif" font-size="14.00" fill="#000000">AppRoutingModule</text>
</g>
<!-- AppRoutingModule&#45;&gt;AppModule -->
<g id="edge20" class="edge">
<title>AppRoutingModule&#45;&gt;AppModule</title>
<path fill="none" stroke="#000000" d="M88,-187.1532C88,-210.7566 88,-249 88,-249 88,-249 1571.1464,-249 1571.1464,-249"/>
<polygon fill="#000000" stroke="#000000" points="1571.1464,-252.5001 1581.1464,-249 1571.1463,-245.5001 1571.1464,-252.5001"/>
</g>
</g>
</svg>
