<?xml version="1.0" encoding="UTF-8" standalone="no"?>
<!DOCTYPE svg PUBLIC "-//W3C//DTD SVG 1.1//EN"
 "http://www.w3.org/Graphics/SVG/1.1/DTD/svg11.dtd">
<!-- Generated by graphviz version 2.40.1 (20161225.0304)
 -->
<!-- Title: dependencies Pages: 1 -->
<svg width="550pt" height="349pt"
 viewBox="0.00 0.00 550.00 349.00" xmlns="http://www.w3.org/2000/svg" xmlns:xlink="http://www.w3.org/1999/xlink">
<g id="graph0" class="graph" transform="scale(1 1) rotate(0) translate(4 345)">
<title>dependencies</title>
<polygon fill="#ffffff" stroke="transparent" points="-4,4 -4,-345 546,-345 546,4 -4,4"/>
<text text-anchor="start" x="250.0091" y="-42.4" font-family="sans-serif" font-weight="bold" font-size="14.00" fill="#000000">Legend</text>
<polygon fill="#ffffb3" stroke="transparent" points="37,-10 37,-30 57,-30 57,-10 37,-10"/>
<text text-anchor="start" x="60.629" y="-15.4" font-family="sans-serif" font-size="14.00" fill="#000000"> &#160;Declarations</text>
<polygon fill="#8dd3c7" stroke="transparent" points="150,-10 150,-30 170,-30 170,-10 150,-10"/>
<text text-anchor="start" x="173.7251" y="-15.4" font-family="sans-serif" font-size="14.00" fill="#000000"> &#160;Module</text>
<polygon fill="#80b1d3" stroke="transparent" points="236,-10 236,-30 256,-30 256,-10 236,-10"/>
<text text-anchor="start" x="259.7812" y="-15.4" font-family="sans-serif" font-size="14.00" fill="#000000"> &#160;Bootstrap</text>
<polygon fill="#fdb462" stroke="transparent" points="333,-10 333,-30 353,-30 353,-10 333,-10"/>
<text text-anchor="start" x="356.6732" y="-15.4" font-family="sans-serif" font-size="14.00" fill="#000000"> &#160;Providers</text>
<polygon fill="#fb8072" stroke="transparent" points="429,-10 429,-30 449,-30 449,-10 429,-10"/>
<text text-anchor="start" x="452.7258" y="-15.4" font-family="sans-serif" font-size="14.00" fill="#000000"> &#160;Exports</text>
<g id="clust1" class="cluster">
<title>cluster_AppModule</title>
<polygon fill="none" stroke="#000000" stroke-dasharray="1,5" points="8,-70 8,-333 534,-333 534,-70 8,-70"/>
</g>
<g id="clust2" class="cluster">
<title>cluster_AppModule_declarations</title>
<polygon fill="none" stroke="#000000" points="404,-143 404,-195 526,-195 526,-143 404,-143"/>
</g>
<g id="clust3" class="cluster">
<title>cluster_AppModule_AppComponent_providers</title>
<polygon fill="none" stroke="#000000" points="344,-78 344,-130 526,-130 526,-78 344,-78"/>
</g>
<g id="clust4" class="cluster">
<title>cluster_AppModule_imports</title>
<polygon fill="none" stroke="#000000" points="16,-143 16,-195 396,-195 396,-143 16,-143"/>
</g>
<g id="clust6" class="cluster">
<title>cluster_AppModule_bootstrap</title>
<polygon fill="none" stroke="#000000" points="217,-273 217,-325 341,-325 341,-273 217,-273"/>
</g>
<!-- AppComponent -->
<g id="node1" class="node">
<title>AppComponent</title>
<polygon fill="#ffffb3" stroke="#000000" points="517.9399,-187 412.0601,-187 412.0601,-151 517.9399,-151 517.9399,-187"/>
<text text-anchor="middle" x="465" y="-164.8" font-family="Times,serif" font-size="14.00" fill="#000000">AppComponent</text>
</g>
<!-- AppModule -->
<g id="node2" class="node">
<title>AppModule</title>
<polygon fill="#8dd3c7" stroke="#000000" points="320.6571,-252 317.6571,-256 296.6571,-256 293.6571,-252 237.3429,-252 237.3429,-216 320.6571,-216 320.6571,-252"/>
<text text-anchor="middle" x="279" y="-229.8" font-family="Times,serif" font-size="14.00" fill="#000000">AppModule</text>
</g>
<!-- AppComponent&#45;&gt;AppModule -->
<g id="edge1" class="edge">
<title>AppComponent&#45;&gt;AppModule</title>
<path fill="none" stroke="#000000" d="M465,-187.1061C465,-206.3391 465,-234 465,-234 465,-234 330.742,-234 330.742,-234"/>
<polygon fill="#000000" stroke="#000000" points="330.7421,-230.5001 320.742,-234 330.742,-237.5001 330.7421,-230.5001"/>
</g>
<!-- AppComponent  -->
<g id="node7" class="node">
<title>AppComponent </title>
<polygon fill="#80b1d3" stroke="#000000" points="333.439,-317 224.561,-317 224.561,-281 333.439,-281 333.439,-317"/>
<text text-anchor="middle" x="279" y="-294.8" font-family="Times,serif" font-size="14.00" fill="#000000">AppComponent </text>
</g>
<!-- AppModule&#45;&gt;AppComponent  -->
<g id="edge6" class="edge">
<title>AppModule&#45;&gt;AppComponent </title>
<path fill="none" stroke="#000000" stroke-dasharray="1,5" d="M279,-252.1061C279,-252.1061 279,-270.991 279,-270.991"/>
<polygon fill="#000000" stroke="#000000" points="275.5001,-270.9909 279,-280.991 282.5001,-270.991 275.5001,-270.9909"/>
</g>
<!-- NgbTooltipConfig -->
<g id="node3" class="node">
<title>NgbTooltipConfig</title>
<ellipse fill="#fdb462" stroke="#000000" cx="435" cy="-104" rx="82.8495" ry="18"/>
<text text-anchor="middle" x="435" y="-99.8" font-family="Times,serif" font-size="14.00" fill="#000000">NgbTooltipConfig</text>
</g>
<!-- NgbTooltipConfig&#45;&gt;AppComponent -->
<g id="edge2" class="edge">
<title>NgbTooltipConfig&#45;&gt;AppComponent</title>
<path fill="none" stroke="#000000" d="M465,-121.078C465,-121.078 465,-140.8993 465,-140.8993"/>
<polygon fill="#000000" stroke="#000000" points="461.5001,-140.8992 465,-150.8993 468.5001,-140.8993 461.5001,-140.8992"/>
</g>
<!-- NavbarModule -->
<g id="node4" class="node">
<title>NavbarModule</title>
<polygon fill="#8dd3c7" stroke="#000000" points="388.2465,-187 385.2465,-191 364.2465,-191 361.2465,-187 287.7535,-187 287.7535,-151 388.2465,-151 388.2465,-187"/>
<text text-anchor="middle" x="338" y="-164.8" font-family="Times,serif" font-size="14.00" fill="#000000">NavbarModule</text>
</g>
<!-- NavbarModule&#45;&gt;AppModule -->
<g id="edge3" class="edge">
<title>NavbarModule&#45;&gt;AppModule</title>
<path fill="none" stroke="#000000" d="M304.2275,-187.1061C304.2275,-187.1061 304.2275,-205.991 304.2275,-205.991"/>
<polygon fill="#000000" stroke="#000000" points="300.7276,-205.9909 304.2275,-215.991 307.7276,-205.991 300.7276,-205.9909"/>
</g>
<!-- ProjectModule -->
<g id="node5" class="node">
<title>ProjectModule</title>
<polygon fill="#8dd3c7" stroke="#000000" points="269.7036,-187 266.7036,-191 245.7036,-191 242.7036,-187 170.2964,-187 170.2964,-151 269.7036,-151 269.7036,-187"/>
<text text-anchor="middle" x="220" y="-164.8" font-family="Times,serif" font-size="14.00" fill="#000000">ProjectModule</text>
</g>
<!-- ProjectModule&#45;&gt;AppModule -->
<g id="edge4" class="edge">
<title>ProjectModule&#45;&gt;AppModule</title>
<path fill="none" stroke="#000000" d="M253.3868,-187.1061C253.3868,-187.1061 253.3868,-205.991 253.3868,-205.991"/>
<polygon fill="#000000" stroke="#000000" points="249.8868,-205.9909 253.3868,-215.991 256.8868,-205.991 249.8868,-205.9909"/>
</g>
<!-- AppRoutingModule -->
<g id="node6" class="node">
<title>AppRoutingModule</title>
<polygon fill="#8dd3c7" stroke="#000000" points="152.2744,-187 149.2744,-191 128.2744,-191 125.2744,-187 23.7256,-187 23.7256,-151 152.2744,-151 152.2744,-187"/>
<text text-anchor="middle" x="88" y="-164.8" font-family="Times,serif" font-size="14.00" fill="#000000">AppRoutingModule</text>
</g>
<!-- AppRoutingModule&#45;&gt;AppModule -->
<g id="edge5" class="edge">
<title>AppRoutingModule&#45;&gt;AppModule</title>
<path fill="none" stroke="#000000" d="M88,-187.1061C88,-206.3391 88,-234 88,-234 88,-234 227.0842,-234 227.0842,-234"/>
<polygon fill="#000000" stroke="#000000" points="227.0843,-237.5001 237.0842,-234 227.0842,-230.5001 227.0843,-237.5001"/>
</g>
</g>
</svg>
