<?xml version="1.0" encoding="UTF-8" standalone="no"?>
<!DOCTYPE svg PUBLIC "-//W3C//DTD SVG 1.1//EN"
 "http://www.w3.org/Graphics/SVG/1.1/DTD/svg11.dtd">
<!-- Generated by graphviz version 2.40.1 (20161225.0304)
 -->
<!-- Title: dependencies Pages: 1 -->
<svg width="4831pt" height="349pt"
 viewBox="0.00 0.00 4831.00 349.00" xmlns="http://www.w3.org/2000/svg" xmlns:xlink="http://www.w3.org/1999/xlink">
<g id="graph0" class="graph" transform="scale(1 1) rotate(0) translate(4 345)">
<title>dependencies</title>
<polygon fill="#ffffff" stroke="transparent" points="-4,4 -4,-345 4827,-345 4827,4 -4,4"/>
<text text-anchor="start" x="2390.5091" y="-42.4" font-family="sans-serif" font-weight="bold" font-size="14.00" fill="#000000">Legend</text>
<polygon fill="#ffffb3" stroke="transparent" points="2177.5,-10 2177.5,-30 2197.5,-30 2197.5,-10 2177.5,-10"/>
<text text-anchor="start" x="2201.129" y="-15.4" font-family="sans-serif" font-size="14.00" fill="#000000"> &#160;Declarations</text>
<polygon fill="#8dd3c7" stroke="transparent" points="2290.5,-10 2290.5,-30 2310.5,-30 2310.5,-10 2290.5,-10"/>
<text text-anchor="start" x="2314.2251" y="-15.4" font-family="sans-serif" font-size="14.00" fill="#000000"> &#160;Module</text>
<polygon fill="#80b1d3" stroke="transparent" points="2376.5,-10 2376.5,-30 2396.5,-30 2396.5,-10 2376.5,-10"/>
<text text-anchor="start" x="2400.2812" y="-15.4" font-family="sans-serif" font-size="14.00" fill="#000000"> &#160;Bootstrap</text>
<polygon fill="#fdb462" stroke="transparent" points="2473.5,-10 2473.5,-30 2493.5,-30 2493.5,-10 2473.5,-10"/>
<text text-anchor="start" x="2497.1732" y="-15.4" font-family="sans-serif" font-size="14.00" fill="#000000"> &#160;Providers</text>
<polygon fill="#fb8072" stroke="transparent" points="2569.5,-10 2569.5,-30 2589.5,-30 2589.5,-10 2569.5,-10"/>
<text text-anchor="start" x="2593.2258" y="-15.4" font-family="sans-serif" font-size="14.00" fill="#000000"> &#160;Exports</text>
<g id="clust1" class="cluster">
<title>cluster_AppModule</title>
<polygon fill="none" stroke="#000000" stroke-dasharray="1,5" points="8,-70 8,-333 4815,-333 4815,-70 8,-70"/>
</g>
<g id="clust2" class="cluster">
<title>cluster_AppModule_declarations</title>
<polygon fill="none" stroke="#000000" points="852,-143 852,-195 4807,-195 4807,-143 852,-143"/>
</g>
<g id="clust3" class="cluster">
<title>cluster_AppModule_AppComponent_providers</title>
<polygon fill="none" stroke="#000000" points="4625,-78 4625,-130 4807,-130 4807,-78 4625,-78"/>
</g>
<g id="clust25" class="cluster">
<title>cluster_AppModule_imports</title>
<polygon fill="none" stroke="#000000" points="442,-143 442,-195 844,-195 844,-143 442,-143"/>
</g>
<g id="clust27" class="cluster">
<title>cluster_AppModule_bootstrap</title>
<polygon fill="none" stroke="#000000" points="2383,-273 2383,-325 2507,-325 2507,-273 2383,-273"/>
</g>
<g id="clust28" class="cluster">
<title>cluster_AppModule_providers</title>
<polygon fill="none" stroke="#000000" points="16,-143 16,-195 434,-195 434,-143 16,-143"/>
</g>
<!-- AppComponent -->
<g id="node1" class="node">
<title>AppComponent</title>
<polygon fill="#ffffb3" stroke="#000000" points="4798.9399,-187 4693.0601,-187 4693.0601,-151 4798.9399,-151 4798.9399,-187"/>
<text text-anchor="middle" x="4746" y="-164.8" font-family="Times,serif" font-size="14.00" fill="#000000">AppComponent</text>
</g>
<!-- AppModule -->
<g id="node23" class="node">
<title>AppModule</title>
<polygon fill="#8dd3c7" stroke="#000000" points="2486.6571,-252 2483.6571,-256 2462.6571,-256 2459.6571,-252 2403.3429,-252 2403.3429,-216 2486.6571,-216 2486.6571,-252"/>
<text text-anchor="middle" x="2445" y="-229.8" font-family="Times,serif" font-size="14.00" fill="#000000">AppModule</text>
</g>
<!-- AppComponent&#45;&gt;AppModule -->
<g id="edge1" class="edge">
<title>AppComponent&#45;&gt;AppModule</title>
<path fill="none" stroke="#000000" d="M4746,-187.3802C4746,-211.2785 4746,-250 4746,-250 4746,-250 2496.9024,-250 2496.9024,-250"/>
<polygon fill="#000000" stroke="#000000" points="2496.9024,-246.5001 2486.9024,-250 2496.9024,-253.5001 2496.9024,-246.5001"/>
</g>
<!-- FieldCenterCoordinatesComponent -->
<g id="node2" class="node">
<title>FieldCenterCoordinatesComponent</title>
<polygon fill="#ffffb3" stroke="#000000" points="4675.58,-187 4460.42,-187 4460.42,-151 4675.58,-151 4675.58,-187"/>
<text text-anchor="middle" x="4568" y="-164.8" font-family="Times,serif" font-size="14.00" fill="#000000">FieldCenterCoordinatesComponent</text>
</g>
<!-- FieldCenterCoordinatesComponent&#45;&gt;AppModule -->
<g id="edge3" class="edge">
<title>FieldCenterCoordinatesComponent&#45;&gt;AppModule</title>
<path fill="none" stroke="#000000" d="M4568,-187.0908C4568,-210.1328 4568,-247 4568,-247 4568,-247 2496.9305,-247 2496.9305,-247"/>
<polygon fill="#000000" stroke="#000000" points="2496.9305,-243.5001 2486.9305,-247 2496.9305,-250.5001 2496.9305,-243.5001"/>
</g>
<!-- FieldSetupComponent -->
<g id="node3" class="node">
<title>FieldSetupComponent</title>
<polygon fill="#ffffb3" stroke="#000000" points="4441.9986,-187 4300.0014,-187 4300.0014,-151 4441.9986,-151 4441.9986,-187"/>
<text text-anchor="middle" x="4371" y="-164.8" font-family="Times,serif" font-size="14.00" fill="#000000">FieldSetupComponent</text>
</g>
<!-- FieldSetupComponent&#45;&gt;AppModule -->
<g id="edge4" class="edge">
<title>FieldSetupComponent&#45;&gt;AppModule</title>
<path fill="none" stroke="#000000" d="M4371,-187.0109C4371,-209.4852 4371,-245 4371,-245 4371,-245 2497.0184,-245 2497.0184,-245"/>
<polygon fill="#000000" stroke="#000000" points="2497.0185,-241.5001 2487.0184,-245 2497.0184,-248.5001 2497.0185,-241.5001"/>
</g>
<!-- FovParametersComponent -->
<g id="node4" class="node">
<title>FovParametersComponent</title>
<polygon fill="#ffffb3" stroke="#000000" points="4281.8033,-187 4116.1967,-187 4116.1967,-151 4281.8033,-151 4281.8033,-187"/>
<text text-anchor="middle" x="4199" y="-164.8" font-family="Times,serif" font-size="14.00" fill="#000000">FovParametersComponent</text>
</g>
<!-- FovParametersComponent&#45;&gt;AppModule -->
<g id="edge5" class="edge">
<title>FovParametersComponent&#45;&gt;AppModule</title>
<path fill="none" stroke="#000000" d="M4199,-187.0449C4199,-208.6623 4199,-242 4199,-242 4199,-242 2497.057,-242 2497.057,-242"/>
<polygon fill="#000000" stroke="#000000" points="2497.057,-238.5001 2487.057,-242 2497.0569,-245.5001 2497.057,-238.5001"/>
</g>
<!-- ImageQueryComponent -->
<g id="node5" class="node">
<title>ImageQueryComponent</title>
<polygon fill="#ffffb3" stroke="#000000" points="4098.7949,-187 3947.2051,-187 3947.2051,-151 4098.7949,-151 4098.7949,-187"/>
<text text-anchor="middle" x="4023" y="-164.8" font-family="Times,serif" font-size="14.00" fill="#000000">ImageQueryComponent</text>
</g>
<!-- ImageQueryComponent&#45;&gt;AppModule -->
<g id="edge6" class="edge">
<title>ImageQueryComponent&#45;&gt;AppModule</title>
<path fill="none" stroke="#000000" d="M4023,-187.2843C4023,-208.3211 4023,-240 4023,-240 4023,-240 2496.8012,-240 2496.8012,-240"/>
<polygon fill="#000000" stroke="#000000" points="2496.8013,-236.5001 2486.8012,-240 2496.8012,-243.5001 2496.8013,-236.5001"/>
</g>
<!-- NavbarComponent -->
<g id="node6" class="node">
<title>NavbarComponent</title>
<polygon fill="#ffffb3" stroke="#000000" points="3929.0297,-187 3806.9703,-187 3806.9703,-151 3929.0297,-151 3929.0297,-187"/>
<text text-anchor="middle" x="3868" y="-164.8" font-family="Times,serif" font-size="14.00" fill="#000000">NavbarComponent</text>
</g>
<!-- NavbarComponent&#45;&gt;AppModule -->
<g id="edge7" class="edge">
<title>NavbarComponent&#45;&gt;AppModule</title>
<path fill="none" stroke="#000000" d="M3868,-187.2228C3868,-207.3652 3868,-237 3868,-237 3868,-237 2496.817,-237 2496.817,-237"/>
<polygon fill="#000000" stroke="#000000" points="2496.8171,-233.5001 2486.817,-237 2496.817,-240.5001 2496.8171,-233.5001"/>
</g>
<!-- SourceComponent -->
<g id="node7" class="node">
<title>SourceComponent</title>
<polygon fill="#ffffb3" stroke="#000000" points="3789.205,-187 3668.795,-187 3668.795,-151 3789.205,-151 3789.205,-187"/>
<text text-anchor="middle" x="3729" y="-164.8" font-family="Times,serif" font-size="14.00" fill="#000000">SourceComponent</text>
</g>
<!-- SourceComponent&#45;&gt;AppModule -->
<g id="edge8" class="edge">
<title>SourceComponent&#45;&gt;AppModule</title>
<path fill="none" stroke="#000000" d="M3729,-187.1061C3729,-206.3391 3729,-234 3729,-234 3729,-234 2496.991,-234 2496.991,-234"/>
<polygon fill="#000000" stroke="#000000" points="2496.991,-230.5001 2486.991,-234 2496.9909,-237.5001 2496.991,-230.5001"/>
</g>
<!-- SourceExpectedPropertiesComponent -->
<g id="node8" class="node">
<title>SourceExpectedPropertiesComponent</title>
<polygon fill="#ffffb3" stroke="#000000" points="3650.5506,-187 3421.4494,-187 3421.4494,-151 3650.5506,-151 3650.5506,-187"/>
<text text-anchor="middle" x="3536" y="-164.8" font-family="Times,serif" font-size="14.00" fill="#000000">SourceExpectedPropertiesComponent</text>
</g>
<!-- SourceExpectedPropertiesComponent&#45;&gt;AppModule -->
<g id="edge9" class="edge">
<title>SourceExpectedPropertiesComponent&#45;&gt;AppModule</title>
<path fill="none" stroke="#000000" d="M3536,-187.2222C3536,-205.8285 3536,-232 3536,-232 3536,-232 2496.7675,-232 2496.7675,-232"/>
<polygon fill="#000000" stroke="#000000" points="2496.7676,-228.5001 2486.7675,-232 2496.7675,-235.5001 2496.7676,-228.5001"/>
</g>
<!-- SpacialImageComponent -->
<g id="node9" class="node">
<title>SpacialImageComponent</title>
<polygon fill="#ffffb3" stroke="#000000" points="3403.5211,-187 3246.4789,-187 3246.4789,-151 3403.5211,-151 3403.5211,-187"/>
<text text-anchor="middle" x="3325" y="-164.8" font-family="Times,serif" font-size="14.00" fill="#000000">SpacialImageComponent</text>
</g>
<!-- SpacialImageComponent&#45;&gt;AppModule -->
<g id="edge10" class="edge">
<title>SpacialImageComponent&#45;&gt;AppModule</title>
<path fill="none" stroke="#000000" d="M3325,-187.002C3325,-204.6754 3325,-229 3325,-229 3325,-229 2496.8522,-229 2496.8522,-229"/>
<polygon fill="#000000" stroke="#000000" points="2496.8523,-225.5001 2486.8522,-229 2496.8522,-232.5001 2496.8523,-225.5001"/>
</g>
<!-- ScienceGoalComponent -->
<g id="node10" class="node">
<title>ScienceGoalComponent</title>
<polygon fill="#ffffb3" stroke="#000000" points="3228.0758,-187 3075.9242,-187 3075.9242,-151 3228.0758,-151 3228.0758,-187"/>
<text text-anchor="middle" x="3152" y="-164.8" font-family="Times,serif" font-size="14.00" fill="#000000">ScienceGoalComponent</text>
</g>
<!-- ScienceGoalComponent&#45;&gt;AppModule -->
<g id="edge11" class="edge">
<title>ScienceGoalComponent&#45;&gt;AppModule</title>
<path fill="none" stroke="#000000" d="M3152,-187.0336C3152,-204.0597 3152,-227 3152,-227 3152,-227 2496.8473,-227 2496.8473,-227"/>
<polygon fill="#000000" stroke="#000000" points="2496.8474,-223.5001 2486.8473,-227 2496.8473,-230.5001 2496.8474,-223.5001"/>
</g>
<!-- GeneralComponent -->
<g id="node11" class="node">
<title>GeneralComponent</title>
<polygon fill="#ffffb3" stroke="#000000" points="3057.6345,-187 2932.3655,-187 2932.3655,-151 3057.6345,-151 3057.6345,-187"/>
<text text-anchor="middle" x="2995" y="-164.8" font-family="Times,serif" font-size="14.00" fill="#000000">GeneralComponent</text>
</g>
<!-- GeneralComponent&#45;&gt;AppModule -->
<g id="edge12" class="edge">
<title>GeneralComponent&#45;&gt;AppModule</title>
<path fill="none" stroke="#000000" d="M2995,-187.0091C2995,-203.0494 2995,-224 2995,-224 2995,-224 2496.7908,-224 2496.7908,-224"/>
<polygon fill="#000000" stroke="#000000" points="2496.7909,-220.5001 2486.7908,-224 2496.7908,-227.5001 2496.7909,-220.5001"/>
</g>
<!-- SpectralSetupComponent -->
<g id="node12" class="node">
<title>SpectralSetupComponent</title>
<polygon fill="#ffffb3" stroke="#000000" points="2914.5884,-187 2755.4116,-187 2755.4116,-151 2914.5884,-151 2914.5884,-187"/>
<text text-anchor="middle" x="2835" y="-164.8" font-family="Times,serif" font-size="14.00" fill="#000000">SpectralSetupComponent</text>
</g>
<!-- SpectralSetupComponent&#45;&gt;AppModule -->
<g id="edge13" class="edge">
<title>SpectralSetupComponent&#45;&gt;AppModule</title>
<path fill="none" stroke="#000000" d="M2835,-187.2396C2835,-202.5706 2835,-222 2835,-222 2835,-222 2496.7368,-222 2496.7368,-222"/>
<polygon fill="#000000" stroke="#000000" points="2496.7369,-218.5001 2486.7368,-222 2496.7368,-225.5001 2496.7369,-218.5001"/>
</g>
<!-- CalibrationSetupComponent -->
<g id="node13" class="node">
<title>CalibrationSetupComponent</title>
<polygon fill="#ffffb3" stroke="#000000" points="2737.2091,-187 2560.7909,-187 2560.7909,-151 2737.2091,-151 2737.2091,-187"/>
<text text-anchor="middle" x="2649" y="-164.8" font-family="Times,serif" font-size="14.00" fill="#000000">CalibrationSetupComponent</text>
</g>
<!-- CalibrationSetupComponent&#45;&gt;AppModule -->
<g id="edge14" class="edge">
<title>CalibrationSetupComponent&#45;&gt;AppModule</title>
<path fill="none" stroke="#000000" d="M2649,-187.0511C2649,-201.373 2649,-219 2649,-219 2649,-219 2496.7747,-219 2496.7747,-219"/>
<polygon fill="#000000" stroke="#000000" points="2496.7747,-215.5001 2486.7747,-219 2496.7747,-222.5001 2496.7747,-215.5001"/>
</g>
<!-- ControlPerformanceComponent -->
<g id="node14" class="node">
<title>ControlPerformanceComponent</title>
<polygon fill="#ffffb3" stroke="#000000" points="2542.6246,-187 2347.3754,-187 2347.3754,-151 2542.6246,-151 2542.6246,-187"/>
<text text-anchor="middle" x="2445" y="-164.8" font-family="Times,serif" font-size="14.00" fill="#000000">ControlPerformanceComponent</text>
</g>
<!-- ControlPerformanceComponent&#45;&gt;AppModule -->
<g id="edge15" class="edge">
<title>ControlPerformanceComponent&#45;&gt;AppModule</title>
<path fill="none" stroke="#000000" d="M2445,-187.1061C2445,-187.1061 2445,-205.991 2445,-205.991"/>
<polygon fill="#000000" stroke="#000000" points="2441.5001,-205.9909 2445,-215.991 2448.5001,-205.991 2441.5001,-205.9909"/>
</g>
<!-- TechnicalJustificationComponent -->
<g id="node15" class="node">
<title>TechnicalJustificationComponent</title>
<polygon fill="#ffffb3" stroke="#000000" points="2329.4566,-187 2124.5434,-187 2124.5434,-151 2329.4566,-151 2329.4566,-187"/>
<text text-anchor="middle" x="2227" y="-164.8" font-family="Times,serif" font-size="14.00" fill="#000000">TechnicalJustificationComponent</text>
</g>
<!-- TechnicalJustificationComponent&#45;&gt;AppModule -->
<g id="edge16" class="edge">
<title>TechnicalJustificationComponent&#45;&gt;AppModule</title>
<path fill="none" stroke="#000000" d="M2227,-187.0511C2227,-201.373 2227,-219 2227,-219 2227,-219 2393.2253,-219 2393.2253,-219"/>
<polygon fill="#000000" stroke="#000000" points="2393.2254,-222.5001 2403.2253,-219 2393.2253,-215.5001 2393.2254,-222.5001"/>
</g>
<!-- VisualisationControlComponent -->
<g id="node16" class="node">
<title>VisualisationControlComponent</title>
<polygon fill="#ffffb3" stroke="#000000" points="2106.9888,-187 1909.0112,-187 1909.0112,-151 2106.9888,-151 2106.9888,-187"/>
<text text-anchor="middle" x="2008" y="-164.8" font-family="Times,serif" font-size="14.00" fill="#000000">VisualisationControlComponent</text>
</g>
<!-- VisualisationControlComponent&#45;&gt;AppModule -->
<g id="edge17" class="edge">
<title>VisualisationControlComponent&#45;&gt;AppModule</title>
<path fill="none" stroke="#000000" d="M2008,-187.2396C2008,-202.5706 2008,-222 2008,-222 2008,-222 2393.0986,-222 2393.0986,-222"/>
<polygon fill="#000000" stroke="#000000" points="2393.0986,-225.5001 2403.0986,-222 2393.0986,-218.5001 2393.0986,-225.5001"/>
</g>
<!-- TypeComponent -->
<g id="node17" class="node">
<title>TypeComponent</title>
<polygon fill="#ffffb3" stroke="#000000" points="1891.0996,-187 1780.9004,-187 1780.9004,-151 1891.0996,-151 1891.0996,-187"/>
<text text-anchor="middle" x="1836" y="-164.8" font-family="Times,serif" font-size="14.00" fill="#000000">TypeComponent</text>
</g>
<!-- TypeComponent&#45;&gt;AppModule -->
<g id="edge18" class="edge">
<title>TypeComponent&#45;&gt;AppModule</title>
<path fill="none" stroke="#000000" d="M1836,-187.0091C1836,-203.0494 1836,-224 1836,-224 1836,-224 2393.141,-224 2393.141,-224"/>
<polygon fill="#000000" stroke="#000000" points="2393.141,-227.5001 2403.141,-224 2393.1409,-220.5001 2393.141,-227.5001"/>
</g>
<!-- SelectableComponent -->
<g id="node18" class="node">
<title>SelectableComponent</title>
<polygon fill="#ffffb3" stroke="#000000" points="1763.3599,-187 1624.6401,-187 1624.6401,-151 1763.3599,-151 1763.3599,-187"/>
<text text-anchor="middle" x="1694" y="-164.8" font-family="Times,serif" font-size="14.00" fill="#000000">SelectableComponent</text>
</g>
<!-- SelectableComponent&#45;&gt;AppModule -->
<g id="edge19" class="edge">
<title>SelectableComponent&#45;&gt;AppModule</title>
<path fill="none" stroke="#000000" d="M1694,-187.0336C1694,-204.0597 1694,-227 1694,-227 1694,-227 2393.2839,-227 2393.2839,-227"/>
<polygon fill="#000000" stroke="#000000" points="2393.2839,-230.5001 2403.2839,-227 2393.2838,-223.5001 2393.2839,-230.5001"/>
</g>
<!-- FccIndividualComponent -->
<g id="node19" class="node">
<title>FccIndividualComponent</title>
<polygon fill="#ffffb3" stroke="#000000" points="1606.5912,-187 1447.4088,-187 1447.4088,-151 1606.5912,-151 1606.5912,-187"/>
<text text-anchor="middle" x="1527" y="-164.8" font-family="Times,serif" font-size="14.00" fill="#000000">FccIndividualComponent</text>
</g>
<!-- FccIndividualComponent&#45;&gt;AppModule -->
<g id="edge20" class="edge">
<title>FccIndividualComponent&#45;&gt;AppModule</title>
<path fill="none" stroke="#000000" d="M1527,-187.002C1527,-204.6754 1527,-229 1527,-229 1527,-229 2393.17,-229 2393.17,-229"/>
<polygon fill="#000000" stroke="#000000" points="2393.17,-232.5001 2403.17,-229 2393.17,-225.5001 2393.17,-232.5001"/>
</g>
<!-- FccRectangularComponent -->
<g id="node20" class="node">
<title>FccRectangularComponent</title>
<polygon fill="#ffffb3" stroke="#000000" points="1429.6811,-187 1260.3189,-187 1260.3189,-151 1429.6811,-151 1429.6811,-187"/>
<text text-anchor="middle" x="1345" y="-164.8" font-family="Times,serif" font-size="14.00" fill="#000000">FccRectangularComponent</text>
</g>
<!-- FccRectangularComponent&#45;&gt;AppModule -->
<g id="edge21" class="edge">
<title>FccRectangularComponent&#45;&gt;AppModule</title>
<path fill="none" stroke="#000000" d="M1345,-187.2222C1345,-205.8285 1345,-232 1345,-232 1345,-232 2393.2219,-232 2393.2219,-232"/>
<polygon fill="#000000" stroke="#000000" points="2393.2219,-235.5001 2403.2219,-232 2393.2219,-228.5001 2393.2219,-235.5001"/>
</g>
<!-- SystemSelectorComponent -->
<g id="node21" class="node">
<title>SystemSelectorComponent</title>
<polygon fill="#ffffb3" stroke="#000000" points="1242.4241,-187 1073.5759,-187 1073.5759,-151 1242.4241,-151 1242.4241,-187"/>
<text text-anchor="middle" x="1158" y="-164.8" font-family="Times,serif" font-size="14.00" fill="#000000">SystemSelectorComponent</text>
</g>
<!-- SystemSelectorComponent&#45;&gt;AppModule -->
<g id="edge22" class="edge">
<title>SystemSelectorComponent&#45;&gt;AppModule</title>
<path fill="none" stroke="#000000" d="M1158,-187.1061C1158,-206.3391 1158,-234 1158,-234 1158,-234 2393.2746,-234 2393.2746,-234"/>
<polygon fill="#000000" stroke="#000000" points="2393.2746,-237.5001 2403.2746,-234 2393.2746,-230.5001 2393.2746,-237.5001"/>
</g>
<!-- VisualisationViewerComponent -->
<g id="node22" class="node">
<title>VisualisationViewerComponent</title>
<polygon fill="#ffffb3" stroke="#000000" points="1056.4044,-187 859.5956,-187 859.5956,-151 1056.4044,-151 1056.4044,-187"/>
<text text-anchor="middle" x="958" y="-164.8" font-family="Times,serif" font-size="14.00" fill="#000000">VisualisationViewerComponent</text>
</g>
<!-- VisualisationViewerComponent&#45;&gt;AppModule -->
<g id="edge23" class="edge">
<title>VisualisationViewerComponent&#45;&gt;AppModule</title>
<path fill="none" stroke="#000000" d="M958,-187.2228C958,-207.3652 958,-237 958,-237 958,-237 2393.2855,-237 2393.2855,-237"/>
<polygon fill="#000000" stroke="#000000" points="2393.2856,-240.5001 2403.2855,-237 2393.2855,-233.5001 2393.2856,-240.5001"/>
</g>
<!-- AppComponent  -->
<g id="node28" class="node">
<title>AppComponent </title>
<polygon fill="#80b1d3" stroke="#000000" points="2499.439,-317 2390.561,-317 2390.561,-281 2499.439,-281 2499.439,-317"/>
<text text-anchor="middle" x="2445" y="-294.8" font-family="Times,serif" font-size="14.00" fill="#000000">AppComponent </text>
</g>
<!-- AppModule&#45;&gt;AppComponent  -->
<g id="edge27" class="edge">
<title>AppModule&#45;&gt;AppComponent </title>
<path fill="none" stroke="#000000" stroke-dasharray="1,5" d="M2445,-252.1061C2445,-252.1061 2445,-270.991 2445,-270.991"/>
<polygon fill="#000000" stroke="#000000" points="2441.5001,-270.9909 2445,-280.991 2448.5001,-270.991 2441.5001,-270.9909"/>
</g>
<!-- NgbTooltipConfig -->
<g id="node24" class="node">
<title>NgbTooltipConfig</title>
<ellipse fill="#fdb462" stroke="#000000" cx="4716" cy="-104" rx="82.8495" ry="18"/>
<text text-anchor="middle" x="4716" y="-99.8" font-family="Times,serif" font-size="14.00" fill="#000000">NgbTooltipConfig</text>
</g>
<!-- NgbTooltipConfig&#45;&gt;AppComponent -->
<g id="edge2" class="edge">
<title>NgbTooltipConfig&#45;&gt;AppComponent</title>
<path fill="none" stroke="#000000" d="M4746,-121.078C4746,-121.078 4746,-140.8993 4746,-140.8993"/>
<polygon fill="#000000" stroke="#000000" points="4742.5001,-140.8992 4746,-150.8993 4749.5001,-140.8993 4742.5001,-140.8992"/>
</g>
<!-- SharedModule -->
<g id="node25" class="node">
<title>SharedModule</title>
<polygon fill="#8dd3c7" stroke="#000000" points="836.4231,-187 833.4231,-191 812.4231,-191 809.4231,-187 737.5769,-187 737.5769,-151 836.4231,-151 836.4231,-187"/>
<text text-anchor="middle" x="787" y="-164.8" font-family="Times,serif" font-size="14.00" fill="#000000">SharedModule</text>
</g>
<!-- SharedModule&#45;&gt;AppModule -->
<g id="edge24" class="edge">
<title>SharedModule&#45;&gt;AppModule</title>
<path fill="none" stroke="#000000" d="M787,-187.2843C787,-208.3211 787,-240 787,-240 787,-240 2393.1863,-240 2393.1863,-240"/>
<polygon fill="#000000" stroke="#000000" points="2393.1863,-243.5001 2403.1863,-240 2393.1862,-236.5001 2393.1863,-243.5001"/>
</g>
<!-- PiSelectionModule -->
<g id="node26" class="node">
<title>PiSelectionModule</title>
<polygon fill="#8dd3c7" stroke="#000000" points="719.8216,-187 716.8216,-191 695.8216,-191 692.8216,-187 596.1784,-187 596.1784,-151 719.8216,-151 719.8216,-187"/>
<text text-anchor="middle" x="658" y="-164.8" font-family="Times,serif" font-size="14.00" fill="#000000">PiSelectionModule</text>
</g>
<!-- PiSelectionModule&#45;&gt;AppModule -->
<g id="edge25" class="edge">
<title>PiSelectionModule&#45;&gt;AppModule</title>
<path fill="none" stroke="#000000" d="M658,-187.0449C658,-208.6623 658,-242 658,-242 658,-242 2393.0247,-242 2393.0247,-242"/>
<polygon fill="#000000" stroke="#000000" points="2393.0247,-245.5001 2403.0247,-242 2393.0247,-238.5001 2393.0247,-245.5001"/>
</g>
<!-- AppRoutingModule -->
<g id="node27" class="node">
<title>AppRoutingModule</title>
<polygon fill="#8dd3c7" stroke="#000000" points="578.2744,-187 575.2744,-191 554.2744,-191 551.2744,-187 449.7256,-187 449.7256,-151 578.2744,-151 578.2744,-187"/>
<text text-anchor="middle" x="514" y="-164.8" font-family="Times,serif" font-size="14.00" fill="#000000">AppRoutingModule</text>
</g>
<!-- AppRoutingModule&#45;&gt;AppModule -->
<g id="edge26" class="edge">
<title>AppRoutingModule&#45;&gt;AppModule</title>
<path fill="none" stroke="#000000" d="M514,-187.0109C514,-209.4852 514,-245 514,-245 514,-245 2393.3249,-245 2393.3249,-245"/>
<polygon fill="#000000" stroke="#000000" points="2393.3249,-248.5001 2403.3249,-245 2393.3248,-241.5001 2393.3249,-248.5001"/>
</g>
<!-- ScienceGoalPanelService -->
<g id="node29" class="node">
<title>ScienceGoalPanelService</title>
<ellipse fill="#fdb462" stroke="#000000" cx="316" cy="-169" rx="110.4871" ry="18"/>
<text text-anchor="middle" x="316" y="-164.8" font-family="Times,serif" font-size="14.00" fill="#000000">ScienceGoalPanelService</text>
</g>
<!-- ScienceGoalPanelService&#45;&gt;AppModule -->
<g id="edge28" class="edge">
<title>ScienceGoalPanelService&#45;&gt;AppModule</title>
<path fill="none" stroke="#000000" d="M316,-187.0908C316,-210.1328 316,-247 316,-247 316,-247 2392.951,-247 2392.951,-247"/>
<polygon fill="#000000" stroke="#000000" points="2392.951,-250.5001 2402.951,-247 2392.951,-243.5001 2392.951,-250.5001"/>
</g>
<!-- FieldSetupService -->
<g id="node30" class="node">
<title>FieldSetupService</title>
<ellipse fill="#fdb462" stroke="#000000" cx="106" cy="-169" rx="81.677" ry="18"/>
<text text-anchor="middle" x="106" y="-164.8" font-family="Times,serif" font-size="14.00" fill="#000000">FieldSetupService</text>
</g>
<!-- FieldSetupService&#45;&gt;AppModule -->
<g id="edge29" class="edge">
<title>FieldSetupService&#45;&gt;AppModule</title>
<path fill="none" stroke="#000000" d="M106,-187.3802C106,-211.2785 106,-250 106,-250 106,-250 2393.1596,-250 2393.1596,-250"/>
<polygon fill="#000000" stroke="#000000" points="2393.1597,-253.5001 2403.1596,-250 2393.1596,-246.5001 2393.1597,-253.5001"/>
</g>
</g>
</svg>
