<?xml version="1.0" encoding="UTF-8" standalone="no"?>
<!DOCTYPE svg PUBLIC "-//W3C//DTD SVG 1.1//EN"
 "http://www.w3.org/Graphics/SVG/1.1/DTD/svg11.dtd">
<!-- Generated by graphviz version 2.40.1 (20161225.0304)
 -->
<!-- Title: dependencies Pages: 1 -->
<svg width="667pt" height="349pt"
 viewBox="0.00 0.00 667.00 349.00" xmlns="http://www.w3.org/2000/svg" xmlns:xlink="http://www.w3.org/1999/xlink">
<g id="graph0" class="graph" transform="scale(1 1) rotate(0) translate(4 345)">
<title>dependencies</title>
<polygon fill="#ffffff" stroke="transparent" points="-4,4 -4,-345 663,-345 663,4 -4,4"/>
<text text-anchor="start" x="308.5091" y="-42.4" font-family="sans-serif" font-weight="bold" font-size="14.00" fill="#000000">Legend</text>
<polygon fill="#ffffb3" stroke="transparent" points="95.5,-10 95.5,-30 115.5,-30 115.5,-10 95.5,-10"/>
<text text-anchor="start" x="119.129" y="-15.4" font-family="sans-serif" font-size="14.00" fill="#000000"> &#160;Declarations</text>
<polygon fill="#8dd3c7" stroke="transparent" points="208.5,-10 208.5,-30 228.5,-30 228.5,-10 208.5,-10"/>
<text text-anchor="start" x="232.2251" y="-15.4" font-family="sans-serif" font-size="14.00" fill="#000000"> &#160;Module</text>
<polygon fill="#80b1d3" stroke="transparent" points="294.5,-10 294.5,-30 314.5,-30 314.5,-10 294.5,-10"/>
<text text-anchor="start" x="318.2812" y="-15.4" font-family="sans-serif" font-size="14.00" fill="#000000"> &#160;Bootstrap</text>
<polygon fill="#fdb462" stroke="transparent" points="391.5,-10 391.5,-30 411.5,-30 411.5,-10 391.5,-10"/>
<text text-anchor="start" x="415.1732" y="-15.4" font-family="sans-serif" font-size="14.00" fill="#000000"> &#160;Providers</text>
<polygon fill="#fb8072" stroke="transparent" points="487.5,-10 487.5,-30 507.5,-30 507.5,-10 487.5,-10"/>
<text text-anchor="start" x="511.2258" y="-15.4" font-family="sans-serif" font-size="14.00" fill="#000000"> &#160;Exports</text>
<g id="clust1" class="cluster">
<title>cluster_AppModule</title>
<polygon fill="none" stroke="#000000" stroke-dasharray="1,5" points="8,-70 8,-333 651,-333 651,-70 8,-70"/>
</g>
<g id="clust2" class="cluster">
<title>cluster_AppModule_declarations</title>
<polygon fill="none" stroke="#000000" points="521,-143 521,-195 643,-195 643,-143 521,-143"/>
</g>
<g id="clust3" class="cluster">
<title>cluster_AppModule_AppComponent_providers</title>
<polygon fill="none" stroke="#000000" points="461,-78 461,-130 643,-130 643,-78 461,-78"/>
</g>
<g id="clust4" class="cluster">
<title>cluster_AppModule_imports</title>
<polygon fill="none" stroke="#000000" points="16,-143 16,-195 513,-195 513,-143 16,-143"/>
</g>
<g id="clust6" class="cluster">
<title>cluster_AppModule_bootstrap</title>
<polygon fill="none" stroke="#000000" points="275,-273 275,-325 399,-325 399,-273 275,-273"/>
</g>
<!-- AppComponent -->
<g id="node1" class="node">
<title>AppComponent</title>
<polygon fill="#ffffb3" stroke="#000000" points="634.9399,-187 529.0601,-187 529.0601,-151 634.9399,-151 634.9399,-187"/>
<text text-anchor="middle" x="582" y="-164.8" font-family="Times,serif" font-size="14.00" fill="#000000">AppComponent</text>
</g>
<!-- AppModule -->
<g id="node2" class="node">
<title>AppModule</title>
<polygon fill="#8dd3c7" stroke="#000000" points="378.6571,-252 375.6571,-256 354.6571,-256 351.6571,-252 295.3429,-252 295.3429,-216 378.6571,-216 378.6571,-252"/>
<text text-anchor="middle" x="337" y="-229.8" font-family="Times,serif" font-size="14.00" fill="#000000">AppModule</text>
</g>
<!-- AppComponent&#45;&gt;AppModule -->
<g id="edge1" class="edge">
<title>AppComponent&#45;&gt;AppModule</title>
<path fill="none" stroke="#000000" d="M582,-187.2843C582,-208.3211 582,-240 582,-240 582,-240 388.8386,-240 388.8386,-240"/>
<polygon fill="#000000" stroke="#000000" points="388.8387,-236.5001 378.8386,-240 388.8386,-243.5001 388.8387,-236.5001"/>
</g>
<!-- AppComponent  -->
<g id="node8" class="node">
<title>AppComponent </title>
<polygon fill="#80b1d3" stroke="#000000" points="391.439,-317 282.561,-317 282.561,-281 391.439,-281 391.439,-317"/>
<text text-anchor="middle" x="337" y="-294.8" font-family="Times,serif" font-size="14.00" fill="#000000">AppComponent </text>
</g>
<!-- AppModule&#45;&gt;AppComponent  -->
<g id="edge7" class="edge">
<title>AppModule&#45;&gt;AppComponent </title>
<path fill="none" stroke="#000000" stroke-dasharray="1,5" d="M337,-252.1061C337,-252.1061 337,-270.991 337,-270.991"/>
<polygon fill="#000000" stroke="#000000" points="333.5001,-270.9909 337,-280.991 340.5001,-270.991 333.5001,-270.9909"/>
</g>
<!-- NgbTooltipConfig -->
<g id="node3" class="node">
<title>NgbTooltipConfig</title>
<ellipse fill="#fdb462" stroke="#000000" cx="552" cy="-104" rx="82.8495" ry="18"/>
<text text-anchor="middle" x="552" y="-99.8" font-family="Times,serif" font-size="14.00" fill="#000000">NgbTooltipConfig</text>
</g>
<!-- NgbTooltipConfig&#45;&gt;AppComponent -->
<g id="edge2" class="edge">
<title>NgbTooltipConfig&#45;&gt;AppComponent</title>
<path fill="none" stroke="#000000" d="M582,-121.078C582,-121.078 582,-140.8993 582,-140.8993"/>
<polygon fill="#000000" stroke="#000000" points="578.5001,-140.8992 582,-150.8993 585.5001,-140.8993 578.5001,-140.8992"/>
</g>
<!-- NavbarModule -->
<g id="node4" class="node">
<title>NavbarModule</title>
<polygon fill="#8dd3c7" stroke="#000000" points="505.2465,-187 502.2465,-191 481.2465,-191 478.2465,-187 404.7535,-187 404.7535,-151 505.2465,-151 505.2465,-187"/>
<text text-anchor="middle" x="455" y="-164.8" font-family="Times,serif" font-size="14.00" fill="#000000">NavbarModule</text>
</g>
<!-- NavbarModule&#45;&gt;AppModule -->
<g id="edge3" class="edge">
<title>NavbarModule&#45;&gt;AppModule</title>
<path fill="none" stroke="#000000" d="M455,-187.0225C455,-204.3734 455,-228 455,-228 455,-228 388.9346,-228 388.9346,-228"/>
<polygon fill="#000000" stroke="#000000" points="388.9347,-224.5001 378.9346,-228 388.9346,-231.5001 388.9347,-224.5001"/>
</g>
<!-- ProjectModule -->
<g id="node5" class="node">
<title>ProjectModule</title>
<polygon fill="#8dd3c7" stroke="#000000" points="386.7036,-187 383.7036,-191 362.7036,-191 359.7036,-187 287.2964,-187 287.2964,-151 386.7036,-151 386.7036,-187"/>
<text text-anchor="middle" x="337" y="-164.8" font-family="Times,serif" font-size="14.00" fill="#000000">ProjectModule</text>
</g>
<!-- ProjectModule&#45;&gt;AppModule -->
<g id="edge4" class="edge">
<title>ProjectModule&#45;&gt;AppModule</title>
<path fill="none" stroke="#000000" d="M337,-187.1061C337,-187.1061 337,-205.991 337,-205.991"/>
<polygon fill="#000000" stroke="#000000" points="333.5001,-205.9909 337,-215.991 340.5001,-205.991 333.5001,-205.9909"/>
</g>
<!-- SharedModule -->
<g id="node6" class="node">
<title>SharedModule</title>
<polygon fill="#8dd3c7" stroke="#000000" points="269.4231,-187 266.4231,-191 245.4231,-191 242.4231,-187 170.5769,-187 170.5769,-151 269.4231,-151 269.4231,-187"/>
<text text-anchor="middle" x="220" y="-164.8" font-family="Times,serif" font-size="14.00" fill="#000000">SharedModule</text>
</g>
<!-- SharedModule&#45;&gt;AppModule -->
<g id="edge5" class="edge">
<title>SharedModule&#45;&gt;AppModule</title>
<path fill="none" stroke="#000000" d="M220,-187.0225C220,-204.3734 220,-228 220,-228 220,-228 285.0908,-228 285.0908,-228"/>
<polygon fill="#000000" stroke="#000000" points="285.0908,-231.5001 295.0908,-228 285.0907,-224.5001 285.0908,-231.5001"/>
</g>
<!-- AppRoutingModule -->
<g id="node7" class="node">
<title>AppRoutingModule</title>
<polygon fill="#8dd3c7" stroke="#000000" points="152.2744,-187 149.2744,-191 128.2744,-191 125.2744,-187 23.7256,-187 23.7256,-151 152.2744,-151 152.2744,-187"/>
<text text-anchor="middle" x="88" y="-164.8" font-family="Times,serif" font-size="14.00" fill="#000000">AppRoutingModule</text>
</g>
<!-- AppRoutingModule&#45;&gt;AppModule -->
<g id="edge6" class="edge">
<title>AppRoutingModule&#45;&gt;AppModule</title>
<path fill="none" stroke="#000000" d="M88,-187.2843C88,-208.3211 88,-240 88,-240 88,-240 285.323,-240 285.323,-240"/>
<polygon fill="#000000" stroke="#000000" points="285.323,-243.5001 295.323,-240 285.323,-236.5001 285.323,-243.5001"/>
</g>
</g>
</svg>
