<?xml version="1.0" encoding="UTF-8" standalone="no"?>
<!DOCTYPE svg PUBLIC "-//W3C//DTD SVG 1.1//EN"
 "http://www.w3.org/Graphics/SVG/1.1/DTD/svg11.dtd">
<!-- Generated by graphviz version 2.40.1 (20161225.0304)
 -->
<!-- Title: dependencies Pages: 1 -->
<svg width="6828pt" height="349pt"
 viewBox="0.00 0.00 6828.00 349.00" xmlns="http://www.w3.org/2000/svg" xmlns:xlink="http://www.w3.org/1999/xlink">
<g id="graph0" class="graph" transform="scale(1 1) rotate(0) translate(4 345)">
<title>dependencies</title>
<polygon fill="#ffffff" stroke="transparent" points="-4,4 -4,-345 6824,-345 6824,4 -4,4"/>
<text text-anchor="start" x="3389.0091" y="-42.4" font-family="sans-serif" font-weight="bold" font-size="14.00" fill="#000000">Legend</text>
<polygon fill="#ffffb3" stroke="transparent" points="3176,-10 3176,-30 3196,-30 3196,-10 3176,-10"/>
<text text-anchor="start" x="3199.629" y="-15.4" font-family="sans-serif" font-size="14.00" fill="#000000"> &#160;Declarations</text>
<polygon fill="#8dd3c7" stroke="transparent" points="3289,-10 3289,-30 3309,-30 3309,-10 3289,-10"/>
<text text-anchor="start" x="3312.7251" y="-15.4" font-family="sans-serif" font-size="14.00" fill="#000000"> &#160;Module</text>
<polygon fill="#80b1d3" stroke="transparent" points="3375,-10 3375,-30 3395,-30 3395,-10 3375,-10"/>
<text text-anchor="start" x="3398.7812" y="-15.4" font-family="sans-serif" font-size="14.00" fill="#000000"> &#160;Bootstrap</text>
<polygon fill="#fdb462" stroke="transparent" points="3472,-10 3472,-30 3492,-30 3492,-10 3472,-10"/>
<text text-anchor="start" x="3495.6732" y="-15.4" font-family="sans-serif" font-size="14.00" fill="#000000"> &#160;Providers</text>
<polygon fill="#fb8072" stroke="transparent" points="3568,-10 3568,-30 3588,-30 3588,-10 3568,-10"/>
<text text-anchor="start" x="3591.7258" y="-15.4" font-family="sans-serif" font-size="14.00" fill="#000000"> &#160;Exports</text>
<g id="clust1" class="cluster">
<title>cluster_AppModule</title>
<polygon fill="none" stroke="#000000" stroke-dasharray="1,5" points="8,-70 8,-333 6812,-333 6812,-70 8,-70"/>
</g>
<g id="clust2" class="cluster">
<title>cluster_AppModule_declarations</title>
<polygon fill="none" stroke="#000000" points="846,-143 846,-195 6804,-195 6804,-143 846,-143"/>
</g>
<g id="clust3" class="cluster">
<title>cluster_AppModule_AppComponent_providers</title>
<polygon fill="none" stroke="#000000" points="6622,-78 6622,-130 6804,-130 6804,-78 6622,-78"/>
</g>
<g id="clust38" class="cluster">
<title>cluster_AppModule_imports</title>
<polygon fill="none" stroke="#000000" points="694,-143 694,-195 838,-195 838,-143 694,-143"/>
</g>
<g id="clust40" class="cluster">
<title>cluster_AppModule_bootstrap</title>
<polygon fill="none" stroke="#000000" points="3484,-273 3484,-325 3608,-325 3608,-273 3484,-273"/>
</g>
<g id="clust41" class="cluster">
<title>cluster_AppModule_providers</title>
<polygon fill="none" stroke="#000000" points="16,-143 16,-195 686,-195 686,-143 16,-143"/>
</g>
<!-- AppComponent -->
<g id="node1" class="node">
<title>AppComponent</title>
<polygon fill="#ffffb3" stroke="#000000" points="6795.9399,-187 6690.0601,-187 6690.0601,-151 6795.9399,-151 6795.9399,-187"/>
<text text-anchor="middle" x="6743" y="-164.8" font-family="Times,serif" font-size="14.00" fill="#000000">AppComponent</text>
</g>
<!-- AppModule -->
<g id="node36" class="node">
<title>AppModule</title>
<polygon fill="#8dd3c7" stroke="#000000" points="3587.6571,-252 3584.6571,-256 3563.6571,-256 3560.6571,-252 3504.3429,-252 3504.3429,-216 3587.6571,-216 3587.6571,-252"/>
<text text-anchor="middle" x="3546" y="-229.8" font-family="Times,serif" font-size="14.00" fill="#000000">AppModule</text>
</g>
<!-- AppComponent&#45;&gt;AppModule -->
<g id="edge1" class="edge">
<title>AppComponent&#45;&gt;AppModule</title>
<path fill="none" stroke="#000000" d="M6743,-187.1985C6743,-211.3563 6743,-251 6743,-251 6743,-251 3597.886,-251 3597.886,-251"/>
<polygon fill="#000000" stroke="#000000" points="3597.886,-247.5001 3587.886,-251 3597.8859,-254.5001 3597.886,-247.5001"/>
</g>
<!-- FieldCenterCoordinatesComponent -->
<g id="node2" class="node">
<title>FieldCenterCoordinatesComponent</title>
<polygon fill="#ffffb3" stroke="#000000" points="6672.58,-187 6457.42,-187 6457.42,-151 6672.58,-151 6672.58,-187"/>
<text text-anchor="middle" x="6565" y="-164.8" font-family="Times,serif" font-size="14.00" fill="#000000">FieldCenterCoordinatesComponent</text>
</g>
<!-- FieldCenterCoordinatesComponent&#45;&gt;AppModule -->
<g id="edge3" class="edge">
<title>FieldCenterCoordinatesComponent&#45;&gt;AppModule</title>
<path fill="none" stroke="#000000" d="M6565,-187.1532C6565,-210.7566 6565,-249 6565,-249 6565,-249 3597.8145,-249 3597.8145,-249"/>
<polygon fill="#000000" stroke="#000000" points="3597.8145,-245.5001 3587.8145,-249 3597.8144,-252.5001 3597.8145,-245.5001"/>
</g>
<!-- FieldSetupComponent -->
<g id="node3" class="node">
<title>FieldSetupComponent</title>
<polygon fill="#ffffb3" stroke="#000000" points="6438.9986,-187 6297.0014,-187 6297.0014,-151 6438.9986,-151 6438.9986,-187"/>
<text text-anchor="middle" x="6368" y="-164.8" font-family="Times,serif" font-size="14.00" fill="#000000">FieldSetupComponent</text>
</g>
<!-- FieldSetupComponent&#45;&gt;AppModule -->
<g id="edge4" class="edge">
<title>FieldSetupComponent&#45;&gt;AppModule</title>
<path fill="none" stroke="#000000" d="M6368,-187.0908C6368,-210.1328 6368,-247 6368,-247 6368,-247 3597.8054,-247 3597.8054,-247"/>
<polygon fill="#000000" stroke="#000000" points="3597.8055,-243.5001 3587.8054,-247 3597.8054,-250.5001 3597.8055,-243.5001"/>
</g>
<!-- FovParametersComponent -->
<g id="node4" class="node">
<title>FovParametersComponent</title>
<polygon fill="#ffffb3" stroke="#000000" points="6278.8033,-187 6113.1967,-187 6113.1967,-151 6278.8033,-151 6278.8033,-187"/>
<text text-anchor="middle" x="6196" y="-164.8" font-family="Times,serif" font-size="14.00" fill="#000000">FovParametersComponent</text>
</g>
<!-- FovParametersComponent&#45;&gt;AppModule -->
<g id="edge5" class="edge">
<title>FovParametersComponent&#45;&gt;AppModule</title>
<path fill="none" stroke="#000000" d="M6196,-187.0109C6196,-209.4852 6196,-245 6196,-245 6196,-245 3597.8923,-245 3597.8923,-245"/>
<polygon fill="#000000" stroke="#000000" points="3597.8923,-241.5001 3587.8923,-245 3597.8923,-248.5001 3597.8923,-241.5001"/>
</g>
<!-- ImageQueryComponent -->
<g id="node5" class="node">
<title>ImageQueryComponent</title>
<polygon fill="#ffffb3" stroke="#000000" points="6095.7949,-187 5944.2051,-187 5944.2051,-151 6095.7949,-151 6095.7949,-187"/>
<text text-anchor="middle" x="6020" y="-164.8" font-family="Times,serif" font-size="14.00" fill="#000000">ImageQueryComponent</text>
</g>
<!-- ImageQueryComponent&#45;&gt;AppModule -->
<g id="edge6" class="edge">
<title>ImageQueryComponent&#45;&gt;AppModule</title>
<path fill="none" stroke="#000000" d="M6020,-187.2921C6020,-209.2057 6020,-243 6020,-243 6020,-243 3597.9028,-243 3597.9028,-243"/>
<polygon fill="#000000" stroke="#000000" points="3597.9029,-239.5001 3587.9028,-243 3597.9028,-246.5001 3597.9029,-239.5001"/>
</g>
<!-- ModularPanelComponent -->
<g id="node6" class="node">
<title>ModularPanelComponent</title>
<polygon fill="#ffffb3" stroke="#000000" points="5926.1456,-187 5765.8544,-187 5765.8544,-151 5926.1456,-151 5926.1456,-187"/>
<text text-anchor="middle" x="5846" y="-164.8" font-family="Times,serif" font-size="14.00" fill="#000000">ModularPanelComponent</text>
</g>
<!-- ModularPanelComponent&#45;&gt;AppModule -->
<g id="edge7" class="edge">
<title>ModularPanelComponent&#45;&gt;AppModule</title>
<path fill="none" stroke="#000000" d="M5846,-187.0449C5846,-208.6623 5846,-242 5846,-242 5846,-242 3597.8842,-242 3597.8842,-242"/>
<polygon fill="#000000" stroke="#000000" points="3597.8842,-238.5001 3587.8842,-242 3597.8842,-245.5001 3597.8842,-238.5001"/>
</g>
<!-- NavbarComponent -->
<g id="node7" class="node">
<title>NavbarComponent</title>
<polygon fill="#ffffb3" stroke="#000000" points="5747.0297,-187 5624.9703,-187 5624.9703,-151 5747.0297,-151 5747.0297,-187"/>
<text text-anchor="middle" x="5686" y="-164.8" font-family="Times,serif" font-size="14.00" fill="#000000">NavbarComponent</text>
</g>
<!-- NavbarComponent&#45;&gt;AppModule -->
<g id="edge8" class="edge">
<title>NavbarComponent&#45;&gt;AppModule</title>
<path fill="none" stroke="#000000" d="M5686,-187.2843C5686,-208.3211 5686,-240 5686,-240 5686,-240 3597.7878,-240 3597.7878,-240"/>
<polygon fill="#000000" stroke="#000000" points="3597.7878,-236.5001 3587.7878,-240 3597.7877,-243.5001 3597.7878,-236.5001"/>
</g>
<!-- PiEntryComponent -->
<g id="node8" class="node">
<title>PiEntryComponent</title>
<polygon fill="#ffffb3" stroke="#000000" points="5607.1094,-187 5482.8906,-187 5482.8906,-151 5607.1094,-151 5607.1094,-187"/>
<text text-anchor="middle" x="5545" y="-164.8" font-family="Times,serif" font-size="14.00" fill="#000000">PiEntryComponent</text>
</g>
<!-- PiEntryComponent&#45;&gt;AppModule -->
<g id="edge9" class="edge">
<title>PiEntryComponent&#45;&gt;AppModule</title>
<path fill="none" stroke="#000000" d="M5545,-187.1289C5545,-207.5724 5545,-238 5545,-238 5545,-238 3597.752,-238 3597.752,-238"/>
<polygon fill="#000000" stroke="#000000" points="3597.752,-234.5001 3587.752,-238 3597.7519,-241.5001 3597.752,-234.5001"/>
</g>
<!-- PiSearchComponent -->
<g id="node9" class="node">
<title>PiSearchComponent</title>
<polygon fill="#ffffb3" stroke="#000000" points="5464.5926,-187 5333.4074,-187 5333.4074,-151 5464.5926,-151 5464.5926,-187"/>
<text text-anchor="middle" x="5399" y="-164.8" font-family="Times,serif" font-size="14.00" fill="#000000">PiSearchComponent</text>
</g>
<!-- PiSearchComponent&#45;&gt;AppModule -->
<g id="edge10" class="edge">
<title>PiSearchComponent&#45;&gt;AppModule</title>
<path fill="none" stroke="#000000" d="M5399,-187.308C5399,-207.1455 5399,-236 5399,-236 5399,-236 3597.7412,-236 3597.7412,-236"/>
<polygon fill="#000000" stroke="#000000" points="3597.7413,-232.5001 3587.7412,-236 3597.7412,-239.5001 3597.7413,-232.5001"/>
</g>
<!-- PiSelectComponent -->
<g id="node10" class="node">
<title>PiSelectComponent</title>
<polygon fill="#ffffb3" stroke="#000000" points="5315.7134,-187 5188.2866,-187 5188.2866,-151 5315.7134,-151 5315.7134,-187"/>
<text text-anchor="middle" x="5252" y="-164.8" font-family="Times,serif" font-size="14.00" fill="#000000">PiSelectComponent</text>
</g>
<!-- PiSelectComponent&#45;&gt;AppModule -->
<g id="edge11" class="edge">
<title>PiSelectComponent&#45;&gt;AppModule</title>
<path fill="none" stroke="#000000" d="M5252,-187.1061C5252,-206.3391 5252,-234 5252,-234 5252,-234 3597.7474,-234 3597.7474,-234"/>
<polygon fill="#000000" stroke="#000000" points="3597.7474,-230.5001 3587.7474,-234 3597.7473,-237.5001 3597.7474,-230.5001"/>
</g>
<!-- PlannedObservingComponent -->
<g id="node11" class="node">
<title>PlannedObservingComponent</title>
<polygon fill="#ffffb3" stroke="#000000" points="5170.252,-187 4985.748,-187 4985.748,-151 5170.252,-151 5170.252,-187"/>
<text text-anchor="middle" x="5078" y="-164.8" font-family="Times,serif" font-size="14.00" fill="#000000">PlannedObservingComponent</text>
</g>
<!-- PlannedObservingComponent&#45;&gt;AppModule -->
<g id="edge12" class="edge">
<title>PlannedObservingComponent&#45;&gt;AppModule</title>
<path fill="none" stroke="#000000" d="M5078,-187.1686C5078,-206.0898 5078,-233 5078,-233 5078,-233 3597.7718,-233 3597.7718,-233"/>
<polygon fill="#000000" stroke="#000000" points="3597.7719,-229.5001 3587.7718,-233 3597.7718,-236.5001 3597.7719,-229.5001"/>
</g>
<!-- ProjectComponent -->
<g id="node12" class="node">
<title>ProjectComponent</title>
<polygon fill="#ffffb3" stroke="#000000" points="4967.486,-187 4846.514,-187 4846.514,-151 4967.486,-151 4967.486,-187"/>
<text text-anchor="middle" x="4907" y="-164.8" font-family="Times,serif" font-size="14.00" fill="#000000">ProjectComponent</text>
</g>
<!-- ProjectComponent&#45;&gt;AppModule -->
<g id="edge13" class="edge">
<title>ProjectComponent&#45;&gt;AppModule</title>
<path fill="none" stroke="#000000" d="M4907,-187.2667C4907,-205.5552 4907,-231 4907,-231 4907,-231 3597.849,-231 3597.849,-231"/>
<polygon fill="#000000" stroke="#000000" points="3597.8491,-227.5001 3587.849,-231 3597.849,-234.5001 3597.8491,-227.5001"/>
</g>
<!-- ProjectInfoComponent -->
<g id="node13" class="node">
<title>ProjectInfoComponent</title>
<polygon fill="#ffffb3" stroke="#000000" points="4828.3075,-187 4683.6925,-187 4683.6925,-151 4828.3075,-151 4828.3075,-187"/>
<text text-anchor="middle" x="4756" y="-164.8" font-family="Times,serif" font-size="14.00" fill="#000000">ProjectInfoComponent</text>
</g>
<!-- ProjectInfoComponent&#45;&gt;AppModule -->
<g id="edge14" class="edge">
<title>ProjectInfoComponent&#45;&gt;AppModule</title>
<path fill="none" stroke="#000000" d="M4756,-187.002C4756,-204.6754 4756,-229 4756,-229 4756,-229 3598.0023,-229 3598.0023,-229"/>
<polygon fill="#000000" stroke="#000000" points="3598.0024,-225.5001 3588.0023,-229 3598.0023,-232.5001 3598.0024,-225.5001"/>
</g>
<!-- ProposalComponent -->
<g id="node14" class="node">
<title>ProposalComponent</title>
<polygon fill="#ffffb3" stroke="#000000" points="4666.3258,-187 4535.6742,-187 4535.6742,-151 4666.3258,-151 4666.3258,-187"/>
<text text-anchor="middle" x="4601" y="-164.8" font-family="Times,serif" font-size="14.00" fill="#000000">ProposalComponent</text>
</g>
<!-- ProposalComponent&#45;&gt;AppModule -->
<g id="edge15" class="edge">
<title>ProposalComponent&#45;&gt;AppModule</title>
<path fill="none" stroke="#000000" d="M4601,-187.0336C4601,-204.0597 4601,-227 4601,-227 4601,-227 3597.6822,-227 3597.6822,-227"/>
<polygon fill="#000000" stroke="#000000" points="3597.6822,-223.5001 3587.6822,-227 3597.6822,-230.5001 3597.6822,-223.5001"/>
</g>
<!-- RefinePanelComponent -->
<g id="node15" class="node">
<title>RefinePanelComponent</title>
<polygon fill="#ffffb3" stroke="#000000" points="4517.752,-187 4368.248,-187 4368.248,-151 4517.752,-151 4517.752,-187"/>
<text text-anchor="middle" x="4443" y="-164.8" font-family="Times,serif" font-size="14.00" fill="#000000">RefinePanelComponent</text>
</g>
<!-- RefinePanelComponent&#45;&gt;AppModule -->
<g id="edge16" class="edge">
<title>RefinePanelComponent&#45;&gt;AppModule</title>
<path fill="none" stroke="#000000" d="M4443,-187.027C4443,-203.3976 4443,-225 4443,-225 4443,-225 3597.7626,-225 3597.7626,-225"/>
<polygon fill="#000000" stroke="#000000" points="3597.7627,-221.5001 3587.7626,-225 3597.7626,-228.5001 3597.7627,-221.5001"/>
</g>
<!-- ResultsTableComponent -->
<g id="node16" class="node">
<title>ResultsTableComponent</title>
<polygon fill="#ffffb3" stroke="#000000" points="4350.427,-187 4195.573,-187 4195.573,-151 4350.427,-151 4350.427,-187"/>
<text text-anchor="middle" x="4273" y="-164.8" font-family="Times,serif" font-size="14.00" fill="#000000">ResultsTableComponent</text>
</g>
<!-- ResultsTableComponent&#45;&gt;AppModule -->
<g id="edge17" class="edge">
<title>ResultsTableComponent&#45;&gt;AppModule</title>
<path fill="none" stroke="#000000" d="M4273,-187.0091C4273,-203.0494 4273,-224 4273,-224 4273,-224 3597.6978,-224 3597.6978,-224"/>
<polygon fill="#000000" stroke="#000000" points="3597.6979,-220.5001 3587.6978,-224 3597.6978,-227.5001 3597.6979,-220.5001"/>
</g>
<!-- SourceComponent -->
<g id="node17" class="node">
<title>SourceComponent</title>
<polygon fill="#ffffb3" stroke="#000000" points="4178.205,-187 4057.795,-187 4057.795,-151 4178.205,-151 4178.205,-187"/>
<text text-anchor="middle" x="4118" y="-164.8" font-family="Times,serif" font-size="14.00" fill="#000000">SourceComponent</text>
</g>
<!-- SourceComponent&#45;&gt;AppModule -->
<g id="edge18" class="edge">
<title>SourceComponent&#45;&gt;AppModule</title>
<path fill="none" stroke="#000000" d="M4118,-187.2396C4118,-202.5706 4118,-222 4118,-222 4118,-222 3598.0605,-222 3598.0605,-222"/>
<polygon fill="#000000" stroke="#000000" points="3598.0606,-218.5001 3588.0605,-222 3598.0605,-225.5001 3598.0606,-218.5001"/>
</g>
<!-- SourceExpectedPropertiesComponent -->
<g id="node18" class="node">
<title>SourceExpectedPropertiesComponent</title>
<polygon fill="#ffffb3" stroke="#000000" points="4039.5506,-187 3810.4494,-187 3810.4494,-151 4039.5506,-151 4039.5506,-187"/>
<text text-anchor="middle" x="3925" y="-164.8" font-family="Times,serif" font-size="14.00" fill="#000000">SourceExpectedPropertiesComponent</text>
</g>
<!-- SourceExpectedPropertiesComponent&#45;&gt;AppModule -->
<g id="edge19" class="edge">
<title>SourceExpectedPropertiesComponent&#45;&gt;AppModule</title>
<path fill="none" stroke="#000000" d="M3925,-187.1243C3925,-201.7832 3925,-220 3925,-220 3925,-220 3598.0077,-220 3598.0077,-220"/>
<polygon fill="#000000" stroke="#000000" points="3598.0077,-216.5001 3588.0077,-220 3598.0077,-223.5001 3598.0077,-216.5001"/>
</g>
<!-- SpacialImageComponent -->
<g id="node19" class="node">
<title>SpacialImageComponent</title>
<polygon fill="#ffffb3" stroke="#000000" points="3792.5211,-187 3635.4789,-187 3635.4789,-151 3792.5211,-151 3792.5211,-187"/>
<text text-anchor="middle" x="3714" y="-164.8" font-family="Times,serif" font-size="14.00" fill="#000000">SpacialImageComponent</text>
</g>
<!-- SpacialImageComponent&#45;&gt;AppModule -->
<g id="edge20" class="edge">
<title>SpacialImageComponent&#45;&gt;AppModule</title>
<path fill="none" stroke="#000000" d="M3714,-187.2458C3714,-201.1772 3714,-218 3714,-218 3714,-218 3597.9601,-218 3597.9601,-218"/>
<polygon fill="#000000" stroke="#000000" points="3597.9602,-214.5001 3587.9601,-218 3597.9601,-221.5001 3597.9602,-214.5001"/>
</g>
<!-- DelayTooltipDirective -->
<g id="node20" class="node">
<title>DelayTooltipDirective</title>
<polygon fill="#ffffb3" stroke="#000000" points="3617.2338,-187 3474.7662,-187 3474.7662,-151 3617.2338,-151 3617.2338,-187"/>
<text text-anchor="middle" x="3546" y="-164.8" font-family="Times,serif" font-size="14.00" fill="#000000">DelayTooltipDirective</text>
</g>
<!-- DelayTooltipDirective&#45;&gt;AppModule -->
<g id="edge21" class="edge">
<title>DelayTooltipDirective&#45;&gt;AppModule</title>
<path fill="none" stroke="#000000" d="M3546,-187.1061C3546,-187.1061 3546,-205.991 3546,-205.991"/>
<polygon fill="#000000" stroke="#000000" points="3542.5001,-205.9909 3546,-215.991 3549.5001,-205.991 3542.5001,-205.9909"/>
</g>
<!-- DegreesPipe -->
<g id="node21" class="node">
<title>DegreesPipe</title>
<polygon fill="#ffffb3" stroke="#000000" points="3456.2438,-187 3369.7562,-187 3369.7562,-151 3456.2438,-151 3456.2438,-187"/>
<text text-anchor="middle" x="3413" y="-164.8" font-family="Times,serif" font-size="14.00" fill="#000000">DegreesPipe</text>
</g>
<!-- DegreesPipe&#45;&gt;AppModule -->
<g id="edge22" class="edge">
<title>DegreesPipe&#45;&gt;AppModule</title>
<path fill="none" stroke="#000000" d="M3413,-187.2458C3413,-201.1772 3413,-218 3413,-218 3413,-218 3494.2829,-218 3494.2829,-218"/>
<polygon fill="#000000" stroke="#000000" points="3494.2829,-221.5001 3504.2829,-218 3494.2828,-214.5001 3494.2829,-221.5001"/>
</g>
<!-- SexagesimalPipe -->
<g id="node22" class="node">
<title>SexagesimalPipe</title>
<polygon fill="#ffffb3" stroke="#000000" points="3351.6458,-187 3240.3542,-187 3240.3542,-151 3351.6458,-151 3351.6458,-187"/>
<text text-anchor="middle" x="3296" y="-164.8" font-family="Times,serif" font-size="14.00" fill="#000000">SexagesimalPipe</text>
</g>
<!-- SexagesimalPipe&#45;&gt;AppModule -->
<g id="edge23" class="edge">
<title>SexagesimalPipe&#45;&gt;AppModule</title>
<path fill="none" stroke="#000000" d="M3296,-187.1243C3296,-201.7832 3296,-220 3296,-220 3296,-220 3494.1556,-220 3494.1556,-220"/>
<polygon fill="#000000" stroke="#000000" points="3494.1557,-223.5001 3504.1556,-220 3494.1556,-216.5001 3494.1557,-223.5001"/>
</g>
<!-- ScienceGoalComponent -->
<g id="node23" class="node">
<title>ScienceGoalComponent</title>
<polygon fill="#ffffb3" stroke="#000000" points="3222.0758,-187 3069.9242,-187 3069.9242,-151 3222.0758,-151 3222.0758,-187"/>
<text text-anchor="middle" x="3146" y="-164.8" font-family="Times,serif" font-size="14.00" fill="#000000">ScienceGoalComponent</text>
</g>
<!-- ScienceGoalComponent&#45;&gt;AppModule -->
<g id="edge24" class="edge">
<title>ScienceGoalComponent&#45;&gt;AppModule</title>
<path fill="none" stroke="#000000" d="M3146,-187.2396C3146,-202.5706 3146,-222 3146,-222 3146,-222 3494.325,-222 3494.325,-222"/>
<polygon fill="#000000" stroke="#000000" points="3494.325,-225.5001 3504.325,-222 3494.3249,-218.5001 3494.325,-225.5001"/>
</g>
<!-- GeneralComponent -->
<g id="node24" class="node">
<title>GeneralComponent</title>
<polygon fill="#ffffb3" stroke="#000000" points="3051.6345,-187 2926.3655,-187 2926.3655,-151 3051.6345,-151 3051.6345,-187"/>
<text text-anchor="middle" x="2989" y="-164.8" font-family="Times,serif" font-size="14.00" fill="#000000">GeneralComponent</text>
</g>
<!-- GeneralComponent&#45;&gt;AppModule -->
<g id="edge25" class="edge">
<title>GeneralComponent&#45;&gt;AppModule</title>
<path fill="none" stroke="#000000" d="M2989,-187.0091C2989,-203.0494 2989,-224 2989,-224 2989,-224 3494.1345,-224 3494.1345,-224"/>
<polygon fill="#000000" stroke="#000000" points="3494.1345,-227.5001 3504.1345,-224 3494.1344,-220.5001 3494.1345,-227.5001"/>
</g>
<!-- SpectralSetupComponent -->
<g id="node25" class="node">
<title>SpectralSetupComponent</title>
<polygon fill="#ffffb3" stroke="#000000" points="2908.5884,-187 2749.4116,-187 2749.4116,-151 2908.5884,-151 2908.5884,-187"/>
<text text-anchor="middle" x="2829" y="-164.8" font-family="Times,serif" font-size="14.00" fill="#000000">SpectralSetupComponent</text>
</g>
<!-- SpectralSetupComponent&#45;&gt;AppModule -->
<g id="edge26" class="edge">
<title>SpectralSetupComponent&#45;&gt;AppModule</title>
<path fill="none" stroke="#000000" d="M2829,-187.027C2829,-203.3976 2829,-225 2829,-225 2829,-225 3494.0889,-225 3494.0889,-225"/>
<polygon fill="#000000" stroke="#000000" points="3494.089,-228.5001 3504.0889,-225 3494.0889,-221.5001 3494.089,-228.5001"/>
</g>
<!-- CalibrationSetupComponent -->
<g id="node26" class="node">
<title>CalibrationSetupComponent</title>
<polygon fill="#ffffb3" stroke="#000000" points="2731.2091,-187 2554.7909,-187 2554.7909,-151 2731.2091,-151 2731.2091,-187"/>
<text text-anchor="middle" x="2643" y="-164.8" font-family="Times,serif" font-size="14.00" fill="#000000">CalibrationSetupComponent</text>
</g>
<!-- CalibrationSetupComponent&#45;&gt;AppModule -->
<g id="edge27" class="edge">
<title>CalibrationSetupComponent&#45;&gt;AppModule</title>
<path fill="none" stroke="#000000" d="M2643,-187.0336C2643,-204.0597 2643,-227 2643,-227 2643,-227 3494.2575,-227 3494.2575,-227"/>
<polygon fill="#000000" stroke="#000000" points="3494.2575,-230.5001 3504.2575,-227 3494.2574,-223.5001 3494.2575,-230.5001"/>
</g>
<!-- ControlPerformanceComponent -->
<g id="node27" class="node">
<title>ControlPerformanceComponent</title>
<polygon fill="#ffffb3" stroke="#000000" points="2536.6246,-187 2341.3754,-187 2341.3754,-151 2536.6246,-151 2536.6246,-187"/>
<text text-anchor="middle" x="2439" y="-164.8" font-family="Times,serif" font-size="14.00" fill="#000000">ControlPerformanceComponent</text>
</g>
<!-- ControlPerformanceComponent&#45;&gt;AppModule -->
<g id="edge28" class="edge">
<title>ControlPerformanceComponent&#45;&gt;AppModule</title>
<path fill="none" stroke="#000000" d="M2439,-187.002C2439,-204.6754 2439,-229 2439,-229 2439,-229 3494.291,-229 3494.291,-229"/>
<polygon fill="#000000" stroke="#000000" points="3494.291,-232.5001 3504.291,-229 3494.2909,-225.5001 3494.291,-232.5001"/>
</g>
<!-- TechnicalJustificationComponent -->
<g id="node28" class="node">
<title>TechnicalJustificationComponent</title>
<polygon fill="#ffffb3" stroke="#000000" points="2323.4566,-187 2118.5434,-187 2118.5434,-151 2323.4566,-151 2323.4566,-187"/>
<text text-anchor="middle" x="2221" y="-164.8" font-family="Times,serif" font-size="14.00" fill="#000000">TechnicalJustificationComponent</text>
</g>
<!-- TechnicalJustificationComponent&#45;&gt;AppModule -->
<g id="edge29" class="edge">
<title>TechnicalJustificationComponent&#45;&gt;AppModule</title>
<path fill="none" stroke="#000000" d="M2221,-187.2667C2221,-205.5552 2221,-231 2221,-231 2221,-231 3494.157,-231 3494.157,-231"/>
<polygon fill="#000000" stroke="#000000" points="3494.157,-234.5001 3504.157,-231 3494.1569,-227.5001 3494.157,-234.5001"/>
</g>
<!-- VisualisationControlComponent -->
<g id="node29" class="node">
<title>VisualisationControlComponent</title>
<polygon fill="#ffffb3" stroke="#000000" points="2100.9888,-187 1903.0112,-187 1903.0112,-151 2100.9888,-151 2100.9888,-187"/>
<text text-anchor="middle" x="2002" y="-164.8" font-family="Times,serif" font-size="14.00" fill="#000000">VisualisationControlComponent</text>
</g>
<!-- VisualisationControlComponent&#45;&gt;AppModule -->
<g id="edge30" class="edge">
<title>VisualisationControlComponent&#45;&gt;AppModule</title>
<path fill="none" stroke="#000000" d="M2002,-187.1686C2002,-206.0898 2002,-233 2002,-233 2002,-233 3494.3022,-233 3494.3022,-233"/>
<polygon fill="#000000" stroke="#000000" points="3494.3023,-236.5001 3504.3022,-233 3494.3022,-229.5001 3494.3023,-236.5001"/>
</g>
<!-- TypeComponent -->
<g id="node30" class="node">
<title>TypeComponent</title>
<polygon fill="#ffffb3" stroke="#000000" points="1885.0996,-187 1774.9004,-187 1774.9004,-151 1885.0996,-151 1885.0996,-187"/>
<text text-anchor="middle" x="1830" y="-164.8" font-family="Times,serif" font-size="14.00" fill="#000000">TypeComponent</text>
</g>
<!-- TypeComponent&#45;&gt;AppModule -->
<g id="edge31" class="edge">
<title>TypeComponent&#45;&gt;AppModule</title>
<path fill="none" stroke="#000000" d="M1830,-187.1061C1830,-206.3391 1830,-234 1830,-234 1830,-234 3494.0079,-234 3494.0079,-234"/>
<polygon fill="#000000" stroke="#000000" points="3494.008,-237.5001 3504.0079,-234 3494.0079,-230.5001 3494.008,-237.5001"/>
</g>
<!-- SelectableComponent -->
<g id="node31" class="node">
<title>SelectableComponent</title>
<polygon fill="#ffffb3" stroke="#000000" points="1757.3599,-187 1618.6401,-187 1618.6401,-151 1757.3599,-151 1757.3599,-187"/>
<text text-anchor="middle" x="1688" y="-164.8" font-family="Times,serif" font-size="14.00" fill="#000000">SelectableComponent</text>
</g>
<!-- SelectableComponent&#45;&gt;AppModule -->
<g id="edge32" class="edge">
<title>SelectableComponent&#45;&gt;AppModule</title>
<path fill="none" stroke="#000000" d="M1688,-187.308C1688,-207.1455 1688,-236 1688,-236 1688,-236 3494.1461,-236 3494.1461,-236"/>
<polygon fill="#000000" stroke="#000000" points="3494.1462,-239.5001 3504.1461,-236 3494.1461,-232.5001 3494.1462,-239.5001"/>
</g>
<!-- FccIndividualComponent -->
<g id="node32" class="node">
<title>FccIndividualComponent</title>
<polygon fill="#ffffb3" stroke="#000000" points="1600.5912,-187 1441.4088,-187 1441.4088,-151 1600.5912,-151 1600.5912,-187"/>
<text text-anchor="middle" x="1521" y="-164.8" font-family="Times,serif" font-size="14.00" fill="#000000">FccIndividualComponent</text>
</g>
<!-- FccIndividualComponent&#45;&gt;AppModule -->
<g id="edge33" class="edge">
<title>FccIndividualComponent&#45;&gt;AppModule</title>
<path fill="none" stroke="#000000" d="M1521,-187.1289C1521,-207.5724 1521,-238 1521,-238 1521,-238 3494.1698,-238 3494.1698,-238"/>
<polygon fill="#000000" stroke="#000000" points="3494.1699,-241.5001 3504.1698,-238 3494.1698,-234.5001 3494.1699,-241.5001"/>
</g>
<!-- FccRectangularComponent -->
<g id="node33" class="node">
<title>FccRectangularComponent</title>
<polygon fill="#ffffb3" stroke="#000000" points="1423.6811,-187 1254.3189,-187 1254.3189,-151 1423.6811,-151 1423.6811,-187"/>
<text text-anchor="middle" x="1339" y="-164.8" font-family="Times,serif" font-size="14.00" fill="#000000">FccRectangularComponent</text>
</g>
<!-- FccRectangularComponent&#45;&gt;AppModule -->
<g id="edge34" class="edge">
<title>FccRectangularComponent&#45;&gt;AppModule</title>
<path fill="none" stroke="#000000" d="M1339,-187.2843C1339,-208.3211 1339,-240 1339,-240 1339,-240 3493.883,-240 3493.883,-240"/>
<polygon fill="#000000" stroke="#000000" points="3493.883,-243.5001 3503.883,-240 3493.8829,-236.5001 3493.883,-243.5001"/>
</g>
<!-- SystemSelectorComponent -->
<g id="node34" class="node">
<title>SystemSelectorComponent</title>
<polygon fill="#ffffb3" stroke="#000000" points="1236.4241,-187 1067.5759,-187 1067.5759,-151 1236.4241,-151 1236.4241,-187"/>
<text text-anchor="middle" x="1152" y="-164.8" font-family="Times,serif" font-size="14.00" fill="#000000">SystemSelectorComponent</text>
</g>
<!-- SystemSelectorComponent&#45;&gt;AppModule -->
<g id="edge35" class="edge">
<title>SystemSelectorComponent&#45;&gt;AppModule</title>
<path fill="none" stroke="#000000" d="M1152,-187.0449C1152,-208.6623 1152,-242 1152,-242 1152,-242 3494.1947,-242 3494.1947,-242"/>
<polygon fill="#000000" stroke="#000000" points="3494.1948,-245.5001 3504.1947,-242 3494.1947,-238.5001 3494.1948,-245.5001"/>
</g>
<!-- VisualisationViewerComponent -->
<g id="node35" class="node">
<title>VisualisationViewerComponent</title>
<polygon fill="#ffffb3" stroke="#000000" points="1050.4044,-187 853.5956,-187 853.5956,-151 1050.4044,-151 1050.4044,-187"/>
<text text-anchor="middle" x="952" y="-164.8" font-family="Times,serif" font-size="14.00" fill="#000000">VisualisationViewerComponent</text>
</g>
<!-- VisualisationViewerComponent&#45;&gt;AppModule -->
<g id="edge36" class="edge">
<title>VisualisationViewerComponent&#45;&gt;AppModule</title>
<path fill="none" stroke="#000000" d="M952,-187.2921C952,-209.2057 952,-243 952,-243 952,-243 3494.2038,-243 3494.2038,-243"/>
<polygon fill="#000000" stroke="#000000" points="3494.2038,-246.5001 3504.2038,-243 3494.2038,-239.5001 3494.2038,-246.5001"/>
</g>
<!-- AppComponent  -->
<g id="node39" class="node">
<title>AppComponent </title>
<polygon fill="#80b1d3" stroke="#000000" points="3600.439,-317 3491.561,-317 3491.561,-281 3600.439,-281 3600.439,-317"/>
<text text-anchor="middle" x="3546" y="-294.8" font-family="Times,serif" font-size="14.00" fill="#000000">AppComponent </text>
</g>
<!-- AppModule&#45;&gt;AppComponent  -->
<g id="edge38" class="edge">
<title>AppModule&#45;&gt;AppComponent </title>
<path fill="none" stroke="#000000" stroke-dasharray="1,5" d="M3546,-252.1061C3546,-252.1061 3546,-270.991 3546,-270.991"/>
<polygon fill="#000000" stroke="#000000" points="3542.5001,-270.9909 3546,-280.991 3549.5001,-270.991 3542.5001,-270.9909"/>
</g>
<!-- NgbTooltipConfig -->
<g id="node37" class="node">
<title>NgbTooltipConfig</title>
<ellipse fill="#fdb462" stroke="#000000" cx="6713" cy="-104" rx="82.8495" ry="18"/>
<text text-anchor="middle" x="6713" y="-99.8" font-family="Times,serif" font-size="14.00" fill="#000000">NgbTooltipConfig</text>
</g>
<!-- NgbTooltipConfig&#45;&gt;AppComponent -->
<g id="edge2" class="edge">
<title>NgbTooltipConfig&#45;&gt;AppComponent</title>
<path fill="none" stroke="#000000" d="M6743,-121.078C6743,-121.078 6743,-140.8993 6743,-140.8993"/>
<polygon fill="#000000" stroke="#000000" points="6739.5001,-140.8992 6743,-150.8993 6746.5001,-140.8993 6739.5001,-140.8992"/>
</g>
<!-- AppRoutingModule -->
<g id="node38" class="node">
<title>AppRoutingModule</title>
<polygon fill="#8dd3c7" stroke="#000000" points="830.2744,-187 827.2744,-191 806.2744,-191 803.2744,-187 701.7256,-187 701.7256,-151 830.2744,-151 830.2744,-187"/>
<text text-anchor="middle" x="766" y="-164.8" font-family="Times,serif" font-size="14.00" fill="#000000">AppRoutingModule</text>
</g>
<!-- AppRoutingModule&#45;&gt;AppModule -->
<g id="edge37" class="edge">
<title>AppRoutingModule&#45;&gt;AppModule</title>
<path fill="none" stroke="#000000" d="M766,-187.0109C766,-209.4852 766,-245 766,-245 766,-245 3494.2707,-245 3494.2707,-245"/>
<polygon fill="#000000" stroke="#000000" points="3494.2708,-248.5001 3504.2707,-245 3494.2707,-241.5001 3494.2708,-248.5001"/>
</g>
<!-- PrimaryInvestigatorService -->
<g id="node40" class="node">
<title>PrimaryInvestigatorService</title>
<ellipse fill="#fdb462" stroke="#000000" cx="561" cy="-169" rx="117.449" ry="18"/>
<text text-anchor="middle" x="561" y="-164.8" font-family="Times,serif" font-size="14.00" fill="#000000">PrimaryInvestigatorService</text>
</g>
<!-- PrimaryInvestigatorService&#45;&gt;AppModule -->
<g id="edge39" class="edge">
<title>PrimaryInvestigatorService&#45;&gt;AppModule</title>
<path fill="none" stroke="#000000" d="M561,-187.0908C561,-210.1328 561,-247 561,-247 561,-247 3494.0885,-247 3494.0885,-247"/>
<polygon fill="#000000" stroke="#000000" points="3494.0885,-250.5001 3504.0885,-247 3494.0884,-243.5001 3494.0885,-250.5001"/>
</g>
<!-- ScienceGoalPanelService -->
<g id="node41" class="node">
<title>ScienceGoalPanelService</title>
<ellipse fill="#fdb462" stroke="#000000" cx="316" cy="-169" rx="110.4871" ry="18"/>
<text text-anchor="middle" x="316" y="-164.8" font-family="Times,serif" font-size="14.00" fill="#000000">ScienceGoalPanelService</text>
</g>
<!-- ScienceGoalPanelService&#45;&gt;AppModule -->
<g id="edge40" class="edge">
<title>ScienceGoalPanelService&#45;&gt;AppModule</title>
<path fill="none" stroke="#000000" d="M316,-187.1532C316,-210.7566 316,-249 316,-249 316,-249 3494.2764,-249 3494.2764,-249"/>
<polygon fill="#000000" stroke="#000000" points="3494.2764,-252.5001 3504.2764,-249 3494.2763,-245.5001 3494.2764,-252.5001"/>
</g>
<!-- FieldSetupService -->
<g id="node42" class="node">
<title>FieldSetupService</title>
<ellipse fill="#fdb462" stroke="#000000" cx="106" cy="-169" rx="81.677" ry="18"/>
<text text-anchor="middle" x="106" y="-164.8" font-family="Times,serif" font-size="14.00" fill="#000000">FieldSetupService</text>
</g>
<!-- FieldSetupService&#45;&gt;AppModule -->
<g id="edge41" class="edge">
<title>FieldSetupService&#45;&gt;AppModule</title>
<path fill="none" stroke="#000000" d="M106,-187.1985C106,-211.3563 106,-251 106,-251 106,-251 3494.0544,-251 3494.0544,-251"/>
<polygon fill="#000000" stroke="#000000" points="3494.0544,-254.5001 3504.0544,-251 3494.0543,-247.5001 3494.0544,-254.5001"/>
</g>
</g>
</svg>
