<?xml version="1.0" encoding="UTF-8" standalone="no"?>
<!DOCTYPE svg PUBLIC "-//W3C//DTD SVG 1.1//EN"
 "http://www.w3.org/Graphics/SVG/1.1/DTD/svg11.dtd">
<!-- Generated by graphviz version 2.40.1 (20161225.0304)
 -->
<!-- Title: dependencies Pages: 1 -->
<svg width="6828pt" height="284pt"
 viewBox="0.00 0.00 6828.00 284.00" xmlns="http://www.w3.org/2000/svg" xmlns:xlink="http://www.w3.org/1999/xlink">
<g id="graph0" class="graph" transform="scale(1 1) rotate(0) translate(4 280)">
<title>dependencies</title>
<polygon fill="#ffffff" stroke="transparent" points="-4,4 -4,-280 6824,-280 6824,4 -4,4"/>
<text text-anchor="start" x="3389.0091" y="-42.4" font-family="sans-serif" font-weight="bold" font-size="14.00" fill="#000000">Legend</text>
<polygon fill="#ffffb3" stroke="transparent" points="3176,-10 3176,-30 3196,-30 3196,-10 3176,-10"/>
<text text-anchor="start" x="3199.629" y="-15.4" font-family="sans-serif" font-size="14.00" fill="#000000"> &#160;Declarations</text>
<polygon fill="#8dd3c7" stroke="transparent" points="3289,-10 3289,-30 3309,-30 3309,-10 3289,-10"/>
<text text-anchor="start" x="3312.7251" y="-15.4" font-family="sans-serif" font-size="14.00" fill="#000000"> &#160;Module</text>
<polygon fill="#80b1d3" stroke="transparent" points="3375,-10 3375,-30 3395,-30 3395,-10 3375,-10"/>
<text text-anchor="start" x="3398.7812" y="-15.4" font-family="sans-serif" font-size="14.00" fill="#000000"> &#160;Bootstrap</text>
<polygon fill="#fdb462" stroke="transparent" points="3472,-10 3472,-30 3492,-30 3492,-10 3472,-10"/>
<text text-anchor="start" x="3495.6732" y="-15.4" font-family="sans-serif" font-size="14.00" fill="#000000"> &#160;Providers</text>
<polygon fill="#fb8072" stroke="transparent" points="3568,-10 3568,-30 3588,-30 3588,-10 3568,-10"/>
<text text-anchor="start" x="3591.7258" y="-15.4" font-family="sans-serif" font-size="14.00" fill="#000000"> &#160;Exports</text>
<g id="clust1" class="cluster">
<title>cluster_AppModule</title>
<polygon fill="none" stroke="#000000" stroke-dasharray="1,5" points="8,-70 8,-268 6812,-268 6812,-70 8,-70"/>
</g>
<g id="clust2" class="cluster">
<title>cluster_AppModule_declarations</title>
<polygon fill="none" stroke="#000000" points="846,-78 846,-130 6804,-130 6804,-78 846,-78"/>
</g>
<g id="clust38" class="cluster">
<title>cluster_AppModule_imports</title>
<polygon fill="none" stroke="#000000" points="694,-78 694,-130 838,-130 838,-78 694,-78"/>
</g>
<g id="clust40" class="cluster">
<title>cluster_AppModule_bootstrap</title>
<polygon fill="none" stroke="#000000" points="3484,-208 3484,-260 3608,-260 3608,-208 3484,-208"/>
</g>
<g id="clust41" class="cluster">
<title>cluster_AppModule_providers</title>
<polygon fill="none" stroke="#000000" points="16,-78 16,-130 686,-130 686,-78 16,-78"/>
</g>
<!-- AppComponent -->
<g id="node1" class="node">
<title>AppComponent</title>
<polygon fill="#ffffb3" stroke="#000000" points="6795.9399,-122 6690.0601,-122 6690.0601,-86 6795.9399,-86 6795.9399,-122"/>
<text text-anchor="middle" x="6743" y="-99.8" font-family="Times,serif" font-size="14.00" fill="#000000">AppComponent</text>
</g>
<!-- AppModule -->
<g id="node36" class="node">
<title>AppModule</title>
<polygon fill="#8dd3c7" stroke="#000000" points="3587.6571,-187 3584.6571,-191 3563.6571,-191 3560.6571,-187 3504.3429,-187 3504.3429,-151 3587.6571,-151 3587.6571,-187"/>
<text text-anchor="middle" x="3546" y="-164.8" font-family="Times,serif" font-size="14.00" fill="#000000">AppModule</text>
</g>
<!-- AppComponent&#45;&gt;AppModule -->
<g id="edge1" class="edge">
<title>AppComponent&#45;&gt;AppModule</title>
<path fill="none" stroke="#000000" d="M6743,-122.1985C6743,-146.3563 6743,-186 6743,-186 6743,-186 3597.886,-186 3597.886,-186"/>
<polygon fill="#000000" stroke="#000000" points="3597.886,-182.5001 3587.886,-186 3597.8859,-189.5001 3597.886,-182.5001"/>
</g>
<!-- FieldCenterCoordinatesComponent -->
<g id="node2" class="node">
<title>FieldCenterCoordinatesComponent</title>
<polygon fill="#ffffb3" stroke="#000000" points="6672.58,-122 6457.42,-122 6457.42,-86 6672.58,-86 6672.58,-122"/>
<text text-anchor="middle" x="6565" y="-99.8" font-family="Times,serif" font-size="14.00" fill="#000000">FieldCenterCoordinatesComponent</text>
</g>
<!-- FieldCenterCoordinatesComponent&#45;&gt;AppModule -->
<g id="edge2" class="edge">
<title>FieldCenterCoordinatesComponent&#45;&gt;AppModule</title>
<path fill="none" stroke="#000000" d="M6565,-122.1532C6565,-145.7566 6565,-184 6565,-184 6565,-184 3597.8145,-184 3597.8145,-184"/>
<polygon fill="#000000" stroke="#000000" points="3597.8145,-180.5001 3587.8145,-184 3597.8144,-187.5001 3597.8145,-180.5001"/>
</g>
<!-- FieldSetupComponent -->
<g id="node3" class="node">
<title>FieldSetupComponent</title>
<polygon fill="#ffffb3" stroke="#000000" points="6438.9986,-122 6297.0014,-122 6297.0014,-86 6438.9986,-86 6438.9986,-122"/>
<text text-anchor="middle" x="6368" y="-99.8" font-family="Times,serif" font-size="14.00" fill="#000000">FieldSetupComponent</text>
</g>
<!-- FieldSetupComponent&#45;&gt;AppModule -->
<g id="edge3" class="edge">
<title>FieldSetupComponent&#45;&gt;AppModule</title>
<path fill="none" stroke="#000000" d="M6368,-122.0908C6368,-145.1328 6368,-182 6368,-182 6368,-182 3597.8054,-182 3597.8054,-182"/>
<polygon fill="#000000" stroke="#000000" points="3597.8055,-178.5001 3587.8054,-182 3597.8054,-185.5001 3597.8055,-178.5001"/>
</g>
<!-- FovParametersComponent -->
<g id="node4" class="node">
<title>FovParametersComponent</title>
<polygon fill="#ffffb3" stroke="#000000" points="6278.8033,-122 6113.1967,-122 6113.1967,-86 6278.8033,-86 6278.8033,-122"/>
<text text-anchor="middle" x="6196" y="-99.8" font-family="Times,serif" font-size="14.00" fill="#000000">FovParametersComponent</text>
</g>
<!-- FovParametersComponent&#45;&gt;AppModule -->
<g id="edge4" class="edge">
<title>FovParametersComponent&#45;&gt;AppModule</title>
<path fill="none" stroke="#000000" d="M6196,-122.0109C6196,-144.4852 6196,-180 6196,-180 6196,-180 3597.8923,-180 3597.8923,-180"/>
<polygon fill="#000000" stroke="#000000" points="3597.8923,-176.5001 3587.8923,-180 3597.8923,-183.5001 3597.8923,-176.5001"/>
</g>
<!-- ImageQueryComponent -->
<g id="node5" class="node">
<title>ImageQueryComponent</title>
<polygon fill="#ffffb3" stroke="#000000" points="6095.7949,-122 5944.2051,-122 5944.2051,-86 6095.7949,-86 6095.7949,-122"/>
<text text-anchor="middle" x="6020" y="-99.8" font-family="Times,serif" font-size="14.00" fill="#000000">ImageQueryComponent</text>
</g>
<!-- ImageQueryComponent&#45;&gt;AppModule -->
<g id="edge5" class="edge">
<title>ImageQueryComponent&#45;&gt;AppModule</title>
<path fill="none" stroke="#000000" d="M6020,-122.2921C6020,-144.2057 6020,-178 6020,-178 6020,-178 3597.9028,-178 3597.9028,-178"/>
<polygon fill="#000000" stroke="#000000" points="3597.9029,-174.5001 3587.9028,-178 3597.9028,-181.5001 3597.9029,-174.5001"/>
</g>
<!-- ModularPanelComponent -->
<g id="node6" class="node">
<title>ModularPanelComponent</title>
<polygon fill="#ffffb3" stroke="#000000" points="5926.1456,-122 5765.8544,-122 5765.8544,-86 5926.1456,-86 5926.1456,-122"/>
<text text-anchor="middle" x="5846" y="-99.8" font-family="Times,serif" font-size="14.00" fill="#000000">ModularPanelComponent</text>
</g>
<!-- ModularPanelComponent&#45;&gt;AppModule -->
<g id="edge6" class="edge">
<title>ModularPanelComponent&#45;&gt;AppModule</title>
<path fill="none" stroke="#000000" d="M5846,-122.0449C5846,-143.6623 5846,-177 5846,-177 5846,-177 3597.8842,-177 3597.8842,-177"/>
<polygon fill="#000000" stroke="#000000" points="3597.8842,-173.5001 3587.8842,-177 3597.8842,-180.5001 3597.8842,-173.5001"/>
</g>
<!-- NavbarComponent -->
<g id="node7" class="node">
<title>NavbarComponent</title>
<polygon fill="#ffffb3" stroke="#000000" points="5747.0297,-122 5624.9703,-122 5624.9703,-86 5747.0297,-86 5747.0297,-122"/>
<text text-anchor="middle" x="5686" y="-99.8" font-family="Times,serif" font-size="14.00" fill="#000000">NavbarComponent</text>
</g>
<!-- NavbarComponent&#45;&gt;AppModule -->
<g id="edge7" class="edge">
<title>NavbarComponent&#45;&gt;AppModule</title>
<path fill="none" stroke="#000000" d="M5686,-122.2843C5686,-143.3211 5686,-175 5686,-175 5686,-175 3597.7878,-175 3597.7878,-175"/>
<polygon fill="#000000" stroke="#000000" points="3597.7878,-171.5001 3587.7878,-175 3597.7877,-178.5001 3597.7878,-171.5001"/>
</g>
<!-- PiEntryComponent -->
<g id="node8" class="node">
<title>PiEntryComponent</title>
<polygon fill="#ffffb3" stroke="#000000" points="5607.1094,-122 5482.8906,-122 5482.8906,-86 5607.1094,-86 5607.1094,-122"/>
<text text-anchor="middle" x="5545" y="-99.8" font-family="Times,serif" font-size="14.00" fill="#000000">PiEntryComponent</text>
</g>
<!-- PiEntryComponent&#45;&gt;AppModule -->
<g id="edge8" class="edge">
<title>PiEntryComponent&#45;&gt;AppModule</title>
<path fill="none" stroke="#000000" d="M5545,-122.1289C5545,-142.5724 5545,-173 5545,-173 5545,-173 3597.752,-173 3597.752,-173"/>
<polygon fill="#000000" stroke="#000000" points="3597.752,-169.5001 3587.752,-173 3597.7519,-176.5001 3597.752,-169.5001"/>
</g>
<!-- PiSearchComponent -->
<g id="node9" class="node">
<title>PiSearchComponent</title>
<polygon fill="#ffffb3" stroke="#000000" points="5464.5926,-122 5333.4074,-122 5333.4074,-86 5464.5926,-86 5464.5926,-122"/>
<text text-anchor="middle" x="5399" y="-99.8" font-family="Times,serif" font-size="14.00" fill="#000000">PiSearchComponent</text>
</g>
<!-- PiSearchComponent&#45;&gt;AppModule -->
<g id="edge9" class="edge">
<title>PiSearchComponent&#45;&gt;AppModule</title>
<path fill="none" stroke="#000000" d="M5399,-122.308C5399,-142.1455 5399,-171 5399,-171 5399,-171 3597.7412,-171 3597.7412,-171"/>
<polygon fill="#000000" stroke="#000000" points="3597.7413,-167.5001 3587.7412,-171 3597.7412,-174.5001 3597.7413,-167.5001"/>
</g>
<!-- PiSelectComponent -->
<g id="node10" class="node">
<title>PiSelectComponent</title>
<polygon fill="#ffffb3" stroke="#000000" points="5315.7134,-122 5188.2866,-122 5188.2866,-86 5315.7134,-86 5315.7134,-122"/>
<text text-anchor="middle" x="5252" y="-99.8" font-family="Times,serif" font-size="14.00" fill="#000000">PiSelectComponent</text>
</g>
<!-- PiSelectComponent&#45;&gt;AppModule -->
<g id="edge10" class="edge">
<title>PiSelectComponent&#45;&gt;AppModule</title>
<path fill="none" stroke="#000000" d="M5252,-122.1061C5252,-141.3391 5252,-169 5252,-169 5252,-169 3597.7474,-169 3597.7474,-169"/>
<polygon fill="#000000" stroke="#000000" points="3597.7474,-165.5001 3587.7474,-169 3597.7473,-172.5001 3597.7474,-165.5001"/>
</g>
<!-- PlannedObservingComponent -->
<g id="node11" class="node">
<title>PlannedObservingComponent</title>
<polygon fill="#ffffb3" stroke="#000000" points="5170.252,-122 4985.748,-122 4985.748,-86 5170.252,-86 5170.252,-122"/>
<text text-anchor="middle" x="5078" y="-99.8" font-family="Times,serif" font-size="14.00" fill="#000000">PlannedObservingComponent</text>
</g>
<!-- PlannedObservingComponent&#45;&gt;AppModule -->
<g id="edge11" class="edge">
<title>PlannedObservingComponent&#45;&gt;AppModule</title>
<path fill="none" stroke="#000000" d="M5078,-122.1686C5078,-141.0898 5078,-168 5078,-168 5078,-168 3597.7718,-168 3597.7718,-168"/>
<polygon fill="#000000" stroke="#000000" points="3597.7719,-164.5001 3587.7718,-168 3597.7718,-171.5001 3597.7719,-164.5001"/>
</g>
<!-- ProjectComponent -->
<g id="node12" class="node">
<title>ProjectComponent</title>
<polygon fill="#ffffb3" stroke="#000000" points="4967.486,-122 4846.514,-122 4846.514,-86 4967.486,-86 4967.486,-122"/>
<text text-anchor="middle" x="4907" y="-99.8" font-family="Times,serif" font-size="14.00" fill="#000000">ProjectComponent</text>
</g>
<!-- ProjectComponent&#45;&gt;AppModule -->
<g id="edge12" class="edge">
<title>ProjectComponent&#45;&gt;AppModule</title>
<path fill="none" stroke="#000000" d="M4907,-122.2667C4907,-140.5552 4907,-166 4907,-166 4907,-166 3597.849,-166 3597.849,-166"/>
<polygon fill="#000000" stroke="#000000" points="3597.8491,-162.5001 3587.849,-166 3597.849,-169.5001 3597.8491,-162.5001"/>
</g>
<!-- ProjectInfoComponent -->
<g id="node13" class="node">
<title>ProjectInfoComponent</title>
<polygon fill="#ffffb3" stroke="#000000" points="4828.3075,-122 4683.6925,-122 4683.6925,-86 4828.3075,-86 4828.3075,-122"/>
<text text-anchor="middle" x="4756" y="-99.8" font-family="Times,serif" font-size="14.00" fill="#000000">ProjectInfoComponent</text>
</g>
<!-- ProjectInfoComponent&#45;&gt;AppModule -->
<g id="edge13" class="edge">
<title>ProjectInfoComponent&#45;&gt;AppModule</title>
<path fill="none" stroke="#000000" d="M4756,-122.002C4756,-139.6754 4756,-164 4756,-164 4756,-164 3598.0023,-164 3598.0023,-164"/>
<polygon fill="#000000" stroke="#000000" points="3598.0024,-160.5001 3588.0023,-164 3598.0023,-167.5001 3598.0024,-160.5001"/>
</g>
<!-- ProposalComponent -->
<g id="node14" class="node">
<title>ProposalComponent</title>
<polygon fill="#ffffb3" stroke="#000000" points="4666.3258,-122 4535.6742,-122 4535.6742,-86 4666.3258,-86 4666.3258,-122"/>
<text text-anchor="middle" x="4601" y="-99.8" font-family="Times,serif" font-size="14.00" fill="#000000">ProposalComponent</text>
</g>
<!-- ProposalComponent&#45;&gt;AppModule -->
<g id="edge14" class="edge">
<title>ProposalComponent&#45;&gt;AppModule</title>
<path fill="none" stroke="#000000" d="M4601,-122.0336C4601,-139.0597 4601,-162 4601,-162 4601,-162 3597.6822,-162 3597.6822,-162"/>
<polygon fill="#000000" stroke="#000000" points="3597.6822,-158.5001 3587.6822,-162 3597.6822,-165.5001 3597.6822,-158.5001"/>
</g>
<!-- RefinePanelComponent -->
<g id="node15" class="node">
<title>RefinePanelComponent</title>
<polygon fill="#ffffb3" stroke="#000000" points="4517.752,-122 4368.248,-122 4368.248,-86 4517.752,-86 4517.752,-122"/>
<text text-anchor="middle" x="4443" y="-99.8" font-family="Times,serif" font-size="14.00" fill="#000000">RefinePanelComponent</text>
</g>
<!-- RefinePanelComponent&#45;&gt;AppModule -->
<g id="edge15" class="edge">
<title>RefinePanelComponent&#45;&gt;AppModule</title>
<path fill="none" stroke="#000000" d="M4443,-122.027C4443,-138.3976 4443,-160 4443,-160 4443,-160 3597.7626,-160 3597.7626,-160"/>
<polygon fill="#000000" stroke="#000000" points="3597.7627,-156.5001 3587.7626,-160 3597.7626,-163.5001 3597.7627,-156.5001"/>
</g>
<!-- ResultsTableComponent -->
<g id="node16" class="node">
<title>ResultsTableComponent</title>
<polygon fill="#ffffb3" stroke="#000000" points="4350.427,-122 4195.573,-122 4195.573,-86 4350.427,-86 4350.427,-122"/>
<text text-anchor="middle" x="4273" y="-99.8" font-family="Times,serif" font-size="14.00" fill="#000000">ResultsTableComponent</text>
</g>
<!-- ResultsTableComponent&#45;&gt;AppModule -->
<g id="edge16" class="edge">
<title>ResultsTableComponent&#45;&gt;AppModule</title>
<path fill="none" stroke="#000000" d="M4273,-122.0091C4273,-138.0494 4273,-159 4273,-159 4273,-159 3597.6978,-159 3597.6978,-159"/>
<polygon fill="#000000" stroke="#000000" points="3597.6979,-155.5001 3587.6978,-159 3597.6978,-162.5001 3597.6979,-155.5001"/>
</g>
<!-- SourceComponent -->
<g id="node17" class="node">
<title>SourceComponent</title>
<polygon fill="#ffffb3" stroke="#000000" points="4178.205,-122 4057.795,-122 4057.795,-86 4178.205,-86 4178.205,-122"/>
<text text-anchor="middle" x="4118" y="-99.8" font-family="Times,serif" font-size="14.00" fill="#000000">SourceComponent</text>
</g>
<!-- SourceComponent&#45;&gt;AppModule -->
<g id="edge17" class="edge">
<title>SourceComponent&#45;&gt;AppModule</title>
<path fill="none" stroke="#000000" d="M4118,-122.2396C4118,-137.5706 4118,-157 4118,-157 4118,-157 3598.0605,-157 3598.0605,-157"/>
<polygon fill="#000000" stroke="#000000" points="3598.0606,-153.5001 3588.0605,-157 3598.0605,-160.5001 3598.0606,-153.5001"/>
</g>
<!-- SourceExpectedPropertiesComponent -->
<g id="node18" class="node">
<title>SourceExpectedPropertiesComponent</title>
<polygon fill="#ffffb3" stroke="#000000" points="4039.5506,-122 3810.4494,-122 3810.4494,-86 4039.5506,-86 4039.5506,-122"/>
<text text-anchor="middle" x="3925" y="-99.8" font-family="Times,serif" font-size="14.00" fill="#000000">SourceExpectedPropertiesComponent</text>
</g>
<!-- SourceExpectedPropertiesComponent&#45;&gt;AppModule -->
<g id="edge18" class="edge">
<title>SourceExpectedPropertiesComponent&#45;&gt;AppModule</title>
<path fill="none" stroke="#000000" d="M3925,-122.1243C3925,-136.7832 3925,-155 3925,-155 3925,-155 3598.0077,-155 3598.0077,-155"/>
<polygon fill="#000000" stroke="#000000" points="3598.0077,-151.5001 3588.0077,-155 3598.0077,-158.5001 3598.0077,-151.5001"/>
</g>
<!-- SpacialImageComponent -->
<g id="node19" class="node">
<title>SpacialImageComponent</title>
<polygon fill="#ffffb3" stroke="#000000" points="3792.5211,-122 3635.4789,-122 3635.4789,-86 3792.5211,-86 3792.5211,-122"/>
<text text-anchor="middle" x="3714" y="-99.8" font-family="Times,serif" font-size="14.00" fill="#000000">SpacialImageComponent</text>
</g>
<!-- SpacialImageComponent&#45;&gt;AppModule -->
<g id="edge19" class="edge">
<title>SpacialImageComponent&#45;&gt;AppModule</title>
<path fill="none" stroke="#000000" d="M3714,-122.2458C3714,-136.1772 3714,-153 3714,-153 3714,-153 3597.9601,-153 3597.9601,-153"/>
<polygon fill="#000000" stroke="#000000" points="3597.9602,-149.5001 3587.9601,-153 3597.9601,-156.5001 3597.9602,-149.5001"/>
</g>
<!-- DelayTooltipDirective -->
<g id="node20" class="node">
<title>DelayTooltipDirective</title>
<polygon fill="#ffffb3" stroke="#000000" points="3617.2338,-122 3474.7662,-122 3474.7662,-86 3617.2338,-86 3617.2338,-122"/>
<text text-anchor="middle" x="3546" y="-99.8" font-family="Times,serif" font-size="14.00" fill="#000000">DelayTooltipDirective</text>
</g>
<!-- DelayTooltipDirective&#45;&gt;AppModule -->
<g id="edge20" class="edge">
<title>DelayTooltipDirective&#45;&gt;AppModule</title>
<path fill="none" stroke="#000000" d="M3546,-122.1061C3546,-122.1061 3546,-140.991 3546,-140.991"/>
<polygon fill="#000000" stroke="#000000" points="3542.5001,-140.9909 3546,-150.991 3549.5001,-140.991 3542.5001,-140.9909"/>
</g>
<!-- DegreesPipe -->
<g id="node21" class="node">
<title>DegreesPipe</title>
<polygon fill="#ffffb3" stroke="#000000" points="3456.2438,-122 3369.7562,-122 3369.7562,-86 3456.2438,-86 3456.2438,-122"/>
<text text-anchor="middle" x="3413" y="-99.8" font-family="Times,serif" font-size="14.00" fill="#000000">DegreesPipe</text>
</g>
<!-- DegreesPipe&#45;&gt;AppModule -->
<g id="edge21" class="edge">
<title>DegreesPipe&#45;&gt;AppModule</title>
<path fill="none" stroke="#000000" d="M3413,-122.2458C3413,-136.1772 3413,-153 3413,-153 3413,-153 3494.2829,-153 3494.2829,-153"/>
<polygon fill="#000000" stroke="#000000" points="3494.2829,-156.5001 3504.2829,-153 3494.2828,-149.5001 3494.2829,-156.5001"/>
</g>
<!-- SexagesimalPipe -->
<g id="node22" class="node">
<title>SexagesimalPipe</title>
<polygon fill="#ffffb3" stroke="#000000" points="3351.6458,-122 3240.3542,-122 3240.3542,-86 3351.6458,-86 3351.6458,-122"/>
<text text-anchor="middle" x="3296" y="-99.8" font-family="Times,serif" font-size="14.00" fill="#000000">SexagesimalPipe</text>
</g>
<!-- SexagesimalPipe&#45;&gt;AppModule -->
<g id="edge22" class="edge">
<title>SexagesimalPipe&#45;&gt;AppModule</title>
<path fill="none" stroke="#000000" d="M3296,-122.1243C3296,-136.7832 3296,-155 3296,-155 3296,-155 3494.1556,-155 3494.1556,-155"/>
<polygon fill="#000000" stroke="#000000" points="3494.1557,-158.5001 3504.1556,-155 3494.1556,-151.5001 3494.1557,-158.5001"/>
</g>
<!-- ScienceGoalComponent -->
<g id="node23" class="node">
<title>ScienceGoalComponent</title>
<polygon fill="#ffffb3" stroke="#000000" points="3222.0758,-122 3069.9242,-122 3069.9242,-86 3222.0758,-86 3222.0758,-122"/>
<text text-anchor="middle" x="3146" y="-99.8" font-family="Times,serif" font-size="14.00" fill="#000000">ScienceGoalComponent</text>
</g>
<!-- ScienceGoalComponent&#45;&gt;AppModule -->
<g id="edge23" class="edge">
<title>ScienceGoalComponent&#45;&gt;AppModule</title>
<path fill="none" stroke="#000000" d="M3146,-122.2396C3146,-137.5706 3146,-157 3146,-157 3146,-157 3494.325,-157 3494.325,-157"/>
<polygon fill="#000000" stroke="#000000" points="3494.325,-160.5001 3504.325,-157 3494.3249,-153.5001 3494.325,-160.5001"/>
</g>
<!-- GeneralComponent -->
<g id="node24" class="node">
<title>GeneralComponent</title>
<polygon fill="#ffffb3" stroke="#000000" points="3051.6345,-122 2926.3655,-122 2926.3655,-86 3051.6345,-86 3051.6345,-122"/>
<text text-anchor="middle" x="2989" y="-99.8" font-family="Times,serif" font-size="14.00" fill="#000000">GeneralComponent</text>
</g>
<!-- GeneralComponent&#45;&gt;AppModule -->
<g id="edge24" class="edge">
<title>GeneralComponent&#45;&gt;AppModule</title>
<path fill="none" stroke="#000000" d="M2989,-122.0091C2989,-138.0494 2989,-159 2989,-159 2989,-159 3494.1345,-159 3494.1345,-159"/>
<polygon fill="#000000" stroke="#000000" points="3494.1345,-162.5001 3504.1345,-159 3494.1344,-155.5001 3494.1345,-162.5001"/>
</g>
<!-- SpectralSetupComponent -->
<g id="node25" class="node">
<title>SpectralSetupComponent</title>
<polygon fill="#ffffb3" stroke="#000000" points="2908.5884,-122 2749.4116,-122 2749.4116,-86 2908.5884,-86 2908.5884,-122"/>
<text text-anchor="middle" x="2829" y="-99.8" font-family="Times,serif" font-size="14.00" fill="#000000">SpectralSetupComponent</text>
</g>
<!-- SpectralSetupComponent&#45;&gt;AppModule -->
<g id="edge25" class="edge">
<title>SpectralSetupComponent&#45;&gt;AppModule</title>
<path fill="none" stroke="#000000" d="M2829,-122.027C2829,-138.3976 2829,-160 2829,-160 2829,-160 3494.0889,-160 3494.0889,-160"/>
<polygon fill="#000000" stroke="#000000" points="3494.089,-163.5001 3504.0889,-160 3494.0889,-156.5001 3494.089,-163.5001"/>
</g>
<!-- CalibrationSetupComponent -->
<g id="node26" class="node">
<title>CalibrationSetupComponent</title>
<polygon fill="#ffffb3" stroke="#000000" points="2731.2091,-122 2554.7909,-122 2554.7909,-86 2731.2091,-86 2731.2091,-122"/>
<text text-anchor="middle" x="2643" y="-99.8" font-family="Times,serif" font-size="14.00" fill="#000000">CalibrationSetupComponent</text>
</g>
<!-- CalibrationSetupComponent&#45;&gt;AppModule -->
<g id="edge26" class="edge">
<title>CalibrationSetupComponent&#45;&gt;AppModule</title>
<path fill="none" stroke="#000000" d="M2643,-122.0336C2643,-139.0597 2643,-162 2643,-162 2643,-162 3494.2575,-162 3494.2575,-162"/>
<polygon fill="#000000" stroke="#000000" points="3494.2575,-165.5001 3504.2575,-162 3494.2574,-158.5001 3494.2575,-165.5001"/>
</g>
<!-- ControlPerformanceComponent -->
<g id="node27" class="node">
<title>ControlPerformanceComponent</title>
<polygon fill="#ffffb3" stroke="#000000" points="2536.6246,-122 2341.3754,-122 2341.3754,-86 2536.6246,-86 2536.6246,-122"/>
<text text-anchor="middle" x="2439" y="-99.8" font-family="Times,serif" font-size="14.00" fill="#000000">ControlPerformanceComponent</text>
</g>
<!-- ControlPerformanceComponent&#45;&gt;AppModule -->
<g id="edge27" class="edge">
<title>ControlPerformanceComponent&#45;&gt;AppModule</title>
<path fill="none" stroke="#000000" d="M2439,-122.002C2439,-139.6754 2439,-164 2439,-164 2439,-164 3494.291,-164 3494.291,-164"/>
<polygon fill="#000000" stroke="#000000" points="3494.291,-167.5001 3504.291,-164 3494.2909,-160.5001 3494.291,-167.5001"/>
</g>
<!-- TechnicalJustificationComponent -->
<g id="node28" class="node">
<title>TechnicalJustificationComponent</title>
<polygon fill="#ffffb3" stroke="#000000" points="2323.4566,-122 2118.5434,-122 2118.5434,-86 2323.4566,-86 2323.4566,-122"/>
<text text-anchor="middle" x="2221" y="-99.8" font-family="Times,serif" font-size="14.00" fill="#000000">TechnicalJustificationComponent</text>
</g>
<!-- TechnicalJustificationComponent&#45;&gt;AppModule -->
<g id="edge28" class="edge">
<title>TechnicalJustificationComponent&#45;&gt;AppModule</title>
<path fill="none" stroke="#000000" d="M2221,-122.2667C2221,-140.5552 2221,-166 2221,-166 2221,-166 3494.157,-166 3494.157,-166"/>
<polygon fill="#000000" stroke="#000000" points="3494.157,-169.5001 3504.157,-166 3494.1569,-162.5001 3494.157,-169.5001"/>
</g>
<!-- VisualisationControlComponent -->
<g id="node29" class="node">
<title>VisualisationControlComponent</title>
<polygon fill="#ffffb3" stroke="#000000" points="2100.9888,-122 1903.0112,-122 1903.0112,-86 2100.9888,-86 2100.9888,-122"/>
<text text-anchor="middle" x="2002" y="-99.8" font-family="Times,serif" font-size="14.00" fill="#000000">VisualisationControlComponent</text>
</g>
<!-- VisualisationControlComponent&#45;&gt;AppModule -->
<g id="edge29" class="edge">
<title>VisualisationControlComponent&#45;&gt;AppModule</title>
<path fill="none" stroke="#000000" d="M2002,-122.1686C2002,-141.0898 2002,-168 2002,-168 2002,-168 3494.3022,-168 3494.3022,-168"/>
<polygon fill="#000000" stroke="#000000" points="3494.3023,-171.5001 3504.3022,-168 3494.3022,-164.5001 3494.3023,-171.5001"/>
</g>
<!-- TypeComponent -->
<g id="node30" class="node">
<title>TypeComponent</title>
<polygon fill="#ffffb3" stroke="#000000" points="1885.0996,-122 1774.9004,-122 1774.9004,-86 1885.0996,-86 1885.0996,-122"/>
<text text-anchor="middle" x="1830" y="-99.8" font-family="Times,serif" font-size="14.00" fill="#000000">TypeComponent</text>
</g>
<!-- TypeComponent&#45;&gt;AppModule -->
<g id="edge30" class="edge">
<title>TypeComponent&#45;&gt;AppModule</title>
<path fill="none" stroke="#000000" d="M1830,-122.1061C1830,-141.3391 1830,-169 1830,-169 1830,-169 3494.0079,-169 3494.0079,-169"/>
<polygon fill="#000000" stroke="#000000" points="3494.008,-172.5001 3504.0079,-169 3494.0079,-165.5001 3494.008,-172.5001"/>
</g>
<!-- SelectableComponent -->
<g id="node31" class="node">
<title>SelectableComponent</title>
<polygon fill="#ffffb3" stroke="#000000" points="1757.3599,-122 1618.6401,-122 1618.6401,-86 1757.3599,-86 1757.3599,-122"/>
<text text-anchor="middle" x="1688" y="-99.8" font-family="Times,serif" font-size="14.00" fill="#000000">SelectableComponent</text>
</g>
<!-- SelectableComponent&#45;&gt;AppModule -->
<g id="edge31" class="edge">
<title>SelectableComponent&#45;&gt;AppModule</title>
<path fill="none" stroke="#000000" d="M1688,-122.308C1688,-142.1455 1688,-171 1688,-171 1688,-171 3494.1461,-171 3494.1461,-171"/>
<polygon fill="#000000" stroke="#000000" points="3494.1462,-174.5001 3504.1461,-171 3494.1461,-167.5001 3494.1462,-174.5001"/>
</g>
<!-- FccIndividualComponent -->
<g id="node32" class="node">
<title>FccIndividualComponent</title>
<polygon fill="#ffffb3" stroke="#000000" points="1600.5912,-122 1441.4088,-122 1441.4088,-86 1600.5912,-86 1600.5912,-122"/>
<text text-anchor="middle" x="1521" y="-99.8" font-family="Times,serif" font-size="14.00" fill="#000000">FccIndividualComponent</text>
</g>
<!-- FccIndividualComponent&#45;&gt;AppModule -->
<g id="edge32" class="edge">
<title>FccIndividualComponent&#45;&gt;AppModule</title>
<path fill="none" stroke="#000000" d="M1521,-122.1289C1521,-142.5724 1521,-173 1521,-173 1521,-173 3494.1698,-173 3494.1698,-173"/>
<polygon fill="#000000" stroke="#000000" points="3494.1699,-176.5001 3504.1698,-173 3494.1698,-169.5001 3494.1699,-176.5001"/>
</g>
<!-- FccRectangularComponent -->
<g id="node33" class="node">
<title>FccRectangularComponent</title>
<polygon fill="#ffffb3" stroke="#000000" points="1423.6811,-122 1254.3189,-122 1254.3189,-86 1423.6811,-86 1423.6811,-122"/>
<text text-anchor="middle" x="1339" y="-99.8" font-family="Times,serif" font-size="14.00" fill="#000000">FccRectangularComponent</text>
</g>
<!-- FccRectangularComponent&#45;&gt;AppModule -->
<g id="edge33" class="edge">
<title>FccRectangularComponent&#45;&gt;AppModule</title>
<path fill="none" stroke="#000000" d="M1339,-122.2843C1339,-143.3211 1339,-175 1339,-175 1339,-175 3493.883,-175 3493.883,-175"/>
<polygon fill="#000000" stroke="#000000" points="3493.883,-178.5001 3503.883,-175 3493.8829,-171.5001 3493.883,-178.5001"/>
</g>
<!-- SystemSelectorComponent -->
<g id="node34" class="node">
<title>SystemSelectorComponent</title>
<polygon fill="#ffffb3" stroke="#000000" points="1236.4241,-122 1067.5759,-122 1067.5759,-86 1236.4241,-86 1236.4241,-122"/>
<text text-anchor="middle" x="1152" y="-99.8" font-family="Times,serif" font-size="14.00" fill="#000000">SystemSelectorComponent</text>
</g>
<!-- SystemSelectorComponent&#45;&gt;AppModule -->
<g id="edge34" class="edge">
<title>SystemSelectorComponent&#45;&gt;AppModule</title>
<path fill="none" stroke="#000000" d="M1152,-122.0449C1152,-143.6623 1152,-177 1152,-177 1152,-177 3494.1947,-177 3494.1947,-177"/>
<polygon fill="#000000" stroke="#000000" points="3494.1948,-180.5001 3504.1947,-177 3494.1947,-173.5001 3494.1948,-180.5001"/>
</g>
<!-- VisualisationViewerComponent -->
<g id="node35" class="node">
<title>VisualisationViewerComponent</title>
<polygon fill="#ffffb3" stroke="#000000" points="1050.4044,-122 853.5956,-122 853.5956,-86 1050.4044,-86 1050.4044,-122"/>
<text text-anchor="middle" x="952" y="-99.8" font-family="Times,serif" font-size="14.00" fill="#000000">VisualisationViewerComponent</text>
</g>
<!-- VisualisationViewerComponent&#45;&gt;AppModule -->
<g id="edge35" class="edge">
<title>VisualisationViewerComponent&#45;&gt;AppModule</title>
<path fill="none" stroke="#000000" d="M952,-122.2921C952,-144.2057 952,-178 952,-178 952,-178 3494.2038,-178 3494.2038,-178"/>
<polygon fill="#000000" stroke="#000000" points="3494.2038,-181.5001 3504.2038,-178 3494.2038,-174.5001 3494.2038,-181.5001"/>
</g>
<!-- AppComponent  -->
<g id="node38" class="node">
<title>AppComponent </title>
<polygon fill="#80b1d3" stroke="#000000" points="3600.439,-252 3491.561,-252 3491.561,-216 3600.439,-216 3600.439,-252"/>
<text text-anchor="middle" x="3546" y="-229.8" font-family="Times,serif" font-size="14.00" fill="#000000">AppComponent </text>
</g>
<!-- AppModule&#45;&gt;AppComponent  -->
<g id="edge37" class="edge">
<title>AppModule&#45;&gt;AppComponent </title>
<path fill="none" stroke="#000000" stroke-dasharray="1,5" d="M3546,-187.1061C3546,-187.1061 3546,-205.991 3546,-205.991"/>
<polygon fill="#000000" stroke="#000000" points="3542.5001,-205.9909 3546,-215.991 3549.5001,-205.991 3542.5001,-205.9909"/>
</g>
<!-- AppRoutingModule -->
<g id="node37" class="node">
<title>AppRoutingModule</title>
<polygon fill="#8dd3c7" stroke="#000000" points="830.2744,-122 827.2744,-126 806.2744,-126 803.2744,-122 701.7256,-122 701.7256,-86 830.2744,-86 830.2744,-122"/>
<text text-anchor="middle" x="766" y="-99.8" font-family="Times,serif" font-size="14.00" fill="#000000">AppRoutingModule</text>
</g>
<!-- AppRoutingModule&#45;&gt;AppModule -->
<g id="edge36" class="edge">
<title>AppRoutingModule&#45;&gt;AppModule</title>
<path fill="none" stroke="#000000" d="M766,-122.0109C766,-144.4852 766,-180 766,-180 766,-180 3494.2707,-180 3494.2707,-180"/>
<polygon fill="#000000" stroke="#000000" points="3494.2708,-183.5001 3504.2707,-180 3494.2707,-176.5001 3494.2708,-183.5001"/>
</g>
<!-- PrimaryInvestigatorService -->
<g id="node39" class="node">
<title>PrimaryInvestigatorService</title>
<ellipse fill="#fdb462" stroke="#000000" cx="561" cy="-104" rx="117.449" ry="18"/>
<text text-anchor="middle" x="561" y="-99.8" font-family="Times,serif" font-size="14.00" fill="#000000">PrimaryInvestigatorService</text>
</g>
<!-- PrimaryInvestigatorService&#45;&gt;AppModule -->
<g id="edge38" class="edge">
<title>PrimaryInvestigatorService&#45;&gt;AppModule</title>
<path fill="none" stroke="#000000" d="M561,-122.0908C561,-145.1328 561,-182 561,-182 561,-182 3494.0885,-182 3494.0885,-182"/>
<polygon fill="#000000" stroke="#000000" points="3494.0885,-185.5001 3504.0885,-182 3494.0884,-178.5001 3494.0885,-185.5001"/>
</g>
<!-- ScienceGoalPanelService -->
<g id="node40" class="node">
<title>ScienceGoalPanelService</title>
<ellipse fill="#fdb462" stroke="#000000" cx="316" cy="-104" rx="110.4871" ry="18"/>
<text text-anchor="middle" x="316" y="-99.8" font-family="Times,serif" font-size="14.00" fill="#000000">ScienceGoalPanelService</text>
</g>
<!-- ScienceGoalPanelService&#45;&gt;AppModule -->
<g id="edge39" class="edge">
<title>ScienceGoalPanelService&#45;&gt;AppModule</title>
<path fill="none" stroke="#000000" d="M316,-122.1532C316,-145.7566 316,-184 316,-184 316,-184 3494.2764,-184 3494.2764,-184"/>
<polygon fill="#000000" stroke="#000000" points="3494.2764,-187.5001 3504.2764,-184 3494.2763,-180.5001 3494.2764,-187.5001"/>
</g>
<!-- FieldSetupService -->
<g id="node41" class="node">
<title>FieldSetupService</title>
<ellipse fill="#fdb462" stroke="#000000" cx="106" cy="-104" rx="81.677" ry="18"/>
<text text-anchor="middle" x="106" y="-99.8" font-family="Times,serif" font-size="14.00" fill="#000000">FieldSetupService</text>
</g>
<!-- FieldSetupService&#45;&gt;AppModule -->
<g id="edge40" class="edge">
<title>FieldSetupService&#45;&gt;AppModule</title>
<path fill="none" stroke="#000000" d="M106,-122.1985C106,-146.3563 106,-186 106,-186 106,-186 3494.0544,-186 3494.0544,-186"/>
<polygon fill="#000000" stroke="#000000" points="3494.0544,-189.5001 3504.0544,-186 3494.0543,-182.5001 3494.0544,-189.5001"/>
</g>
</g>
</svg>
