<?xml version="1.0" encoding="UTF-8" standalone="no"?>
<!DOCTYPE svg PUBLIC "-//W3C//DTD SVG 1.1//EN"
 "http://www.w3.org/Graphics/SVG/1.1/DTD/svg11.dtd">
<!-- Generated by graphviz version 2.40.1 (20161225.0304)
 -->
<!-- Title: dependencies Pages: 1 -->
<svg width="6717pt" height="349pt"
 viewBox="0.00 0.00 6717.00 349.00" xmlns="http://www.w3.org/2000/svg" xmlns:xlink="http://www.w3.org/1999/xlink">
<g id="graph0" class="graph" transform="scale(1 1) rotate(0) translate(4 345)">
<title>dependencies</title>
<polygon fill="#ffffff" stroke="transparent" points="-4,4 -4,-345 6713,-345 6713,4 -4,4"/>
<text text-anchor="start" x="3333.5091" y="-42.4" font-family="sans-serif" font-weight="bold" font-size="14.00" fill="#000000">Legend</text>
<polygon fill="#ffffb3" stroke="transparent" points="3120.5,-10 3120.5,-30 3140.5,-30 3140.5,-10 3120.5,-10"/>
<text text-anchor="start" x="3144.129" y="-15.4" font-family="sans-serif" font-size="14.00" fill="#000000"> &#160;Declarations</text>
<polygon fill="#8dd3c7" stroke="transparent" points="3233.5,-10 3233.5,-30 3253.5,-30 3253.5,-10 3233.5,-10"/>
<text text-anchor="start" x="3257.2251" y="-15.4" font-family="sans-serif" font-size="14.00" fill="#000000"> &#160;Module</text>
<polygon fill="#80b1d3" stroke="transparent" points="3319.5,-10 3319.5,-30 3339.5,-30 3339.5,-10 3319.5,-10"/>
<text text-anchor="start" x="3343.2812" y="-15.4" font-family="sans-serif" font-size="14.00" fill="#000000"> &#160;Bootstrap</text>
<polygon fill="#fdb462" stroke="transparent" points="3416.5,-10 3416.5,-30 3436.5,-30 3436.5,-10 3416.5,-10"/>
<text text-anchor="start" x="3440.1732" y="-15.4" font-family="sans-serif" font-size="14.00" fill="#000000"> &#160;Providers</text>
<polygon fill="#fb8072" stroke="transparent" points="3512.5,-10 3512.5,-30 3532.5,-30 3532.5,-10 3512.5,-10"/>
<text text-anchor="start" x="3536.2258" y="-15.4" font-family="sans-serif" font-size="14.00" fill="#000000"> &#160;Exports</text>
<g id="clust1" class="cluster">
<title>cluster_AppModule</title>
<polygon fill="none" stroke="#000000" stroke-dasharray="1,5" points="8,-70 8,-333 6701,-333 6701,-70 8,-70"/>
</g>
<g id="clust2" class="cluster">
<title>cluster_AppModule_declarations</title>
<polygon fill="none" stroke="#000000" points="846,-143 846,-195 6693,-195 6693,-143 846,-143"/>
</g>
<g id="clust3" class="cluster">
<title>cluster_AppModule_AppComponent_providers</title>
<polygon fill="none" stroke="#000000" points="6511,-78 6511,-130 6693,-130 6693,-78 6511,-78"/>
</g>
<g id="clust38" class="cluster">
<title>cluster_AppModule_imports</title>
<polygon fill="none" stroke="#000000" points="694,-143 694,-195 838,-195 838,-143 694,-143"/>
</g>
<g id="clust40" class="cluster">
<title>cluster_AppModule_bootstrap</title>
<polygon fill="none" stroke="#000000" points="3381,-273 3381,-325 3505,-325 3505,-273 3381,-273"/>
</g>
<g id="clust41" class="cluster">
<title>cluster_AppModule_providers</title>
<polygon fill="none" stroke="#000000" points="16,-143 16,-195 686,-195 686,-143 16,-143"/>
</g>
<!-- AppComponent -->
<g id="node1" class="node">
<title>AppComponent</title>
<polygon fill="#ffffb3" stroke="#000000" points="6684.9399,-187 6579.0601,-187 6579.0601,-151 6684.9399,-151 6684.9399,-187"/>
<text text-anchor="middle" x="6632" y="-164.8" font-family="Times,serif" font-size="14.00" fill="#000000">AppComponent</text>
</g>
<!-- AppModule -->
<g id="node36" class="node">
<title>AppModule</title>
<polygon fill="#8dd3c7" stroke="#000000" points="3484.6571,-252 3481.6571,-256 3460.6571,-256 3457.6571,-252 3401.3429,-252 3401.3429,-216 3484.6571,-216 3484.6571,-252"/>
<text text-anchor="middle" x="3443" y="-229.8" font-family="Times,serif" font-size="14.00" fill="#000000">AppModule</text>
</g>
<!-- AppComponent&#45;&gt;AppModule -->
<g id="edge1" class="edge">
<title>AppComponent&#45;&gt;AppModule</title>
<path fill="none" stroke="#000000" d="M6632,-187.1985C6632,-211.3563 6632,-251 6632,-251 6632,-251 3494.7811,-251 3494.7811,-251"/>
<polygon fill="#000000" stroke="#000000" points="3494.7812,-247.5001 3484.7811,-251 3494.7811,-254.5001 3494.7812,-247.5001"/>
</g>
<!-- FieldCenterCoordinatesComponent -->
<g id="node2" class="node">
<title>FieldCenterCoordinatesComponent</title>
<polygon fill="#ffffb3" stroke="#000000" points="6561.58,-187 6346.42,-187 6346.42,-151 6561.58,-151 6561.58,-187"/>
<text text-anchor="middle" x="6454" y="-164.8" font-family="Times,serif" font-size="14.00" fill="#000000">FieldCenterCoordinatesComponent</text>
</g>
<!-- FieldCenterCoordinatesComponent&#45;&gt;AppModule -->
<g id="edge3" class="edge">
<title>FieldCenterCoordinatesComponent&#45;&gt;AppModule</title>
<path fill="none" stroke="#000000" d="M6454,-187.1532C6454,-210.7566 6454,-249 6454,-249 6454,-249 3494.7037,-249 3494.7037,-249"/>
<polygon fill="#000000" stroke="#000000" points="3494.7037,-245.5001 3484.7037,-249 3494.7036,-252.5001 3494.7037,-245.5001"/>
</g>
<!-- FieldSetupComponent -->
<g id="node3" class="node">
<title>FieldSetupComponent</title>
<polygon fill="#ffffb3" stroke="#000000" points="6327.9986,-187 6186.0014,-187 6186.0014,-151 6327.9986,-151 6327.9986,-187"/>
<text text-anchor="middle" x="6257" y="-164.8" font-family="Times,serif" font-size="14.00" fill="#000000">FieldSetupComponent</text>
</g>
<!-- FieldSetupComponent&#45;&gt;AppModule -->
<g id="edge4" class="edge">
<title>FieldSetupComponent&#45;&gt;AppModule</title>
<path fill="none" stroke="#000000" d="M6257,-187.0908C6257,-210.1328 6257,-247 6257,-247 6257,-247 3494.6869,-247 3494.6869,-247"/>
<polygon fill="#000000" stroke="#000000" points="3494.687,-243.5001 3484.6869,-247 3494.6869,-250.5001 3494.687,-243.5001"/>
</g>
<!-- FovParametersComponent -->
<g id="node4" class="node">
<title>FovParametersComponent</title>
<polygon fill="#ffffb3" stroke="#000000" points="6167.8033,-187 6002.1967,-187 6002.1967,-151 6167.8033,-151 6167.8033,-187"/>
<text text-anchor="middle" x="6085" y="-164.8" font-family="Times,serif" font-size="14.00" fill="#000000">FovParametersComponent</text>
</g>
<!-- FovParametersComponent&#45;&gt;AppModule -->
<g id="edge5" class="edge">
<title>FovParametersComponent&#45;&gt;AppModule</title>
<path fill="none" stroke="#000000" d="M6085,-187.0109C6085,-209.4852 6085,-245 6085,-245 6085,-245 3494.7658,-245 3494.7658,-245"/>
<polygon fill="#000000" stroke="#000000" points="3494.7659,-241.5001 3484.7658,-245 3494.7658,-248.5001 3494.7659,-241.5001"/>
</g>
<!-- ImageQueryComponent -->
<g id="node5" class="node">
<title>ImageQueryComponent</title>
<polygon fill="#ffffb3" stroke="#000000" points="5984.7949,-187 5833.2051,-187 5833.2051,-151 5984.7949,-151 5984.7949,-187"/>
<text text-anchor="middle" x="5909" y="-164.8" font-family="Times,serif" font-size="14.00" fill="#000000">ImageQueryComponent</text>
</g>
<!-- ImageQueryComponent&#45;&gt;AppModule -->
<g id="edge6" class="edge">
<title>ImageQueryComponent&#45;&gt;AppModule</title>
<path fill="none" stroke="#000000" d="M5909,-187.2921C5909,-209.2057 5909,-243 5909,-243 5909,-243 3494.7674,-243 3494.7674,-243"/>
<polygon fill="#000000" stroke="#000000" points="3494.7674,-239.5001 3484.7674,-243 3494.7673,-246.5001 3494.7674,-239.5001"/>
</g>
<!-- ModularPanelComponent -->
<g id="node6" class="node">
<title>ModularPanelComponent</title>
<polygon fill="#ffffb3" stroke="#000000" points="5815.1456,-187 5654.8544,-187 5654.8544,-151 5815.1456,-151 5815.1456,-187"/>
<text text-anchor="middle" x="5735" y="-164.8" font-family="Times,serif" font-size="14.00" fill="#000000">ModularPanelComponent</text>
</g>
<!-- ModularPanelComponent&#45;&gt;AppModule -->
<g id="edge7" class="edge">
<title>ModularPanelComponent&#45;&gt;AppModule</title>
<path fill="none" stroke="#000000" d="M5735,-187.0449C5735,-208.6623 5735,-242 5735,-242 5735,-242 3494.7385,-242 3494.7385,-242"/>
<polygon fill="#000000" stroke="#000000" points="3494.7385,-238.5001 3484.7385,-242 3494.7385,-245.5001 3494.7385,-238.5001"/>
</g>
<!-- NavbarComponent -->
<g id="node7" class="node">
<title>NavbarComponent</title>
<polygon fill="#ffffb3" stroke="#000000" points="5636.0297,-187 5513.9703,-187 5513.9703,-151 5636.0297,-151 5636.0297,-187"/>
<text text-anchor="middle" x="5575" y="-164.8" font-family="Times,serif" font-size="14.00" fill="#000000">NavbarComponent</text>
</g>
<!-- NavbarComponent&#45;&gt;AppModule -->
<g id="edge8" class="edge">
<title>NavbarComponent&#45;&gt;AppModule</title>
<path fill="none" stroke="#000000" d="M5575,-187.2843C5575,-208.3211 5575,-240 5575,-240 5575,-240 3495.1083,-240 3495.1083,-240"/>
<polygon fill="#000000" stroke="#000000" points="3495.1083,-236.5001 3485.1083,-240 3495.1082,-243.5001 3495.1083,-236.5001"/>
</g>
<!-- PiEntryComponent -->
<g id="node8" class="node">
<title>PiEntryComponent</title>
<polygon fill="#ffffb3" stroke="#000000" points="5496.1094,-187 5371.8906,-187 5371.8906,-151 5496.1094,-151 5496.1094,-187"/>
<text text-anchor="middle" x="5434" y="-164.8" font-family="Times,serif" font-size="14.00" fill="#000000">PiEntryComponent</text>
</g>
<!-- PiEntryComponent&#45;&gt;AppModule -->
<g id="edge9" class="edge">
<title>PiEntryComponent&#45;&gt;AppModule</title>
<path fill="none" stroke="#000000" d="M5434,-187.1289C5434,-207.5724 5434,-238 5434,-238 5434,-238 3495.0442,-238 3495.0442,-238"/>
<polygon fill="#000000" stroke="#000000" points="3495.0443,-234.5001 3485.0442,-238 3495.0442,-241.5001 3495.0443,-234.5001"/>
</g>
<!-- PiSearchComponent -->
<g id="node9" class="node">
<title>PiSearchComponent</title>
<polygon fill="#ffffb3" stroke="#000000" points="5353.5926,-187 5222.4074,-187 5222.4074,-151 5353.5926,-151 5353.5926,-187"/>
<text text-anchor="middle" x="5288" y="-164.8" font-family="Times,serif" font-size="14.00" fill="#000000">PiSearchComponent</text>
</g>
<!-- PiSearchComponent&#45;&gt;AppModule -->
<g id="edge10" class="edge">
<title>PiSearchComponent&#45;&gt;AppModule</title>
<path fill="none" stroke="#000000" d="M5288,-187.308C5288,-207.1455 5288,-236 5288,-236 5288,-236 3495.0019,-236 3495.0019,-236"/>
<polygon fill="#000000" stroke="#000000" points="3495.002,-232.5001 3485.0019,-236 3495.0019,-239.5001 3495.002,-232.5001"/>
</g>
<!-- PiSelectComponent -->
<g id="node10" class="node">
<title>PiSelectComponent</title>
<polygon fill="#ffffb3" stroke="#000000" points="5204.7134,-187 5077.2866,-187 5077.2866,-151 5204.7134,-151 5204.7134,-187"/>
<text text-anchor="middle" x="5141" y="-164.8" font-family="Times,serif" font-size="14.00" fill="#000000">PiSelectComponent</text>
</g>
<!-- PiSelectComponent&#45;&gt;AppModule -->
<g id="edge11" class="edge">
<title>PiSelectComponent&#45;&gt;AppModule</title>
<path fill="none" stroke="#000000" d="M5141,-187.1061C5141,-206.3391 5141,-234 5141,-234 5141,-234 3494.9733,-234 3494.9733,-234"/>
<polygon fill="#000000" stroke="#000000" points="3494.9733,-230.5001 3484.9733,-234 3494.9732,-237.5001 3494.9733,-230.5001"/>
</g>
<!-- PlannedObservingComponent -->
<g id="node11" class="node">
<title>PlannedObservingComponent</title>
<polygon fill="#ffffb3" stroke="#000000" points="5059.252,-187 4874.748,-187 4874.748,-151 5059.252,-151 5059.252,-187"/>
<text text-anchor="middle" x="4967" y="-164.8" font-family="Times,serif" font-size="14.00" fill="#000000">PlannedObservingComponent</text>
</g>
<!-- PlannedObservingComponent&#45;&gt;AppModule -->
<g id="edge12" class="edge">
<title>PlannedObservingComponent&#45;&gt;AppModule</title>
<path fill="none" stroke="#000000" d="M4967,-187.1686C4967,-206.0898 4967,-233 4967,-233 4967,-233 3494.9515,-233 3494.9515,-233"/>
<polygon fill="#000000" stroke="#000000" points="3494.9516,-229.5001 3484.9515,-233 3494.9515,-236.5001 3494.9516,-229.5001"/>
</g>
<!-- ProjectComponent -->
<g id="node12" class="node">
<title>ProjectComponent</title>
<polygon fill="#ffffb3" stroke="#000000" points="4856.486,-187 4735.514,-187 4735.514,-151 4856.486,-151 4856.486,-187"/>
<text text-anchor="middle" x="4796" y="-164.8" font-family="Times,serif" font-size="14.00" fill="#000000">ProjectComponent</text>
</g>
<!-- ProjectComponent&#45;&gt;AppModule -->
<g id="edge13" class="edge">
<title>ProjectComponent&#45;&gt;AppModule</title>
<path fill="none" stroke="#000000" d="M4796,-187.2667C4796,-205.5552 4796,-231 4796,-231 4796,-231 3494.9763,-231 3494.9763,-231"/>
<polygon fill="#000000" stroke="#000000" points="3494.9763,-227.5001 3484.9763,-231 3494.9762,-234.5001 3494.9763,-227.5001"/>
</g>
<!-- ProjectInfoComponent -->
<g id="node13" class="node">
<title>ProjectInfoComponent</title>
<polygon fill="#ffffb3" stroke="#000000" points="4717.3075,-187 4572.6925,-187 4572.6925,-151 4717.3075,-151 4717.3075,-187"/>
<text text-anchor="middle" x="4645" y="-164.8" font-family="Times,serif" font-size="14.00" fill="#000000">ProjectInfoComponent</text>
</g>
<!-- ProjectInfoComponent&#45;&gt;AppModule -->
<g id="edge14" class="edge">
<title>ProjectInfoComponent&#45;&gt;AppModule</title>
<path fill="none" stroke="#000000" d="M4645,-187.002C4645,-204.6754 4645,-229 4645,-229 4645,-229 3494.7246,-229 3494.7246,-229"/>
<polygon fill="#000000" stroke="#000000" points="3494.7247,-225.5001 3484.7246,-229 3494.7246,-232.5001 3494.7247,-225.5001"/>
</g>
<!-- ProposalComponent -->
<g id="node14" class="node">
<title>ProposalComponent</title>
<polygon fill="#ffffb3" stroke="#000000" points="4555.3258,-187 4424.6742,-187 4424.6742,-151 4555.3258,-151 4555.3258,-187"/>
<text text-anchor="middle" x="4490" y="-164.8" font-family="Times,serif" font-size="14.00" fill="#000000">ProposalComponent</text>
</g>
<!-- ProposalComponent&#45;&gt;AppModule -->
<g id="edge15" class="edge">
<title>ProposalComponent&#45;&gt;AppModule</title>
<path fill="none" stroke="#000000" d="M4490,-187.0336C4490,-204.0597 4490,-227 4490,-227 4490,-227 3494.6897,-227 3494.6897,-227"/>
<polygon fill="#000000" stroke="#000000" points="3494.6898,-223.5001 3484.6897,-227 3494.6897,-230.5001 3494.6898,-223.5001"/>
</g>
<!-- RefinePanelComponent -->
<g id="node15" class="node">
<title>RefinePanelComponent</title>
<polygon fill="#ffffb3" stroke="#000000" points="4406.752,-187 4257.248,-187 4257.248,-151 4406.752,-151 4406.752,-187"/>
<text text-anchor="middle" x="4332" y="-164.8" font-family="Times,serif" font-size="14.00" fill="#000000">RefinePanelComponent</text>
</g>
<!-- RefinePanelComponent&#45;&gt;AppModule -->
<g id="edge16" class="edge">
<title>RefinePanelComponent&#45;&gt;AppModule</title>
<path fill="none" stroke="#000000" d="M4332,-187.027C4332,-203.3976 4332,-225 4332,-225 4332,-225 3494.6859,-225 3494.6859,-225"/>
<polygon fill="#000000" stroke="#000000" points="3494.686,-221.5001 3484.6859,-225 3494.6859,-228.5001 3494.686,-221.5001"/>
</g>
<!-- ResultsTableComponent -->
<g id="node16" class="node">
<title>ResultsTableComponent</title>
<polygon fill="#ffffb3" stroke="#000000" points="4239.427,-187 4084.573,-187 4084.573,-151 4239.427,-151 4239.427,-187"/>
<text text-anchor="middle" x="4162" y="-164.8" font-family="Times,serif" font-size="14.00" fill="#000000">ResultsTableComponent</text>
</g>
<!-- ResultsTableComponent&#45;&gt;AppModule -->
<g id="edge17" class="edge">
<title>ResultsTableComponent&#45;&gt;AppModule</title>
<path fill="none" stroke="#000000" d="M4162,-187.0091C4162,-203.0494 4162,-224 4162,-224 4162,-224 3494.7643,-224 3494.7643,-224"/>
<polygon fill="#000000" stroke="#000000" points="3494.7643,-220.5001 3484.7643,-224 3494.7642,-227.5001 3494.7643,-220.5001"/>
</g>
<!-- SourceComponent -->
<g id="node17" class="node">
<title>SourceComponent</title>
<polygon fill="#ffffb3" stroke="#000000" points="4067.205,-187 3946.795,-187 3946.795,-151 4067.205,-151 4067.205,-187"/>
<text text-anchor="middle" x="4007" y="-164.8" font-family="Times,serif" font-size="14.00" fill="#000000">SourceComponent</text>
</g>
<!-- SourceComponent&#45;&gt;AppModule -->
<g id="edge18" class="edge">
<title>SourceComponent&#45;&gt;AppModule</title>
<path fill="none" stroke="#000000" d="M4007,-187.2396C4007,-202.5706 4007,-222 4007,-222 4007,-222 3494.9309,-222 3494.9309,-222"/>
<polygon fill="#000000" stroke="#000000" points="3494.9309,-218.5001 3484.9309,-222 3494.9309,-225.5001 3494.9309,-218.5001"/>
</g>
<!-- SourceExpectedPropertiesComponent -->
<g id="node18" class="node">
<title>SourceExpectedPropertiesComponent</title>
<polygon fill="#ffffb3" stroke="#000000" points="3928.5506,-187 3699.4494,-187 3699.4494,-151 3928.5506,-151 3928.5506,-187"/>
<text text-anchor="middle" x="3814" y="-164.8" font-family="Times,serif" font-size="14.00" fill="#000000">SourceExpectedPropertiesComponent</text>
</g>
<!-- SourceExpectedPropertiesComponent&#45;&gt;AppModule -->
<g id="edge19" class="edge">
<title>SourceExpectedPropertiesComponent&#45;&gt;AppModule</title>
<path fill="none" stroke="#000000" d="M3814,-187.1243C3814,-201.7832 3814,-220 3814,-220 3814,-220 3494.8372,-220 3494.8372,-220"/>
<polygon fill="#000000" stroke="#000000" points="3494.8373,-216.5001 3484.8372,-220 3494.8372,-223.5001 3494.8373,-216.5001"/>
</g>
<!-- SpacialImageComponent -->
<g id="node19" class="node">
<title>SpacialImageComponent</title>
<polygon fill="#ffffb3" stroke="#000000" points="3681.5211,-187 3524.4789,-187 3524.4789,-151 3681.5211,-151 3681.5211,-187"/>
<text text-anchor="middle" x="3603" y="-164.8" font-family="Times,serif" font-size="14.00" fill="#000000">SpacialImageComponent</text>
</g>
<!-- SpacialImageComponent&#45;&gt;AppModule -->
<g id="edge20" class="edge">
<title>SpacialImageComponent&#45;&gt;AppModule</title>
<path fill="none" stroke="#000000" d="M3603,-187.2458C3603,-201.1772 3603,-218 3603,-218 3603,-218 3495.0381,-218 3495.0381,-218"/>
<polygon fill="#000000" stroke="#000000" points="3495.0382,-214.5001 3485.0381,-218 3495.0381,-221.5001 3495.0382,-214.5001"/>
</g>
<!-- AutofocusDirective -->
<g id="node20" class="node">
<title>AutofocusDirective</title>
<polygon fill="#ffffb3" stroke="#000000" points="3506.4004,-187 3379.5996,-187 3379.5996,-151 3506.4004,-151 3506.4004,-187"/>
<text text-anchor="middle" x="3443" y="-164.8" font-family="Times,serif" font-size="14.00" fill="#000000">AutofocusDirective</text>
</g>
<!-- AutofocusDirective&#45;&gt;AppModule -->
<g id="edge21" class="edge">
<title>AutofocusDirective&#45;&gt;AppModule</title>
<path fill="none" stroke="#000000" d="M3443,-187.1061C3443,-187.1061 3443,-205.991 3443,-205.991"/>
<polygon fill="#000000" stroke="#000000" points="3439.5001,-205.9909 3443,-215.991 3446.5001,-205.991 3439.5001,-205.9909"/>
</g>
<!-- DelayTooltipDirective -->
<g id="node21" class="node">
<title>DelayTooltipDirective</title>
<polygon fill="#ffffb3" stroke="#000000" points="3361.2338,-187 3218.7662,-187 3218.7662,-151 3361.2338,-151 3361.2338,-187"/>
<text text-anchor="middle" x="3290" y="-164.8" font-family="Times,serif" font-size="14.00" fill="#000000">DelayTooltipDirective</text>
</g>
<!-- DelayTooltipDirective&#45;&gt;AppModule -->
<g id="edge22" class="edge">
<title>DelayTooltipDirective&#45;&gt;AppModule</title>
<path fill="none" stroke="#000000" d="M3290,-187.2458C3290,-201.1772 3290,-218 3290,-218 3290,-218 3391.1921,-218 3391.1921,-218"/>
<polygon fill="#000000" stroke="#000000" points="3391.1921,-221.5001 3401.1921,-218 3391.192,-214.5001 3391.1921,-221.5001"/>
</g>
<!-- DegreesPipe -->
<g id="node22" class="node">
<title>DegreesPipe</title>
<polygon fill="#ffffb3" stroke="#000000" points="3200.2438,-187 3113.7562,-187 3113.7562,-151 3200.2438,-151 3200.2438,-187"/>
<text text-anchor="middle" x="3157" y="-164.8" font-family="Times,serif" font-size="14.00" fill="#000000">DegreesPipe</text>
</g>
<!-- DegreesPipe&#45;&gt;AppModule -->
<g id="edge23" class="edge">
<title>DegreesPipe&#45;&gt;AppModule</title>
<path fill="none" stroke="#000000" d="M3157,-187.1243C3157,-201.7832 3157,-220 3157,-220 3157,-220 3391.1069,-220 3391.1069,-220"/>
<polygon fill="#000000" stroke="#000000" points="3391.1069,-223.5001 3401.1069,-220 3391.1068,-216.5001 3391.1069,-223.5001"/>
</g>
<!-- SexagesimalPipe -->
<g id="node23" class="node">
<title>SexagesimalPipe</title>
<polygon fill="#ffffb3" stroke="#000000" points="3095.6458,-187 2984.3542,-187 2984.3542,-151 3095.6458,-151 3095.6458,-187"/>
<text text-anchor="middle" x="3040" y="-164.8" font-family="Times,serif" font-size="14.00" fill="#000000">SexagesimalPipe</text>
</g>
<!-- SexagesimalPipe&#45;&gt;AppModule -->
<g id="edge24" class="edge">
<title>SexagesimalPipe&#45;&gt;AppModule</title>
<path fill="none" stroke="#000000" d="M3040,-187.2396C3040,-202.5706 3040,-222 3040,-222 3040,-222 3391.0124,-222 3391.0124,-222"/>
<polygon fill="#000000" stroke="#000000" points="3391.0124,-225.5001 3401.0124,-222 3391.0124,-218.5001 3391.0124,-225.5001"/>
</g>
<!-- ScienceGoalComponent -->
<g id="node24" class="node">
<title>ScienceGoalComponent</title>
<polygon fill="#ffffb3" stroke="#000000" points="2966.0758,-187 2813.9242,-187 2813.9242,-151 2966.0758,-151 2966.0758,-187"/>
<text text-anchor="middle" x="2890" y="-164.8" font-family="Times,serif" font-size="14.00" fill="#000000">ScienceGoalComponent</text>
</g>
<!-- ScienceGoalComponent&#45;&gt;AppModule -->
<g id="edge25" class="edge">
<title>ScienceGoalComponent&#45;&gt;AppModule</title>
<path fill="none" stroke="#000000" d="M2890,-187.0091C2890,-203.0494 2890,-224 2890,-224 2890,-224 3390.9812,-224 3390.9812,-224"/>
<polygon fill="#000000" stroke="#000000" points="3390.9813,-227.5001 3400.9812,-224 3390.9812,-220.5001 3390.9813,-227.5001"/>
</g>
<!-- GeneralComponent -->
<g id="node25" class="node">
<title>GeneralComponent</title>
<polygon fill="#ffffb3" stroke="#000000" points="2795.6345,-187 2670.3655,-187 2670.3655,-151 2795.6345,-151 2795.6345,-187"/>
<text text-anchor="middle" x="2733" y="-164.8" font-family="Times,serif" font-size="14.00" fill="#000000">GeneralComponent</text>
</g>
<!-- GeneralComponent&#45;&gt;AppModule -->
<g id="edge26" class="edge">
<title>GeneralComponent&#45;&gt;AppModule</title>
<path fill="none" stroke="#000000" d="M2733,-187.027C2733,-203.3976 2733,-225 2733,-225 2733,-225 3391.237,-225 3391.237,-225"/>
<polygon fill="#000000" stroke="#000000" points="3391.237,-228.5001 3401.237,-225 3391.2369,-221.5001 3391.237,-228.5001"/>
</g>
<!-- SpectralSetupComponent -->
<g id="node26" class="node">
<title>SpectralSetupComponent</title>
<polygon fill="#ffffb3" stroke="#000000" points="2652.5884,-187 2493.4116,-187 2493.4116,-151 2652.5884,-151 2652.5884,-187"/>
<text text-anchor="middle" x="2573" y="-164.8" font-family="Times,serif" font-size="14.00" fill="#000000">SpectralSetupComponent</text>
</g>
<!-- SpectralSetupComponent&#45;&gt;AppModule -->
<g id="edge27" class="edge">
<title>SpectralSetupComponent&#45;&gt;AppModule</title>
<path fill="none" stroke="#000000" d="M2573,-187.0336C2573,-204.0597 2573,-227 2573,-227 2573,-227 3391.3312,-227 3391.3312,-227"/>
<polygon fill="#000000" stroke="#000000" points="3391.3312,-230.5001 3401.3312,-227 3391.3312,-223.5001 3391.3312,-230.5001"/>
</g>
<!-- CalibrationSetupComponent -->
<g id="node27" class="node">
<title>CalibrationSetupComponent</title>
<polygon fill="#ffffb3" stroke="#000000" points="2475.2091,-187 2298.7909,-187 2298.7909,-151 2475.2091,-151 2475.2091,-187"/>
<text text-anchor="middle" x="2387" y="-164.8" font-family="Times,serif" font-size="14.00" fill="#000000">CalibrationSetupComponent</text>
</g>
<!-- CalibrationSetupComponent&#45;&gt;AppModule -->
<g id="edge28" class="edge">
<title>CalibrationSetupComponent&#45;&gt;AppModule</title>
<path fill="none" stroke="#000000" d="M2387,-187.002C2387,-204.6754 2387,-229 2387,-229 2387,-229 3391.2783,-229 3391.2783,-229"/>
<polygon fill="#000000" stroke="#000000" points="3391.2783,-232.5001 3401.2783,-229 3391.2783,-225.5001 3391.2783,-232.5001"/>
</g>
<!-- ControlPerformanceComponent -->
<g id="node28" class="node">
<title>ControlPerformanceComponent</title>
<polygon fill="#ffffb3" stroke="#000000" points="2280.6246,-187 2085.3754,-187 2085.3754,-151 2280.6246,-151 2280.6246,-187"/>
<text text-anchor="middle" x="2183" y="-164.8" font-family="Times,serif" font-size="14.00" fill="#000000">ControlPerformanceComponent</text>
</g>
<!-- ControlPerformanceComponent&#45;&gt;AppModule -->
<g id="edge29" class="edge">
<title>ControlPerformanceComponent&#45;&gt;AppModule</title>
<path fill="none" stroke="#000000" d="M2183,-187.2667C2183,-205.5552 2183,-231 2183,-231 2183,-231 3391.0775,-231 3391.0775,-231"/>
<polygon fill="#000000" stroke="#000000" points="3391.0776,-234.5001 3401.0775,-231 3391.0775,-227.5001 3391.0776,-234.5001"/>
</g>
<!-- TechnicalJustificationComponent -->
<g id="node29" class="node">
<title>TechnicalJustificationComponent</title>
<polygon fill="#ffffb3" stroke="#000000" points="2067.4566,-187 1862.5434,-187 1862.5434,-151 2067.4566,-151 2067.4566,-187"/>
<text text-anchor="middle" x="1965" y="-164.8" font-family="Times,serif" font-size="14.00" fill="#000000">TechnicalJustificationComponent</text>
</g>
<!-- TechnicalJustificationComponent&#45;&gt;AppModule -->
<g id="edge30" class="edge">
<title>TechnicalJustificationComponent&#45;&gt;AppModule</title>
<path fill="none" stroke="#000000" d="M1965,-187.1686C1965,-206.0898 1965,-233 1965,-233 1965,-233 3391.1471,-233 3391.1471,-233"/>
<polygon fill="#000000" stroke="#000000" points="3391.1472,-236.5001 3401.1471,-233 3391.1471,-229.5001 3391.1472,-236.5001"/>
</g>
<!-- VisualisationComponent -->
<g id="node30" class="node">
<title>VisualisationComponent</title>
<polygon fill="#ffffb3" stroke="#000000" points="1844.7105,-187 1689.2895,-187 1689.2895,-151 1844.7105,-151 1844.7105,-187"/>
<text text-anchor="middle" x="1767" y="-164.8" font-family="Times,serif" font-size="14.00" fill="#000000">VisualisationComponent</text>
</g>
<!-- VisualisationComponent&#45;&gt;AppModule -->
<g id="edge31" class="edge">
<title>VisualisationComponent&#45;&gt;AppModule</title>
<path fill="none" stroke="#000000" d="M1767,-187.1061C1767,-206.3391 1767,-234 1767,-234 1767,-234 3391.1524,-234 3391.1524,-234"/>
<polygon fill="#000000" stroke="#000000" points="3391.1524,-237.5001 3401.1524,-234 3391.1524,-230.5001 3391.1524,-237.5001"/>
</g>
<!-- TypeComponent -->
<g id="node31" class="node">
<title>TypeComponent</title>
<polygon fill="#ffffb3" stroke="#000000" points="1671.0996,-187 1560.9004,-187 1560.9004,-151 1671.0996,-151 1671.0996,-187"/>
<text text-anchor="middle" x="1616" y="-164.8" font-family="Times,serif" font-size="14.00" fill="#000000">TypeComponent</text>
</g>
<!-- TypeComponent&#45;&gt;AppModule -->
<g id="edge32" class="edge">
<title>TypeComponent&#45;&gt;AppModule</title>
<path fill="none" stroke="#000000" d="M1616,-187.308C1616,-207.1455 1616,-236 1616,-236 1616,-236 3390.9691,-236 3390.9691,-236"/>
<polygon fill="#000000" stroke="#000000" points="3390.9691,-239.5001 3400.9691,-236 3390.969,-232.5001 3390.9691,-239.5001"/>
</g>
<!-- SelectableComponent -->
<g id="node32" class="node">
<title>SelectableComponent</title>
<polygon fill="#ffffb3" stroke="#000000" points="1543.3599,-187 1404.6401,-187 1404.6401,-151 1543.3599,-151 1543.3599,-187"/>
<text text-anchor="middle" x="1474" y="-164.8" font-family="Times,serif" font-size="14.00" fill="#000000">SelectableComponent</text>
</g>
<!-- SelectableComponent&#45;&gt;AppModule -->
<g id="edge33" class="edge">
<title>SelectableComponent&#45;&gt;AppModule</title>
<path fill="none" stroke="#000000" d="M1474,-187.1289C1474,-207.5724 1474,-238 1474,-238 1474,-238 3390.9637,-238 3390.9637,-238"/>
<polygon fill="#000000" stroke="#000000" points="3390.9637,-241.5001 3400.9637,-238 3390.9637,-234.5001 3390.9637,-241.5001"/>
</g>
<!-- FccIndividualComponent -->
<g id="node33" class="node">
<title>FccIndividualComponent</title>
<polygon fill="#ffffb3" stroke="#000000" points="1386.5912,-187 1227.4088,-187 1227.4088,-151 1386.5912,-151 1386.5912,-187"/>
<text text-anchor="middle" x="1307" y="-164.8" font-family="Times,serif" font-size="14.00" fill="#000000">FccIndividualComponent</text>
</g>
<!-- FccIndividualComponent&#45;&gt;AppModule -->
<g id="edge34" class="edge">
<title>FccIndividualComponent&#45;&gt;AppModule</title>
<path fill="none" stroke="#000000" d="M1307,-187.2843C1307,-208.3211 1307,-240 1307,-240 1307,-240 3391.2903,-240 3391.2903,-240"/>
<polygon fill="#000000" stroke="#000000" points="3391.2904,-243.5001 3401.2903,-240 3391.2903,-236.5001 3391.2904,-243.5001"/>
</g>
<!-- FccRectangularComponent -->
<g id="node34" class="node">
<title>FccRectangularComponent</title>
<polygon fill="#ffffb3" stroke="#000000" points="1209.6811,-187 1040.3189,-187 1040.3189,-151 1209.6811,-151 1209.6811,-187"/>
<text text-anchor="middle" x="1125" y="-164.8" font-family="Times,serif" font-size="14.00" fill="#000000">FccRectangularComponent</text>
</g>
<!-- FccRectangularComponent&#45;&gt;AppModule -->
<g id="edge35" class="edge">
<title>FccRectangularComponent&#45;&gt;AppModule</title>
<path fill="none" stroke="#000000" d="M1125,-187.0449C1125,-208.6623 1125,-242 1125,-242 1125,-242 3391.2869,-242 3391.2869,-242"/>
<polygon fill="#000000" stroke="#000000" points="3391.2869,-245.5001 3401.2869,-242 3391.2869,-238.5001 3391.2869,-245.5001"/>
</g>
<!-- SystemSelectorComponent -->
<g id="node35" class="node">
<title>SystemSelectorComponent</title>
<polygon fill="#ffffb3" stroke="#000000" points="1022.4241,-187 853.5759,-187 853.5759,-151 1022.4241,-151 1022.4241,-187"/>
<text text-anchor="middle" x="938" y="-164.8" font-family="Times,serif" font-size="14.00" fill="#000000">SystemSelectorComponent</text>
</g>
<!-- SystemSelectorComponent&#45;&gt;AppModule -->
<g id="edge36" class="edge">
<title>SystemSelectorComponent&#45;&gt;AppModule</title>
<path fill="none" stroke="#000000" d="M938,-187.2921C938,-209.2057 938,-243 938,-243 938,-243 3391.0931,-243 3391.0931,-243"/>
<polygon fill="#000000" stroke="#000000" points="3391.0931,-246.5001 3401.0931,-243 3391.093,-239.5001 3391.0931,-246.5001"/>
</g>
<!-- AppComponent  -->
<g id="node39" class="node">
<title>AppComponent </title>
<polygon fill="#80b1d3" stroke="#000000" points="3497.439,-317 3388.561,-317 3388.561,-281 3497.439,-281 3497.439,-317"/>
<text text-anchor="middle" x="3443" y="-294.8" font-family="Times,serif" font-size="14.00" fill="#000000">AppComponent </text>
</g>
<!-- AppModule&#45;&gt;AppComponent  -->
<g id="edge38" class="edge">
<title>AppModule&#45;&gt;AppComponent </title>
<path fill="none" stroke="#000000" stroke-dasharray="1,5" d="M3443,-252.1061C3443,-252.1061 3443,-270.991 3443,-270.991"/>
<polygon fill="#000000" stroke="#000000" points="3439.5001,-270.9909 3443,-280.991 3446.5001,-270.991 3439.5001,-270.9909"/>
</g>
<!-- NgbTooltipConfig -->
<g id="node37" class="node">
<title>NgbTooltipConfig</title>
<ellipse fill="#fdb462" stroke="#000000" cx="6602" cy="-104" rx="82.8495" ry="18"/>
<text text-anchor="middle" x="6602" y="-99.8" font-family="Times,serif" font-size="14.00" fill="#000000">NgbTooltipConfig</text>
</g>
<!-- NgbTooltipConfig&#45;&gt;AppComponent -->
<g id="edge2" class="edge">
<title>NgbTooltipConfig&#45;&gt;AppComponent</title>
<path fill="none" stroke="#000000" d="M6632,-121.078C6632,-121.078 6632,-140.8993 6632,-140.8993"/>
<polygon fill="#000000" stroke="#000000" points="6628.5001,-140.8992 6632,-150.8993 6635.5001,-140.8993 6628.5001,-140.8992"/>
</g>
<!-- AppRoutingModule -->
<g id="node38" class="node">
<title>AppRoutingModule</title>
<polygon fill="#8dd3c7" stroke="#000000" points="830.2744,-187 827.2744,-191 806.2744,-191 803.2744,-187 701.7256,-187 701.7256,-151 830.2744,-151 830.2744,-187"/>
<text text-anchor="middle" x="766" y="-164.8" font-family="Times,serif" font-size="14.00" fill="#000000">AppRoutingModule</text>
</g>
<!-- AppRoutingModule&#45;&gt;AppModule -->
<g id="edge37" class="edge">
<title>AppRoutingModule&#45;&gt;AppModule</title>
<path fill="none" stroke="#000000" d="M766,-187.0109C766,-209.4852 766,-245 766,-245 766,-245 3391.2198,-245 3391.2198,-245"/>
<polygon fill="#000000" stroke="#000000" points="3391.2198,-248.5001 3401.2198,-245 3391.2197,-241.5001 3391.2198,-248.5001"/>
</g>
<!-- PrimaryInvestigatorService -->
<g id="node40" class="node">
<title>PrimaryInvestigatorService</title>
<ellipse fill="#fdb462" stroke="#000000" cx="561" cy="-169" rx="117.449" ry="18"/>
<text text-anchor="middle" x="561" y="-164.8" font-family="Times,serif" font-size="14.00" fill="#000000">PrimaryInvestigatorService</text>
</g>
<!-- PrimaryInvestigatorService&#45;&gt;AppModule -->
<g id="edge39" class="edge">
<title>PrimaryInvestigatorService&#45;&gt;AppModule</title>
<path fill="none" stroke="#000000" d="M561,-187.0908C561,-210.1328 561,-247 561,-247 561,-247 3391.1482,-247 3391.1482,-247"/>
<polygon fill="#000000" stroke="#000000" points="3391.1482,-250.5001 3401.1482,-247 3391.1482,-243.5001 3391.1482,-250.5001"/>
</g>
<!-- ScienceGoalPanelService -->
<g id="node41" class="node">
<title>ScienceGoalPanelService</title>
<ellipse fill="#fdb462" stroke="#000000" cx="316" cy="-169" rx="110.4871" ry="18"/>
<text text-anchor="middle" x="316" y="-164.8" font-family="Times,serif" font-size="14.00" fill="#000000">ScienceGoalPanelService</text>
</g>
<!-- ScienceGoalPanelService&#45;&gt;AppModule -->
<g id="edge40" class="edge">
<title>ScienceGoalPanelService&#45;&gt;AppModule</title>
<path fill="none" stroke="#000000" d="M316,-187.1532C316,-210.7566 316,-249 316,-249 316,-249 3391.1603,-249 3391.1603,-249"/>
<polygon fill="#000000" stroke="#000000" points="3391.1604,-252.5001 3401.1603,-249 3391.1603,-245.5001 3391.1604,-252.5001"/>
</g>
<!-- FieldSetupService -->
<g id="node42" class="node">
<title>FieldSetupService</title>
<ellipse fill="#fdb462" stroke="#000000" cx="106" cy="-169" rx="81.677" ry="18"/>
<text text-anchor="middle" x="106" y="-164.8" font-family="Times,serif" font-size="14.00" fill="#000000">FieldSetupService</text>
</g>
<!-- FieldSetupService&#45;&gt;AppModule -->
<g id="edge41" class="edge">
<title>FieldSetupService&#45;&gt;AppModule</title>
<path fill="none" stroke="#000000" d="M106,-187.1985C106,-211.3563 106,-251 106,-251 106,-251 3391.1105,-251 3391.1105,-251"/>
<polygon fill="#000000" stroke="#000000" points="3391.1106,-254.5001 3401.1105,-251 3391.1105,-247.5001 3391.1106,-254.5001"/>
</g>
</g>
</svg>
