<?xml version="1.0" encoding="UTF-8" standalone="no"?>
<!DOCTYPE svg PUBLIC "-//W3C//DTD SVG 1.1//EN"
 "http://www.w3.org/Graphics/SVG/1.1/DTD/svg11.dtd">
<!-- Generated by graphviz version 2.40.1 (20161225.0304)
 -->
<!-- Title: dependencies Pages: 1 -->
<svg width="3305pt" height="284pt"
 viewBox="0.00 0.00 3305.00 284.00" xmlns="http://www.w3.org/2000/svg" xmlns:xlink="http://www.w3.org/1999/xlink">
<g id="graph0" class="graph" transform="scale(1 1) rotate(0) translate(4 280)">
<title>dependencies</title>
<polygon fill="#ffffff" stroke="transparent" points="-4,4 -4,-280 3301,-280 3301,4 -4,4"/>
<text text-anchor="start" x="1627.5091" y="-42.4" font-family="sans-serif" font-weight="bold" font-size="14.00" fill="#000000">Legend</text>
<polygon fill="#ffffb3" stroke="transparent" points="1414.5,-10 1414.5,-30 1434.5,-30 1434.5,-10 1414.5,-10"/>
<text text-anchor="start" x="1438.129" y="-15.4" font-family="sans-serif" font-size="14.00" fill="#000000"> &#160;Declarations</text>
<polygon fill="#8dd3c7" stroke="transparent" points="1527.5,-10 1527.5,-30 1547.5,-30 1547.5,-10 1527.5,-10"/>
<text text-anchor="start" x="1551.2251" y="-15.4" font-family="sans-serif" font-size="14.00" fill="#000000"> &#160;Module</text>
<polygon fill="#80b1d3" stroke="transparent" points="1613.5,-10 1613.5,-30 1633.5,-30 1633.5,-10 1613.5,-10"/>
<text text-anchor="start" x="1637.2812" y="-15.4" font-family="sans-serif" font-size="14.00" fill="#000000"> &#160;Bootstrap</text>
<polygon fill="#fdb462" stroke="transparent" points="1710.5,-10 1710.5,-30 1730.5,-30 1730.5,-10 1710.5,-10"/>
<text text-anchor="start" x="1734.1732" y="-15.4" font-family="sans-serif" font-size="14.00" fill="#000000"> &#160;Providers</text>
<polygon fill="#fb8072" stroke="transparent" points="1806.5,-10 1806.5,-30 1826.5,-30 1826.5,-10 1806.5,-10"/>
<text text-anchor="start" x="1830.2258" y="-15.4" font-family="sans-serif" font-size="14.00" fill="#000000"> &#160;Exports</text>
<g id="clust1" class="cluster">
<title>cluster_AppModule</title>
<polygon fill="none" stroke="#000000" stroke-dasharray="1,5" points="8,-70 8,-268 3289,-268 3289,-70 8,-70"/>
</g>
<g id="clust2" class="cluster">
<title>cluster_AppModule_declarations</title>
<polygon fill="none" stroke="#000000" points="426,-78 426,-130 3281,-130 3281,-78 426,-78"/>
</g>
<g id="clust19" class="cluster">
<title>cluster_AppModule_imports</title>
<polygon fill="none" stroke="#000000" points="16,-78 16,-130 418,-130 418,-78 16,-78"/>
</g>
<g id="clust21" class="cluster">
<title>cluster_AppModule_bootstrap</title>
<polygon fill="none" stroke="#000000" points="1561,-208 1561,-260 1685,-260 1685,-208 1561,-208"/>
</g>
<!-- AppComponent -->
<g id="node1" class="node">
<title>AppComponent</title>
<polygon fill="#ffffb3" stroke="#000000" points="3272.9399,-122 3167.0601,-122 3167.0601,-86 3272.9399,-86 3272.9399,-122"/>
<text text-anchor="middle" x="3220" y="-99.8" font-family="Times,serif" font-size="14.00" fill="#000000">AppComponent</text>
</g>
<!-- AppModule -->
<g id="node17" class="node">
<title>AppModule</title>
<polygon fill="#8dd3c7" stroke="#000000" points="1664.6571,-187 1661.6571,-191 1640.6571,-191 1637.6571,-187 1581.3429,-187 1581.3429,-151 1664.6571,-151 1664.6571,-187"/>
<text text-anchor="middle" x="1623" y="-164.8" font-family="Times,serif" font-size="14.00" fill="#000000">AppModule</text>
</g>
<!-- AppComponent&#45;&gt;AppModule -->
<g id="edge1" class="edge">
<title>AppComponent&#45;&gt;AppModule</title>
<path fill="none" stroke="#000000" d="M3220,-122.1532C3220,-145.7566 3220,-184 3220,-184 3220,-184 1674.895,-184 1674.895,-184"/>
<polygon fill="#000000" stroke="#000000" points="1674.895,-180.5001 1664.895,-184 1674.895,-187.5001 1674.895,-180.5001"/>
</g>
<!-- FieldCenterCoordinatesComponent -->
<g id="node2" class="node">
<title>FieldCenterCoordinatesComponent</title>
<polygon fill="#ffffb3" stroke="#000000" points="3149.58,-122 2934.42,-122 2934.42,-86 3149.58,-86 3149.58,-122"/>
<text text-anchor="middle" x="3042" y="-99.8" font-family="Times,serif" font-size="14.00" fill="#000000">FieldCenterCoordinatesComponent</text>
</g>
<!-- FieldCenterCoordinatesComponent&#45;&gt;AppModule -->
<g id="edge2" class="edge">
<title>FieldCenterCoordinatesComponent&#45;&gt;AppModule</title>
<path fill="none" stroke="#000000" d="M3042,-122.0109C3042,-144.4852 3042,-180 3042,-180 3042,-180 1674.6995,-180 1674.6995,-180"/>
<polygon fill="#000000" stroke="#000000" points="1674.6995,-176.5001 1664.6995,-180 1674.6995,-183.5001 1674.6995,-176.5001"/>
</g>
<!-- FieldSetupComponent -->
<g id="node3" class="node">
<title>FieldSetupComponent</title>
<polygon fill="#ffffb3" stroke="#000000" points="2915.9986,-122 2774.0014,-122 2774.0014,-86 2915.9986,-86 2915.9986,-122"/>
<text text-anchor="middle" x="2845" y="-99.8" font-family="Times,serif" font-size="14.00" fill="#000000">FieldSetupComponent</text>
</g>
<!-- FieldSetupComponent&#45;&gt;AppModule -->
<g id="edge3" class="edge">
<title>FieldSetupComponent&#45;&gt;AppModule</title>
<path fill="none" stroke="#000000" d="M2845,-122.0449C2845,-143.6623 2845,-177 2845,-177 2845,-177 1674.7105,-177 1674.7105,-177"/>
<polygon fill="#000000" stroke="#000000" points="1674.7105,-173.5001 1664.7105,-177 1674.7105,-180.5001 1674.7105,-173.5001"/>
</g>
<!-- FovParametersComponent -->
<g id="node4" class="node">
<title>FovParametersComponent</title>
<polygon fill="#ffffb3" stroke="#000000" points="2755.8033,-122 2590.1967,-122 2590.1967,-86 2755.8033,-86 2755.8033,-122"/>
<text text-anchor="middle" x="2673" y="-99.8" font-family="Times,serif" font-size="14.00" fill="#000000">FovParametersComponent</text>
</g>
<!-- FovParametersComponent&#45;&gt;AppModule -->
<g id="edge4" class="edge">
<title>FovParametersComponent&#45;&gt;AppModule</title>
<path fill="none" stroke="#000000" d="M2673,-122.1289C2673,-142.5724 2673,-173 2673,-173 2673,-173 1674.8092,-173 1674.8092,-173"/>
<polygon fill="#000000" stroke="#000000" points="1674.8092,-169.5001 1664.8092,-173 1674.8092,-176.5001 1674.8092,-169.5001"/>
</g>
<!-- ImageQueryComponent -->
<g id="node5" class="node">
<title>ImageQueryComponent</title>
<polygon fill="#ffffb3" stroke="#000000" points="2572.7949,-122 2421.2051,-122 2421.2051,-86 2572.7949,-86 2572.7949,-122"/>
<text text-anchor="middle" x="2497" y="-99.8" font-family="Times,serif" font-size="14.00" fill="#000000">ImageQueryComponent</text>
</g>
<!-- ImageQueryComponent&#45;&gt;AppModule -->
<g id="edge5" class="edge">
<title>ImageQueryComponent&#45;&gt;AppModule</title>
<path fill="none" stroke="#000000" d="M2497,-122.1061C2497,-141.3391 2497,-169 2497,-169 2497,-169 1674.8604,-169 1674.8604,-169"/>
<polygon fill="#000000" stroke="#000000" points="1674.8604,-165.5001 1664.8604,-169 1674.8604,-172.5001 1674.8604,-165.5001"/>
</g>
<!-- NavbarComponent -->
<g id="node6" class="node">
<title>NavbarComponent</title>
<polygon fill="#ffffb3" stroke="#000000" points="2403.0297,-122 2280.9703,-122 2280.9703,-86 2403.0297,-86 2403.0297,-122"/>
<text text-anchor="middle" x="2342" y="-99.8" font-family="Times,serif" font-size="14.00" fill="#000000">NavbarComponent</text>
</g>
<!-- NavbarComponent&#45;&gt;AppModule -->
<g id="edge6" class="edge">
<title>NavbarComponent&#45;&gt;AppModule</title>
<path fill="none" stroke="#000000" d="M2342,-122.2667C2342,-140.5552 2342,-166 2342,-166 2342,-166 1674.7643,-166 1674.7643,-166"/>
<polygon fill="#000000" stroke="#000000" points="1674.7643,-162.5001 1664.7643,-166 1674.7642,-169.5001 1674.7643,-162.5001"/>
</g>
<!-- SourceComponent -->
<g id="node7" class="node">
<title>SourceComponent</title>
<polygon fill="#ffffb3" stroke="#000000" points="2263.205,-122 2142.795,-122 2142.795,-86 2263.205,-86 2263.205,-122"/>
<text text-anchor="middle" x="2203" y="-99.8" font-family="Times,serif" font-size="14.00" fill="#000000">SourceComponent</text>
</g>
<!-- SourceComponent&#45;&gt;AppModule -->
<g id="edge7" class="edge">
<title>SourceComponent&#45;&gt;AppModule</title>
<path fill="none" stroke="#000000" d="M2203,-122.0336C2203,-139.0597 2203,-162 2203,-162 2203,-162 1674.7122,-162 1674.7122,-162"/>
<polygon fill="#000000" stroke="#000000" points="1674.7122,-158.5001 1664.7122,-162 1674.7121,-165.5001 1674.7122,-158.5001"/>
</g>
<!-- SourceExpectedPropertiesComponent -->
<g id="node8" class="node">
<title>SourceExpectedPropertiesComponent</title>
<polygon fill="#ffffb3" stroke="#000000" points="2124.5506,-122 1895.4494,-122 1895.4494,-86 2124.5506,-86 2124.5506,-122"/>
<text text-anchor="middle" x="2010" y="-99.8" font-family="Times,serif" font-size="14.00" fill="#000000">SourceExpectedPropertiesComponent</text>
</g>
<!-- SourceExpectedPropertiesComponent&#45;&gt;AppModule -->
<g id="edge8" class="edge">
<title>SourceExpectedPropertiesComponent&#45;&gt;AppModule</title>
<path fill="none" stroke="#000000" d="M2010,-122.0091C2010,-138.0494 2010,-159 2010,-159 2010,-159 1674.7835,-159 1674.7835,-159"/>
<polygon fill="#000000" stroke="#000000" points="1674.7835,-155.5001 1664.7835,-159 1674.7834,-162.5001 1674.7835,-155.5001"/>
</g>
<!-- SpacialImageComponent -->
<g id="node9" class="node">
<title>SpacialImageComponent</title>
<polygon fill="#ffffb3" stroke="#000000" points="1877.5211,-122 1720.4789,-122 1720.4789,-86 1877.5211,-86 1877.5211,-122"/>
<text text-anchor="middle" x="1799" y="-99.8" font-family="Times,serif" font-size="14.00" fill="#000000">SpacialImageComponent</text>
</g>
<!-- SpacialImageComponent&#45;&gt;AppModule -->
<g id="edge9" class="edge">
<title>SpacialImageComponent&#45;&gt;AppModule</title>
<path fill="none" stroke="#000000" d="M1799,-122.1243C1799,-136.7832 1799,-155 1799,-155 1799,-155 1674.7095,-155 1674.7095,-155"/>
<polygon fill="#000000" stroke="#000000" points="1674.7096,-151.5001 1664.7095,-155 1674.7095,-158.5001 1674.7096,-151.5001"/>
</g>
<!-- SpectralSetupComponent -->
<g id="node10" class="node">
<title>SpectralSetupComponent</title>
<polygon fill="#ffffb3" stroke="#000000" points="1702.5884,-122 1543.4116,-122 1543.4116,-86 1702.5884,-86 1702.5884,-122"/>
<text text-anchor="middle" x="1623" y="-99.8" font-family="Times,serif" font-size="14.00" fill="#000000">SpectralSetupComponent</text>
</g>
<!-- SpectralSetupComponent&#45;&gt;AppModule -->
<g id="edge10" class="edge">
<title>SpectralSetupComponent&#45;&gt;AppModule</title>
<path fill="none" stroke="#000000" d="M1623,-122.1061C1623,-122.1061 1623,-140.991 1623,-140.991"/>
<polygon fill="#000000" stroke="#000000" points="1619.5001,-140.9909 1623,-150.991 1626.5001,-140.991 1619.5001,-140.9909"/>
</g>
<!-- VisualisationControlComponent -->
<g id="node11" class="node">
<title>VisualisationControlComponent</title>
<polygon fill="#ffffb3" stroke="#000000" points="1524.9888,-122 1327.0112,-122 1327.0112,-86 1524.9888,-86 1524.9888,-122"/>
<text text-anchor="middle" x="1426" y="-99.8" font-family="Times,serif" font-size="14.00" fill="#000000">VisualisationControlComponent</text>
</g>
<!-- VisualisationControlComponent&#45;&gt;AppModule -->
<g id="edge11" class="edge">
<title>VisualisationControlComponent&#45;&gt;AppModule</title>
<path fill="none" stroke="#000000" d="M1426,-122.1243C1426,-136.7832 1426,-155 1426,-155 1426,-155 1571.2214,-155 1571.2214,-155"/>
<polygon fill="#000000" stroke="#000000" points="1571.2214,-158.5001 1581.2214,-155 1571.2213,-151.5001 1571.2214,-158.5001"/>
</g>
<!-- TypeComponent -->
<g id="node12" class="node">
<title>TypeComponent</title>
<polygon fill="#ffffb3" stroke="#000000" points="1309.0996,-122 1198.9004,-122 1198.9004,-86 1309.0996,-86 1309.0996,-122"/>
<text text-anchor="middle" x="1254" y="-99.8" font-family="Times,serif" font-size="14.00" fill="#000000">TypeComponent</text>
</g>
<!-- TypeComponent&#45;&gt;AppModule -->
<g id="edge12" class="edge">
<title>TypeComponent&#45;&gt;AppModule</title>
<path fill="none" stroke="#000000" d="M1254,-122.0091C1254,-138.0494 1254,-159 1254,-159 1254,-159 1571.0303,-159 1571.0303,-159"/>
<polygon fill="#000000" stroke="#000000" points="1571.0303,-162.5001 1581.0303,-159 1571.0302,-155.5001 1571.0303,-162.5001"/>
</g>
<!-- FccIndividualComponent -->
<g id="node13" class="node">
<title>FccIndividualComponent</title>
<polygon fill="#ffffb3" stroke="#000000" points="1180.5912,-122 1021.4088,-122 1021.4088,-86 1180.5912,-86 1180.5912,-122"/>
<text text-anchor="middle" x="1101" y="-99.8" font-family="Times,serif" font-size="14.00" fill="#000000">FccIndividualComponent</text>
</g>
<!-- FccIndividualComponent&#45;&gt;AppModule -->
<g id="edge13" class="edge">
<title>FccIndividualComponent&#45;&gt;AppModule</title>
<path fill="none" stroke="#000000" d="M1101,-122.0336C1101,-139.0597 1101,-162 1101,-162 1101,-162 1571.1649,-162 1571.1649,-162"/>
<polygon fill="#000000" stroke="#000000" points="1571.165,-165.5001 1581.1649,-162 1571.1649,-158.5001 1571.165,-165.5001"/>
</g>
<!-- FccRectangularComponent -->
<g id="node14" class="node">
<title>FccRectangularComponent</title>
<polygon fill="#ffffb3" stroke="#000000" points="1003.6811,-122 834.3189,-122 834.3189,-86 1003.6811,-86 1003.6811,-122"/>
<text text-anchor="middle" x="919" y="-99.8" font-family="Times,serif" font-size="14.00" fill="#000000">FccRectangularComponent</text>
</g>
<!-- FccRectangularComponent&#45;&gt;AppModule -->
<g id="edge14" class="edge">
<title>FccRectangularComponent&#45;&gt;AppModule</title>
<path fill="none" stroke="#000000" d="M919,-122.2667C919,-140.5552 919,-166 919,-166 919,-166 1571.3302,-166 1571.3302,-166"/>
<polygon fill="#000000" stroke="#000000" points="1571.3303,-169.5001 1581.3302,-166 1571.3302,-162.5001 1571.3303,-169.5001"/>
</g>
<!-- SystemSelectorComponent -->
<g id="node15" class="node">
<title>SystemSelectorComponent</title>
<polygon fill="#ffffb3" stroke="#000000" points="816.4241,-122 647.5759,-122 647.5759,-86 816.4241,-86 816.4241,-122"/>
<text text-anchor="middle" x="732" y="-99.8" font-family="Times,serif" font-size="14.00" fill="#000000">SystemSelectorComponent</text>
</g>
<!-- SystemSelectorComponent&#45;&gt;AppModule -->
<g id="edge15" class="edge">
<title>SystemSelectorComponent&#45;&gt;AppModule</title>
<path fill="none" stroke="#000000" d="M732,-122.1061C732,-141.3391 732,-169 732,-169 732,-169 1571.2203,-169 1571.2203,-169"/>
<polygon fill="#000000" stroke="#000000" points="1571.2203,-172.5001 1581.2203,-169 1571.2203,-165.5001 1571.2203,-172.5001"/>
</g>
<!-- VisualisationViewerComponent -->
<g id="node16" class="node">
<title>VisualisationViewerComponent</title>
<polygon fill="#ffffb3" stroke="#000000" points="630.4044,-122 433.5956,-122 433.5956,-86 630.4044,-86 630.4044,-122"/>
<text text-anchor="middle" x="532" y="-99.8" font-family="Times,serif" font-size="14.00" fill="#000000">VisualisationViewerComponent</text>
</g>
<!-- VisualisationViewerComponent&#45;&gt;AppModule -->
<g id="edge16" class="edge">
<title>VisualisationViewerComponent&#45;&gt;AppModule</title>
<path fill="none" stroke="#000000" d="M532,-122.1289C532,-142.5724 532,-173 532,-173 532,-173 1571.2325,-173 1571.2325,-173"/>
<polygon fill="#000000" stroke="#000000" points="1571.2325,-176.5001 1581.2325,-173 1571.2324,-169.5001 1571.2325,-176.5001"/>
</g>
<!-- AppComponent  -->
<g id="node21" class="node">
<title>AppComponent </title>
<polygon fill="#80b1d3" stroke="#000000" points="1677.439,-252 1568.561,-252 1568.561,-216 1677.439,-216 1677.439,-252"/>
<text text-anchor="middle" x="1623" y="-229.8" font-family="Times,serif" font-size="14.00" fill="#000000">AppComponent </text>
</g>
<!-- AppModule&#45;&gt;AppComponent  -->
<g id="edge20" class="edge">
<title>AppModule&#45;&gt;AppComponent </title>
<path fill="none" stroke="#000000" stroke-dasharray="1,5" d="M1623,-187.1061C1623,-187.1061 1623,-205.991 1623,-205.991"/>
<polygon fill="#000000" stroke="#000000" points="1619.5001,-205.9909 1623,-215.991 1626.5001,-205.991 1619.5001,-205.9909"/>
</g>
<!-- SharedModule -->
<g id="node18" class="node">
<title>SharedModule</title>
<polygon fill="#8dd3c7" stroke="#000000" points="410.4231,-122 407.4231,-126 386.4231,-126 383.4231,-122 311.5769,-122 311.5769,-86 410.4231,-86 410.4231,-122"/>
<text text-anchor="middle" x="361" y="-99.8" font-family="Times,serif" font-size="14.00" fill="#000000">SharedModule</text>
</g>
<!-- SharedModule&#45;&gt;AppModule -->
<g id="edge17" class="edge">
<title>SharedModule&#45;&gt;AppModule</title>
<path fill="none" stroke="#000000" d="M361,-122.0449C361,-143.6623 361,-177 361,-177 361,-177 1571.011,-177 1571.011,-177"/>
<polygon fill="#000000" stroke="#000000" points="1571.011,-180.5001 1581.011,-177 1571.011,-173.5001 1571.011,-180.5001"/>
</g>
<!-- PiSelectionModule -->
<g id="node19" class="node">
<title>PiSelectionModule</title>
<polygon fill="#8dd3c7" stroke="#000000" points="293.8216,-122 290.8216,-126 269.8216,-126 266.8216,-122 170.1784,-122 170.1784,-86 293.8216,-86 293.8216,-122"/>
<text text-anchor="middle" x="232" y="-99.8" font-family="Times,serif" font-size="14.00" fill="#000000">PiSelectionModule</text>
</g>
<!-- PiSelectionModule&#45;&gt;AppModule -->
<g id="edge18" class="edge">
<title>PiSelectionModule&#45;&gt;AppModule</title>
<path fill="none" stroke="#000000" d="M232,-122.0109C232,-144.4852 232,-180 232,-180 232,-180 1570.9912,-180 1570.9912,-180"/>
<polygon fill="#000000" stroke="#000000" points="1570.9912,-183.5001 1580.9912,-180 1570.9911,-176.5001 1570.9912,-183.5001"/>
</g>
<!-- AppRoutingModule -->
<g id="node20" class="node">
<title>AppRoutingModule</title>
<polygon fill="#8dd3c7" stroke="#000000" points="152.2744,-122 149.2744,-126 128.2744,-126 125.2744,-122 23.7256,-122 23.7256,-86 152.2744,-86 152.2744,-122"/>
<text text-anchor="middle" x="88" y="-99.8" font-family="Times,serif" font-size="14.00" fill="#000000">AppRoutingModule</text>
</g>
<!-- AppRoutingModule&#45;&gt;AppModule -->
<g id="edge19" class="edge">
<title>AppRoutingModule&#45;&gt;AppModule</title>
<path fill="none" stroke="#000000" d="M88,-122.1532C88,-145.7566 88,-184 88,-184 88,-184 1571.1464,-184 1571.1464,-184"/>
<polygon fill="#000000" stroke="#000000" points="1571.1464,-187.5001 1581.1464,-184 1571.1463,-180.5001 1571.1464,-187.5001"/>
</g>
</g>
</svg>
