<?xml version="1.0" encoding="UTF-8" standalone="no"?>
<!DOCTYPE svg PUBLIC "-//W3C//DTD SVG 1.1//EN"
 "http://www.w3.org/Graphics/SVG/1.1/DTD/svg11.dtd">
<!-- Generated by graphviz version 2.40.1 (20161225.0304)
 -->
<!-- Title: dependencies Pages: 1 -->
<svg width="1235pt" height="284pt"
 viewBox="0.00 0.00 1235.00 284.00" xmlns="http://www.w3.org/2000/svg" xmlns:xlink="http://www.w3.org/1999/xlink">
<g id="graph0" class="graph" transform="scale(1 1) rotate(0) translate(4 280)">
<title>dependencies</title>
<polygon fill="#ffffff" stroke="transparent" points="-4,4 -4,-280 1231,-280 1231,4 -4,4"/>
<text text-anchor="start" x="592.5091" y="-42.4" font-family="sans-serif" font-weight="bold" font-size="14.00" fill="#000000">Legend</text>
<polygon fill="#ffffb3" stroke="transparent" points="379.5,-10 379.5,-30 399.5,-30 399.5,-10 379.5,-10"/>
<text text-anchor="start" x="403.129" y="-15.4" font-family="sans-serif" font-size="14.00" fill="#000000"> &#160;Declarations</text>
<polygon fill="#8dd3c7" stroke="transparent" points="492.5,-10 492.5,-30 512.5,-30 512.5,-10 492.5,-10"/>
<text text-anchor="start" x="516.2251" y="-15.4" font-family="sans-serif" font-size="14.00" fill="#000000"> &#160;Module</text>
<polygon fill="#80b1d3" stroke="transparent" points="578.5,-10 578.5,-30 598.5,-30 598.5,-10 578.5,-10"/>
<text text-anchor="start" x="602.2812" y="-15.4" font-family="sans-serif" font-size="14.00" fill="#000000"> &#160;Bootstrap</text>
<polygon fill="#fdb462" stroke="transparent" points="675.5,-10 675.5,-30 695.5,-30 695.5,-10 675.5,-10"/>
<text text-anchor="start" x="699.1732" y="-15.4" font-family="sans-serif" font-size="14.00" fill="#000000"> &#160;Providers</text>
<polygon fill="#fb8072" stroke="transparent" points="771.5,-10 771.5,-30 791.5,-30 791.5,-10 771.5,-10"/>
<text text-anchor="start" x="795.2258" y="-15.4" font-family="sans-serif" font-size="14.00" fill="#000000"> &#160;Exports</text>
<g id="clust1" class="cluster">
<title>cluster_PiSelectionModule</title>
<polygon fill="none" stroke="#000000" stroke-dasharray="1,5" points="8,-70 8,-268 1219,-268 1219,-70 8,-70"/>
</g>
<g id="clust2" class="cluster">
<title>cluster_PiSelectionModule_declarations</title>
<polygon fill="none" stroke="#000000" points="274,-78 274,-130 1211,-130 1211,-78 274,-78"/>
</g>
<g id="clust10" class="cluster">
<title>cluster_PiSelectionModule_exports</title>
<polygon fill="none" stroke="#000000" points="548,-208 548,-260 840,-260 840,-208 548,-208"/>
</g>
<g id="clust12" class="cluster">
<title>cluster_PiSelectionModule_providers</title>
<polygon fill="none" stroke="#000000" points="16,-78 16,-130 266,-130 266,-78 16,-78"/>
</g>
<!-- PiEntryComponent -->
<g id="node1" class="node">
<title>PiEntryComponent</title>
<polygon fill="#ffffb3" stroke="#000000" points="1203.1094,-122 1078.8906,-122 1078.8906,-86 1203.1094,-86 1203.1094,-122"/>
<text text-anchor="middle" x="1141" y="-99.8" font-family="Times,serif" font-size="14.00" fill="#000000">PiEntryComponent</text>
</g>
<!-- PiSelectionModule -->
<g id="node7" class="node">
<title>PiSelectionModule</title>
<polygon fill="#8dd3c7" stroke="#000000" points="755.8216,-187 752.8216,-191 731.8216,-191 728.8216,-187 632.1784,-187 632.1784,-151 755.8216,-151 755.8216,-187"/>
<text text-anchor="middle" x="694" y="-164.8" font-family="Times,serif" font-size="14.00" fill="#000000">PiSelectionModule</text>
</g>
<!-- PiEntryComponent&#45;&gt;PiSelectionModule -->
<g id="edge1" class="edge">
<title>PiEntryComponent&#45;&gt;PiSelectionModule</title>
<path fill="none" stroke="#000000" d="M1141,-122.2921C1141,-144.2057 1141,-178 1141,-178 1141,-178 765.6841,-178 765.6841,-178"/>
<polygon fill="#000000" stroke="#000000" points="765.6842,-174.5001 755.6841,-178 765.6841,-181.5001 765.6842,-174.5001"/>
</g>
<!-- PiSearchComponent -->
<g id="node2" class="node">
<title>PiSearchComponent</title>
<polygon fill="#ffffb3" stroke="#000000" points="1060.5926,-122 929.4074,-122 929.4074,-86 1060.5926,-86 1060.5926,-122"/>
<text text-anchor="middle" x="995" y="-99.8" font-family="Times,serif" font-size="14.00" fill="#000000">PiSearchComponent</text>
</g>
<!-- PiSearchComponent&#45;&gt;PiSelectionModule -->
<g id="edge2" class="edge">
<title>PiSearchComponent&#45;&gt;PiSelectionModule</title>
<path fill="none" stroke="#000000" d="M995,-122.1061C995,-141.3391 995,-169 995,-169 995,-169 766.0024,-169 766.0024,-169"/>
<polygon fill="#000000" stroke="#000000" points="766.0025,-165.5001 756.0024,-169 766.0024,-172.5001 766.0025,-165.5001"/>
</g>
<!-- PiSelectComponent -->
<g id="node3" class="node">
<title>PiSelectComponent</title>
<polygon fill="#ffffb3" stroke="#000000" points="911.7134,-122 784.2866,-122 784.2866,-86 911.7134,-86 911.7134,-122"/>
<text text-anchor="middle" x="848" y="-99.8" font-family="Times,serif" font-size="14.00" fill="#000000">PiSelectComponent</text>
</g>
<!-- PiSelectComponent&#45;&gt;PiSelectionModule -->
<g id="edge3" class="edge">
<title>PiSelectComponent&#45;&gt;PiSelectionModule</title>
<path fill="none" stroke="#000000" d="M808.0991,-122.027C808.0991,-138.3976 808.0991,-160 808.0991,-160 808.0991,-160 765.7247,-160 765.7247,-160"/>
<polygon fill="#000000" stroke="#000000" points="765.7247,-156.5001 755.7247,-160 765.7247,-163.5001 765.7247,-156.5001"/>
</g>
<!-- ProjectInfoComponent -->
<g id="node4" class="node">
<title>ProjectInfoComponent</title>
<polygon fill="#ffffb3" stroke="#000000" points="766.3075,-122 621.6925,-122 621.6925,-86 766.3075,-86 766.3075,-122"/>
<text text-anchor="middle" x="694" y="-99.8" font-family="Times,serif" font-size="14.00" fill="#000000">ProjectInfoComponent</text>
</g>
<!-- ProjectInfoComponent&#45;&gt;PiSelectionModule -->
<g id="edge4" class="edge">
<title>ProjectInfoComponent&#45;&gt;PiSelectionModule</title>
<path fill="none" stroke="#000000" d="M694,-122.1061C694,-122.1061 694,-140.991 694,-140.991"/>
<polygon fill="#000000" stroke="#000000" points="690.5001,-140.9909 694,-150.991 697.5001,-140.991 690.5001,-140.9909"/>
</g>
<!-- RefinePanelComponent -->
<g id="node5" class="node">
<title>RefinePanelComponent</title>
<polygon fill="#ffffb3" stroke="#000000" points="603.752,-122 454.248,-122 454.248,-86 603.752,-86 603.752,-122"/>
<text text-anchor="middle" x="529" y="-99.8" font-family="Times,serif" font-size="14.00" fill="#000000">RefinePanelComponent</text>
</g>
<!-- RefinePanelComponent&#45;&gt;PiSelectionModule -->
<g id="edge5" class="edge">
<title>RefinePanelComponent&#45;&gt;PiSelectionModule</title>
<path fill="none" stroke="#000000" d="M579.7597,-122.027C579.7597,-138.3976 579.7597,-160 579.7597,-160 579.7597,-160 622.1989,-160 622.1989,-160"/>
<polygon fill="#000000" stroke="#000000" points="622.1989,-163.5001 632.1989,-160 622.1988,-156.5001 622.1989,-163.5001"/>
</g>
<!-- ResultsTableComponent -->
<g id="node6" class="node">
<title>ResultsTableComponent</title>
<polygon fill="#ffffb3" stroke="#000000" points="436.427,-122 281.573,-122 281.573,-86 436.427,-86 436.427,-122"/>
<text text-anchor="middle" x="359" y="-99.8" font-family="Times,serif" font-size="14.00" fill="#000000">ResultsTableComponent</text>
</g>
<!-- ResultsTableComponent&#45;&gt;PiSelectionModule -->
<g id="edge6" class="edge">
<title>ResultsTableComponent&#45;&gt;PiSelectionModule</title>
<path fill="none" stroke="#000000" d="M359,-122.1061C359,-141.3391 359,-169 359,-169 359,-169 622.1654,-169 622.1654,-169"/>
<polygon fill="#000000" stroke="#000000" points="622.1655,-172.5001 632.1654,-169 622.1654,-165.5001 622.1655,-172.5001"/>
</g>
<!-- PiEntryComponent  -->
<g id="node8" class="node">
<title>PiEntryComponent </title>
<polygon fill="#fb8072" stroke="#000000" points="831.61,-252 704.39,-252 704.39,-216 831.61,-216 831.61,-252"/>
<text text-anchor="middle" x="768" y="-229.8" font-family="Times,serif" font-size="14.00" fill="#000000">PiEntryComponent </text>
</g>
<!-- PiSelectionModule&#45;&gt;PiEntryComponent  -->
<g id="edge7" class="edge">
<title>PiSelectionModule&#45;&gt;PiEntryComponent </title>
<path fill="none" stroke="#000000" stroke-dasharray="5,2" d="M729.928,-187.1061C729.928,-187.1061 729.928,-205.991 729.928,-205.991"/>
<polygon fill="#000000" stroke="#000000" points="726.428,-205.9909 729.928,-215.991 733.428,-205.991 726.428,-205.9909"/>
</g>
<!-- PiSelectComponent  -->
<g id="node9" class="node">
<title>PiSelectComponent </title>
<polygon fill="#fb8072" stroke="#000000" points="686.2135,-252 555.7865,-252 555.7865,-216 686.2135,-216 686.2135,-252"/>
<text text-anchor="middle" x="621" y="-229.8" font-family="Times,serif" font-size="14.00" fill="#000000">PiSelectComponent </text>
</g>
<!-- PiSelectionModule&#45;&gt;PiSelectComponent  -->
<g id="edge8" class="edge">
<title>PiSelectionModule&#45;&gt;PiSelectComponent </title>
<path fill="none" stroke="#000000" stroke-dasharray="5,2" d="M659.348,-187.1061C659.348,-187.1061 659.348,-205.991 659.348,-205.991"/>
<polygon fill="#000000" stroke="#000000" points="655.8481,-205.9909 659.348,-215.991 662.8481,-205.991 655.8481,-205.9909"/>
</g>
<!-- PrimaryInvestigatorService -->
<g id="node10" class="node">
<title>PrimaryInvestigatorService</title>
<ellipse fill="#fdb462" stroke="#000000" cx="141" cy="-104" rx="117.449" ry="18"/>
<text text-anchor="middle" x="141" y="-99.8" font-family="Times,serif" font-size="14.00" fill="#000000">PrimaryInvestigatorService</text>
</g>
<!-- PrimaryInvestigatorService&#45;&gt;PiSelectionModule -->
<g id="edge9" class="edge">
<title>PrimaryInvestigatorService&#45;&gt;PiSelectionModule</title>
<path fill="none" stroke="#000000" d="M141,-122.2921C141,-144.2057 141,-178 141,-178 141,-178 622.1736,-178 622.1736,-178"/>
<polygon fill="#000000" stroke="#000000" points="622.1736,-181.5001 632.1736,-178 622.1735,-174.5001 622.1736,-181.5001"/>
</g>
</g>
</svg>
