<?xml version="1.0" encoding="UTF-8" standalone="no"?>
<!DOCTYPE svg PUBLIC "-//W3C//DTD SVG 1.1//EN"
 "http://www.w3.org/Graphics/SVG/1.1/DTD/svg11.dtd">
<!-- Generated by graphviz version 2.40.1 (20161225.0304)
 -->
<!-- Title: dependencies Pages: 1 -->
<svg width="758pt" height="284pt"
 viewBox="0.00 0.00 758.00 284.00" xmlns="http://www.w3.org/2000/svg" xmlns:xlink="http://www.w3.org/1999/xlink">
<g id="graph0" class="graph" transform="scale(1 1) rotate(0) translate(4 280)">
<title>dependencies</title>
<polygon fill="#ffffff" stroke="transparent" points="-4,4 -4,-280 754,-280 754,4 -4,4"/>
<text text-anchor="start" x="354.0091" y="-42.4" font-family="sans-serif" font-weight="bold" font-size="14.00" fill="#000000">Legend</text>
<polygon fill="#ffffb3" stroke="transparent" points="141,-10 141,-30 161,-30 161,-10 141,-10"/>
<text text-anchor="start" x="164.629" y="-15.4" font-family="sans-serif" font-size="14.00" fill="#000000"> &#160;Declarations</text>
<polygon fill="#8dd3c7" stroke="transparent" points="254,-10 254,-30 274,-30 274,-10 254,-10"/>
<text text-anchor="start" x="277.7251" y="-15.4" font-family="sans-serif" font-size="14.00" fill="#000000"> &#160;Module</text>
<polygon fill="#80b1d3" stroke="transparent" points="340,-10 340,-30 360,-30 360,-10 340,-10"/>
<text text-anchor="start" x="363.7812" y="-15.4" font-family="sans-serif" font-size="14.00" fill="#000000"> &#160;Bootstrap</text>
<polygon fill="#fdb462" stroke="transparent" points="437,-10 437,-30 457,-30 457,-10 437,-10"/>
<text text-anchor="start" x="460.6732" y="-15.4" font-family="sans-serif" font-size="14.00" fill="#000000"> &#160;Providers</text>
<polygon fill="#fb8072" stroke="transparent" points="533,-10 533,-30 553,-30 553,-10 533,-10"/>
<text text-anchor="start" x="556.7258" y="-15.4" font-family="sans-serif" font-size="14.00" fill="#000000"> &#160;Exports</text>
<g id="clust1" class="cluster">
<title>cluster_FieldCentreCoordinatesModule</title>
<polygon fill="none" stroke="#000000" stroke-dasharray="1,5" points="8,-70 8,-268 742,-268 742,-70 8,-70"/>
</g>
<g id="clust2" class="cluster">
<title>cluster_FieldCentreCoordinatesModule_declarations</title>
<polygon fill="none" stroke="#000000" points="138,-78 138,-130 734,-130 734,-78 138,-78"/>
</g>
<g id="clust6" class="cluster">
<title>cluster_FieldCentreCoordinatesModule_imports</title>
<polygon fill="none" stroke="#000000" points="16,-78 16,-130 130,-130 130,-78 16,-78"/>
</g>
<g id="clust7" class="cluster">
<title>cluster_FieldCentreCoordinatesModule_exports</title>
<polygon fill="none" stroke="#000000" points="242,-208 242,-260 476,-260 476,-208 242,-208"/>
</g>
<!-- FccIndividualComponent -->
<g id="node1" class="node">
<title>FccIndividualComponent</title>
<polygon fill="#ffffb3" stroke="#000000" points="725.5912,-122 566.4088,-122 566.4088,-86 725.5912,-86 725.5912,-122"/>
<text text-anchor="middle" x="646" y="-99.8" font-family="Times,serif" font-size="14.00" fill="#000000">FccIndividualComponent</text>
</g>
<!-- FieldCentreCoordinatesModule -->
<g id="node4" class="node">
<title>FieldCentreCoordinatesModule</title>
<polygon fill="#8dd3c7" stroke="#000000" points="455.7976,-187 452.7976,-191 431.7976,-191 428.7976,-187 262.2024,-187 262.2024,-151 455.7976,-151 455.7976,-187"/>
<text text-anchor="middle" x="359" y="-164.8" font-family="Times,serif" font-size="14.00" fill="#000000">FieldCentreCoordinatesModule</text>
</g>
<!-- FccIndividualComponent&#45;&gt;FieldCentreCoordinatesModule -->
<g id="edge1" class="edge">
<title>FccIndividualComponent&#45;&gt;FieldCentreCoordinatesModule</title>
<path fill="none" stroke="#000000" d="M646,-122.1061C646,-141.3391 646,-169 646,-169 646,-169 465.765,-169 465.765,-169"/>
<polygon fill="#000000" stroke="#000000" points="465.765,-165.5001 455.765,-169 465.765,-172.5001 465.765,-165.5001"/>
</g>
<!-- FccRectangularComponent -->
<g id="node2" class="node">
<title>FccRectangularComponent</title>
<polygon fill="#ffffb3" stroke="#000000" points="548.6811,-122 379.3189,-122 379.3189,-86 548.6811,-86 548.6811,-122"/>
<text text-anchor="middle" x="464" y="-99.8" font-family="Times,serif" font-size="14.00" fill="#000000">FccRectangularComponent</text>
</g>
<!-- FccRectangularComponent&#45;&gt;FieldCentreCoordinatesModule -->
<g id="edge2" class="edge">
<title>FccRectangularComponent&#45;&gt;FieldCentreCoordinatesModule</title>
<path fill="none" stroke="#000000" d="M417.5291,-122.1061C417.5291,-122.1061 417.5291,-140.991 417.5291,-140.991"/>
<polygon fill="#000000" stroke="#000000" points="414.0292,-140.9909 417.5291,-150.991 421.0292,-140.991 414.0292,-140.9909"/>
</g>
<!-- FieldCenterCoordinatesComponent -->
<g id="node3" class="node">
<title>FieldCenterCoordinatesComponent</title>
<polygon fill="#ffffb3" stroke="#000000" points="361.58,-122 146.42,-122 146.42,-86 361.58,-86 361.58,-122"/>
<text text-anchor="middle" x="254" y="-99.8" font-family="Times,serif" font-size="14.00" fill="#000000">FieldCenterCoordinatesComponent</text>
</g>
<!-- FieldCenterCoordinatesComponent&#45;&gt;FieldCentreCoordinatesModule -->
<g id="edge3" class="edge">
<title>FieldCenterCoordinatesComponent&#45;&gt;FieldCentreCoordinatesModule</title>
<path fill="none" stroke="#000000" d="M311.9457,-122.1061C311.9457,-122.1061 311.9457,-140.991 311.9457,-140.991"/>
<polygon fill="#000000" stroke="#000000" points="308.4457,-140.9909 311.9457,-150.991 315.4457,-140.991 308.4457,-140.9909"/>
</g>
<!-- FieldCenterCoordinatesComponent  -->
<g id="node6" class="node">
<title>FieldCenterCoordinatesComponent </title>
<polygon fill="#fb8072" stroke="#000000" points="468.0804,-252 249.9196,-252 249.9196,-216 468.0804,-216 468.0804,-252"/>
<text text-anchor="middle" x="359" y="-229.8" font-family="Times,serif" font-size="14.00" fill="#000000">FieldCenterCoordinatesComponent </text>
</g>
<!-- FieldCentreCoordinatesModule&#45;&gt;FieldCenterCoordinatesComponent  -->
<g id="edge5" class="edge">
<title>FieldCentreCoordinatesModule&#45;&gt;FieldCenterCoordinatesComponent </title>
<path fill="none" stroke="#000000" stroke-dasharray="5,2" d="M359,-187.1061C359,-187.1061 359,-205.991 359,-205.991"/>
<polygon fill="#000000" stroke="#000000" points="355.5001,-205.9909 359,-215.991 362.5001,-205.991 355.5001,-205.9909"/>
</g>
<!-- SharedModule -->
<g id="node5" class="node">
<title>SharedModule</title>
<polygon fill="#8dd3c7" stroke="#000000" points="122.4231,-122 119.4231,-126 98.4231,-126 95.4231,-122 23.5769,-122 23.5769,-86 122.4231,-86 122.4231,-122"/>
<text text-anchor="middle" x="73" y="-99.8" font-family="Times,serif" font-size="14.00" fill="#000000">SharedModule</text>
</g>
<!-- SharedModule&#45;&gt;FieldCentreCoordinatesModule -->
<g id="edge4" class="edge">
<title>SharedModule&#45;&gt;FieldCentreCoordinatesModule</title>
<path fill="none" stroke="#000000" d="M73,-122.1061C73,-141.3391 73,-169 73,-169 73,-169 252.1734,-169 252.1734,-169"/>
<polygon fill="#000000" stroke="#000000" points="252.1735,-172.5001 262.1734,-169 252.1734,-165.5001 252.1735,-172.5001"/>
</g>
</g>
</svg>
