<?xml version="1.0" encoding="UTF-8" standalone="no"?>
<!DOCTYPE svg PUBLIC "-//W3C//DTD SVG 1.1//EN"
 "http://www.w3.org/Graphics/SVG/1.1/DTD/svg11.dtd">
<!-- Generated by graphviz version 2.40.1 (20161225.0304)
 -->
<!-- Title: dependencies Pages: 1 -->
<svg width="636pt" height="284pt"
 viewBox="0.00 0.00 636.00 284.00" xmlns="http://www.w3.org/2000/svg" xmlns:xlink="http://www.w3.org/1999/xlink">
<g id="graph0" class="graph" transform="scale(1 1) rotate(0) translate(4 280)">
<title>dependencies</title>
<polygon fill="#ffffff" stroke="transparent" points="-4,4 -4,-280 632,-280 632,4 -4,4"/>
<text text-anchor="start" x="293.0091" y="-42.4" font-family="sans-serif" font-weight="bold" font-size="14.00" fill="#000000">Legend</text>
<polygon fill="#ffffb3" stroke="transparent" points="80,-10 80,-30 100,-30 100,-10 80,-10"/>
<text text-anchor="start" x="103.629" y="-15.4" font-family="sans-serif" font-size="14.00" fill="#000000"> &#160;Declarations</text>
<polygon fill="#8dd3c7" stroke="transparent" points="193,-10 193,-30 213,-30 213,-10 193,-10"/>
<text text-anchor="start" x="216.7251" y="-15.4" font-family="sans-serif" font-size="14.00" fill="#000000"> &#160;Module</text>
<polygon fill="#80b1d3" stroke="transparent" points="279,-10 279,-30 299,-30 299,-10 279,-10"/>
<text text-anchor="start" x="302.7812" y="-15.4" font-family="sans-serif" font-size="14.00" fill="#000000"> &#160;Bootstrap</text>
<polygon fill="#fdb462" stroke="transparent" points="376,-10 376,-30 396,-30 396,-10 376,-10"/>
<text text-anchor="start" x="399.6732" y="-15.4" font-family="sans-serif" font-size="14.00" fill="#000000"> &#160;Providers</text>
<polygon fill="#fb8072" stroke="transparent" points="472,-10 472,-30 492,-30 492,-10 472,-10"/>
<text text-anchor="start" x="495.7258" y="-15.4" font-family="sans-serif" font-size="14.00" fill="#000000"> &#160;Exports</text>
<g id="clust1" class="cluster">
<title>cluster_FieldCentreCoordinatesModule</title>
<polygon fill="none" stroke="#000000" stroke-dasharray="1,5" points="8,-70 8,-268 620,-268 620,-70 8,-70"/>
</g>
<g id="clust2" class="cluster">
<title>cluster_FieldCentreCoordinatesModule_declarations</title>
<polygon fill="none" stroke="#000000" points="16,-78 16,-130 612,-130 612,-78 16,-78"/>
</g>
<g id="clust7" class="cluster">
<title>cluster_FieldCentreCoordinatesModule_exports</title>
<polygon fill="none" stroke="#000000" points="225,-208 225,-260 459,-260 459,-208 225,-208"/>
</g>
<!-- FccIndividualComponent -->
<g id="node1" class="node">
<title>FccIndividualComponent</title>
<polygon fill="#ffffb3" stroke="#000000" points="603.5912,-122 444.4088,-122 444.4088,-86 603.5912,-86 603.5912,-122"/>
<text text-anchor="middle" x="524" y="-99.8" font-family="Times,serif" font-size="14.00" fill="#000000">FccIndividualComponent</text>
</g>
<!-- FieldCentreCoordinatesModule -->
<g id="node4" class="node">
<title>FieldCentreCoordinatesModule</title>
<polygon fill="#8dd3c7" stroke="#000000" points="438.7976,-187 435.7976,-191 414.7976,-191 411.7976,-187 245.2024,-187 245.2024,-151 438.7976,-151 438.7976,-187"/>
<text text-anchor="middle" x="342" y="-164.8" font-family="Times,serif" font-size="14.00" fill="#000000">FieldCentreCoordinatesModule</text>
</g>
<!-- FccIndividualComponent&#45;&gt;FieldCentreCoordinatesModule -->
<g id="edge1" class="edge">
<title>FccIndividualComponent&#45;&gt;FieldCentreCoordinatesModule</title>
<path fill="none" stroke="#000000" d="M444.193,-104C437.1499,-104 432.6196,-104 432.6196,-104 432.6196,-104 432.6196,-140.8939 432.6196,-140.8939"/>
<polygon fill="#000000" stroke="#000000" points="429.1197,-140.8938 432.6196,-150.8939 436.1197,-140.8939 429.1197,-140.8938"/>
</g>
<!-- FccRectangularComponent -->
<g id="node2" class="node">
<title>FccRectangularComponent</title>
<polygon fill="#ffffb3" stroke="#000000" points="426.6811,-122 257.3189,-122 257.3189,-86 426.6811,-86 426.6811,-122"/>
<text text-anchor="middle" x="342" y="-99.8" font-family="Times,serif" font-size="14.00" fill="#000000">FccRectangularComponent</text>
</g>
<!-- FccRectangularComponent&#45;&gt;FieldCentreCoordinatesModule -->
<g id="edge2" class="edge">
<title>FccRectangularComponent&#45;&gt;FieldCentreCoordinatesModule</title>
<path fill="none" stroke="#000000" d="M342,-122.1061C342,-122.1061 342,-140.991 342,-140.991"/>
<polygon fill="#000000" stroke="#000000" points="338.5001,-140.9909 342,-150.991 345.5001,-140.991 338.5001,-140.9909"/>
</g>
<!-- FieldCenterCoordinatesComponent -->
<g id="node3" class="node">
<title>FieldCenterCoordinatesComponent</title>
<polygon fill="#ffffb3" stroke="#000000" points="239.58,-122 24.42,-122 24.42,-86 239.58,-86 239.58,-122"/>
<text text-anchor="middle" x="132" y="-99.8" font-family="Times,serif" font-size="14.00" fill="#000000">FieldCenterCoordinatesComponent</text>
</g>
<!-- FieldCenterCoordinatesComponent&#45;&gt;FieldCentreCoordinatesModule -->
<g id="edge3" class="edge">
<title>FieldCenterCoordinatesComponent&#45;&gt;FieldCentreCoordinatesModule</title>
<path fill="none" stroke="#000000" d="M239.9337,-104C247.0067,-104 251.3804,-104 251.3804,-104 251.3804,-104 251.3804,-140.8939 251.3804,-140.8939"/>
<polygon fill="#000000" stroke="#000000" points="247.8805,-140.8938 251.3804,-150.8939 254.8805,-140.8939 247.8805,-140.8938"/>
</g>
<!-- FieldCenterCoordinatesComponent  -->
<g id="node5" class="node">
<title>FieldCenterCoordinatesComponent </title>
<polygon fill="#fb8072" stroke="#000000" points="451.0804,-252 232.9196,-252 232.9196,-216 451.0804,-216 451.0804,-252"/>
<text text-anchor="middle" x="342" y="-229.8" font-family="Times,serif" font-size="14.00" fill="#000000">FieldCenterCoordinatesComponent </text>
</g>
<!-- FieldCentreCoordinatesModule&#45;&gt;FieldCenterCoordinatesComponent  -->
<g id="edge4" class="edge">
<title>FieldCentreCoordinatesModule&#45;&gt;FieldCenterCoordinatesComponent </title>
<path fill="none" stroke="#000000" stroke-dasharray="5,2" d="M342,-187.1061C342,-187.1061 342,-205.991 342,-205.991"/>
<polygon fill="#000000" stroke="#000000" points="338.5001,-205.9909 342,-215.991 345.5001,-205.991 338.5001,-205.9909"/>
</g>
</g>
</svg>
