<?xml version="1.0" encoding="UTF-8" standalone="no"?>
<!DOCTYPE svg PUBLIC "-//W3C//DTD SVG 1.1//EN"
 "http://www.w3.org/Graphics/SVG/1.1/DTD/svg11.dtd">
<!-- Generated by graphviz version 2.40.1 (20161225.0304)
 -->
<!-- Title: dependencies Pages: 1 -->
<svg width="2104pt" height="284pt"
 viewBox="0.00 0.00 2104.00 284.00" xmlns="http://www.w3.org/2000/svg" xmlns:xlink="http://www.w3.org/1999/xlink">
<g id="graph0" class="graph" transform="scale(1 1) rotate(0) translate(4 280)">
<title>dependencies</title>
<polygon fill="#ffffff" stroke="transparent" points="-4,4 -4,-280 2100,-280 2100,4 -4,4"/>
<text text-anchor="start" x="1027.0091" y="-42.4" font-family="sans-serif" font-weight="bold" font-size="14.00" fill="#000000">Legend</text>
<polygon fill="#ffffb3" stroke="transparent" points="814,-10 814,-30 834,-30 834,-10 814,-10"/>
<text text-anchor="start" x="837.629" y="-15.4" font-family="sans-serif" font-size="14.00" fill="#000000"> &#160;Declarations</text>
<polygon fill="#8dd3c7" stroke="transparent" points="927,-10 927,-30 947,-30 947,-10 927,-10"/>
<text text-anchor="start" x="950.7251" y="-15.4" font-family="sans-serif" font-size="14.00" fill="#000000"> &#160;Module</text>
<polygon fill="#80b1d3" stroke="transparent" points="1013,-10 1013,-30 1033,-30 1033,-10 1013,-10"/>
<text text-anchor="start" x="1036.7812" y="-15.4" font-family="sans-serif" font-size="14.00" fill="#000000"> &#160;Bootstrap</text>
<polygon fill="#fdb462" stroke="transparent" points="1110,-10 1110,-30 1130,-30 1130,-10 1110,-10"/>
<text text-anchor="start" x="1133.6732" y="-15.4" font-family="sans-serif" font-size="14.00" fill="#000000"> &#160;Providers</text>
<polygon fill="#fb8072" stroke="transparent" points="1206,-10 1206,-30 1226,-30 1226,-10 1206,-10"/>
<text text-anchor="start" x="1229.7258" y="-15.4" font-family="sans-serif" font-size="14.00" fill="#000000"> &#160;Exports</text>
<g id="clust1" class="cluster">
<title>cluster_ProjectModule</title>
<polygon fill="none" stroke="#000000" stroke-dasharray="1,5" points="8,-70 8,-268 2088,-268 2088,-70 8,-70"/>
</g>
<g id="clust2" class="cluster">
<title>cluster_ProjectModule_declarations</title>
<polygon fill="none" stroke="#000000" points="1138,-78 1138,-130 2080,-130 2080,-78 1138,-78"/>
</g>
<g id="clust9" class="cluster">
<title>cluster_ProjectModule_imports</title>
<polygon fill="none" stroke="#000000" points="492,-78 492,-130 1130,-130 1130,-78 492,-78"/>
</g>
<g id="clust10" class="cluster">
<title>cluster_ProjectModule_exports</title>
<polygon fill="none" stroke="#000000" points="1051,-208 1051,-260 1191,-260 1191,-208 1051,-208"/>
</g>
<g id="clust12" class="cluster">
<title>cluster_ProjectModule_providers</title>
<polygon fill="none" stroke="#000000" points="16,-78 16,-130 484,-130 484,-78 16,-78"/>
</g>
<!-- PlannedObservingComponent -->
<g id="node1" class="node">
<title>PlannedObservingComponent</title>
<polygon fill="#ffffb3" stroke="#000000" points="2072.252,-122 1887.748,-122 1887.748,-86 2072.252,-86 2072.252,-122"/>
<text text-anchor="middle" x="1980" y="-99.8" font-family="Times,serif" font-size="14.00" fill="#000000">PlannedObservingComponent</text>
</g>
<!-- ProjectModule -->
<g id="node7" class="node">
<title>ProjectModule</title>
<polygon fill="#8dd3c7" stroke="#000000" points="1170.7036,-187 1167.7036,-191 1146.7036,-191 1143.7036,-187 1071.2964,-187 1071.2964,-151 1170.7036,-151 1170.7036,-187"/>
<text text-anchor="middle" x="1121" y="-164.8" font-family="Times,serif" font-size="14.00" fill="#000000">ProjectModule</text>
</g>
<!-- PlannedObservingComponent&#45;&gt;ProjectModule -->
<g id="edge1" class="edge">
<title>PlannedObservingComponent&#45;&gt;ProjectModule</title>
<path fill="none" stroke="#000000" d="M1980,-122.2479C1980,-145.0179 1980,-181 1980,-181 1980,-181 1180.8964,-181 1180.8964,-181"/>
<polygon fill="#000000" stroke="#000000" points="1180.8964,-177.5001 1170.8964,-181 1180.8963,-184.5001 1180.8964,-177.5001"/>
</g>
<!-- ProjectComponent -->
<g id="node2" class="node">
<title>ProjectComponent</title>
<polygon fill="#ffffb3" stroke="#000000" points="1869.486,-122 1748.514,-122 1748.514,-86 1869.486,-86 1869.486,-122"/>
<text text-anchor="middle" x="1809" y="-99.8" font-family="Times,serif" font-size="14.00" fill="#000000">ProjectComponent</text>
</g>
<!-- ProjectComponent&#45;&gt;ProjectModule -->
<g id="edge2" class="edge">
<title>ProjectComponent&#45;&gt;ProjectModule</title>
<path fill="none" stroke="#000000" d="M1809,-122.2843C1809,-143.3211 1809,-175 1809,-175 1809,-175 1180.756,-175 1180.756,-175"/>
<polygon fill="#000000" stroke="#000000" points="1180.7561,-171.5001 1170.756,-175 1180.756,-178.5001 1180.7561,-171.5001"/>
</g>
<!-- ProposalComponent -->
<g id="node3" class="node">
<title>ProposalComponent</title>
<polygon fill="#ffffb3" stroke="#000000" points="1730.3258,-122 1599.6742,-122 1599.6742,-86 1730.3258,-86 1730.3258,-122"/>
<text text-anchor="middle" x="1665" y="-99.8" font-family="Times,serif" font-size="14.00" fill="#000000">ProposalComponent</text>
</g>
<!-- ProposalComponent&#45;&gt;ProjectModule -->
<g id="edge3" class="edge">
<title>ProposalComponent&#45;&gt;ProjectModule</title>
<path fill="none" stroke="#000000" d="M1665,-122.1061C1665,-141.3391 1665,-169 1665,-169 1665,-169 1180.7185,-169 1180.7185,-169"/>
<polygon fill="#000000" stroke="#000000" points="1180.7185,-165.5001 1170.7185,-169 1180.7185,-172.5001 1180.7185,-165.5001"/>
</g>
<!-- PiEntryComponent -->
<g id="node4" class="node">
<title>PiEntryComponent</title>
<polygon fill="#ffffb3" stroke="#000000" points="1582.1094,-122 1457.8906,-122 1457.8906,-86 1582.1094,-86 1582.1094,-122"/>
<text text-anchor="middle" x="1520" y="-99.8" font-family="Times,serif" font-size="14.00" fill="#000000">PiEntryComponent</text>
</g>
<!-- PiEntryComponent&#45;&gt;ProjectModule -->
<g id="edge4" class="edge">
<title>PiEntryComponent&#45;&gt;ProjectModule</title>
<path fill="none" stroke="#000000" d="M1520,-122.0225C1520,-139.3734 1520,-163 1520,-163 1520,-163 1180.7269,-163 1180.7269,-163"/>
<polygon fill="#000000" stroke="#000000" points="1180.7269,-159.5001 1170.7269,-163 1180.7268,-166.5001 1180.7269,-159.5001"/>
</g>
<!-- PiSearchComponent -->
<g id="node5" class="node">
<title>PiSearchComponent</title>
<polygon fill="#ffffb3" stroke="#000000" points="1439.5926,-122 1308.4074,-122 1308.4074,-86 1439.5926,-86 1439.5926,-122"/>
<text text-anchor="middle" x="1374" y="-99.8" font-family="Times,serif" font-size="14.00" fill="#000000">PiSearchComponent</text>
</g>
<!-- PiSearchComponent&#45;&gt;ProjectModule -->
<g id="edge5" class="edge">
<title>PiSearchComponent&#45;&gt;ProjectModule</title>
<path fill="none" stroke="#000000" d="M1374,-122.2396C1374,-137.5706 1374,-157 1374,-157 1374,-157 1180.6828,-157 1180.6828,-157"/>
<polygon fill="#000000" stroke="#000000" points="1180.6828,-153.5001 1170.6828,-157 1180.6828,-160.5001 1180.6828,-153.5001"/>
</g>
<!-- ProjectInfoComponent -->
<g id="node6" class="node">
<title>ProjectInfoComponent</title>
<polygon fill="#ffffb3" stroke="#000000" points="1290.3075,-122 1145.6925,-122 1145.6925,-86 1290.3075,-86 1290.3075,-122"/>
<text text-anchor="middle" x="1218" y="-99.8" font-family="Times,serif" font-size="14.00" fill="#000000">ProjectInfoComponent</text>
</g>
<!-- ProjectInfoComponent&#45;&gt;ProjectModule -->
<g id="edge6" class="edge">
<title>ProjectInfoComponent&#45;&gt;ProjectModule</title>
<path fill="none" stroke="#000000" d="M1158.224,-122.1061C1158.224,-122.1061 1158.224,-140.991 1158.224,-140.991"/>
<polygon fill="#000000" stroke="#000000" points="1154.7241,-140.9909 1158.224,-150.991 1161.7241,-140.991 1154.7241,-140.9909"/>
</g>
<!-- ProjectComponent  -->
<g id="node12" class="node">
<title>ProjectComponent </title>
<polygon fill="#fb8072" stroke="#000000" points="1183.487,-252 1058.513,-252 1058.513,-216 1183.487,-216 1183.487,-252"/>
<text text-anchor="middle" x="1121" y="-229.8" font-family="Times,serif" font-size="14.00" fill="#000000">ProjectComponent </text>
</g>
<!-- ProjectModule&#45;&gt;ProjectComponent  -->
<g id="edge11" class="edge">
<title>ProjectModule&#45;&gt;ProjectComponent </title>
<path fill="none" stroke="#000000" stroke-dasharray="5,2" d="M1121,-187.1061C1121,-187.1061 1121,-205.991 1121,-205.991"/>
<polygon fill="#000000" stroke="#000000" points="1117.5001,-205.9909 1121,-215.991 1124.5001,-205.991 1117.5001,-205.9909"/>
</g>
<!-- AlmaInvestigatorSearchModule -->
<g id="node8" class="node">
<title>AlmaInvestigatorSearchModule</title>
<polygon fill="#8dd3c7" stroke="#000000" points="1121.6064,-122 1118.6064,-126 1097.6064,-126 1094.6064,-122 926.3936,-122 926.3936,-86 1121.6064,-86 1121.6064,-122"/>
<text text-anchor="middle" x="1024" y="-99.8" font-family="Times,serif" font-size="14.00" fill="#000000">AlmaInvestigatorSearchModule</text>
</g>
<!-- AlmaInvestigatorSearchModule&#45;&gt;ProjectModule -->
<g id="edge7" class="edge">
<title>AlmaInvestigatorSearchModule&#45;&gt;ProjectModule</title>
<path fill="none" stroke="#000000" d="M1096.6006,-122.1061C1096.6006,-122.1061 1096.6006,-140.991 1096.6006,-140.991"/>
<polygon fill="#000000" stroke="#000000" points="1093.1007,-140.9909 1096.6006,-150.991 1100.1007,-140.991 1093.1007,-140.9909"/>
</g>
<!-- SharedModule -->
<g id="node9" class="node">
<title>SharedModule</title>
<polygon fill="#8dd3c7" stroke="#000000" points="908.4231,-122 905.4231,-126 884.4231,-126 881.4231,-122 809.5769,-122 809.5769,-86 908.4231,-86 908.4231,-122"/>
<text text-anchor="middle" x="859" y="-99.8" font-family="Times,serif" font-size="14.00" fill="#000000">SharedModule</text>
</g>
<!-- SharedModule&#45;&gt;ProjectModule -->
<g id="edge8" class="edge">
<title>SharedModule&#45;&gt;ProjectModule</title>
<path fill="none" stroke="#000000" d="M859,-122.2396C859,-137.5706 859,-157 859,-157 859,-157 1061.1031,-157 1061.1031,-157"/>
<polygon fill="#000000" stroke="#000000" points="1061.1031,-160.5001 1071.1031,-157 1061.1031,-153.5001 1061.1031,-160.5001"/>
</g>
<!-- ScienceGoalModule -->
<g id="node10" class="node">
<title>ScienceGoalModule</title>
<polygon fill="#8dd3c7" stroke="#000000" points="792.2935,-122 789.2935,-126 768.2935,-126 765.2935,-122 661.7065,-122 661.7065,-86 792.2935,-86 792.2935,-122"/>
<text text-anchor="middle" x="727" y="-99.8" font-family="Times,serif" font-size="14.00" fill="#000000">ScienceGoalModule</text>
</g>
<!-- ScienceGoalModule&#45;&gt;ProjectModule -->
<g id="edge9" class="edge">
<title>ScienceGoalModule&#45;&gt;ProjectModule</title>
<path fill="none" stroke="#000000" d="M727,-122.0225C727,-139.3734 727,-163 727,-163 727,-163 1061.0996,-163 1061.0996,-163"/>
<polygon fill="#000000" stroke="#000000" points="1061.0997,-166.5001 1071.0996,-163 1061.0996,-159.5001 1061.0997,-166.5001"/>
</g>
<!-- ProjectRoutingModule -->
<g id="node11" class="node">
<title>ProjectRoutingModule</title>
<polygon fill="#8dd3c7" stroke="#000000" points="644.3216,-122 641.3216,-126 620.3216,-126 617.3216,-122 499.6784,-122 499.6784,-86 644.3216,-86 644.3216,-122"/>
<text text-anchor="middle" x="572" y="-99.8" font-family="Times,serif" font-size="14.00" fill="#000000">ProjectRoutingModule</text>
</g>
<!-- ProjectRoutingModule&#45;&gt;ProjectModule -->
<g id="edge10" class="edge">
<title>ProjectRoutingModule&#45;&gt;ProjectModule</title>
<path fill="none" stroke="#000000" d="M572,-122.1061C572,-141.3391 572,-169 572,-169 572,-169 1061.3116,-169 1061.3116,-169"/>
<polygon fill="#000000" stroke="#000000" points="1061.3117,-172.5001 1071.3116,-169 1061.3116,-165.5001 1061.3117,-172.5001"/>
</g>
<!-- AlmaInvestigatorSearchService -->
<g id="node13" class="node">
<title>AlmaInvestigatorSearchService</title>
<ellipse fill="#fdb462" stroke="#000000" cx="342" cy="-104" rx="133.6821" ry="18"/>
<text text-anchor="middle" x="342" y="-99.8" font-family="Times,serif" font-size="14.00" fill="#000000">AlmaInvestigatorSearchService</text>
</g>
<!-- AlmaInvestigatorSearchService&#45;&gt;ProjectModule -->
<g id="edge12" class="edge">
<title>AlmaInvestigatorSearchService&#45;&gt;ProjectModule</title>
<path fill="none" stroke="#000000" d="M342,-122.2843C342,-143.3211 342,-175 342,-175 342,-175 1061.3824,-175 1061.3824,-175"/>
<polygon fill="#000000" stroke="#000000" points="1061.3825,-178.5001 1071.3824,-175 1061.3824,-171.5001 1061.3825,-178.5001"/>
</g>
<!-- ProjectService -->
<g id="node14" class="node">
<title>PersistenceService</title>
<ellipse fill="#fdb462" stroke="#000000" cx="107" cy="-104" rx="83.3577" ry="18"/>
<text text-anchor="middle" x="107" y="-99.8" font-family="Times,serif" font-size="14.00" fill="#000000">PersistenceService</text>
</g>
<!-- ProjectService&#45;&gt;ProjectModule -->
<g id="edge13" class="edge">
<title>PersistenceService&#45;&gt;ProjectModule</title>
<path fill="none" stroke="#000000" d="M107,-122.2479C107,-145.0179 107,-181 107,-181 107,-181 1061.0614,-181 1061.0614,-181"/>
<polygon fill="#000000" stroke="#000000" points="1061.0615,-184.5001 1071.0614,-181 1061.0614,-177.5001 1061.0615,-184.5001"/>
</g>
</g>
</svg>
