<?xml version="1.0" encoding="UTF-8" standalone="no"?>
<!DOCTYPE svg PUBLIC "-//W3C//DTD SVG 1.1//EN"
 "http://www.w3.org/Graphics/SVG/1.1/DTD/svg11.dtd">
<!-- Generated by graphviz version 2.40.1 (20161225.0304)
 -->
<!-- Title: dependencies Pages: 1 -->
<svg width="968pt" height="284pt"
 viewBox="0.00 0.00 968.00 284.00" xmlns="http://www.w3.org/2000/svg" xmlns:xlink="http://www.w3.org/1999/xlink">
<g id="graph0" class="graph" transform="scale(1 1) rotate(0) translate(4 280)">
<title>dependencies</title>
<polygon fill="#ffffff" stroke="transparent" points="-4,4 -4,-280 964,-280 964,4 -4,4"/>
<text text-anchor="start" x="459.0091" y="-42.4" font-family="sans-serif" font-weight="bold" font-size="14.00" fill="#000000">Legend</text>
<polygon fill="#ffffb3" stroke="transparent" points="246,-10 246,-30 266,-30 266,-10 246,-10"/>
<text text-anchor="start" x="269.629" y="-15.4" font-family="sans-serif" font-size="14.00" fill="#000000"> &#160;Declarations</text>
<polygon fill="#8dd3c7" stroke="transparent" points="359,-10 359,-30 379,-30 379,-10 359,-10"/>
<text text-anchor="start" x="382.7251" y="-15.4" font-family="sans-serif" font-size="14.00" fill="#000000"> &#160;Module</text>
<polygon fill="#80b1d3" stroke="transparent" points="445,-10 445,-30 465,-30 465,-10 445,-10"/>
<text text-anchor="start" x="468.7812" y="-15.4" font-family="sans-serif" font-size="14.00" fill="#000000"> &#160;Bootstrap</text>
<polygon fill="#fdb462" stroke="transparent" points="542,-10 542,-30 562,-30 562,-10 542,-10"/>
<text text-anchor="start" x="565.6732" y="-15.4" font-family="sans-serif" font-size="14.00" fill="#000000"> &#160;Providers</text>
<polygon fill="#fb8072" stroke="transparent" points="638,-10 638,-30 658,-30 658,-10 638,-10"/>
<text text-anchor="start" x="661.7258" y="-15.4" font-family="sans-serif" font-size="14.00" fill="#000000"> &#160;Exports</text>
<g id="clust1" class="cluster">
<title>cluster_ProjectModule</title>
<polygon fill="none" stroke="#000000" stroke-dasharray="1,5" points="8,-70 8,-268 952,-268 952,-70 8,-70"/>
</g>
<g id="clust2" class="cluster">
<title>cluster_ProjectModule_declarations</title>
<polygon fill="none" stroke="#000000" points="456,-78 456,-130 944,-130 944,-78 456,-78"/>
</g>
<g id="clust6" class="cluster">
<title>cluster_ProjectModule_imports</title>
<polygon fill="none" stroke="#000000" points="16,-78 16,-130 448,-130 448,-78 16,-78"/>
</g>
<g id="clust7" class="cluster">
<title>cluster_ProjectModule_exports</title>
<polygon fill="none" stroke="#000000" points="382,-208 382,-260 522,-260 522,-208 382,-208"/>
</g>
<!-- PlannedObservingComponent -->
<g id="node1" class="node">
<title>PlannedObservingComponent</title>
<polygon fill="#ffffb3" stroke="#000000" points="936.252,-122 751.748,-122 751.748,-86 936.252,-86 936.252,-122"/>
<text text-anchor="middle" x="844" y="-99.8" font-family="Times,serif" font-size="14.00" fill="#000000">PlannedObservingComponent</text>
</g>
<!-- ProjectModule -->
<g id="node4" class="node">
<title>ProjectModule</title>
<polygon fill="#8dd3c7" stroke="#000000" points="501.7036,-187 498.7036,-191 477.7036,-191 474.7036,-187 402.2964,-187 402.2964,-151 501.7036,-151 501.7036,-187"/>
<text text-anchor="middle" x="452" y="-164.8" font-family="Times,serif" font-size="14.00" fill="#000000">ProjectModule</text>
</g>
<!-- PlannedObservingComponent&#45;&gt;ProjectModule -->
<g id="edge1" class="edge">
<title>PlannedObservingComponent&#45;&gt;ProjectModule</title>
<path fill="none" stroke="#000000" d="M844,-122.2843C844,-143.3211 844,-175 844,-175 844,-175 511.6471,-175 511.6471,-175"/>
<polygon fill="#000000" stroke="#000000" points="511.6471,-171.5001 501.6471,-175 511.647,-178.5001 511.6471,-171.5001"/>
</g>
<!-- ProjectComponent -->
<g id="node2" class="node">
<title>ProjectComponent</title>
<polygon fill="#ffffb3" stroke="#000000" points="733.486,-122 612.514,-122 612.514,-86 733.486,-86 733.486,-122"/>
<text text-anchor="middle" x="673" y="-99.8" font-family="Times,serif" font-size="14.00" fill="#000000">ProjectComponent</text>
</g>
<!-- ProjectComponent&#45;&gt;ProjectModule -->
<g id="edge2" class="edge">
<title>ProjectComponent&#45;&gt;ProjectModule</title>
<path fill="none" stroke="#000000" d="M673,-122.0225C673,-139.3734 673,-163 673,-163 673,-163 511.8723,-163 511.8723,-163"/>
<polygon fill="#000000" stroke="#000000" points="511.8723,-159.5001 501.8723,-163 511.8722,-166.5001 511.8723,-159.5001"/>
</g>
<!-- ProposalComponent -->
<g id="node3" class="node">
<title>ProposalComponent</title>
<polygon fill="#ffffb3" stroke="#000000" points="594.3258,-122 463.6742,-122 463.6742,-86 594.3258,-86 594.3258,-122"/>
<text text-anchor="middle" x="529" y="-99.8" font-family="Times,serif" font-size="14.00" fill="#000000">ProposalComponent</text>
</g>
<!-- ProposalComponent&#45;&gt;ProjectModule -->
<g id="edge3" class="edge">
<title>ProposalComponent&#45;&gt;ProjectModule</title>
<path fill="none" stroke="#000000" d="M482.7195,-122.1061C482.7195,-122.1061 482.7195,-140.991 482.7195,-140.991"/>
<polygon fill="#000000" stroke="#000000" points="479.2196,-140.9909 482.7195,-150.991 486.2196,-140.991 479.2196,-140.9909"/>
</g>
<!-- ProjectComponent  -->
<g id="node8" class="node">
<title>ProjectComponent </title>
<polygon fill="#fb8072" stroke="#000000" points="514.487,-252 389.513,-252 389.513,-216 514.487,-216 514.487,-252"/>
<text text-anchor="middle" x="452" y="-229.8" font-family="Times,serif" font-size="14.00" fill="#000000">ProjectComponent </text>
</g>
<!-- ProjectModule&#45;&gt;ProjectComponent  -->
<g id="edge7" class="edge">
<title>ProjectModule&#45;&gt;ProjectComponent </title>
<path fill="none" stroke="#000000" stroke-dasharray="5,2" d="M452,-187.1061C452,-187.1061 452,-205.991 452,-205.991"/>
<polygon fill="#000000" stroke="#000000" points="448.5001,-205.9909 452,-215.991 455.5001,-205.991 448.5001,-205.9909"/>
</g>
<!-- ScienceGoalModule -->
<g id="node5" class="node">
<title>ScienceGoalModule</title>
<polygon fill="#8dd3c7" stroke="#000000" points="440.2935,-122 437.2935,-126 416.2935,-126 413.2935,-122 309.7065,-122 309.7065,-86 440.2935,-86 440.2935,-122"/>
<text text-anchor="middle" x="375" y="-99.8" font-family="Times,serif" font-size="14.00" fill="#000000">ScienceGoalModule</text>
</g>
<!-- ScienceGoalModule&#45;&gt;ProjectModule -->
<g id="edge4" class="edge">
<title>ScienceGoalModule&#45;&gt;ProjectModule</title>
<path fill="none" stroke="#000000" d="M421.2725,-122.1061C421.2725,-122.1061 421.2725,-140.991 421.2725,-140.991"/>
<polygon fill="#000000" stroke="#000000" points="417.7725,-140.9909 421.2725,-150.991 424.7725,-140.991 417.7725,-140.9909"/>
</g>
<!-- PiSelectModule -->
<g id="node6" class="node">
<title>PiSelectModule</title>
<polygon fill="#8dd3c7" stroke="#000000" points="291.9315,-122 288.9315,-126 267.9315,-126 264.9315,-122 186.0685,-122 186.0685,-86 291.9315,-86 291.9315,-122"/>
<text text-anchor="middle" x="239" y="-99.8" font-family="Times,serif" font-size="14.00" fill="#000000">PiSelectModule</text>
</g>
<!-- PiSelectModule&#45;&gt;ProjectModule -->
<g id="edge5" class="edge">
<title>PiSelectModule&#45;&gt;ProjectModule</title>
<path fill="none" stroke="#000000" d="M239,-122.0225C239,-139.3734 239,-163 239,-163 239,-163 392.3298,-163 392.3298,-163"/>
<polygon fill="#000000" stroke="#000000" points="392.3298,-166.5001 402.3298,-163 392.3297,-159.5001 392.3298,-166.5001"/>
</g>
<!-- ProjectRoutingModule -->
<g id="node7" class="node">
<title>ProjectRoutingModule</title>
<polygon fill="#8dd3c7" stroke="#000000" points="168.3216,-122 165.3216,-126 144.3216,-126 141.3216,-122 23.6784,-122 23.6784,-86 168.3216,-86 168.3216,-122"/>
<text text-anchor="middle" x="96" y="-99.8" font-family="Times,serif" font-size="14.00" fill="#000000">ProjectRoutingModule</text>
</g>
<!-- ProjectRoutingModule&#45;&gt;ProjectModule -->
<g id="edge6" class="edge">
<title>ProjectRoutingModule&#45;&gt;ProjectModule</title>
<path fill="none" stroke="#000000" d="M96,-122.2843C96,-143.3211 96,-175 96,-175 96,-175 392.1249,-175 392.1249,-175"/>
<polygon fill="#000000" stroke="#000000" points="392.1249,-178.5001 402.1249,-175 392.1248,-171.5001 392.1249,-178.5001"/>
</g>
</g>
</svg>
