<?xml version="1.0" encoding="UTF-8" standalone="no"?>
<!DOCTYPE svg PUBLIC "-//W3C//DTD SVG 1.1//EN"
 "http://www.w3.org/Graphics/SVG/1.1/DTD/svg11.dtd">
<!-- Generated by graphviz version 2.40.1 (20161225.0304)
 -->
<!-- Title: dependencies Pages: 1 -->
<svg width="538pt" height="284pt"
 viewBox="0.00 0.00 538.00 284.00" xmlns="http://www.w3.org/2000/svg" xmlns:xlink="http://www.w3.org/1999/xlink">
<g id="graph0" class="graph" transform="scale(1 1) rotate(0) translate(4 280)">
<title>dependencies</title>
<polygon fill="#ffffff" stroke="transparent" points="-4,4 -4,-280 534,-280 534,4 -4,4"/>
<text text-anchor="start" x="244.0091" y="-42.4" font-family="sans-serif" font-weight="bold" font-size="14.00" fill="#000000">Legend</text>
<polygon fill="#ffffb3" stroke="transparent" points="31,-10 31,-30 51,-30 51,-10 31,-10"/>
<text text-anchor="start" x="54.629" y="-15.4" font-family="sans-serif" font-size="14.00" fill="#000000"> &#160;Declarations</text>
<polygon fill="#8dd3c7" stroke="transparent" points="144,-10 144,-30 164,-30 164,-10 144,-10"/>
<text text-anchor="start" x="167.7251" y="-15.4" font-family="sans-serif" font-size="14.00" fill="#000000"> &#160;Module</text>
<polygon fill="#80b1d3" stroke="transparent" points="230,-10 230,-30 250,-30 250,-10 230,-10"/>
<text text-anchor="start" x="253.7812" y="-15.4" font-family="sans-serif" font-size="14.00" fill="#000000"> &#160;Bootstrap</text>
<polygon fill="#fdb462" stroke="transparent" points="327,-10 327,-30 347,-30 347,-10 327,-10"/>
<text text-anchor="start" x="350.6732" y="-15.4" font-family="sans-serif" font-size="14.00" fill="#000000"> &#160;Providers</text>
<polygon fill="#fb8072" stroke="transparent" points="423,-10 423,-30 443,-30 443,-10 423,-10"/>
<text text-anchor="start" x="446.7258" y="-15.4" font-family="sans-serif" font-size="14.00" fill="#000000"> &#160;Exports</text>
<g id="clust1" class="cluster">
<title>cluster_ProjectModule</title>
<polygon fill="none" stroke="#000000" stroke-dasharray="1,5" points="8,-70 8,-268 522,-268 522,-70 8,-70"/>
</g>
<g id="clust2" class="cluster">
<title>cluster_ProjectModule_declarations</title>
<polygon fill="none" stroke="#000000" points="21,-78 21,-130 509,-130 509,-78 21,-78"/>
</g>
<g id="clust7" class="cluster">
<title>cluster_ProjectModule_exports</title>
<polygon fill="none" stroke="#000000" points="16,-208 16,-260 514,-260 514,-208 16,-208"/>
</g>
<!-- ProjectComponent -->
<g id="node1" class="node">
<title>ProjectComponent</title>
<polygon fill="#ffffb3" stroke="#000000" points="501.486,-122 380.514,-122 380.514,-86 501.486,-86 501.486,-122"/>
<text text-anchor="middle" x="441" y="-99.8" font-family="Times,serif" font-size="14.00" fill="#000000">ProjectComponent</text>
</g>
<!-- ProjectModule -->
<g id="node4" class="node">
<title>ProjectModule</title>
<polygon fill="#8dd3c7" stroke="#000000" points="346.7036,-187 343.7036,-191 322.7036,-191 319.7036,-187 247.2964,-187 247.2964,-151 346.7036,-151 346.7036,-187"/>
<text text-anchor="middle" x="297" y="-164.8" font-family="Times,serif" font-size="14.00" fill="#000000">ProjectModule</text>
</g>
<!-- ProjectComponent&#45;&gt;ProjectModule -->
<g id="edge1" class="edge">
<title>ProjectComponent&#45;&gt;ProjectModule</title>
<path fill="none" stroke="#000000" d="M461.581,-122.0225C461.581,-139.3734 461.581,-163 461.581,-163 461.581,-163 356.8264,-163 356.8264,-163"/>
<polygon fill="#000000" stroke="#000000" points="356.8264,-159.5001 346.8264,-163 356.8263,-166.5001 356.8264,-159.5001"/>
</g>
<!-- ProposalComponent -->
<g id="node2" class="node">
<title>ProposalComponent</title>
<polygon fill="#ffffb3" stroke="#000000" points="362.3258,-122 231.6742,-122 231.6742,-86 362.3258,-86 362.3258,-122"/>
<text text-anchor="middle" x="297" y="-99.8" font-family="Times,serif" font-size="14.00" fill="#000000">ProposalComponent</text>
</g>
<!-- ProposalComponent&#45;&gt;ProjectModule -->
<g id="edge2" class="edge">
<title>ProposalComponent&#45;&gt;ProjectModule</title>
<path fill="none" stroke="#000000" d="M297,-122.1061C297,-122.1061 297,-140.991 297,-140.991"/>
<polygon fill="#000000" stroke="#000000" points="293.5001,-140.9909 297,-150.991 300.5001,-140.991 293.5001,-140.9909"/>
</g>
<!-- PlannedObservingComponent -->
<g id="node3" class="node">
<title>PlannedObservingComponent</title>
<polygon fill="#ffffb3" stroke="#000000" points="213.252,-122 28.748,-122 28.748,-86 213.252,-86 213.252,-122"/>
<text text-anchor="middle" x="121" y="-99.8" font-family="Times,serif" font-size="14.00" fill="#000000">PlannedObservingComponent</text>
</g>
<!-- PlannedObservingComponent&#45;&gt;ProjectModule -->
<g id="edge3" class="edge">
<title>PlannedObservingComponent&#45;&gt;ProjectModule</title>
<path fill="none" stroke="#000000" d="M150.9586,-122.0225C150.9586,-139.3734 150.9586,-163 150.9586,-163 150.9586,-163 237.1493,-163 237.1493,-163"/>
<polygon fill="#000000" stroke="#000000" points="237.1493,-166.5001 247.1493,-163 237.1493,-159.5001 237.1493,-166.5001"/>
</g>
<!-- ProjectComponent  -->
<g id="node5" class="node">
<title>ProjectComponent </title>
<polygon fill="#fb8072" stroke="#000000" points="506.487,-252 381.513,-252 381.513,-216 506.487,-216 506.487,-252"/>
<text text-anchor="middle" x="444" y="-229.8" font-family="Times,serif" font-size="14.00" fill="#000000">ProjectComponent </text>
</g>
<!-- ProjectModule&#45;&gt;ProjectComponent  -->
<g id="edge4" class="edge">
<title>ProjectModule&#45;&gt;ProjectComponent </title>
<path fill="none" stroke="#000000" stroke-dasharray="5,2" d="M346.6307,-175C381.3969,-175 421.669,-175 421.669,-175 421.669,-175 421.669,-205.9775 421.669,-205.9775"/>
<polygon fill="#000000" stroke="#000000" points="418.1691,-205.9774 421.669,-215.9775 425.1691,-205.9775 418.1691,-205.9774"/>
</g>
<!-- ProposalComponent  -->
<g id="node6" class="node">
<title>ProposalComponent </title>
<polygon fill="#fb8072" stroke="#000000" points="363.8255,-252 230.1745,-252 230.1745,-216 363.8255,-216 363.8255,-252"/>
<text text-anchor="middle" x="297" y="-229.8" font-family="Times,serif" font-size="14.00" fill="#000000">ProposalComponent </text>
</g>
<!-- ProjectModule&#45;&gt;ProposalComponent  -->
<g id="edge5" class="edge">
<title>ProjectModule&#45;&gt;ProposalComponent </title>
<path fill="none" stroke="#000000" stroke-dasharray="5,2" d="M297,-187.1061C297,-187.1061 297,-205.991 297,-205.991"/>
<polygon fill="#000000" stroke="#000000" points="293.5001,-205.9909 297,-215.991 300.5001,-205.991 293.5001,-205.9909"/>
</g>
<!-- PlannedObservingComponent  -->
<g id="node7" class="node">
<title>PlannedObservingComponent </title>
<polygon fill="#fb8072" stroke="#000000" points="212.252,-252 23.748,-252 23.748,-216 212.252,-216 212.252,-252"/>
<text text-anchor="middle" x="118" y="-229.8" font-family="Times,serif" font-size="14.00" fill="#000000">PlannedObservingComponent </text>
</g>
<!-- ProjectModule&#45;&gt;PlannedObservingComponent  -->
<g id="edge6" class="edge">
<title>ProjectModule&#45;&gt;PlannedObservingComponent </title>
<path fill="none" stroke="#000000" stroke-dasharray="5,2" d="M247.3684,-175C186.0675,-175 89.7914,-175 89.7914,-175 89.7914,-175 89.7914,-205.9775 89.7914,-205.9775"/>
<polygon fill="#000000" stroke="#000000" points="86.2913,-205.9775 89.7914,-215.9775 93.2913,-205.9774 86.2913,-205.9775"/>
</g>
</g>
</svg>
