<?xml version="1.0" encoding="UTF-8" standalone="no"?>
<!DOCTYPE svg PUBLIC "-//W3C//DTD SVG 1.1//EN"
 "http://www.w3.org/Graphics/SVG/1.1/DTD/svg11.dtd">
<!-- Generated by graphviz version 2.40.1 (20161225.0304)
 -->
<!-- Title: dependencies Pages: 1 -->
<svg width="1084pt" height="284pt"
 viewBox="0.00 0.00 1084.00 284.00" xmlns="http://www.w3.org/2000/svg" xmlns:xlink="http://www.w3.org/1999/xlink">
<g id="graph0" class="graph" transform="scale(1 1) rotate(0) translate(4 280)">
<title>dependencies</title>
<polygon fill="#ffffff" stroke="transparent" points="-4,4 -4,-280 1080,-280 1080,4 -4,4"/>
<text text-anchor="start" x="517.0091" y="-42.4" font-family="sans-serif" font-weight="bold" font-size="14.00" fill="#000000">Legend</text>
<polygon fill="#ffffb3" stroke="transparent" points="304,-10 304,-30 324,-30 324,-10 304,-10"/>
<text text-anchor="start" x="327.629" y="-15.4" font-family="sans-serif" font-size="14.00" fill="#000000"> &#160;Declarations</text>
<polygon fill="#8dd3c7" stroke="transparent" points="417,-10 417,-30 437,-30 437,-10 417,-10"/>
<text text-anchor="start" x="440.7251" y="-15.4" font-family="sans-serif" font-size="14.00" fill="#000000"> &#160;Module</text>
<polygon fill="#80b1d3" stroke="transparent" points="503,-10 503,-30 523,-30 523,-10 503,-10"/>
<text text-anchor="start" x="526.7812" y="-15.4" font-family="sans-serif" font-size="14.00" fill="#000000"> &#160;Bootstrap</text>
<polygon fill="#fdb462" stroke="transparent" points="600,-10 600,-30 620,-30 620,-10 600,-10"/>
<text text-anchor="start" x="623.6732" y="-15.4" font-family="sans-serif" font-size="14.00" fill="#000000"> &#160;Providers</text>
<polygon fill="#fb8072" stroke="transparent" points="696,-10 696,-30 716,-30 716,-10 696,-10"/>
<text text-anchor="start" x="719.7258" y="-15.4" font-family="sans-serif" font-size="14.00" fill="#000000"> &#160;Exports</text>
<g id="clust1" class="cluster">
<title>cluster_ProjectModule</title>
<polygon fill="none" stroke="#000000" stroke-dasharray="1,5" points="8,-70 8,-268 1068,-268 1068,-70 8,-70"/>
</g>
<g id="clust2" class="cluster">
<title>cluster_ProjectModule_declarations</title>
<polygon fill="none" stroke="#000000" points="572,-78 572,-130 1060,-130 1060,-78 572,-78"/>
</g>
<g id="clust6" class="cluster">
<title>cluster_ProjectModule_imports</title>
<polygon fill="none" stroke="#000000" points="16,-78 16,-130 564,-130 564,-78 16,-78"/>
</g>
<g id="clust7" class="cluster">
<title>cluster_ProjectModule_exports</title>
<polygon fill="none" stroke="#000000" points="437,-208 437,-260 577,-260 577,-208 437,-208"/>
</g>
<!-- PlannedObservingComponent -->
<g id="node1" class="node">
<title>PlannedObservingComponent</title>
<polygon fill="#ffffb3" stroke="#000000" points="1052.252,-122 867.748,-122 867.748,-86 1052.252,-86 1052.252,-122"/>
<text text-anchor="middle" x="960" y="-99.8" font-family="Times,serif" font-size="14.00" fill="#000000">PlannedObservingComponent</text>
</g>
<!-- ProjectModule -->
<g id="node4" class="node">
<title>ProjectModule</title>
<polygon fill="#8dd3c7" stroke="#000000" points="556.7036,-187 553.7036,-191 532.7036,-191 529.7036,-187 457.2964,-187 457.2964,-151 556.7036,-151 556.7036,-187"/>
<text text-anchor="middle" x="507" y="-164.8" font-family="Times,serif" font-size="14.00" fill="#000000">ProjectModule</text>
</g>
<!-- PlannedObservingComponent&#45;&gt;ProjectModule -->
<g id="edge1" class="edge">
<title>PlannedObservingComponent&#45;&gt;ProjectModule</title>
<path fill="none" stroke="#000000" d="M960,-122.2921C960,-144.2057 960,-178 960,-178 960,-178 566.7748,-178 566.7748,-178"/>
<polygon fill="#000000" stroke="#000000" points="566.7748,-174.5001 556.7748,-178 566.7747,-181.5001 566.7748,-174.5001"/>
</g>
<!-- ProjectComponent -->
<g id="node2" class="node">
<title>ProjectComponent</title>
<polygon fill="#ffffb3" stroke="#000000" points="849.486,-122 728.514,-122 728.514,-86 849.486,-86 849.486,-122"/>
<text text-anchor="middle" x="789" y="-99.8" font-family="Times,serif" font-size="14.00" fill="#000000">ProjectComponent</text>
</g>
<!-- ProjectComponent&#45;&gt;ProjectModule -->
<g id="edge2" class="edge">
<title>ProjectComponent&#45;&gt;ProjectModule</title>
<path fill="none" stroke="#000000" d="M789,-122.1061C789,-141.3391 789,-169 789,-169 789,-169 566.7668,-169 566.7668,-169"/>
<polygon fill="#000000" stroke="#000000" points="566.7668,-165.5001 556.7668,-169 566.7668,-172.5001 566.7668,-165.5001"/>
</g>
<!-- ProposalComponent -->
<g id="node3" class="node">
<title>ProposalComponent</title>
<polygon fill="#ffffb3" stroke="#000000" points="710.3258,-122 579.6742,-122 579.6742,-86 710.3258,-86 710.3258,-122"/>
<text text-anchor="middle" x="645" y="-99.8" font-family="Times,serif" font-size="14.00" fill="#000000">ProposalComponent</text>
</g>
<!-- ProposalComponent&#45;&gt;ProjectModule -->
<g id="edge3" class="edge">
<title>ProposalComponent&#45;&gt;ProjectModule</title>
<path fill="none" stroke="#000000" d="M645,-122.027C645,-138.3976 645,-160 645,-160 645,-160 566.8212,-160 566.8212,-160"/>
<polygon fill="#000000" stroke="#000000" points="566.8212,-156.5001 556.8212,-160 566.8211,-163.5001 566.8212,-156.5001"/>
</g>
<!-- ProjectComponent  -->
<g id="node9" class="node">
<title>ProjectComponent </title>
<polygon fill="#fb8072" stroke="#000000" points="569.487,-252 444.513,-252 444.513,-216 569.487,-216 569.487,-252"/>
<text text-anchor="middle" x="507" y="-229.8" font-family="Times,serif" font-size="14.00" fill="#000000">ProjectComponent </text>
</g>
<!-- ProjectModule&#45;&gt;ProjectComponent  -->
<g id="edge8" class="edge">
<title>ProjectModule&#45;&gt;ProjectComponent </title>
<path fill="none" stroke="#000000" stroke-dasharray="5,2" d="M507,-187.1061C507,-187.1061 507,-205.991 507,-205.991"/>
<polygon fill="#000000" stroke="#000000" points="503.5001,-205.9909 507,-215.991 510.5001,-205.991 503.5001,-205.9909"/>
</g>
<!-- SharedModule -->
<g id="node5" class="node">
<title>SharedModule</title>
<polygon fill="#8dd3c7" stroke="#000000" points="556.4231,-122 553.4231,-126 532.4231,-126 529.4231,-122 457.5769,-122 457.5769,-86 556.4231,-86 556.4231,-122"/>
<text text-anchor="middle" x="507" y="-99.8" font-family="Times,serif" font-size="14.00" fill="#000000">SharedModule</text>
</g>
<!-- SharedModule&#45;&gt;ProjectModule -->
<g id="edge4" class="edge">
<title>SharedModule&#45;&gt;ProjectModule</title>
<path fill="none" stroke="#000000" d="M507,-122.1061C507,-122.1061 507,-140.991 507,-140.991"/>
<polygon fill="#000000" stroke="#000000" points="503.5001,-140.9909 507,-150.991 510.5001,-140.991 503.5001,-140.9909"/>
</g>
<!-- ScienceGoalModule -->
<g id="node6" class="node">
<title>ScienceGoalModule</title>
<polygon fill="#8dd3c7" stroke="#000000" points="440.2935,-122 437.2935,-126 416.2935,-126 413.2935,-122 309.7065,-122 309.7065,-86 440.2935,-86 440.2935,-122"/>
<text text-anchor="middle" x="375" y="-99.8" font-family="Times,serif" font-size="14.00" fill="#000000">ScienceGoalModule</text>
</g>
<!-- ScienceGoalModule&#45;&gt;ProjectModule -->
<g id="edge5" class="edge">
<title>ScienceGoalModule&#45;&gt;ProjectModule</title>
<path fill="none" stroke="#000000" d="M375,-122.027C375,-138.3976 375,-160 375,-160 375,-160 447.0965,-160 447.0965,-160"/>
<polygon fill="#000000" stroke="#000000" points="447.0965,-163.5001 457.0965,-160 447.0964,-156.5001 447.0965,-163.5001"/>
</g>
<!-- PiSelectModule -->
<g id="node7" class="node">
<title>PiSelectModule</title>
<polygon fill="#8dd3c7" stroke="#000000" points="291.9315,-122 288.9315,-126 267.9315,-126 264.9315,-122 186.0685,-122 186.0685,-86 291.9315,-86 291.9315,-122"/>
<text text-anchor="middle" x="239" y="-99.8" font-family="Times,serif" font-size="14.00" fill="#000000">PiSelectModule</text>
</g>
<!-- PiSelectModule&#45;&gt;ProjectModule -->
<g id="edge6" class="edge">
<title>PiSelectModule&#45;&gt;ProjectModule</title>
<path fill="none" stroke="#000000" d="M239,-122.1061C239,-141.3391 239,-169 239,-169 239,-169 447.2193,-169 447.2193,-169"/>
<polygon fill="#000000" stroke="#000000" points="447.2194,-172.5001 457.2193,-169 447.2193,-165.5001 447.2194,-172.5001"/>
</g>
<!-- ProjectRoutingModule -->
<g id="node8" class="node">
<title>ProjectRoutingModule</title>
<polygon fill="#8dd3c7" stroke="#000000" points="168.3216,-122 165.3216,-126 144.3216,-126 141.3216,-122 23.6784,-122 23.6784,-86 168.3216,-86 168.3216,-122"/>
<text text-anchor="middle" x="96" y="-99.8" font-family="Times,serif" font-size="14.00" fill="#000000">ProjectRoutingModule</text>
</g>
<!-- ProjectRoutingModule&#45;&gt;ProjectModule -->
<g id="edge7" class="edge">
<title>ProjectRoutingModule&#45;&gt;ProjectModule</title>
<path fill="none" stroke="#000000" d="M96,-122.2921C96,-144.2057 96,-178 96,-178 96,-178 447.0142,-178 447.0142,-178"/>
<polygon fill="#000000" stroke="#000000" points="447.0143,-181.5001 457.0142,-178 447.0142,-174.5001 447.0143,-181.5001"/>
</g>
</g>
</svg>
