<?xml version="1.0" encoding="UTF-8" standalone="no"?>
<!DOCTYPE svg PUBLIC "-//W3C//DTD SVG 1.1//EN"
 "http://www.w3.org/Graphics/SVG/1.1/DTD/svg11.dtd">
<!-- Generated by graphviz version 2.40.1 (20161225.0304)
 -->
<!-- Title: dependencies Pages: 1 -->
<svg width="806pt" height="284pt"
 viewBox="0.00 0.00 806.00 284.00" xmlns="http://www.w3.org/2000/svg" xmlns:xlink="http://www.w3.org/1999/xlink">
<g id="graph0" class="graph" transform="scale(1 1) rotate(0) translate(4 280)">
<title>dependencies</title>
<polygon fill="#ffffff" stroke="transparent" points="-4,4 -4,-280 802,-280 802,4 -4,4"/>
<text text-anchor="start" x="378.0091" y="-42.4" font-family="sans-serif" font-weight="bold" font-size="14.00" fill="#000000">Legend</text>
<polygon fill="#ffffb3" stroke="transparent" points="165,-10 165,-30 185,-30 185,-10 165,-10"/>
<text text-anchor="start" x="188.629" y="-15.4" font-family="sans-serif" font-size="14.00" fill="#000000"> &#160;Declarations</text>
<polygon fill="#8dd3c7" stroke="transparent" points="278,-10 278,-30 298,-30 298,-10 278,-10"/>
<text text-anchor="start" x="301.7251" y="-15.4" font-family="sans-serif" font-size="14.00" fill="#000000"> &#160;Module</text>
<polygon fill="#80b1d3" stroke="transparent" points="364,-10 364,-30 384,-30 384,-10 364,-10"/>
<text text-anchor="start" x="387.7812" y="-15.4" font-family="sans-serif" font-size="14.00" fill="#000000"> &#160;Bootstrap</text>
<polygon fill="#fdb462" stroke="transparent" points="461,-10 461,-30 481,-30 481,-10 461,-10"/>
<text text-anchor="start" x="484.6732" y="-15.4" font-family="sans-serif" font-size="14.00" fill="#000000"> &#160;Providers</text>
<polygon fill="#fb8072" stroke="transparent" points="557,-10 557,-30 577,-30 577,-10 557,-10"/>
<text text-anchor="start" x="580.7258" y="-15.4" font-family="sans-serif" font-size="14.00" fill="#000000"> &#160;Exports</text>
<g id="clust1" class="cluster">
<title>cluster_ProjectModule</title>
<polygon fill="none" stroke="#000000" stroke-dasharray="1,5" points="8,-70 8,-268 790,-268 790,-70 8,-70"/>
</g>
<g id="clust2" class="cluster">
<title>cluster_ProjectModule_declarations</title>
<polygon fill="none" stroke="#000000" points="294,-78 294,-130 782,-130 782,-78 294,-78"/>
</g>
<g id="clust6" class="cluster">
<title>cluster_ProjectModule_imports</title>
<polygon fill="none" stroke="#000000" points="16,-78 16,-130 286,-130 286,-78 16,-78"/>
</g>
<g id="clust7" class="cluster">
<title>cluster_ProjectModule_exports</title>
<polygon fill="none" stroke="#000000" points="297,-208 297,-260 437,-260 437,-208 297,-208"/>
</g>
<!-- PlannedObservingComponent -->
<g id="node1" class="node">
<title>PlannedObservingComponent</title>
<polygon fill="#ffffb3" stroke="#000000" points="774.252,-122 589.748,-122 589.748,-86 774.252,-86 774.252,-122"/>
<text text-anchor="middle" x="682" y="-99.8" font-family="Times,serif" font-size="14.00" fill="#000000">PlannedObservingComponent</text>
</g>
<!-- ProjectModule -->
<g id="node4" class="node">
<title>ProjectModule</title>
<polygon fill="#8dd3c7" stroke="#000000" points="416.7036,-187 413.7036,-191 392.7036,-191 389.7036,-187 317.2964,-187 317.2964,-151 416.7036,-151 416.7036,-187"/>
<text text-anchor="middle" x="367" y="-164.8" font-family="Times,serif" font-size="14.00" fill="#000000">ProjectModule</text>
</g>
<!-- PlannedObservingComponent&#45;&gt;ProjectModule -->
<g id="edge1" class="edge">
<title>PlannedObservingComponent&#45;&gt;ProjectModule</title>
<path fill="none" stroke="#000000" d="M682,-122.2843C682,-143.3211 682,-175 682,-175 682,-175 426.9127,-175 426.9127,-175"/>
<polygon fill="#000000" stroke="#000000" points="426.9127,-171.5001 416.9127,-175 426.9127,-178.5001 426.9127,-171.5001"/>
</g>
<!-- ProjectComponent -->
<g id="node2" class="node">
<title>ProjectComponent</title>
<polygon fill="#ffffb3" stroke="#000000" points="571.486,-122 450.514,-122 450.514,-86 571.486,-86 571.486,-122"/>
<text text-anchor="middle" x="511" y="-99.8" font-family="Times,serif" font-size="14.00" fill="#000000">ProjectComponent</text>
</g>
<!-- ProjectComponent&#45;&gt;ProjectModule -->
<g id="edge2" class="edge">
<title>ProjectComponent&#45;&gt;ProjectModule</title>
<path fill="none" stroke="#000000" d="M511,-122.0225C511,-139.3734 511,-163 511,-163 511,-163 426.9601,-163 426.9601,-163"/>
<polygon fill="#000000" stroke="#000000" points="426.9601,-159.5001 416.9601,-163 426.96,-166.5001 426.9601,-159.5001"/>
</g>
<!-- ProposalComponent -->
<g id="node3" class="node">
<title>ProposalComponent</title>
<polygon fill="#ffffb3" stroke="#000000" points="432.3258,-122 301.6742,-122 301.6742,-86 432.3258,-86 432.3258,-122"/>
<text text-anchor="middle" x="367" y="-99.8" font-family="Times,serif" font-size="14.00" fill="#000000">ProposalComponent</text>
</g>
<!-- ProposalComponent&#45;&gt;ProjectModule -->
<g id="edge3" class="edge">
<title>ProposalComponent&#45;&gt;ProjectModule</title>
<path fill="none" stroke="#000000" d="M367,-122.1061C367,-122.1061 367,-140.991 367,-140.991"/>
<polygon fill="#000000" stroke="#000000" points="363.5001,-140.9909 367,-150.991 370.5001,-140.991 363.5001,-140.9909"/>
</g>
<!-- ProjectComponent  -->
<g id="node7" class="node">
<title>ProjectComponent </title>
<polygon fill="#fb8072" stroke="#000000" points="429.487,-252 304.513,-252 304.513,-216 429.487,-216 429.487,-252"/>
<text text-anchor="middle" x="367" y="-229.8" font-family="Times,serif" font-size="14.00" fill="#000000">ProjectComponent </text>
</g>
<!-- ProjectModule&#45;&gt;ProjectComponent  -->
<g id="edge6" class="edge">
<title>ProjectModule&#45;&gt;ProjectComponent </title>
<path fill="none" stroke="#000000" stroke-dasharray="5,2" d="M367,-187.1061C367,-187.1061 367,-205.991 367,-205.991"/>
<polygon fill="#000000" stroke="#000000" points="363.5001,-205.9909 367,-215.991 370.5001,-205.991 363.5001,-205.9909"/>
</g>
<!-- ScienceGoalModule -->
<g id="node5" class="node">
<title>ScienceGoalModule</title>
<polygon fill="#8dd3c7" stroke="#000000" points="278.2935,-122 275.2935,-126 254.2935,-126 251.2935,-122 147.7065,-122 147.7065,-86 278.2935,-86 278.2935,-122"/>
<text text-anchor="middle" x="213" y="-99.8" font-family="Times,serif" font-size="14.00" fill="#000000">ScienceGoalModule</text>
</g>
<!-- ScienceGoalModule&#45;&gt;ProjectModule -->
<g id="edge4" class="edge">
<title>ScienceGoalModule&#45;&gt;ProjectModule</title>
<path fill="none" stroke="#000000" d="M213,-122.0225C213,-139.3734 213,-163 213,-163 213,-163 307.0006,-163 307.0006,-163"/>
<polygon fill="#000000" stroke="#000000" points="307.0006,-166.5001 317.0006,-163 307.0006,-159.5001 307.0006,-166.5001"/>
</g>
<!-- PiSelectModule -->
<g id="node6" class="node">
<title>PiSelectModule</title>
<polygon fill="#8dd3c7" stroke="#000000" points="129.9315,-122 126.9315,-126 105.9315,-126 102.9315,-122 24.0685,-122 24.0685,-86 129.9315,-86 129.9315,-122"/>
<text text-anchor="middle" x="77" y="-99.8" font-family="Times,serif" font-size="14.00" fill="#000000">PiSelectModule</text>
</g>
<!-- PiSelectModule&#45;&gt;ProjectModule -->
<g id="edge5" class="edge">
<title>PiSelectModule&#45;&gt;ProjectModule</title>
<path fill="none" stroke="#000000" d="M77,-122.2843C77,-143.3211 77,-175 77,-175 77,-175 307.1472,-175 307.1472,-175"/>
<polygon fill="#000000" stroke="#000000" points="307.1473,-178.5001 317.1472,-175 307.1472,-171.5001 307.1473,-178.5001"/>
</g>
</g>
</svg>
