<?xml version="1.0" encoding="UTF-8" standalone="no"?>
<!DOCTYPE svg PUBLIC "-//W3C//DTD SVG 1.1//EN"
 "http://www.w3.org/Graphics/SVG/1.1/DTD/svg11.dtd">
<!-- Generated by graphviz version 2.40.1 (20161225.0304)
 -->
<!-- Title: dependencies Pages: 1 -->
<svg width="1628pt" height="284pt"
 viewBox="0.00 0.00 1628.00 284.00" xmlns="http://www.w3.org/2000/svg" xmlns:xlink="http://www.w3.org/1999/xlink">
<g id="graph0" class="graph" transform="scale(1 1) rotate(0) translate(4 280)">
<title>dependencies</title>
<polygon fill="#ffffff" stroke="transparent" points="-4,4 -4,-280 1624,-280 1624,4 -4,4"/>
<text text-anchor="start" x="789.0091" y="-42.4" font-family="sans-serif" font-weight="bold" font-size="14.00" fill="#000000">Legend</text>
<polygon fill="#ffffb3" stroke="transparent" points="576,-10 576,-30 596,-30 596,-10 576,-10"/>
<text text-anchor="start" x="599.629" y="-15.4" font-family="sans-serif" font-size="14.00" fill="#000000"> &#160;Declarations</text>
<polygon fill="#8dd3c7" stroke="transparent" points="689,-10 689,-30 709,-30 709,-10 689,-10"/>
<text text-anchor="start" x="712.7251" y="-15.4" font-family="sans-serif" font-size="14.00" fill="#000000"> &#160;Module</text>
<polygon fill="#80b1d3" stroke="transparent" points="775,-10 775,-30 795,-30 795,-10 775,-10"/>
<text text-anchor="start" x="798.7812" y="-15.4" font-family="sans-serif" font-size="14.00" fill="#000000"> &#160;Bootstrap</text>
<polygon fill="#fdb462" stroke="transparent" points="872,-10 872,-30 892,-30 892,-10 872,-10"/>
<text text-anchor="start" x="895.6732" y="-15.4" font-family="sans-serif" font-size="14.00" fill="#000000"> &#160;Providers</text>
<polygon fill="#fb8072" stroke="transparent" points="968,-10 968,-30 988,-30 988,-10 968,-10"/>
<text text-anchor="start" x="991.7258" y="-15.4" font-family="sans-serif" font-size="14.00" fill="#000000"> &#160;Exports</text>
<g id="clust1" class="cluster">
<title>cluster_ProjectModule</title>
<polygon fill="none" stroke="#000000" stroke-dasharray="1,5" points="8,-70 8,-268 1612,-268 1612,-70 8,-70"/>
</g>
<g id="clust2" class="cluster">
<title>cluster_ProjectModule_declarations</title>
<polygon fill="none" stroke="#000000" points="662,-78 662,-130 1604,-130 1604,-78 662,-78"/>
</g>
<g id="clust9" class="cluster">
<title>cluster_ProjectModule_imports</title>
<polygon fill="none" stroke="#000000" points="16,-78 16,-130 654,-130 654,-78 16,-78"/>
</g>
<g id="clust10" class="cluster">
<title>cluster_ProjectModule_exports</title>
<polygon fill="none" stroke="#000000" points="750,-208 750,-260 890,-260 890,-208 750,-208"/>
</g>
<!-- PlannedObservingComponent -->
<g id="node1" class="node">
<title>PlannedObservingComponent</title>
<polygon fill="#ffffb3" stroke="#000000" points="1596.252,-122 1411.748,-122 1411.748,-86 1596.252,-86 1596.252,-122"/>
<text text-anchor="middle" x="1504" y="-99.8" font-family="Times,serif" font-size="14.00" fill="#000000">PlannedObservingComponent</text>
</g>
<!-- ProjectModule -->
<g id="node7" class="node">
<title>ProjectModule</title>
<polygon fill="#8dd3c7" stroke="#000000" points="869.7036,-187 866.7036,-191 845.7036,-191 842.7036,-187 770.2964,-187 770.2964,-151 869.7036,-151 869.7036,-187"/>
<text text-anchor="middle" x="820" y="-164.8" font-family="Times,serif" font-size="14.00" fill="#000000">ProjectModule</text>
</g>
<!-- PlannedObservingComponent&#45;&gt;ProjectModule -->
<g id="edge1" class="edge">
<title>PlannedObservingComponent&#45;&gt;ProjectModule</title>
<path fill="none" stroke="#000000" d="M1504,-122.0109C1504,-144.4852 1504,-180 1504,-180 1504,-180 879.7426,-180 879.7426,-180"/>
<polygon fill="#000000" stroke="#000000" points="879.7426,-176.5001 869.7426,-180 879.7425,-183.5001 879.7426,-176.5001"/>
</g>
<!-- ProjectComponent -->
<g id="node2" class="node">
<title>ProjectComponent</title>
<polygon fill="#ffffb3" stroke="#000000" points="1393.486,-122 1272.514,-122 1272.514,-86 1393.486,-86 1393.486,-122"/>
<text text-anchor="middle" x="1333" y="-99.8" font-family="Times,serif" font-size="14.00" fill="#000000">ProjectComponent</text>
</g>
<!-- ProjectComponent&#45;&gt;ProjectModule -->
<g id="edge2" class="edge">
<title>ProjectComponent&#45;&gt;ProjectModule</title>
<path fill="none" stroke="#000000" d="M1333,-122.1289C1333,-142.5724 1333,-173 1333,-173 1333,-173 879.6547,-173 879.6547,-173"/>
<polygon fill="#000000" stroke="#000000" points="879.6548,-169.5001 869.6547,-173 879.6547,-176.5001 879.6548,-169.5001"/>
</g>
<!-- ProposalComponent -->
<g id="node3" class="node">
<title>ProposalComponent</title>
<polygon fill="#ffffb3" stroke="#000000" points="1254.3258,-122 1123.6742,-122 1123.6742,-86 1254.3258,-86 1254.3258,-122"/>
<text text-anchor="middle" x="1189" y="-99.8" font-family="Times,serif" font-size="14.00" fill="#000000">ProposalComponent</text>
</g>
<!-- ProposalComponent&#45;&gt;ProjectModule -->
<g id="edge3" class="edge">
<title>ProposalComponent&#45;&gt;ProjectModule</title>
<path fill="none" stroke="#000000" d="M1189,-122.2667C1189,-140.5552 1189,-166 1189,-166 1189,-166 879.765,-166 879.765,-166"/>
<polygon fill="#000000" stroke="#000000" points="879.765,-162.5001 869.765,-166 879.7649,-169.5001 879.765,-162.5001"/>
</g>
<!-- PiEntryComponent -->
<g id="node4" class="node">
<title>PiEntryComponent</title>
<polygon fill="#ffffb3" stroke="#000000" points="1106.1094,-122 981.8906,-122 981.8906,-86 1106.1094,-86 1106.1094,-122"/>
<text text-anchor="middle" x="1044" y="-99.8" font-family="Times,serif" font-size="14.00" fill="#000000">PiEntryComponent</text>
</g>
<!-- PiEntryComponent&#45;&gt;ProjectModule -->
<g id="edge4" class="edge">
<title>PiEntryComponent&#45;&gt;ProjectModule</title>
<path fill="none" stroke="#000000" d="M1044,-122.0091C1044,-138.0494 1044,-159 1044,-159 1044,-159 879.7129,-159 879.7129,-159"/>
<polygon fill="#000000" stroke="#000000" points="879.7129,-155.5001 869.7129,-159 879.7128,-162.5001 879.7129,-155.5001"/>
</g>
<!-- PiSearchComponent -->
<g id="node5" class="node">
<title>PiSearchComponent</title>
<polygon fill="#ffffb3" stroke="#000000" points="963.5926,-122 832.4074,-122 832.4074,-86 963.5926,-86 963.5926,-122"/>
<text text-anchor="middle" x="898" y="-99.8" font-family="Times,serif" font-size="14.00" fill="#000000">PiSearchComponent</text>
</g>
<!-- PiSearchComponent&#45;&gt;ProjectModule -->
<g id="edge5" class="edge">
<title>PiSearchComponent&#45;&gt;ProjectModule</title>
<path fill="none" stroke="#000000" d="M851.0277,-122.1061C851.0277,-122.1061 851.0277,-140.991 851.0277,-140.991"/>
<polygon fill="#000000" stroke="#000000" points="847.5278,-140.9909 851.0277,-150.991 854.5278,-140.991 847.5278,-140.9909"/>
</g>
<!-- ProjectInfoComponent -->
<g id="node6" class="node">
<title>ProjectInfoComponent</title>
<polygon fill="#ffffb3" stroke="#000000" points="814.3075,-122 669.6925,-122 669.6925,-86 814.3075,-86 814.3075,-122"/>
<text text-anchor="middle" x="742" y="-99.8" font-family="Times,serif" font-size="14.00" fill="#000000">ProjectInfoComponent</text>
</g>
<!-- ProjectInfoComponent&#45;&gt;ProjectModule -->
<g id="edge6" class="edge">
<title>ProjectInfoComponent&#45;&gt;ProjectModule</title>
<path fill="none" stroke="#000000" d="M792.276,-122.1061C792.276,-122.1061 792.276,-140.991 792.276,-140.991"/>
<polygon fill="#000000" stroke="#000000" points="788.776,-140.9909 792.276,-150.991 795.776,-140.991 788.776,-140.9909"/>
</g>
<!-- ProjectComponent  -->
<g id="node12" class="node">
<title>ProjectComponent </title>
<polygon fill="#fb8072" stroke="#000000" points="882.487,-252 757.513,-252 757.513,-216 882.487,-216 882.487,-252"/>
<text text-anchor="middle" x="820" y="-229.8" font-family="Times,serif" font-size="14.00" fill="#000000">ProjectComponent </text>
</g>
<!-- ProjectModule&#45;&gt;ProjectComponent  -->
<g id="edge11" class="edge">
<title>ProjectModule&#45;&gt;ProjectComponent </title>
<path fill="none" stroke="#000000" stroke-dasharray="5,2" d="M820,-187.1061C820,-187.1061 820,-205.991 820,-205.991"/>
<polygon fill="#000000" stroke="#000000" points="816.5001,-205.9909 820,-215.991 823.5001,-205.991 816.5001,-205.9909"/>
</g>
<!-- AlmaInvestigatorSearchModule -->
<g id="node8" class="node">
<title>AlmaInvestigatorSearchModule</title>
<polygon fill="#8dd3c7" stroke="#000000" points="645.6064,-122 642.6064,-126 621.6064,-126 618.6064,-122 450.3936,-122 450.3936,-86 645.6064,-86 645.6064,-122"/>
<text text-anchor="middle" x="548" y="-99.8" font-family="Times,serif" font-size="14.00" fill="#000000">AlmaInvestigatorSearchModule</text>
</g>
<!-- AlmaInvestigatorSearchModule&#45;&gt;ProjectModule -->
<g id="edge7" class="edge">
<title>AlmaInvestigatorSearchModule&#45;&gt;ProjectModule</title>
<path fill="none" stroke="#000000" d="M548,-122.0091C548,-138.0494 548,-159 548,-159 548,-159 760.111,-159 760.111,-159"/>
<polygon fill="#000000" stroke="#000000" points="760.111,-162.5001 770.111,-159 760.111,-155.5001 760.111,-162.5001"/>
</g>
<!-- SharedModule -->
<g id="node9" class="node">
<title>SharedModule</title>
<polygon fill="#8dd3c7" stroke="#000000" points="432.4231,-122 429.4231,-126 408.4231,-126 405.4231,-122 333.5769,-122 333.5769,-86 432.4231,-86 432.4231,-122"/>
<text text-anchor="middle" x="383" y="-99.8" font-family="Times,serif" font-size="14.00" fill="#000000">SharedModule</text>
</g>
<!-- SharedModule&#45;&gt;ProjectModule -->
<g id="edge8" class="edge">
<title>SharedModule&#45;&gt;ProjectModule</title>
<path fill="none" stroke="#000000" d="M383,-122.2667C383,-140.5552 383,-166 383,-166 383,-166 760.296,-166 760.296,-166"/>
<polygon fill="#000000" stroke="#000000" points="760.296,-169.5001 770.296,-166 760.296,-162.5001 760.296,-169.5001"/>
</g>
<!-- ScienceGoalModule -->
<g id="node10" class="node">
<title>ScienceGoalModule</title>
<polygon fill="#8dd3c7" stroke="#000000" points="316.2935,-122 313.2935,-126 292.2935,-126 289.2935,-122 185.7065,-122 185.7065,-86 316.2935,-86 316.2935,-122"/>
<text text-anchor="middle" x="251" y="-99.8" font-family="Times,serif" font-size="14.00" fill="#000000">ScienceGoalModule</text>
</g>
<!-- ScienceGoalModule&#45;&gt;ProjectModule -->
<g id="edge9" class="edge">
<title>ScienceGoalModule&#45;&gt;ProjectModule</title>
<path fill="none" stroke="#000000" d="M251,-122.1289C251,-142.5724 251,-173 251,-173 251,-173 760.0037,-173 760.0037,-173"/>
<polygon fill="#000000" stroke="#000000" points="760.0038,-176.5001 770.0037,-173 760.0037,-169.5001 760.0038,-176.5001"/>
</g>
<!-- ProjectRoutingModule -->
<g id="node11" class="node">
<title>ProjectRoutingModule</title>
<polygon fill="#8dd3c7" stroke="#000000" points="168.3216,-122 165.3216,-126 144.3216,-126 141.3216,-122 23.6784,-122 23.6784,-86 168.3216,-86 168.3216,-122"/>
<text text-anchor="middle" x="96" y="-99.8" font-family="Times,serif" font-size="14.00" fill="#000000">ProjectRoutingModule</text>
</g>
<!-- ProjectRoutingModule&#45;&gt;ProjectModule -->
<g id="edge10" class="edge">
<title>ProjectRoutingModule&#45;&gt;ProjectModule</title>
<path fill="none" stroke="#000000" d="M96,-122.0109C96,-144.4852 96,-180 96,-180 96,-180 760.2365,-180 760.2365,-180"/>
<polygon fill="#000000" stroke="#000000" points="760.2366,-183.5001 770.2365,-180 760.2365,-176.5001 760.2366,-183.5001"/>
</g>
</g>
</svg>
