<?xml version="1.0" encoding="UTF-8" standalone="no"?>
<!DOCTYPE svg PUBLIC "-//W3C//DTD SVG 1.1//EN"
 "http://www.w3.org/Graphics/SVG/1.1/DTD/svg11.dtd">
<!-- Generated by graphviz version 2.40.1 (20161225.0304)
 -->
<!-- Title: dependencies Pages: 1 -->
<svg width="6884pt" height="284pt"
 viewBox="0.00 0.00 6884.00 284.00" xmlns="http://www.w3.org/2000/svg" xmlns:xlink="http://www.w3.org/1999/xlink">
<g id="graph0" class="graph" transform="scale(1 1) rotate(0) translate(4 280)">
<title>dependencies</title>
<polygon fill="#ffffff" stroke="transparent" points="-4,4 -4,-280 6880,-280 6880,4 -4,4"/>
<text text-anchor="start" x="3417.0091" y="-42.4" font-family="sans-serif" font-weight="bold" font-size="14.00" fill="#000000">Legend</text>
<polygon fill="#ffffb3" stroke="transparent" points="3204,-10 3204,-30 3224,-30 3224,-10 3204,-10"/>
<text text-anchor="start" x="3227.629" y="-15.4" font-family="sans-serif" font-size="14.00" fill="#000000"> &#160;Declarations</text>
<polygon fill="#8dd3c7" stroke="transparent" points="3317,-10 3317,-30 3337,-30 3337,-10 3317,-10"/>
<text text-anchor="start" x="3340.7251" y="-15.4" font-family="sans-serif" font-size="14.00" fill="#000000"> &#160;Module</text>
<polygon fill="#80b1d3" stroke="transparent" points="3403,-10 3403,-30 3423,-30 3423,-10 3403,-10"/>
<text text-anchor="start" x="3426.7812" y="-15.4" font-family="sans-serif" font-size="14.00" fill="#000000"> &#160;Bootstrap</text>
<polygon fill="#fdb462" stroke="transparent" points="3500,-10 3500,-30 3520,-30 3520,-10 3500,-10"/>
<text text-anchor="start" x="3523.6732" y="-15.4" font-family="sans-serif" font-size="14.00" fill="#000000"> &#160;Providers</text>
<polygon fill="#fb8072" stroke="transparent" points="3596,-10 3596,-30 3616,-30 3616,-10 3596,-10"/>
<text text-anchor="start" x="3619.7258" y="-15.4" font-family="sans-serif" font-size="14.00" fill="#000000"> &#160;Exports</text>
<g id="clust1" class="cluster">
<title>cluster_AppModule</title>
<polygon fill="none" stroke="#000000" stroke-dasharray="1,5" points="8,-70 8,-268 6556,-268 6556,-70 8,-70"/>
</g>
<g id="clust2" class="cluster">
<title>cluster_AppModule_declarations</title>
<polygon fill="none" stroke="#000000" points="846,-78 846,-130 6548,-130 6548,-78 846,-78"/>
</g>
<g id="clust37" class="cluster">
<title>cluster_AppModule_imports</title>
<polygon fill="none" stroke="#000000" points="694,-78 694,-130 838,-130 838,-78 694,-78"/>
</g>
<g id="clust39" class="cluster">
<title>cluster_AppModule_bootstrap</title>
<polygon fill="none" stroke="#000000" points="3312,-208 3312,-260 3436,-260 3436,-208 3312,-208"/>
</g>
<g id="clust40" class="cluster">
<title>cluster_AppModule_providers</title>
<polygon fill="none" stroke="#000000" points="16,-78 16,-130 686,-130 686,-78 16,-78"/>
</g>
<g id="clust47" class="cluster">
<title>cluster_UnitsModule</title>
<polygon fill="none" stroke="#000000" stroke-dasharray="1,5" points="6564,-70 6564,-268 6868,-268 6868,-70 6564,-70"/>
</g>
<g id="clust48" class="cluster">
<title>cluster_UnitsModule_declarations</title>
<polygon fill="none" stroke="#000000" points="6572,-78 6572,-130 6860,-130 6860,-78 6572,-78"/>
</g>
<g id="clust52" class="cluster">
<title>cluster_UnitsModule_exports</title>
<polygon fill="none" stroke="#000000" points="6694,-208 6694,-260 6788,-260 6788,-208 6694,-208"/>
</g>
<!-- AppComponent -->
<g id="node1" class="node">
<title>AppComponent</title>
<polygon fill="#ffffb3" stroke="#000000" points="6539.9399,-122 6434.0601,-122 6434.0601,-86 6539.9399,-86 6539.9399,-122"/>
<text text-anchor="middle" x="6487" y="-99.8" font-family="Times,serif" font-size="14.00" fill="#000000">AppComponent</text>
</g>
<!-- AppModule -->
<g id="node35" class="node">
<title>AppModule</title>
<polygon fill="#8dd3c7" stroke="#000000" points="3415.6571,-187 3412.6571,-191 3391.6571,-191 3388.6571,-187 3332.3429,-187 3332.3429,-151 3415.6571,-151 3415.6571,-187"/>
<text text-anchor="middle" x="3374" y="-164.8" font-family="Times,serif" font-size="14.00" fill="#000000">AppModule</text>
</g>
<!-- AppComponent&#45;&gt;AppModule -->
<g id="edge1" class="edge">
<title>AppComponent&#45;&gt;AppModule</title>
<path fill="none" stroke="#000000" d="M6487,-122.1985C6487,-146.3563 6487,-186 6487,-186 6487,-186 3425.9432,-186 3425.9432,-186"/>
<polygon fill="#000000" stroke="#000000" points="3425.9433,-182.5001 3415.9432,-186 3425.9432,-189.5001 3425.9433,-182.5001"/>
</g>
<!-- FieldCenterCoordinatesComponent -->
<g id="node2" class="node">
<title>FieldCenterCoordinatesComponent</title>
<polygon fill="#ffffb3" stroke="#000000" points="6416.58,-122 6201.42,-122 6201.42,-86 6416.58,-86 6416.58,-122"/>
<text text-anchor="middle" x="6309" y="-99.8" font-family="Times,serif" font-size="14.00" fill="#000000">FieldCenterCoordinatesComponent</text>
</g>
<!-- FieldCenterCoordinatesComponent&#45;&gt;AppModule -->
<g id="edge2" class="edge">
<title>FieldCenterCoordinatesComponent&#45;&gt;AppModule</title>
<path fill="none" stroke="#000000" d="M6309,-122.1532C6309,-145.7566 6309,-184 6309,-184 6309,-184 3425.7716,-184 3425.7716,-184"/>
<polygon fill="#000000" stroke="#000000" points="3425.7716,-180.5001 3415.7716,-184 3425.7715,-187.5001 3425.7716,-180.5001"/>
</g>
<!-- FieldSetupComponent -->
<g id="node3" class="node">
<title>FieldSetupComponent</title>
<polygon fill="#ffffb3" stroke="#000000" points="6182.9986,-122 6041.0014,-122 6041.0014,-86 6182.9986,-86 6182.9986,-122"/>
<text text-anchor="middle" x="6112" y="-99.8" font-family="Times,serif" font-size="14.00" fill="#000000">FieldSetupComponent</text>
</g>
<!-- FieldSetupComponent&#45;&gt;AppModule -->
<g id="edge3" class="edge">
<title>FieldSetupComponent&#45;&gt;AppModule</title>
<path fill="none" stroke="#000000" d="M6112,-122.0908C6112,-145.1328 6112,-182 6112,-182 6112,-182 3425.9118,-182 3425.9118,-182"/>
<polygon fill="#000000" stroke="#000000" points="3425.9118,-178.5001 3415.9118,-182 3425.9118,-185.5001 3425.9118,-178.5001"/>
</g>
<!-- FovParametersComponent -->
<g id="node4" class="node">
<title>FovParametersComponent</title>
<polygon fill="#ffffb3" stroke="#000000" points="6022.8033,-122 5857.1967,-122 5857.1967,-86 6022.8033,-86 6022.8033,-122"/>
<text text-anchor="middle" x="5940" y="-99.8" font-family="Times,serif" font-size="14.00" fill="#000000">FovParametersComponent</text>
</g>
<!-- FovParametersComponent&#45;&gt;AppModule -->
<g id="edge4" class="edge">
<title>FovParametersComponent&#45;&gt;AppModule</title>
<path fill="none" stroke="#000000" d="M5940,-122.0109C5940,-144.4852 5940,-180 5940,-180 5940,-180 3425.8694,-180 3425.8694,-180"/>
<polygon fill="#000000" stroke="#000000" points="3425.8694,-176.5001 3415.8694,-180 3425.8694,-183.5001 3425.8694,-176.5001"/>
</g>
<!-- ImageQueryComponent -->
<g id="node5" class="node">
<title>ImageQueryComponent</title>
<polygon fill="#ffffb3" stroke="#000000" points="5839.7949,-122 5688.2051,-122 5688.2051,-86 5839.7949,-86 5839.7949,-122"/>
<text text-anchor="middle" x="5764" y="-99.8" font-family="Times,serif" font-size="14.00" fill="#000000">ImageQueryComponent</text>
</g>
<!-- ImageQueryComponent&#45;&gt;AppModule -->
<g id="edge5" class="edge">
<title>ImageQueryComponent&#45;&gt;AppModule</title>
<path fill="none" stroke="#000000" d="M5764,-122.2921C5764,-144.2057 5764,-178 5764,-178 5764,-178 3425.7354,-178 3425.7354,-178"/>
<polygon fill="#000000" stroke="#000000" points="3425.7355,-174.5001 3415.7354,-178 3425.7354,-181.5001 3425.7355,-174.5001"/>
</g>
<!-- ModularPanelComponent -->
<g id="node6" class="node">
<title>ModularPanelComponent</title>
<polygon fill="#ffffb3" stroke="#000000" points="5670.1456,-122 5509.8544,-122 5509.8544,-86 5670.1456,-86 5670.1456,-122"/>
<text text-anchor="middle" x="5590" y="-99.8" font-family="Times,serif" font-size="14.00" fill="#000000">ModularPanelComponent</text>
</g>
<!-- ModularPanelComponent&#45;&gt;AppModule -->
<g id="edge6" class="edge">
<title>ModularPanelComponent&#45;&gt;AppModule</title>
<path fill="none" stroke="#000000" d="M5590,-122.1686C5590,-143.498 5590,-176 5590,-176 5590,-176 3425.8012,-176 3425.8012,-176"/>
<polygon fill="#000000" stroke="#000000" points="3425.8013,-172.5001 3415.8012,-176 3425.8012,-179.5001 3425.8013,-172.5001"/>
</g>
<!-- NavbarComponent -->
<g id="node7" class="node">
<title>NavbarComponent</title>
<polygon fill="#ffffb3" stroke="#000000" points="5491.0297,-122 5368.9703,-122 5368.9703,-86 5491.0297,-86 5491.0297,-122"/>
<text text-anchor="middle" x="5430" y="-99.8" font-family="Times,serif" font-size="14.00" fill="#000000">NavbarComponent</text>
</g>
<!-- NavbarComponent&#45;&gt;AppModule -->
<g id="edge7" class="edge">
<title>NavbarComponent&#45;&gt;AppModule</title>
<path fill="none" stroke="#000000" d="M5430,-122.0267C5430,-142.7672 5430,-174 5430,-174 5430,-174 3426.001,-174 3426.001,-174"/>
<polygon fill="#000000" stroke="#000000" points="3426.0011,-170.5001 3416.001,-174 3426.001,-177.5001 3426.0011,-170.5001"/>
</g>
<!-- PiEntryComponent -->
<g id="node8" class="node">
<title>PiEntryComponent</title>
<polygon fill="#ffffb3" stroke="#000000" points="5351.1094,-122 5226.8906,-122 5226.8906,-86 5351.1094,-86 5351.1094,-122"/>
<text text-anchor="middle" x="5289" y="-99.8" font-family="Times,serif" font-size="14.00" fill="#000000">PiEntryComponent</text>
</g>
<!-- PiEntryComponent&#45;&gt;AppModule -->
<g id="edge8" class="edge">
<title>PiEntryComponent&#45;&gt;AppModule</title>
<path fill="none" stroke="#000000" d="M5289,-122.2228C5289,-142.3652 5289,-172 5289,-172 5289,-172 3425.7784,-172 3425.7784,-172"/>
<polygon fill="#000000" stroke="#000000" points="3425.7785,-168.5001 3415.7784,-172 3425.7784,-175.5001 3425.7785,-168.5001"/>
</g>
<!-- PiSearchComponent -->
<g id="node9" class="node">
<title>PiSearchComponent</title>
<polygon fill="#ffffb3" stroke="#000000" points="5208.5926,-122 5077.4074,-122 5077.4074,-86 5208.5926,-86 5208.5926,-122"/>
<text text-anchor="middle" x="5143" y="-99.8" font-family="Times,serif" font-size="14.00" fill="#000000">PiSearchComponent</text>
</g>
<!-- PiSearchComponent&#45;&gt;AppModule -->
<g id="edge9" class="edge">
<title>PiSearchComponent&#45;&gt;AppModule</title>
<path fill="none" stroke="#000000" d="M5143,-122.0348C5143,-141.5762 5143,-170 5143,-170 5143,-170 3425.9835,-170 3425.9835,-170"/>
<polygon fill="#000000" stroke="#000000" points="3425.9836,-166.5001 3415.9835,-170 3425.9835,-173.5001 3425.9836,-166.5001"/>
</g>
<!-- PiSelectComponent -->
<g id="node10" class="node">
<title>PiSelectComponent</title>
<polygon fill="#ffffb3" stroke="#000000" points="5059.7134,-122 4932.2866,-122 4932.2866,-86 5059.7134,-86 5059.7134,-122"/>
<text text-anchor="middle" x="4996" y="-99.8" font-family="Times,serif" font-size="14.00" fill="#000000">PiSelectComponent</text>
</g>
<!-- PiSelectComponent&#45;&gt;AppModule -->
<g id="edge10" class="edge">
<title>PiSelectComponent&#45;&gt;AppModule</title>
<path fill="none" stroke="#000000" d="M4996,-122.1061C4996,-141.3391 4996,-169 4996,-169 4996,-169 3425.7246,-169 3425.7246,-169"/>
<polygon fill="#000000" stroke="#000000" points="3425.7246,-165.5001 3415.7246,-169 3425.7245,-172.5001 3425.7246,-165.5001"/>
</g>
<!-- PlannedObservingComponent -->
<g id="node11" class="node">
<title>PlannedObservingComponent</title>
<polygon fill="#ffffb3" stroke="#000000" points="4914.252,-122 4729.748,-122 4729.748,-86 4914.252,-86 4914.252,-122"/>
<text text-anchor="middle" x="4822" y="-99.8" font-family="Times,serif" font-size="14.00" fill="#000000">PlannedObservingComponent</text>
</g>
<!-- PlannedObservingComponent&#45;&gt;AppModule -->
<g id="edge11" class="edge">
<title>PlannedObservingComponent&#45;&gt;AppModule</title>
<path fill="none" stroke="#000000" d="M4822,-122.2222C4822,-140.8285 4822,-167 4822,-167 4822,-167 3425.7742,-167 3425.7742,-167"/>
<polygon fill="#000000" stroke="#000000" points="3425.7743,-163.5001 3415.7742,-167 3425.7742,-170.5001 3425.7743,-163.5001"/>
</g>
<!-- ProjectComponent -->
<g id="node12" class="node">
<title>ProjectComponent</title>
<polygon fill="#ffffb3" stroke="#000000" points="4711.486,-122 4590.514,-122 4590.514,-86 4711.486,-86 4711.486,-122"/>
<text text-anchor="middle" x="4651" y="-99.8" font-family="Times,serif" font-size="14.00" fill="#000000">ProjectComponent</text>
</g>
<!-- ProjectComponent&#45;&gt;AppModule -->
<g id="edge12" class="edge">
<title>ProjectComponent&#45;&gt;AppModule</title>
<path fill="none" stroke="#000000" d="M4651,-122.302C4651,-140.2699 4651,-165 4651,-165 4651,-165 3425.7621,-165 3425.7621,-165"/>
<polygon fill="#000000" stroke="#000000" points="3425.7621,-161.5001 3415.7621,-165 3425.762,-168.5001 3425.7621,-161.5001"/>
</g>
<!-- ProjectInfoComponent -->
<g id="node13" class="node">
<title>ProjectInfoComponent</title>
<polygon fill="#ffffb3" stroke="#000000" points="4572.3075,-122 4427.6925,-122 4427.6925,-86 4572.3075,-86 4572.3075,-122"/>
<text text-anchor="middle" x="4500" y="-99.8" font-family="Times,serif" font-size="14.00" fill="#000000">ProjectInfoComponent</text>
</g>
<!-- ProjectInfoComponent&#45;&gt;AppModule -->
<g id="edge13" class="edge">
<title>ProjectInfoComponent&#45;&gt;AppModule</title>
<path fill="none" stroke="#000000" d="M4500,-122.0225C4500,-139.3734 4500,-163 4500,-163 4500,-163 3425.7473,-163 3425.7473,-163"/>
<polygon fill="#000000" stroke="#000000" points="3425.7473,-159.5001 3415.7473,-163 3425.7473,-166.5001 3425.7473,-159.5001"/>
</g>
<!-- ProposalComponent -->
<g id="node14" class="node">
<title>ProposalComponent</title>
<polygon fill="#ffffb3" stroke="#000000" points="4410.3258,-122 4279.6742,-122 4279.6742,-86 4410.3258,-86 4410.3258,-122"/>
<text text-anchor="middle" x="4345" y="-99.8" font-family="Times,serif" font-size="14.00" fill="#000000">ProposalComponent</text>
</g>
<!-- ProposalComponent&#45;&gt;AppModule -->
<g id="edge14" class="edge">
<title>ProposalComponent&#45;&gt;AppModule</title>
<path fill="none" stroke="#000000" d="M4345,-122.0352C4345,-138.7344 4345,-161 4345,-161 4345,-161 3425.7227,-161 3425.7227,-161"/>
<polygon fill="#000000" stroke="#000000" points="3425.7227,-157.5001 3415.7227,-161 3425.7226,-164.5001 3425.7227,-157.5001"/>
</g>
<!-- RefinePanelComponent -->
<g id="node15" class="node">
<title>RefinePanelComponent</title>
<polygon fill="#ffffb3" stroke="#000000" points="4261.752,-122 4112.248,-122 4112.248,-86 4261.752,-86 4261.752,-122"/>
<text text-anchor="middle" x="4187" y="-99.8" font-family="Times,serif" font-size="14.00" fill="#000000">RefinePanelComponent</text>
</g>
<!-- RefinePanelComponent&#45;&gt;AppModule -->
<g id="edge15" class="edge">
<title>RefinePanelComponent&#45;&gt;AppModule</title>
<path fill="none" stroke="#000000" d="M4187,-122.0091C4187,-138.0494 4187,-159 4187,-159 4187,-159 3425.716,-159 3425.716,-159"/>
<polygon fill="#000000" stroke="#000000" points="3425.7161,-155.5001 3415.716,-159 3425.716,-162.5001 3425.7161,-155.5001"/>
</g>
<!-- ResultsTableComponent -->
<g id="node16" class="node">
<title>ResultsTableComponent</title>
<polygon fill="#ffffb3" stroke="#000000" points="4094.427,-122 3939.573,-122 3939.573,-86 4094.427,-86 4094.427,-122"/>
<text text-anchor="middle" x="4017" y="-99.8" font-family="Times,serif" font-size="14.00" fill="#000000">ResultsTableComponent</text>
</g>
<!-- ResultsTableComponent&#45;&gt;AppModule -->
<g id="edge16" class="edge">
<title>ResultsTableComponent&#45;&gt;AppModule</title>
<path fill="none" stroke="#000000" d="M4017,-122.2396C4017,-137.5706 4017,-157 4017,-157 4017,-157 3425.6936,-157 3425.6936,-157"/>
<polygon fill="#000000" stroke="#000000" points="3425.6936,-153.5001 3415.6936,-157 3425.6936,-160.5001 3425.6936,-153.5001"/>
</g>
<!-- SourceComponent -->
<g id="node17" class="node">
<title>SourceComponent</title>
<polygon fill="#ffffb3" stroke="#000000" points="3922.205,-122 3801.795,-122 3801.795,-86 3922.205,-86 3922.205,-122"/>
<text text-anchor="middle" x="3862" y="-99.8" font-family="Times,serif" font-size="14.00" fill="#000000">SourceComponent</text>
</g>
<!-- SourceComponent&#45;&gt;AppModule -->
<g id="edge17" class="edge">
<title>SourceComponent&#45;&gt;AppModule</title>
<path fill="none" stroke="#000000" d="M3862,-122.1243C3862,-136.7832 3862,-155 3862,-155 3862,-155 3426.029,-155 3426.029,-155"/>
<polygon fill="#000000" stroke="#000000" points="3426.029,-151.5001 3416.029,-155 3426.0289,-158.5001 3426.029,-151.5001"/>
</g>
<!-- SourceExpectedPropertiesComponent -->
<g id="node18" class="node">
<title>SourceExpectedPropertiesComponent</title>
<polygon fill="#ffffb3" stroke="#000000" points="3783.5506,-122 3554.4494,-122 3554.4494,-86 3783.5506,-86 3783.5506,-122"/>
<text text-anchor="middle" x="3669" y="-99.8" font-family="Times,serif" font-size="14.00" fill="#000000">SourceExpectedPropertiesComponent</text>
</g>
<!-- SourceExpectedPropertiesComponent&#45;&gt;AppModule -->
<g id="edge18" class="edge">
<title>SourceExpectedPropertiesComponent&#45;&gt;AppModule</title>
<path fill="none" stroke="#000000" d="M3669,-122.2458C3669,-136.1772 3669,-153 3669,-153 3669,-153 3425.953,-153 3425.953,-153"/>
<polygon fill="#000000" stroke="#000000" points="3425.9531,-149.5001 3415.953,-153 3425.953,-156.5001 3425.9531,-149.5001"/>
</g>
<!-- SpacialImageComponent -->
<g id="node19" class="node">
<title>SpacialImageComponent</title>
<polygon fill="#ffffb3" stroke="#000000" points="3536.5211,-122 3379.4789,-122 3379.4789,-86 3536.5211,-86 3536.5211,-122"/>
<text text-anchor="middle" x="3458" y="-99.8" font-family="Times,serif" font-size="14.00" fill="#000000">SpacialImageComponent</text>
</g>
<!-- SpacialImageComponent&#45;&gt;AppModule -->
<g id="edge19" class="edge">
<title>SpacialImageComponent&#45;&gt;AppModule</title>
<path fill="none" stroke="#000000" d="M3397.534,-122.1061C3397.534,-122.1061 3397.534,-140.991 3397.534,-140.991"/>
<polygon fill="#000000" stroke="#000000" points="3394.0341,-140.9909 3397.534,-150.991 3401.0341,-140.991 3394.0341,-140.9909"/>
</g>
<!-- DelayTooltipDirective -->
<g id="node20" class="node">
<title>DelayTooltipDirective</title>
<polygon fill="#ffffb3" stroke="#000000" points="3361.2338,-122 3218.7662,-122 3218.7662,-86 3361.2338,-86 3361.2338,-122"/>
<text text-anchor="middle" x="3290" y="-99.8" font-family="Times,serif" font-size="14.00" fill="#000000">DelayTooltipDirective</text>
</g>
<!-- DelayTooltipDirective&#45;&gt;AppModule -->
<g id="edge20" class="edge">
<title>DelayTooltipDirective&#45;&gt;AppModule</title>
<path fill="none" stroke="#000000" d="M3346.7693,-122.1061C3346.7693,-122.1061 3346.7693,-140.991 3346.7693,-140.991"/>
<polygon fill="#000000" stroke="#000000" points="3343.2694,-140.9909 3346.7693,-150.991 3350.2694,-140.991 3343.2694,-140.9909"/>
</g>
<!-- DegreesPipe -->
<g id="node21" class="node">
<title>DegreesPipe</title>
<polygon fill="#ffffb3" stroke="#000000" points="3200.2438,-122 3113.7562,-122 3113.7562,-86 3200.2438,-86 3200.2438,-122"/>
<text text-anchor="middle" x="3157" y="-99.8" font-family="Times,serif" font-size="14.00" fill="#000000">DegreesPipe</text>
</g>
<!-- DegreesPipe&#45;&gt;AppModule -->
<g id="edge21" class="edge">
<title>DegreesPipe&#45;&gt;AppModule</title>
<path fill="none" stroke="#000000" d="M3157,-122.2458C3157,-136.1772 3157,-153 3157,-153 3157,-153 3322.1602,-153 3322.1602,-153"/>
<polygon fill="#000000" stroke="#000000" points="3322.1603,-156.5001 3332.1602,-153 3322.1602,-149.5001 3322.1603,-156.5001"/>
</g>
<!-- SexagesimalPipe -->
<g id="node22" class="node">
<title>SexagesimalPipe</title>
<polygon fill="#ffffb3" stroke="#000000" points="3095.6458,-122 2984.3542,-122 2984.3542,-86 3095.6458,-86 3095.6458,-122"/>
<text text-anchor="middle" x="3040" y="-99.8" font-family="Times,serif" font-size="14.00" fill="#000000">SexagesimalPipe</text>
</g>
<!-- SexagesimalPipe&#45;&gt;AppModule -->
<g id="edge22" class="edge">
<title>SexagesimalPipe&#45;&gt;AppModule</title>
<path fill="none" stroke="#000000" d="M3040,-122.1243C3040,-136.7832 3040,-155 3040,-155 3040,-155 3322.0369,-155 3322.0369,-155"/>
<polygon fill="#000000" stroke="#000000" points="3322.0369,-158.5001 3332.0369,-155 3322.0368,-151.5001 3322.0369,-158.5001"/>
</g>
<!-- ScienceGoalComponent -->
<g id="node23" class="node">
<title>ScienceGoalComponent</title>
<polygon fill="#ffffb3" stroke="#000000" points="2966.0758,-122 2813.9242,-122 2813.9242,-86 2966.0758,-86 2966.0758,-122"/>
<text text-anchor="middle" x="2890" y="-99.8" font-family="Times,serif" font-size="14.00" fill="#000000">ScienceGoalComponent</text>
</g>
<!-- ScienceGoalComponent&#45;&gt;AppModule -->
<g id="edge23" class="edge">
<title>ScienceGoalComponent&#45;&gt;AppModule</title>
<path fill="none" stroke="#000000" d="M2890,-122.2396C2890,-137.5706 2890,-157 2890,-157 2890,-157 3322.3155,-157 3322.3155,-157"/>
<polygon fill="#000000" stroke="#000000" points="3322.3156,-160.5001 3332.3155,-157 3322.3155,-153.5001 3322.3156,-160.5001"/>
</g>
<!-- GeneralComponent -->
<g id="node24" class="node">
<title>GeneralComponent</title>
<polygon fill="#ffffb3" stroke="#000000" points="2795.6345,-122 2670.3655,-122 2670.3655,-86 2795.6345,-86 2795.6345,-122"/>
<text text-anchor="middle" x="2733" y="-99.8" font-family="Times,serif" font-size="14.00" fill="#000000">GeneralComponent</text>
</g>
<!-- GeneralComponent&#45;&gt;AppModule -->
<g id="edge24" class="edge">
<title>GeneralComponent&#45;&gt;AppModule</title>
<path fill="none" stroke="#000000" d="M2733,-122.0091C2733,-138.0494 2733,-159 2733,-159 2733,-159 3321.9422,-159 3321.9422,-159"/>
<polygon fill="#000000" stroke="#000000" points="3321.9422,-162.5001 3331.9422,-159 3321.9422,-155.5001 3321.9422,-162.5001"/>
</g>
<!-- SpectralSetupComponent -->
<g id="node25" class="node">
<title>SpectralSetupComponent</title>
<polygon fill="#ffffb3" stroke="#000000" points="2652.5884,-122 2493.4116,-122 2493.4116,-86 2652.5884,-86 2652.5884,-122"/>
<text text-anchor="middle" x="2573" y="-99.8" font-family="Times,serif" font-size="14.00" fill="#000000">SpectralSetupComponent</text>
</g>
<!-- SpectralSetupComponent&#45;&gt;AppModule -->
<g id="edge25" class="edge">
<title>SpectralSetupComponent&#45;&gt;AppModule</title>
<path fill="none" stroke="#000000" d="M2573,-122.0352C2573,-138.7344 2573,-161 2573,-161 2573,-161 3322.3424,-161 3322.3424,-161"/>
<polygon fill="#000000" stroke="#000000" points="3322.3425,-164.5001 3332.3424,-161 3322.3424,-157.5001 3322.3425,-164.5001"/>
</g>
<!-- CalibrationSetupComponent -->
<g id="node26" class="node">
<title>CalibrationSetupComponent</title>
<polygon fill="#ffffb3" stroke="#000000" points="2475.2091,-122 2298.7909,-122 2298.7909,-86 2475.2091,-86 2475.2091,-122"/>
<text text-anchor="middle" x="2387" y="-99.8" font-family="Times,serif" font-size="14.00" fill="#000000">CalibrationSetupComponent</text>
</g>
<!-- CalibrationSetupComponent&#45;&gt;AppModule -->
<g id="edge26" class="edge">
<title>CalibrationSetupComponent&#45;&gt;AppModule</title>
<path fill="none" stroke="#000000" d="M2387,-122.0225C2387,-139.3734 2387,-163 2387,-163 2387,-163 3322.2203,-163 3322.2203,-163"/>
<polygon fill="#000000" stroke="#000000" points="3322.2203,-166.5001 3332.2203,-163 3322.2202,-159.5001 3322.2203,-166.5001"/>
</g>
<!-- ControlPerformanceComponent -->
<g id="node27" class="node">
<title>ControlPerformanceComponent</title>
<polygon fill="#ffffb3" stroke="#000000" points="2280.6246,-122 2085.3754,-122 2085.3754,-86 2280.6246,-86 2280.6246,-122"/>
<text text-anchor="middle" x="2183" y="-99.8" font-family="Times,serif" font-size="14.00" fill="#000000">ControlPerformanceComponent</text>
</g>
<!-- ControlPerformanceComponent&#45;&gt;AppModule -->
<g id="edge27" class="edge">
<title>ControlPerformanceComponent&#45;&gt;AppModule</title>
<path fill="none" stroke="#000000" d="M2183,-122.302C2183,-140.2699 2183,-165 2183,-165 2183,-165 3322.31,-165 3322.31,-165"/>
<polygon fill="#000000" stroke="#000000" points="3322.3101,-168.5001 3332.31,-165 3322.31,-161.5001 3322.3101,-168.5001"/>
</g>
<!-- TechnicalJustificationComponent -->
<g id="node28" class="node">
<title>TechnicalJustificationComponent</title>
<polygon fill="#ffffb3" stroke="#000000" points="2067.4566,-122 1862.5434,-122 1862.5434,-86 2067.4566,-86 2067.4566,-122"/>
<text text-anchor="middle" x="1965" y="-99.8" font-family="Times,serif" font-size="14.00" fill="#000000">TechnicalJustificationComponent</text>
</g>
<!-- TechnicalJustificationComponent&#45;&gt;AppModule -->
<g id="edge28" class="edge">
<title>TechnicalJustificationComponent&#45;&gt;AppModule</title>
<path fill="none" stroke="#000000" d="M1965,-122.2222C1965,-140.8285 1965,-167 1965,-167 1965,-167 3322.2137,-167 3322.2137,-167"/>
<polygon fill="#000000" stroke="#000000" points="3322.2137,-170.5001 3332.2137,-167 3322.2137,-163.5001 3322.2137,-170.5001"/>
</g>
<!-- VisualisationComponent -->
<g id="node29" class="node">
<title>VisualisationComponent</title>
<polygon fill="#ffffb3" stroke="#000000" points="1844.7105,-122 1689.2895,-122 1689.2895,-86 1844.7105,-86 1844.7105,-122"/>
<text text-anchor="middle" x="1767" y="-99.8" font-family="Times,serif" font-size="14.00" fill="#000000">VisualisationComponent</text>
</g>
<!-- VisualisationComponent&#45;&gt;AppModule -->
<g id="edge29" class="edge">
<title>VisualisationComponent&#45;&gt;AppModule</title>
<path fill="none" stroke="#000000" d="M1767,-122.1061C1767,-141.3391 1767,-169 1767,-169 1767,-169 3322.2529,-169 3322.2529,-169"/>
<polygon fill="#000000" stroke="#000000" points="3322.2529,-172.5001 3332.2529,-169 3322.2529,-165.5001 3322.2529,-172.5001"/>
</g>
<!-- TypeComponent -->
<g id="node30" class="node">
<title>TypeComponent</title>
<polygon fill="#ffffb3" stroke="#000000" points="1671.0996,-122 1560.9004,-122 1560.9004,-86 1671.0996,-86 1671.0996,-122"/>
<text text-anchor="middle" x="1616" y="-99.8" font-family="Times,serif" font-size="14.00" fill="#000000">TypeComponent</text>
</g>
<!-- TypeComponent&#45;&gt;AppModule -->
<g id="edge30" class="edge">
<title>TypeComponent&#45;&gt;AppModule</title>
<path fill="none" stroke="#000000" d="M1616,-122.0348C1616,-141.5762 1616,-170 1616,-170 1616,-170 3322.2775,-170 3322.2775,-170"/>
<polygon fill="#000000" stroke="#000000" points="3322.2776,-173.5001 3332.2775,-170 3322.2775,-166.5001 3322.2776,-173.5001"/>
</g>
<!-- SelectableComponent -->
<g id="node31" class="node">
<title>SelectableComponent</title>
<polygon fill="#ffffb3" stroke="#000000" points="1543.3599,-122 1404.6401,-122 1404.6401,-86 1543.3599,-86 1543.3599,-122"/>
<text text-anchor="middle" x="1474" y="-99.8" font-family="Times,serif" font-size="14.00" fill="#000000">SelectableComponent</text>
</g>
<!-- SelectableComponent&#45;&gt;AppModule -->
<g id="edge31" class="edge">
<title>SelectableComponent&#45;&gt;AppModule</title>
<path fill="none" stroke="#000000" d="M1474,-122.2228C1474,-142.3652 1474,-172 1474,-172 1474,-172 3322.1015,-172 3322.1015,-172"/>
<polygon fill="#000000" stroke="#000000" points="3322.1015,-175.5001 3332.1015,-172 3322.1014,-168.5001 3322.1015,-175.5001"/>
</g>
<!-- FccIndividualComponent -->
<g id="node32" class="node">
<title>FccIndividualComponent</title>
<polygon fill="#ffffb3" stroke="#000000" points="1386.5912,-122 1227.4088,-122 1227.4088,-86 1386.5912,-86 1386.5912,-122"/>
<text text-anchor="middle" x="1307" y="-99.8" font-family="Times,serif" font-size="14.00" fill="#000000">FccIndividualComponent</text>
</g>
<!-- FccIndividualComponent&#45;&gt;AppModule -->
<g id="edge32" class="edge">
<title>FccIndividualComponent&#45;&gt;AppModule</title>
<path fill="none" stroke="#000000" d="M1307,-122.0267C1307,-142.7672 1307,-174 1307,-174 1307,-174 3322.2438,-174 3322.2438,-174"/>
<polygon fill="#000000" stroke="#000000" points="3322.2438,-177.5001 3332.2438,-174 3322.2438,-170.5001 3322.2438,-177.5001"/>
</g>
<!-- FccRectangularComponent -->
<g id="node33" class="node">
<title>FccRectangularComponent</title>
<polygon fill="#ffffb3" stroke="#000000" points="1209.6811,-122 1040.3189,-122 1040.3189,-86 1209.6811,-86 1209.6811,-122"/>
<text text-anchor="middle" x="1125" y="-99.8" font-family="Times,serif" font-size="14.00" fill="#000000">FccRectangularComponent</text>
</g>
<!-- FccRectangularComponent&#45;&gt;AppModule -->
<g id="edge33" class="edge">
<title>FccRectangularComponent&#45;&gt;AppModule</title>
<path fill="none" stroke="#000000" d="M1125,-122.1686C1125,-143.498 1125,-176 1125,-176 1125,-176 3322.0684,-176 3322.0684,-176"/>
<polygon fill="#000000" stroke="#000000" points="3322.0684,-179.5001 3332.0684,-176 3322.0684,-172.5001 3322.0684,-179.5001"/>
</g>
<!-- SystemSelectorComponent -->
<g id="node34" class="node">
<title>SystemSelectorComponent</title>
<polygon fill="#ffffb3" stroke="#000000" points="1022.4241,-122 853.5759,-122 853.5759,-86 1022.4241,-86 1022.4241,-122"/>
<text text-anchor="middle" x="938" y="-99.8" font-family="Times,serif" font-size="14.00" fill="#000000">SystemSelectorComponent</text>
</g>
<!-- SystemSelectorComponent&#45;&gt;AppModule -->
<g id="edge34" class="edge">
<title>SystemSelectorComponent&#45;&gt;AppModule</title>
<path fill="none" stroke="#000000" d="M938,-122.2921C938,-144.2057 938,-178 938,-178 938,-178 3322.2312,-178 3322.2312,-178"/>
<polygon fill="#000000" stroke="#000000" points="3322.2312,-181.5001 3332.2312,-178 3322.2311,-174.5001 3322.2312,-181.5001"/>
</g>
<!-- AppComponent  -->
<g id="node37" class="node">
<title>AppComponent </title>
<polygon fill="#80b1d3" stroke="#000000" points="3428.439,-252 3319.561,-252 3319.561,-216 3428.439,-216 3428.439,-252"/>
<text text-anchor="middle" x="3374" y="-229.8" font-family="Times,serif" font-size="14.00" fill="#000000">AppComponent </text>
</g>
<!-- AppModule&#45;&gt;AppComponent  -->
<g id="edge36" class="edge">
<title>AppModule&#45;&gt;AppComponent </title>
<path fill="none" stroke="#000000" stroke-dasharray="1,5" d="M3374,-187.1061C3374,-187.1061 3374,-205.991 3374,-205.991"/>
<polygon fill="#000000" stroke="#000000" points="3370.5001,-205.9909 3374,-215.991 3377.5001,-205.991 3370.5001,-205.9909"/>
</g>
<!-- AppRoutingModule -->
<g id="node36" class="node">
<title>AppRoutingModule</title>
<polygon fill="#8dd3c7" stroke="#000000" points="830.2744,-122 827.2744,-126 806.2744,-126 803.2744,-122 701.7256,-122 701.7256,-86 830.2744,-86 830.2744,-122"/>
<text text-anchor="middle" x="766" y="-99.8" font-family="Times,serif" font-size="14.00" fill="#000000">AppRoutingModule</text>
</g>
<!-- AppRoutingModule&#45;&gt;AppModule -->
<g id="edge35" class="edge">
<title>AppRoutingModule&#45;&gt;AppModule</title>
<path fill="none" stroke="#000000" d="M766,-122.0109C766,-144.4852 766,-180 766,-180 766,-180 3322.2435,-180 3322.2435,-180"/>
<polygon fill="#000000" stroke="#000000" points="3322.2435,-183.5001 3332.2435,-180 3322.2435,-176.5001 3322.2435,-183.5001"/>
</g>
<!-- PrimaryInvestigatorService -->
<g id="node38" class="node">
<title>PrimaryInvestigatorService</title>
<ellipse fill="#fdb462" stroke="#000000" cx="561" cy="-104" rx="117.449" ry="18"/>
<text text-anchor="middle" x="561" y="-99.8" font-family="Times,serif" font-size="14.00" fill="#000000">PrimaryInvestigatorService</text>
</g>
<!-- PrimaryInvestigatorService&#45;&gt;AppModule -->
<g id="edge37" class="edge">
<title>PrimaryInvestigatorService&#45;&gt;AppModule</title>
<path fill="none" stroke="#000000" d="M561,-122.0908C561,-145.1328 561,-182 561,-182 561,-182 3322.3279,-182 3322.3279,-182"/>
<polygon fill="#000000" stroke="#000000" points="3322.3279,-185.5001 3332.3279,-182 3322.3279,-178.5001 3322.3279,-185.5001"/>
</g>
<!-- ScienceGoalPanelService -->
<g id="node39" class="node">
<title>ScienceGoalPanelService</title>
<ellipse fill="#fdb462" stroke="#000000" cx="316" cy="-104" rx="110.4871" ry="18"/>
<text text-anchor="middle" x="316" y="-99.8" font-family="Times,serif" font-size="14.00" fill="#000000">ScienceGoalPanelService</text>
</g>
<!-- ScienceGoalPanelService&#45;&gt;AppModule -->
<g id="edge38" class="edge">
<title>ScienceGoalPanelService&#45;&gt;AppModule</title>
<path fill="none" stroke="#000000" d="M316,-122.1532C316,-145.7566 316,-184 316,-184 316,-184 3322.2235,-184 3322.2235,-184"/>
<polygon fill="#000000" stroke="#000000" points="3322.2235,-187.5001 3332.2235,-184 3322.2234,-180.5001 3322.2235,-187.5001"/>
</g>
<!-- FieldSetupService -->
<g id="node40" class="node">
<title>FieldSetupService</title>
<ellipse fill="#fdb462" stroke="#000000" cx="106" cy="-104" rx="81.677" ry="18"/>
<text text-anchor="middle" x="106" y="-99.8" font-family="Times,serif" font-size="14.00" fill="#000000">FieldSetupService</text>
</g>
<!-- FieldSetupService&#45;&gt;AppModule -->
<g id="edge39" class="edge">
<title>FieldSetupService&#45;&gt;AppModule</title>
<path fill="none" stroke="#000000" d="M106,-122.1985C106,-146.3563 106,-186 106,-186 106,-186 3322.0848,-186 3322.0848,-186"/>
<polygon fill="#000000" stroke="#000000" points="3322.0848,-189.5001 3332.0848,-186 3322.0848,-182.5001 3322.0848,-189.5001"/>
</g>
<!-- Longitude -->
<g id="node41" class="node">
<title>Longitude</title>
<polygon fill="#ffffb3" stroke="#000000" points="6851.5498,-122 6778.4502,-122 6778.4502,-86 6851.5498,-86 6851.5498,-122"/>
<text text-anchor="middle" x="6815" y="-99.8" font-family="Times,serif" font-size="14.00" fill="#000000">Longitude</text>
</g>
<!-- UnitsModule -->
<g id="node43" class="node">
<title>UnitsModule</title>
<polygon fill="#8dd3c7" stroke="#000000" points="6785.8823,-187 6782.8823,-191 6761.8823,-191 6758.8823,-187 6696.1177,-187 6696.1177,-151 6785.8823,-151 6785.8823,-187"/>
<text text-anchor="middle" x="6741" y="-164.8" font-family="Times,serif" font-size="14.00" fill="#000000">UnitsModule</text>
</g>
<!-- Longitude&#45;&gt;UnitsModule -->
<g id="edge40" class="edge">
<title>Longitude&#45;&gt;UnitsModule</title>
<path fill="none" stroke="#000000" d="M6782.0835,-122.1061C6782.0835,-122.1061 6782.0835,-140.991 6782.0835,-140.991"/>
<polygon fill="#000000" stroke="#000000" points="6778.5835,-140.9909 6782.0835,-150.991 6785.5835,-140.991 6778.5835,-140.9909"/>
</g>
<!-- LongitudeConversionService -->
<g id="node42" class="node">
<title>LongitudeConversionService</title>
<polygon fill="#ffffb3" stroke="#000000" points="6760.073,-122 6579.927,-122 6579.927,-86 6760.073,-86 6760.073,-122"/>
<text text-anchor="middle" x="6670" y="-99.8" font-family="Times,serif" font-size="14.00" fill="#000000">LongitudeConversionService</text>
</g>
<!-- LongitudeConversionService&#45;&gt;UnitsModule -->
<g id="edge41" class="edge">
<title>LongitudeConversionService&#45;&gt;UnitsModule</title>
<path fill="none" stroke="#000000" d="M6728.0477,-122.1061C6728.0477,-122.1061 6728.0477,-140.991 6728.0477,-140.991"/>
<polygon fill="#000000" stroke="#000000" points="6724.5478,-140.9909 6728.0477,-150.991 6731.5478,-140.991 6724.5478,-140.9909"/>
</g>
<!-- Longitude  -->
<g id="node44" class="node">
<title>Longitude </title>
<polygon fill="#fb8072" stroke="#000000" points="6779.5484,-252 6702.4516,-252 6702.4516,-216 6779.5484,-216 6779.5484,-252"/>
<text text-anchor="middle" x="6741" y="-229.8" font-family="Times,serif" font-size="14.00" fill="#000000">Longitude </text>
</g>
<!-- UnitsModule&#45;&gt;Longitude  -->
<g id="edge42" class="edge">
<title>UnitsModule&#45;&gt;Longitude </title>
<path fill="none" stroke="#000000" stroke-dasharray="5,2" d="M6741,-187.1061C6741,-187.1061 6741,-205.991 6741,-205.991"/>
<polygon fill="#000000" stroke="#000000" points="6737.5001,-205.9909 6741,-215.991 6744.5001,-205.991 6737.5001,-205.9909"/>
</g>
</g>
</svg>
